<?xml version="1.0" encoding="UTF-8" standalone="no"?>
<!-- Created with Inkscape (http://www.inkscape.org/) -->

<svg
   width="80.558205mm"
   height="65.804451mm"
   viewBox="0 0 80.558205 65.804451"
   version="1.1"
   id="svg1"
   xml:space="preserve"
   xmlns="http://www.w3.org/2000/svg"
   xmlns:svg="http://www.w3.org/2000/svg"><defs
     id="defs1"><linearGradient
       id="swatch2"><stop
         style="stop-color:#000000;stop-opacity:1;"
         offset="0"
         id="stop2" /></linearGradient></defs><g
     id="layer1"
     transform="translate(-120.12082,-601.13329)"><rect
       style="fill:#ffffff;fill-opacity:1;stroke:none;stroke-width:0.833859;stroke-linecap:round;stroke-linejoin:round;stroke-dasharray:0.833859, 1.66772;stroke-dashoffset:0;stroke-opacity:1;paint-order:markers stroke fill"
       id="rect40-9"
       width="80.558205"
       height="65.80442"
       x="120.12083"
       y="601.1333" /><path
       style="opacity:0.0878642;fill:none;stroke:#ff0023;stroke-width:1.65;stroke-linecap:round;stroke-linejoin:round;stroke-dasharray:none;stroke-opacity:1;paint-order:markers stroke fill"
       d="M 147.73781,647.12883 H 167.8071"
       id="path7-9-3-1" /><path
       style="opacity:0.0878642;fill:none;stroke:#ff0023;stroke-width:1.65;stroke-linecap:round;stroke-linejoin:round;stroke-dasharray:none;stroke-opacity:1;paint-order:markers stroke fill"
       d="m 133.12041,654.85537 v 1.7598 h 35.81104"
       id="path8-1-1-4" /><path
       style="opacity:0.0878642;fill:none;stroke:#ff0023;stroke-width:1.65;stroke-linecap:round;stroke-linejoin:round;stroke-dasharray:none;stroke-opacity:1;paint-order:markers stroke fill"
       d="m 139.22765,642.20106 v -6.72267 h 19.67025 v 3.48577"
       id="path6-2-7-9" /><path
       style="opacity:0.0878642;fill:none;stroke:#ff0023;stroke-width:1.65;stroke-linecap:round;stroke-linejoin:round;stroke-dasharray:none;stroke-opacity:1;paint-order:markers stroke fill"
       d="m 141.18845,641.28286 v -4.88627 h 15.68591 v 1.80387"
       id="path6-7-7-5-1" /><path
       id="rect5-26-1-0"
       style="opacity:0.0878642;fill:none;stroke:#000000;stroke-width:1.46268;stroke-linecap:round;paint-order:markers stroke fill"
       d="m 123.05495,603.20097 h 73.76969 v 55.32 h -73.76969 z" /><path
       id="path5-6-0-7"
       style="opacity:0.0878642;fill:none;stroke:#000000;stroke-width:1.65;stroke-linecap:round;paint-order:markers stroke fill"
       d="m 170.62492,641.68746 a 15.182608,15.182608 0 0 1 20.98758,-4.52477 15.182608,15.182608 0 0 1 4.52799,20.98678 15.182608,15.182608 0 0 1 -20.98618,4.53117 15.182608,15.182608 0 0 1 -4.53449,-20.98528" /><path
       id="rect6-4-8-5"
       style="fill:none;stroke:#000000;stroke-width:1.65;stroke-linecap:round;stroke-linejoin:round;paint-order:markers stroke fill"
       d="m 184.11415,605.85147 h 6.36009 c 1.65529,0 2.98789,1.33257 2.98789,2.98787 v 6.36007 c 0,1.6553 -1.3326,2.98787 -2.98789,2.98787 h -6.36009 c -1.65529,0 -2.98789,-1.33257 -2.98789,-2.98787 v -6.36007 c 0,-1.6553 1.3326,-2.98787 2.98789,-2.98787 z" /><path
       id="rect6-6-9-5-8"
       style="opacity:0.0878642;fill:none;stroke:#000000;stroke-width:1.65;stroke-linecap:round;stroke-linejoin:round;paint-order:markers stroke fill"
       d="m 127.12322,642.12036 h 19.93008 v 12.46021 h -19.93008 z" /><path
       id="rect6-6-5-5-0-7"
       style="opacity:0.0878642;fill:none;stroke:#000000;stroke-width:1.65;stroke-linecap:round;stroke-linejoin:round;paint-order:markers stroke fill"
       d="m 149.34475,639.21116 h 17.19118 v 5.61307 h -17.19118 z" /><path
       id="rect6-3-04-6-0"
       style="fill:none;stroke:#000000;stroke-width:1.65;stroke-linecap:round;stroke-linejoin:round;paint-order:markers stroke fill"
       d="m 184.11415,620.63098 h 6.36009 c 1.65529,0 2.98789,1.3326 2.98789,2.98787 v 6.36007 c 0,1.6553 -1.3326,2.98787 -2.98789,2.98787 h -6.36009 c -1.65529,0 -2.98789,-1.33257 -2.98789,-2.98787 v -6.36007 c 0,-1.65527 1.3326,-2.98787 2.98789,-2.98787 z" /><path
       id="rect6-7-8-4-4"
       style="fill:none;stroke:#000000;stroke-width:1.65;stroke-linecap:round;stroke-linejoin:round;paint-order:markers stroke fill"
       d="m 166.15953,605.85147 h 6.36009 c 1.65529,0 2.98789,1.33257 2.98789,2.98787 v 6.36007 c 0,1.6553 -1.3326,2.98787 -2.98789,2.98787 h -6.36009 c -1.65529,0 -2.98789,-1.33257 -2.98789,-2.98787 v -6.36007 c 0,-1.6553 1.3326,-2.98787 2.98789,-2.98787 z" /><path
       id="rect6-3-9-7-6-8"
       style="fill:none;stroke:#000000;stroke-width:1.65;stroke-linecap:round;stroke-linejoin:round;paint-order:markers stroke fill"
       d="m 166.03503,620.63098 h 6.60909 c 1.58632,0 2.86339,1.2771 2.86339,2.86337 v 6.60907 c 0,1.5863 -1.27707,2.86337 -2.86339,2.86337 h -6.60909 c -1.58632,0 -2.86339,-1.27707 -2.86339,-2.86337 v -6.60907 c 0,-1.58627 1.27707,-2.86337 2.86339,-2.86337 z" /><path
       id="rect6-78-1-2-0"
       style="fill:none;stroke:#000000;stroke-width:1.65;stroke-linecap:round;stroke-linejoin:round;paint-order:markers stroke fill"
       d="m 148.08043,605.85147 h 6.60908 c 1.58632,0 2.86339,1.27707 2.86339,2.86337 v 6.60907 c 0,1.58627 -1.27707,2.86337 -2.86339,2.86337 h -6.60908 c -1.58632,0 -2.86339,-1.2771 -2.86339,-2.86337 v -6.60907 c 0,-1.5863 1.27707,-2.86337 2.86339,-2.86337 z" /><path
       id="rect6-3-0-7-5-4"
       style="fill:none;stroke:#000000;stroke-width:1.65;stroke-linecap:round;stroke-linejoin:round;paint-order:markers stroke fill"
       d="m 148.08043,620.63098 h 6.60908 c 1.58632,0 2.86339,1.2771 2.86339,2.86337 v 6.60907 c 0,1.5863 -1.27707,2.86337 -2.86339,2.86337 h -6.60908 c -1.58632,0 -2.86339,-1.27707 -2.86339,-2.86337 v -6.60907 c 0,-1.58627 1.27707,-2.86337 2.86339,-2.86337 z" /><path
       id="rect6-32-2-8-2"
       style="fill:none;stroke:#000000;stroke-width:1.65;stroke-linecap:round;stroke-linejoin:round;paint-order:markers stroke fill"
       d="m 129.50333,605.85147 h 7.85404 c 1.24147,0 2.24091,0.99947 2.24091,2.24087 v 7.85407 c 0,1.24137 -0.99944,2.24087 -2.24091,2.24087 h -7.85404 c -1.24146,0 -2.24091,-0.9995 -2.24091,-2.24087 v -7.85407 c 0,-1.2414 0.99945,-2.24087 2.24091,-2.24087 z" /><path
       id="rect6-3-7-7-6-9"
       style="fill:none;stroke:#000000;stroke-width:1.65;stroke-linecap:round;stroke-linejoin:round;paint-order:markers stroke fill"
       d="m 129.50333,620.63098 h 7.85404 c 1.24147,0 2.24091,0.9995 2.24091,2.24097 v 7.85397 c 0,1.2415 -0.99944,2.24087 -2.24091,2.24087 h -7.85404 c -1.24146,0 -2.24091,-0.99937 -2.24091,-2.24087 v -7.85397 c 0,-1.24147 0.99945,-2.24097 2.24091,-2.24097 z" /><path
       style="opacity:0.0878642;fill:none;stroke:#000000;stroke-width:1.65;stroke-linecap:round;stroke-linejoin:round;stroke-dasharray:none;stroke-opacity:1;paint-order:markers stroke fill"
       d="M 147.41625,649.4925 H 168.1345"
       id="path9-0-6-6" /><path
       style="opacity:0.0878642;fill:none;stroke:#000000;stroke-width:1.65;stroke-linecap:round;stroke-linejoin:round;stroke-dasharray:none;stroke-opacity:1;paint-order:markers stroke fill"
       d="m 147.14383,651.8835 h 20.71825"
       id="path9-7-9-2-1" /><text
       xml:space="preserve"
       style="font-size:8.46667px;line-height:1;font-family:'Noto Sans Arabic UI';-inkscape-font-specification:'Noto Sans Arabic UI';letter-spacing:0px;writing-mode:lr-tb;direction:ltr;fill:#000000;stroke:#000000;stroke-width:1.65;stroke-linecap:round;stroke-linejoin:round;paint-order:markers stroke fill"
       x="185.05971"
       y="629.59576"
       id="text8-04"><tspan
         id="tspan1-2"
         style="font-style:normal;font-variant:normal;font-weight:normal;font-stretch:normal;font-size:8.46667px;font-family:'Liberation Serif';-inkscape-font-specification:'Liberation Serif';opacity:1;fill:#000000;fill-opacity:1;stroke:none;stroke-width:1.65"
         x="185.05971"
         y="629.59576">8</tspan></text><text
       xml:space="preserve"
       style="font-size:8.46667px;line-height:1;font-family:'Noto Sans Arabic UI';-inkscape-font-specification:'Noto Sans Arabic UI';letter-spacing:0px;writing-mode:lr-tb;direction:ltr;fill:#000000;stroke:#000000;stroke-width:1.65;stroke-linecap:round;stroke-linejoin:round;paint-order:markers stroke fill"
       x="185.22508"
       y="614.82428"
       id="text8-9-2"><tspan
         id="tspan1-3-2"
         style="font-style:normal;font-variant:normal;font-weight:normal;font-stretch:normal;font-size:8.46667px;font-family:'Liberation Serif';-inkscape-font-specification:'Liberation Serif';opacity:1;fill:#000000;fill-opacity:1;stroke:none;stroke-width:1.65"
         x="185.22508"
         y="614.82428">7</tspan></text><text
       xml:space="preserve"
       style="font-size:8.46667px;line-height:1;font-family:'Noto Sans Arabic UI';-inkscape-font-specification:'Noto Sans Arabic UI';letter-spacing:0px;writing-mode:lr-tb;direction:ltr;fill:#000000;stroke:#000000;stroke-width:1.65;stroke-linecap:round;stroke-linejoin:round;paint-order:markers stroke fill"
       x="167.10509"
       y="629.59576"
       id="text8-5-0"><tspan
         id="tspan1-0-5"
         style="font-style:normal;font-variant:normal;font-weight:normal;font-stretch:normal;font-size:8.46667px;font-family:'Liberation Serif';-inkscape-font-specification:'Liberation Serif';opacity:1;fill:#000000;fill-opacity:1;stroke:none;stroke-width:1.65"
         x="167.10509"
         y="629.59576">6</tspan></text><text
       xml:space="preserve"
       style="font-size:8.46667px;line-height:1;font-family:'Noto Sans Arabic UI';-inkscape-font-specification:'Noto Sans Arabic UI';letter-spacing:0px;writing-mode:lr-tb;direction:ltr;fill:#000000;stroke:#000000;stroke-width:1.65;stroke-linecap:round;stroke-linejoin:round;paint-order:markers stroke fill"
       x="167.27046"
       y="614.82428"
       id="text8-9-9-5"><tspan
         id="tspan1-3-6-2"
         style="font-style:normal;font-variant:normal;font-weight:normal;font-stretch:normal;font-size:8.46667px;font-family:'Liberation Serif';-inkscape-font-specification:'Liberation Serif';opacity:1;fill:#000000;fill-opacity:1;stroke:none;stroke-width:1.65"
         x="167.27046"
         y="614.82428">5</tspan></text><text
       xml:space="preserve"
       style="font-size:8.46667px;line-height:1;font-family:'Noto Sans Arabic UI';-inkscape-font-specification:'Noto Sans Arabic UI';letter-spacing:0px;writing-mode:lr-tb;direction:ltr;fill:#000000;stroke:#000000;stroke-width:1.65;stroke-linecap:round;stroke-linejoin:round;paint-order:markers stroke fill"
       x="149.15047"
       y="629.59576"
       id="text8-1-9"><tspan
         id="tspan1-1-0"
         style="font-style:normal;font-variant:normal;font-weight:normal;font-stretch:normal;font-size:8.46667px;font-family:'Liberation Serif';-inkscape-font-specification:'Liberation Serif';opacity:1;fill:#000000;fill-opacity:1;stroke:none;stroke-width:1.65"
         x="149.15047"
         y="629.59576">4</tspan></text><text
       xml:space="preserve"
       style="font-size:8.46667px;line-height:1;font-family:'Noto Sans Arabic UI';-inkscape-font-specification:'Noto Sans Arabic UI';letter-spacing:0px;writing-mode:lr-tb;direction:ltr;fill:#000000;stroke:#000000;stroke-width:1.65;stroke-linecap:round;stroke-linejoin:round;paint-order:markers stroke fill"
       x="149.31584"
       y="614.82428"
       id="text8-9-5-2"><tspan
         id="tspan1-3-9-8"
         style="font-style:normal;font-variant:normal;font-weight:normal;font-stretch:normal;font-size:8.46667px;font-family:'Liberation Serif';-inkscape-font-specification:'Liberation Serif';opacity:1;fill:#000000;fill-opacity:1;stroke:none;stroke-width:1.65"
         x="149.31584"
         y="614.82428">3</tspan></text><text
       xml:space="preserve"
       style="font-size:8.46667px;line-height:1;font-family:'Noto Sans Arabic UI';-inkscape-font-specification:'Noto Sans Arabic UI';letter-spacing:0px;writing-mode:lr-tb;direction:ltr;fill:#000000;stroke:#000000;stroke-width:1.65;stroke-linecap:round;stroke-linejoin:round;paint-order:markers stroke fill"
       x="131.19585"
       y="629.59576"
       id="text8-0-38"><tspan
         id="tspan1-30-0"
         style="font-style:normal;font-variant:normal;font-weight:normal;font-stretch:normal;font-size:8.46667px;font-family:'Liberation Serif';-inkscape-font-specification:'Liberation Serif';opacity:1;fill:#000000;fill-opacity:1;stroke:none;stroke-width:1.65"
         x="131.19585"
         y="629.59576">2</tspan></text><text
       xml:space="preserve"
       style="font-size:8.46667px;line-height:1;font-family:'Noto Sans Arabic UI';-inkscape-font-specification:'Noto Sans Arabic UI';letter-spacing:0px;writing-mode:lr-tb;direction:ltr;fill:#000000;stroke:#000000;stroke-width:1.65;stroke-linecap:round;stroke-linejoin:round;paint-order:markers stroke fill"
       x="131.36122"
       y="614.82428"
       id="text8-9-4-4"><tspan
         id="tspan1-3-4-9"
         style="font-style:normal;font-variant:normal;font-weight:normal;font-stretch:normal;font-size:8.46667px;font-family:'Liberation Serif';-inkscape-font-specification:'Liberation Serif';opacity:1;fill:#000000;fill-opacity:1;stroke:none;stroke-width:1.65"
         x="131.36122"
         y="614.82428">1</tspan></text></g></svg>
