%TF.GenerationSoftware,KiCad,Pcbnew,9.0.7*%
%TF.CreationDate,2026-02-09T02:17:25+09:00*%
%TF.ProjectId,LEFT_Parade,4c454654-5f50-4617-9261-64652e6b6963,rev?*%
%TF.SameCoordinates,Original*%
%TF.FileFunction,Copper,L1,Top*%
%TF.FilePolarity,Positive*%
%FSLAX46Y46*%
G04 Gerber Fmt 4.6, Leading zero omitted, Abs format (unit mm)*
G04 Created by KiCad (PCBNEW 9.0.7) date 2026-02-09 02:17:25*
%MOMM*%
%LPD*%
G01*
G04 APERTURE LIST*
G04 Aperture macros list*
%AMRoundRect*
0 Rectangle with rounded corners*
0 $1 Rounding radius*
0 $2 $3 $4 $5 $6 $7 $8 $9 X,Y pos of 4 corners*
0 Add a 4 corners polygon primitive as box body*
4,1,4,$2,$3,$4,$5,$6,$7,$8,$9,$2,$3,0*
0 Add four circle primitives for the rounded corners*
1,1,$1+$1,$2,$3*
1,1,$1+$1,$4,$5*
1,1,$1+$1,$6,$7*
1,1,$1+$1,$8,$9*
0 Add four rect primitives between the rounded corners*
20,1,$1+$1,$2,$3,$4,$5,0*
20,1,$1+$1,$4,$5,$6,$7,0*
20,1,$1+$1,$6,$7,$8,$9,0*
20,1,$1+$1,$8,$9,$2,$3,0*%
G04 Aperture macros list end*
%TA.AperFunction,ComponentPad*%
%ADD10RoundRect,0.250000X-0.650000X0.650000X-0.650000X-0.650000X0.650000X-0.650000X0.650000X0.650000X0*%
%TD*%
%TA.AperFunction,ComponentPad*%
%ADD11C,1.800000*%
%TD*%
%TA.AperFunction,ComponentPad*%
%ADD12C,2.200000*%
%TD*%
%TA.AperFunction,ComponentPad*%
%ADD13C,1.600000*%
%TD*%
%TA.AperFunction,ComponentPad*%
%ADD14R,1.600000X1.600000*%
%TD*%
%TA.AperFunction,ComponentPad*%
%ADD15O,1.600000X1.600000*%
%TD*%
%TA.AperFunction,ComponentPad*%
%ADD16O,1.500000X2.500000*%
%TD*%
%TA.AperFunction,ComponentPad*%
%ADD17R,1.800000X1.800000*%
%TD*%
%TA.AperFunction,ComponentPad*%
%ADD18RoundRect,0.250000X0.550000X-0.550000X0.550000X0.550000X-0.550000X0.550000X-0.550000X-0.550000X0*%
%TD*%
%TA.AperFunction,ComponentPad*%
%ADD19R,2.000000X2.000000*%
%TD*%
%TA.AperFunction,ComponentPad*%
%ADD20C,2.000000*%
%TD*%
%TA.AperFunction,ComponentPad*%
%ADD21R,3.000000X2.500000*%
%TD*%
%TA.AperFunction,ViaPad*%
%ADD22C,0.600000*%
%TD*%
%TA.AperFunction,Conductor*%
%ADD23C,0.200000*%
%TD*%
G04 APERTURE END LIST*
D10*
%TO.P,D5,1,K*%
%TO.N,Net-(D5-K)*%
X43500000Y-62880000D03*
D11*
%TO.P,D5,2,A*%
%TO.N,Net-(D5-A)*%
X43500000Y-70500000D03*
%TD*%
D12*
%TO.P,SW10,1,1*%
%TO.N,Net-(U2B-~{Q3})*%
X115540000Y-48580000D03*
%TO.P,SW10,2,2*%
%TO.N,Net-(D1-K)*%
X109190000Y-46040000D03*
%TD*%
D13*
%TO.P,R1,1*%
%TO.N,Net-(U1-3V3)*%
X81340000Y-92000000D03*
%TO.P,R1,2*%
%TO.N,Net-(D10-A)*%
X91500000Y-92000000D03*
%TD*%
D12*
%TO.P,SW9,1,1*%
%TO.N,Net-(U2B-~{Q0})*%
X115540000Y-58420000D03*
%TO.P,SW9,2,2*%
%TO.N,Net-(D8-K)*%
X109190000Y-60960000D03*
%TD*%
%TO.P,SW11,1,1*%
%TO.N,Net-(U2B-~{Q2})*%
X95540000Y-48580000D03*
%TO.P,SW11,2,2*%
%TO.N,Net-(D2-K)*%
X89190000Y-46040000D03*
%TD*%
D14*
%TO.P,U1,1,PA02_A0_D0*%
%TO.N,unconnected-(U1-PA02_A0_D0-Pad1)*%
X45300000Y-91240000D03*
D15*
%TO.P,U1,2,PA4_A1_D1*%
%TO.N,Net-(U1-PA4_A1_D1)*%
X47840000Y-91240000D03*
%TO.P,U1,3,PA10_A2_D2*%
%TO.N,Net-(U1-PA10_A2_D2)*%
X50380000Y-91240000D03*
%TO.P,U1,4,PA11_A3_D3*%
%TO.N,Net-(U1-PA11_A3_D3)*%
X52920000Y-91240000D03*
%TO.P,U1,5,PA8_A4_D4_SDA*%
%TO.N,Net-(U1-PA8_A4_D4_SDA)*%
X55460000Y-91240000D03*
%TO.P,U1,6,PA9_A5_D5_SCL*%
%TO.N,Net-(U1-PA9_A5_D5_SCL)*%
X58000000Y-91240000D03*
%TO.P,U1,7,PB08_A6_D6_TX*%
%TO.N,unconnected-(U1-PB08_A6_D6_TX-Pad7)*%
X60540000Y-91240000D03*
%TO.P,U1,8,PB09_A7_D7_RX*%
%TO.N,Net-(D5-A)*%
X60540000Y-76000000D03*
%TO.P,U1,9,PA7_A8_D8_SCK*%
%TO.N,Net-(D1-A)*%
X58000000Y-76000000D03*
%TO.P,U1,10,PA5_A9_D9_MISO*%
%TO.N,Net-(U1-PA5_A9_D9_MISO)*%
X55460000Y-76000000D03*
%TO.P,U1,11,PA6_A10_D10_MOSI*%
%TO.N,Net-(U1-PA6_A10_D10_MOSI)*%
X52920000Y-76000000D03*
%TO.P,U1,12,3V3*%
%TO.N,Net-(U1-3V3)*%
X50380000Y-76000000D03*
%TO.P,U1,13,GND*%
%TO.N,Net-(U2A-GND)*%
X47840000Y-76000000D03*
%TO.P,U1,14,5V*%
%TO.N,unconnected-(U1-5V-Pad14)*%
X45300000Y-76000000D03*
D16*
%TO.P,U1,B+*%
%TO.N,N/C*%
X52500000Y-88180000D03*
%TO.P,U1,B-*%
X50600000Y-88169000D03*
%TD*%
D10*
%TO.P,D3,1,K*%
%TO.N,Net-(D3-K)*%
X83500000Y-41880000D03*
D11*
%TO.P,D3,2,A*%
%TO.N,Net-(D1-A)*%
X83500000Y-49500000D03*
%TD*%
D12*
%TO.P,SW17,1,1*%
%TO.N,Net-(U2B-~{Q0})*%
X55540000Y-68580000D03*
%TO.P,SW17,2,2*%
%TO.N,Net-(D8-K)*%
X49190000Y-66040000D03*
%TD*%
D13*
%TO.P,C2,1*%
%TO.N,Net-(U1-PA8_A4_D4_SDA)*%
X100250000Y-76500000D03*
%TO.P,C2,2*%
%TO.N,Net-(U2A-GND)*%
X107750000Y-76500000D03*
%TD*%
D17*
%TO.P,D9,1,K*%
%TO.N,Net-(D9-K)*%
X62730000Y-95000000D03*
D11*
%TO.P,D9,2,A*%
%TO.N,Net-(D10-A)*%
X65270000Y-95000000D03*
%TD*%
D12*
%TO.P,SW4,1,1*%
%TO.N,Net-(U2B-~{Q1})*%
X95540000Y-38420000D03*
%TO.P,SW4,2,2*%
%TO.N,Net-(D3-K)*%
X89190000Y-40960000D03*
%TD*%
%TO.P,SW6,1,1*%
%TO.N,Net-(U2B-~{Q3})*%
X55540000Y-58420000D03*
%TO.P,SW6,2,2*%
%TO.N,Net-(D5-K)*%
X49190000Y-60960000D03*
%TD*%
%TO.P,SW14,1,1*%
%TO.N,Net-(U2B-~{Q3})*%
X115540000Y-68580000D03*
%TO.P,SW14,2,2*%
%TO.N,Net-(D5-K)*%
X109190000Y-66040000D03*
%TD*%
D18*
%TO.P,U2,1,~{EN}*%
%TO.N,Net-(U2A-GND)*%
X64340000Y-83620000D03*
D13*
%TO.P,U2,2,A*%
%TO.N,Net-(U1-PA9_A5_D5_SCL)*%
X66880000Y-83620000D03*
%TO.P,U2,3,B*%
%TO.N,Net-(U1-PA4_A1_D1)*%
X69420000Y-83620000D03*
%TO.P,U2,4,~{Q0}*%
%TO.N,Net-(D11-K)*%
X71960000Y-83620000D03*
%TO.P,U2,5,~{Q1}*%
%TO.N,Net-(D10-K)*%
X74500000Y-83620000D03*
%TO.P,U2,6,~{Q2}*%
%TO.N,Net-(D9-K)*%
X77040000Y-83620000D03*
%TO.P,U2,7,~{Q3}*%
%TO.N,unconnected-(U2A-~{Q3}-Pad7)*%
X79580000Y-83620000D03*
%TO.P,U2,8,GND*%
%TO.N,Net-(U2A-GND)*%
X82120000Y-83620000D03*
%TO.P,U2,9,~{Q3}*%
%TO.N,Net-(U2B-~{Q3})*%
X82120000Y-76000000D03*
%TO.P,U2,10,~{Q2}*%
%TO.N,Net-(U2B-~{Q2})*%
X79580000Y-76000000D03*
%TO.P,U2,11,~{Q1}*%
%TO.N,Net-(U2B-~{Q1})*%
X77040000Y-76000000D03*
%TO.P,U2,12,~{Q0}*%
%TO.N,Net-(U2B-~{Q0})*%
X74500000Y-76000000D03*
%TO.P,U2,13,B*%
%TO.N,Net-(U1-PA6_A10_D10_MOSI)*%
X71960000Y-76000000D03*
%TO.P,U2,14,A*%
%TO.N,Net-(U1-PA5_A9_D9_MISO)*%
X69420000Y-76000000D03*
%TO.P,U2,15,~{EN}*%
%TO.N,Net-(U2A-GND)*%
X66880000Y-76000000D03*
%TO.P,U2,16,VCC*%
%TO.N,Net-(U1-3V3)*%
X64340000Y-76000000D03*
%TD*%
D12*
%TO.P,SW12,1,1*%
%TO.N,Net-(U2B-~{Q1})*%
X75540000Y-48580000D03*
%TO.P,SW12,2,2*%
%TO.N,Net-(D3-K)*%
X69190000Y-46040000D03*
%TD*%
%TO.P,SW15,1,1*%
%TO.N,Net-(U2B-~{Q2})*%
X95540000Y-68580000D03*
%TO.P,SW15,2,2*%
%TO.N,Net-(D6-K)*%
X89190000Y-66040000D03*
%TD*%
D10*
%TO.P,D8,1,K*%
%TO.N,Net-(D8-K)*%
X103500000Y-62690000D03*
D11*
%TO.P,D8,2,A*%
%TO.N,Net-(D5-A)*%
X103500000Y-70310000D03*
%TD*%
D17*
%TO.P,D11,1,K*%
%TO.N,Net-(D11-K)*%
X75000000Y-95000000D03*
D11*
%TO.P,D11,2,A*%
%TO.N,Net-(D10-A)*%
X77540000Y-95000000D03*
%TD*%
D10*
%TO.P,D4,1,K*%
%TO.N,Net-(D4-K)*%
X63500000Y-42000000D03*
D11*
%TO.P,D4,2,A*%
%TO.N,Net-(D1-A)*%
X63500000Y-49620000D03*
%TD*%
D10*
%TO.P,D1,1,K*%
%TO.N,Net-(D1-K)*%
X123500000Y-42000000D03*
D11*
%TO.P,D1,2,A*%
%TO.N,Net-(D1-A)*%
X123500000Y-49620000D03*
%TD*%
D12*
%TO.P,SW7,1,1*%
%TO.N,Net-(U2B-~{Q2})*%
X75540000Y-58420000D03*
%TO.P,SW7,2,2*%
%TO.N,Net-(D6-K)*%
X69190000Y-60960000D03*
%TD*%
%TO.P,SW2,1,1*%
%TO.N,Net-(U2B-~{Q3})*%
X55540000Y-38420000D03*
%TO.P,SW2,2,2*%
%TO.N,Net-(D1-K)*%
X49190000Y-40960000D03*
%TD*%
D13*
%TO.P,C1,1*%
%TO.N,Net-(U2A-GND)*%
X88500000Y-83000000D03*
%TO.P,C1,2*%
%TO.N,Net-(U1-PA11_A3_D3)*%
X96000000Y-83000000D03*
%TD*%
D10*
%TO.P,D7,1,K*%
%TO.N,Net-(D7-K)*%
X83500000Y-62690000D03*
D11*
%TO.P,D7,2,A*%
%TO.N,Net-(D5-A)*%
X83500000Y-70310000D03*
%TD*%
D10*
%TO.P,D6,1,K*%
%TO.N,Net-(D6-K)*%
X63500000Y-62690000D03*
D11*
%TO.P,D6,2,A*%
%TO.N,Net-(D5-A)*%
X63500000Y-70310000D03*
%TD*%
D10*
%TO.P,D2,1,K*%
%TO.N,Net-(D2-K)*%
X103500000Y-41690000D03*
D11*
%TO.P,D2,2,A*%
%TO.N,Net-(D1-A)*%
X103500000Y-49310000D03*
%TD*%
D12*
%TO.P,SW3,1,1*%
%TO.N,Net-(U2B-~{Q2})*%
X75540000Y-38420000D03*
%TO.P,SW3,2,2*%
%TO.N,Net-(D2-K)*%
X69190000Y-40960000D03*
%TD*%
D17*
%TO.P,D10,1,K*%
%TO.N,Net-(D10-K)*%
X68730000Y-95000000D03*
D11*
%TO.P,D10,2,A*%
%TO.N,Net-(D10-A)*%
X71270000Y-95000000D03*
%TD*%
D19*
%TO.P,SW1,A,A*%
%TO.N,Net-(U1-PA8_A4_D4_SDA)*%
X106500000Y-94000000D03*
D20*
%TO.P,SW1,B,B*%
%TO.N,Net-(U1-PA11_A3_D3)*%
X106500000Y-99000000D03*
%TO.P,SW1,C,C*%
%TO.N,Net-(U2A-GND)*%
X106500000Y-96500000D03*
D21*
%TO.P,SW1,MP*%
%TO.N,N/C*%
X114000000Y-90900000D03*
X114000000Y-102100000D03*
D20*
%TO.P,SW1,S1,S1*%
%TO.N,Net-(U2A-GND)*%
X121000000Y-94000000D03*
%TO.P,SW1,S2,S2*%
%TO.N,Net-(U1-PA10_A2_D2)*%
X121000000Y-99000000D03*
%TD*%
D12*
%TO.P,SW16,1,1*%
%TO.N,Net-(U2B-~{Q1})*%
X75540000Y-68580000D03*
%TO.P,SW16,2,2*%
%TO.N,Net-(D7-K)*%
X69190000Y-66040000D03*
%TD*%
%TO.P,SW13,1,1*%
%TO.N,Net-(U2B-~{Q0})*%
X55540000Y-48580000D03*
%TO.P,SW13,2,2*%
%TO.N,Net-(D4-K)*%
X49190000Y-46040000D03*
%TD*%
%TO.P,SW8,1,1*%
%TO.N,Net-(U2B-~{Q1})*%
X95540000Y-58420000D03*
%TO.P,SW8,2,2*%
%TO.N,Net-(D7-K)*%
X89190000Y-60960000D03*
%TD*%
D13*
%TO.P,C3,1*%
%TO.N,Net-(U2A-GND)*%
X88500000Y-76500000D03*
%TO.P,C3,2*%
%TO.N,Net-(U1-PA10_A2_D2)*%
X96000000Y-76500000D03*
%TD*%
D12*
%TO.P,SW5,1,1*%
%TO.N,Net-(U2B-~{Q0})*%
X115540000Y-38420000D03*
%TO.P,SW5,2,2*%
%TO.N,Net-(D4-K)*%
X109190000Y-40960000D03*
%TD*%
D22*
%TO.N,Net-(D5-A)*%
X81232100Y-66318500D03*
%TO.N,Net-(D5-K)*%
X84244900Y-58796000D03*
X87234200Y-66948000D03*
%TO.N,Net-(D6-K)*%
X94411000Y-60470200D03*
%TO.N,Net-(D8-K)*%
X100500000Y-56500000D03*
%TO.N,Net-(U1-PA10_A2_D2)*%
X120116500Y-80882000D03*
%TO.N,Net-(U2B-~{Q3})*%
X57537800Y-72453500D03*
%TO.N,Net-(U1-PA9_A5_D5_SCL)*%
X62604000Y-83557400D03*
%TD*%
D23*
%TO.N,Net-(U1-PA11_A3_D3)*%
X61616500Y-99936500D02*
X74500000Y-99936500D01*
%TO.N,Net-(U1-PA8_A4_D4_SDA)*%
X67500000Y-87815000D02*
X59758400Y-87815000D01*
X95376500Y-74958600D02*
X107765650Y-74958600D01*
X67500000Y-87815000D02*
X70859000Y-84456000D01*
X70859000Y-84456000D02*
X70859000Y-83163950D01*
X70859000Y-83163950D02*
X72123950Y-81899000D01*
X108851000Y-76956050D02*
X108206050Y-77601000D01*
X72123950Y-81899000D02*
X88436100Y-81899000D01*
X88436100Y-81899000D02*
X95376500Y-74958600D01*
X108206050Y-77601000D02*
X101351000Y-77601000D01*
X107765650Y-74958600D02*
X108851000Y-76043950D01*
X108851000Y-76043950D02*
X108851000Y-76956050D01*
X101351000Y-77601000D02*
X100250000Y-76500000D01*
%TO.N,Net-(U1-PA11_A3_D3)*%
X78741000Y-95695500D02*
X74500000Y-99936500D01*
X80681000Y-91101950D02*
X78741000Y-93041950D01*
X78741000Y-93041950D02*
X78741000Y-95695500D01*
X80681000Y-83501950D02*
X80681000Y-91101950D01*
X82576050Y-82519000D02*
X81663950Y-82519000D01*
X85374150Y-85317100D02*
X82576050Y-82519000D01*
X93682900Y-85317100D02*
X85374150Y-85317100D01*
X81663950Y-82519000D02*
X80681000Y-83501950D01*
X96000000Y-83000000D02*
X93682900Y-85317100D01*
%TO.N,Net-(U2A-GND)*%
X88500000Y-82402200D02*
X95542600Y-75359600D01*
X106609600Y-75359600D02*
X107750000Y-76500000D01*
X95542600Y-75359600D02*
X106609600Y-75359600D01*
X88500000Y-83000000D02*
X88500000Y-82402200D01*
%TO.N,Net-(D1-A)*%
X112880600Y-49989500D02*
X103500000Y-49989500D01*
X63500000Y-49620000D02*
X65060000Y-48060000D01*
X103500000Y-49989500D02*
X83989500Y-49989500D01*
X83989500Y-49989500D02*
X83500000Y-49500000D01*
X114959686Y-47179000D02*
X114139000Y-47999686D01*
X71614500Y-48060000D02*
X72500000Y-47174500D01*
X121059000Y-47179000D02*
X114959686Y-47179000D01*
X81174500Y-47174500D02*
X83500000Y-49500000D01*
X123500000Y-49620000D02*
X121059000Y-47179000D01*
X114139000Y-48731100D02*
X112880600Y-49989500D01*
X103500000Y-49989500D02*
X103500000Y-49310000D01*
X72500000Y-47174500D02*
X81174500Y-47174500D01*
X65060000Y-48060000D02*
X71614500Y-48060000D01*
X114139000Y-47999686D02*
X114139000Y-48731100D01*
%TO.N,Net-(D1-K)*%
X53131000Y-37019000D02*
X49190000Y-40960000D01*
X118519000Y-37019000D02*
X113981000Y-37019000D01*
X118037600Y-36537600D02*
X53612400Y-36537600D01*
X110591000Y-44639000D02*
X109190000Y-46040000D01*
X110591000Y-40409000D02*
X110591000Y-44639000D01*
X123500000Y-42000000D02*
X118037600Y-36537600D01*
X123500000Y-42000000D02*
X118519000Y-37019000D01*
X53612400Y-36537600D02*
X53131000Y-37019000D01*
X113981000Y-37019000D02*
X110591000Y-40409000D01*
%TO.N,Net-(D2-K)*%
X73231600Y-36998400D02*
X76305700Y-36998400D01*
X99150000Y-46040000D02*
X103500000Y-41690000D01*
X69270000Y-40960000D02*
X73231600Y-36998400D01*
X96850000Y-46040000D02*
X99150000Y-46040000D01*
X85381900Y-46074600D02*
X96815400Y-46074600D01*
X96815400Y-46074600D02*
X96850000Y-46040000D01*
X76305700Y-36998400D02*
X85381900Y-46074600D01*
%TO.N,Net-(D3-K)*%
X84420000Y-40960000D02*
X83500000Y-41880000D01*
X89230000Y-40960000D02*
X84420000Y-40960000D01*
%TO.N,Net-(D4-K)*%
X63500000Y-42000000D02*
X59460000Y-46040000D01*
X59460000Y-46040000D02*
X49190000Y-46040000D01*
%TO.N,Net-(D5-A)*%
X60540000Y-76000000D02*
X59438300Y-76000000D01*
X63500000Y-70310000D02*
X77240600Y-70310000D01*
X103500000Y-70310000D02*
X83500000Y-70310000D01*
X54166600Y-70500000D02*
X59438300Y-75771700D01*
X43500000Y-70500000D02*
X54166600Y-70500000D01*
X77240600Y-70310000D02*
X81232100Y-66318500D01*
X59438300Y-75771700D02*
X59438300Y-76000000D01*
%TO.N,Net-(D5-K)*%
X58695600Y-59524100D02*
X58368000Y-59851700D01*
X50298300Y-59851700D02*
X49190000Y-60960000D01*
X43500000Y-62880000D02*
X45420000Y-60960000D01*
X99493000Y-66040000D02*
X109190000Y-66040000D01*
X88544000Y-68257800D02*
X93800886Y-68257800D01*
X84868700Y-66948000D02*
X87234200Y-66948000D01*
X74661800Y-59524100D02*
X58695600Y-59524100D01*
X87234200Y-66948000D02*
X84868700Y-66948000D01*
X45420000Y-60960000D02*
X49190000Y-60960000D01*
X87234200Y-66948000D02*
X88544000Y-68257800D01*
X84244900Y-58796000D02*
X78352600Y-58796000D01*
X93800886Y-68257800D02*
X96018686Y-66040000D01*
X74989400Y-59851700D02*
X74661800Y-59524100D01*
X96018686Y-66040000D02*
X99493000Y-66040000D01*
X77296900Y-59851700D02*
X74989400Y-59851700D01*
X58368000Y-59851700D02*
X50298300Y-59851700D01*
X78352600Y-58796000D02*
X77296900Y-59851700D01*
%TO.N,Net-(D6-K)*%
X93442700Y-59501900D02*
X94411000Y-60470200D01*
X63500000Y-62690000D02*
X65230000Y-60960000D01*
X78534200Y-60253400D02*
X79285700Y-59501900D01*
X79285700Y-59501900D02*
X93442700Y-59501900D01*
X69190000Y-60960000D02*
X69896600Y-60253400D01*
X69896600Y-60253400D02*
X78534200Y-60253400D01*
X65230000Y-60960000D02*
X69190000Y-60960000D01*
%TO.N,Net-(D7-K)*%
X83500000Y-62690000D02*
X81903500Y-62690000D01*
X78553500Y-66040000D02*
X69190000Y-66040000D01*
X85230000Y-60960000D02*
X89190000Y-60960000D01*
X81903500Y-62690000D02*
X78553500Y-66040000D01*
X83500000Y-62690000D02*
X85230000Y-60960000D01*
%TO.N,Net-(D8-K)*%
X87774686Y-65394000D02*
X90649000Y-62519686D01*
X94066837Y-60975979D02*
X94162057Y-61071200D01*
X74942900Y-66500000D02*
X79972800Y-66500000D01*
X90649000Y-62519686D02*
X90649000Y-62446184D01*
X79972800Y-66500000D02*
X81078800Y-65394000D01*
X92119205Y-60975979D02*
X94066837Y-60975979D01*
X109270000Y-60960000D02*
X105230000Y-60960000D01*
X94162057Y-61071200D02*
X95928800Y-61071200D01*
X90649000Y-62446184D02*
X92119205Y-60975979D01*
X74000000Y-67442900D02*
X74942900Y-66500000D01*
X54981314Y-66040000D02*
X56384214Y-67442900D01*
X56384214Y-67442900D02*
X74000000Y-67442900D01*
X49190000Y-66040000D02*
X54981314Y-66040000D01*
X105230000Y-60960000D02*
X103500000Y-62690000D01*
X95928800Y-61071200D02*
X100500000Y-56500000D01*
X81078800Y-65394000D02*
X87774686Y-65394000D01*
%TO.N,Net-(D9-K)*%
X78027800Y-84607800D02*
X78027800Y-88469200D01*
X78027800Y-88469200D02*
X77331200Y-89165800D01*
X74798300Y-87865000D02*
X68756800Y-87865000D01*
X62730000Y-92826100D02*
X62730000Y-95000000D01*
X68323500Y-88298300D02*
X67257800Y-88298300D01*
X77331200Y-89165800D02*
X76099100Y-89165800D01*
X77040000Y-83620000D02*
X78027800Y-84607800D01*
X67257800Y-88298300D02*
X62730000Y-92826100D01*
X76099100Y-89165800D02*
X74798300Y-87865000D01*
X68756800Y-87865000D02*
X68323500Y-88298300D01*
%TO.N,Net-(D10-A)*%
X71270000Y-93589600D02*
X70315400Y-92635000D01*
X71270000Y-95000000D02*
X72471000Y-96201000D01*
X71270000Y-95000000D02*
X71270000Y-93589600D01*
X76339000Y-96201000D02*
X77540000Y-95000000D01*
X72471000Y-96201000D02*
X76339000Y-96201000D01*
X67635000Y-92635000D02*
X70315400Y-92635000D01*
X67635000Y-92635000D02*
X65270000Y-95000000D01*
%TO.N,Net-(U1-PA8_A4_D4_SDA)*%
X55460000Y-91240000D02*
X56561700Y-91240000D01*
X59758400Y-87815000D02*
X56561700Y-91011700D01*
X56561700Y-91011700D02*
X56561700Y-91240000D01*
%TO.N,Net-(U1-PA11_A3_D3)*%
X61616500Y-99936500D02*
X52920000Y-91240000D01*
%TO.N,Net-(U1-PA10_A2_D2)*%
X51481700Y-91377700D02*
X60441500Y-100337500D01*
X60441500Y-100337500D02*
X119662500Y-100337500D01*
X120116500Y-80882000D02*
X100382000Y-80882000D01*
X100382000Y-80882000D02*
X96000000Y-76500000D01*
X119662500Y-100337500D02*
X121000000Y-99000000D01*
X50380000Y-91240000D02*
X51481700Y-91240000D01*
X51481700Y-91240000D02*
X51481700Y-91377700D01*
%TO.N,Net-(U2B-~{Q3})*%
X117291000Y-64409470D02*
X116500000Y-63618470D01*
X117291000Y-66829000D02*
X117291000Y-64409470D01*
X115540000Y-68580000D02*
X117291000Y-66829000D01*
X115540000Y-68580000D02*
X112347900Y-71772100D01*
X107347900Y-71772100D02*
X86347900Y-71772100D01*
X117021000Y-59479000D02*
X117021000Y-49791000D01*
X80977100Y-77142900D02*
X82120000Y-76000000D01*
X69979200Y-72453500D02*
X73398300Y-75872600D01*
X73398300Y-75872600D02*
X73398300Y-76456300D01*
X73398300Y-76456300D02*
X74084900Y-77142900D01*
X57537800Y-72453500D02*
X69979200Y-72453500D01*
X86347900Y-71772100D02*
X82120000Y-76000000D01*
X116500000Y-60000000D02*
X117021000Y-59479000D01*
X112347900Y-71772100D02*
X107347900Y-71772100D01*
X74084900Y-77142900D02*
X80977100Y-77142900D01*
X117021000Y-49791000D02*
X115810000Y-48580000D01*
X116500000Y-63618470D02*
X116500000Y-60000000D01*
%TO.N,Net-(U2B-~{Q2})*%
X76645400Y-38420000D02*
X86805400Y-48580000D01*
X75620000Y-38420000D02*
X76645400Y-38420000D01*
X86805400Y-48580000D02*
X95540000Y-48580000D01*
%TO.N,Net-(U2B-~{Q1})*%
X95540000Y-58420000D02*
X95314300Y-58194300D01*
X75540000Y-48580000D02*
X75540000Y-53580000D01*
X80154300Y-58194300D02*
X75540000Y-53580000D01*
X95314300Y-58194300D02*
X80154300Y-58194300D01*
%TO.N,Net-(U2B-~{Q0})*%
X93912401Y-65912401D02*
X93824800Y-66000000D01*
X78911600Y-71588400D02*
X56898400Y-71588400D01*
X56898400Y-69938400D02*
X55540000Y-68580000D01*
X87136143Y-66000000D02*
X84500000Y-66000000D01*
X115409000Y-58209000D02*
X115620000Y-58420000D01*
X115540000Y-38420000D02*
X115409000Y-38551000D01*
X56898400Y-71588400D02*
X56898400Y-69938400D01*
X93912401Y-65912401D02*
X91968002Y-67856800D01*
X84500000Y-66000000D02*
X78911600Y-71588400D01*
X88992943Y-67856800D02*
X87136143Y-66000000D01*
X101405000Y-58420000D02*
X93912401Y-65912401D01*
X91968002Y-67856800D02*
X88992943Y-67856800D01*
X78911600Y-71588400D02*
X74500000Y-76000000D01*
X115620000Y-58420000D02*
X101405000Y-58420000D01*
%TO.N,Net-(U1-PA4_A1_D1)*%
X48941700Y-91011700D02*
X48941700Y-91240000D01*
X50144200Y-89809200D02*
X48941700Y-91011700D01*
X59889400Y-84722700D02*
X54802900Y-89809200D01*
X68317300Y-84722700D02*
X59889400Y-84722700D01*
X47840000Y-91240000D02*
X48941700Y-91240000D01*
X54802900Y-89809200D02*
X50144200Y-89809200D01*
X69420000Y-83620000D02*
X68317300Y-84722700D01*
%TO.N,Net-(U1-3V3)*%
X64340000Y-76000000D02*
X63217500Y-77122500D01*
X51481700Y-76228300D02*
X51481700Y-76000000D01*
X63217500Y-77122500D02*
X52375900Y-77122500D01*
X50380000Y-76000000D02*
X51481700Y-76000000D01*
X52375900Y-77122500D02*
X51481700Y-76228300D01*
%TO.N,Net-(U1-PA9_A5_D5_SCL)*%
X62604000Y-83453900D02*
X62604000Y-83557400D01*
X63566500Y-82491400D02*
X62604000Y-83453900D01*
X65751400Y-82491400D02*
X63566500Y-82491400D01*
X66880000Y-83620000D02*
X65751400Y-82491400D01*
X62604000Y-83557400D02*
X62604000Y-83453900D01*
X62604000Y-83453900D02*
X62604000Y-83557400D01*
%TO.N,Net-(U2A-GND)*%
X68424600Y-77544600D02*
X66880000Y-76000000D01*
X84218100Y-85718100D02*
X82120000Y-83620000D01*
X112718100Y-85718100D02*
X84218100Y-85718100D01*
X66880000Y-76000000D02*
X65356500Y-77523500D01*
X47840000Y-76000000D02*
X49363500Y-77523500D01*
X65356500Y-79954957D02*
X62003000Y-83308457D01*
X63801600Y-84158400D02*
X64340000Y-83620000D01*
X62003000Y-83308457D02*
X62003000Y-83806343D01*
X62355057Y-84158400D02*
X63801600Y-84158400D01*
X121000000Y-94000000D02*
X112718100Y-85718100D01*
X88500000Y-76500000D02*
X87455400Y-77544600D01*
X62003000Y-83806343D02*
X62355057Y-84158400D01*
X65356500Y-77523500D02*
X65356500Y-79954957D01*
X49363500Y-77523500D02*
X65356500Y-77523500D01*
X87455400Y-77544600D02*
X68424600Y-77544600D01*
%TO.N,Net-(U1-PA6_A10_D10_MOSI)*%
X42299000Y-70997471D02*
X43002529Y-71701000D01*
X53532700Y-69299000D02*
X43002529Y-69299000D01*
X42299000Y-70002529D02*
X42299000Y-70997471D01*
X71960000Y-76000000D02*
X70859000Y-74899000D01*
X48621000Y-71701000D02*
X52920000Y-76000000D01*
X70859000Y-74899000D02*
X59132700Y-74899000D01*
X43002529Y-69299000D02*
X42299000Y-70002529D01*
X43002529Y-71701000D02*
X48621000Y-71701000D01*
X59132700Y-74899000D02*
X53532700Y-69299000D01*
%TO.N,Net-(D11-K)*%
X73061000Y-82519000D02*
X77496050Y-82519000D01*
X78428800Y-91571200D02*
X75000000Y-95000000D01*
X77496050Y-82519000D02*
X78428800Y-83451750D01*
X78428800Y-83451750D02*
X78428800Y-91571200D01*
X71960000Y-83620000D02*
X73061000Y-82519000D01*
%TD*%
%TA.AperFunction,Conductor*%
%TO.N,Net-(U2A-GND)*%
G36*
X126442539Y-33520185D02*
G01*
X126488294Y-33572989D01*
X126499500Y-33624500D01*
X126499500Y-101370579D01*
X126479815Y-101437618D01*
X126427011Y-101483373D01*
X126357853Y-101493317D01*
X126294297Y-101464292D01*
X126257845Y-101407572D01*
X126257357Y-101407738D01*
X126256690Y-101405775D01*
X126256523Y-101405514D01*
X126256143Y-101404163D01*
X126256054Y-101403901D01*
X126203599Y-101277263D01*
X126163224Y-101179788D01*
X126041936Y-100969711D01*
X125894265Y-100777262D01*
X125894260Y-100777256D01*
X125722743Y-100605739D01*
X125722736Y-100605733D01*
X125530293Y-100458067D01*
X125530292Y-100458066D01*
X125530289Y-100458064D01*
X125320212Y-100336776D01*
X125320205Y-100336773D01*
X125096104Y-100243947D01*
X124861785Y-100181161D01*
X124621289Y-100149500D01*
X124621288Y-100149500D01*
X124378712Y-100149500D01*
X124378711Y-100149500D01*
X124138214Y-100181161D01*
X123903895Y-100243947D01*
X123679794Y-100336773D01*
X123679785Y-100336777D01*
X123469706Y-100458067D01*
X123277263Y-100605733D01*
X123277256Y-100605739D01*
X123105739Y-100777256D01*
X123105733Y-100777263D01*
X122958067Y-100969706D01*
X122836777Y-101179785D01*
X122836773Y-101179794D01*
X122743947Y-101403895D01*
X122681161Y-101638214D01*
X122649500Y-101878711D01*
X122649500Y-102121288D01*
X122681161Y-102361785D01*
X122743947Y-102596104D01*
X122836773Y-102820205D01*
X122836776Y-102820212D01*
X122958064Y-103030289D01*
X122958066Y-103030292D01*
X122958067Y-103030293D01*
X123105733Y-103222736D01*
X123105739Y-103222743D01*
X123277256Y-103394260D01*
X123277263Y-103394266D01*
X123281964Y-103397873D01*
X123469711Y-103541936D01*
X123679788Y-103663224D01*
X123903900Y-103756054D01*
X124138211Y-103818838D01*
X124318586Y-103842584D01*
X124378711Y-103850500D01*
X124378712Y-103850500D01*
X124621289Y-103850500D01*
X124669970Y-103844091D01*
X124861789Y-103818838D01*
X125096100Y-103756054D01*
X125320212Y-103663224D01*
X125530289Y-103541936D01*
X125722738Y-103394265D01*
X125894265Y-103222738D01*
X126041936Y-103030289D01*
X126163224Y-102820212D01*
X126256054Y-102596100D01*
X126256056Y-102596090D01*
X126257357Y-102592262D01*
X126258564Y-102592671D01*
X126292086Y-102537670D01*
X126354932Y-102507138D01*
X126424308Y-102515430D01*
X126478188Y-102559913D01*
X126499465Y-102626464D01*
X126499500Y-102629420D01*
X126499500Y-104875500D01*
X126479815Y-104942539D01*
X126427011Y-104988294D01*
X126375500Y-104999500D01*
X41624500Y-104999500D01*
X41557461Y-104979815D01*
X41511706Y-104927011D01*
X41500500Y-104875500D01*
X41500500Y-102378711D01*
X42149500Y-102378711D01*
X42149500Y-102621288D01*
X42181161Y-102861785D01*
X42243947Y-103096104D01*
X42296400Y-103222736D01*
X42336776Y-103320212D01*
X42458064Y-103530289D01*
X42458066Y-103530292D01*
X42458067Y-103530293D01*
X42605733Y-103722736D01*
X42605739Y-103722743D01*
X42777256Y-103894260D01*
X42777262Y-103894265D01*
X42969711Y-104041936D01*
X43179788Y-104163224D01*
X43403900Y-104256054D01*
X43638211Y-104318838D01*
X43818586Y-104342584D01*
X43878711Y-104350500D01*
X43878712Y-104350500D01*
X44121289Y-104350500D01*
X44169388Y-104344167D01*
X44361789Y-104318838D01*
X44596100Y-104256054D01*
X44820212Y-104163224D01*
X45030289Y-104041936D01*
X45222738Y-103894265D01*
X45394265Y-103722738D01*
X45541936Y-103530289D01*
X45663224Y-103320212D01*
X45756054Y-103096100D01*
X45818838Y-102861789D01*
X45850500Y-102621288D01*
X45850500Y-102378712D01*
X45818838Y-102138211D01*
X45756054Y-101903900D01*
X45663224Y-101679788D01*
X45541936Y-101469711D01*
X45394265Y-101277262D01*
X45394260Y-101277256D01*
X45222743Y-101105739D01*
X45222736Y-101105733D01*
X45030293Y-100958067D01*
X45030292Y-100958066D01*
X45030289Y-100958064D01*
X44820212Y-100836776D01*
X44774931Y-100818020D01*
X44596104Y-100743947D01*
X44361785Y-100681161D01*
X44121289Y-100649500D01*
X44121288Y-100649500D01*
X43878712Y-100649500D01*
X43878711Y-100649500D01*
X43638214Y-100681161D01*
X43403895Y-100743947D01*
X43179794Y-100836773D01*
X43179785Y-100836777D01*
X43004463Y-100938000D01*
X42970368Y-100957685D01*
X42969706Y-100958067D01*
X42777263Y-101105733D01*
X42777256Y-101105739D01*
X42605739Y-101277256D01*
X42605733Y-101277263D01*
X42458067Y-101469706D01*
X42336777Y-101679785D01*
X42336773Y-101679794D01*
X42243947Y-101903895D01*
X42181161Y-102138214D01*
X42149500Y-102378711D01*
X41500500Y-102378711D01*
X41500500Y-90392135D01*
X43999500Y-90392135D01*
X43999500Y-92087870D01*
X43999501Y-92087876D01*
X44005908Y-92147483D01*
X44056202Y-92282328D01*
X44056206Y-92282335D01*
X44142452Y-92397544D01*
X44142455Y-92397547D01*
X44257664Y-92483793D01*
X44257671Y-92483797D01*
X44392517Y-92534091D01*
X44392516Y-92534091D01*
X44399444Y-92534835D01*
X44452127Y-92540500D01*
X46147872Y-92540499D01*
X46207483Y-92534091D01*
X46342331Y-92483796D01*
X46457546Y-92397546D01*
X46543796Y-92282331D01*
X46594091Y-92147483D01*
X46598061Y-92110556D01*
X46624796Y-92046011D01*
X46682188Y-92006161D01*
X46752013Y-92003666D01*
X46812102Y-92039317D01*
X46821667Y-92050929D01*
X46848032Y-92087217D01*
X46992786Y-92231971D01*
X47147749Y-92344556D01*
X47158390Y-92352287D01*
X47236975Y-92392328D01*
X47340776Y-92445218D01*
X47340778Y-92445218D01*
X47340781Y-92445220D01*
X47445137Y-92479127D01*
X47535465Y-92508477D01*
X47636557Y-92524488D01*
X47737648Y-92540500D01*
X47737649Y-92540500D01*
X47942351Y-92540500D01*
X47942352Y-92540500D01*
X48144534Y-92508477D01*
X48339219Y-92445220D01*
X48521610Y-92352287D01*
X48617901Y-92282328D01*
X48687213Y-92231971D01*
X48687215Y-92231968D01*
X48687219Y-92231966D01*
X48831966Y-92087219D01*
X48831968Y-92087215D01*
X48831971Y-92087213D01*
X48952286Y-91921611D01*
X48964259Y-91898114D01*
X48987469Y-91873537D01*
X49010206Y-91848527D01*
X49011690Y-91847891D01*
X49012233Y-91847317D01*
X49042644Y-91834635D01*
X49104694Y-91818009D01*
X49174541Y-91819672D01*
X49232404Y-91858834D01*
X49247269Y-91881488D01*
X49267713Y-91921611D01*
X49388028Y-92087213D01*
X49532786Y-92231971D01*
X49687749Y-92344556D01*
X49698390Y-92352287D01*
X49776975Y-92392328D01*
X49880776Y-92445218D01*
X49880778Y-92445218D01*
X49880781Y-92445220D01*
X49985137Y-92479127D01*
X50075465Y-92508477D01*
X50176557Y-92524488D01*
X50277648Y-92540500D01*
X50277649Y-92540500D01*
X50482351Y-92540500D01*
X50482352Y-92540500D01*
X50684534Y-92508477D01*
X50879219Y-92445220D01*
X51061610Y-92352287D01*
X51157901Y-92282328D01*
X51227213Y-92231971D01*
X51227215Y-92231968D01*
X51227219Y-92231966D01*
X51269293Y-92189891D01*
X51330615Y-92156406D01*
X51400306Y-92161390D01*
X51444655Y-92189891D01*
X60072784Y-100818020D01*
X60072786Y-100818021D01*
X60072790Y-100818024D01*
X60209709Y-100897073D01*
X60209716Y-100897077D01*
X60362443Y-100938001D01*
X60362445Y-100938001D01*
X60528154Y-100938001D01*
X60528170Y-100938000D01*
X111875500Y-100938000D01*
X111942539Y-100957685D01*
X111988294Y-101010489D01*
X111999500Y-101062000D01*
X111999500Y-103397870D01*
X111999501Y-103397876D01*
X112005908Y-103457483D01*
X112056202Y-103592328D01*
X112056206Y-103592335D01*
X112142452Y-103707544D01*
X112142455Y-103707547D01*
X112257664Y-103793793D01*
X112257671Y-103793797D01*
X112392517Y-103844091D01*
X112392516Y-103844091D01*
X112399444Y-103844835D01*
X112452127Y-103850500D01*
X115547872Y-103850499D01*
X115607483Y-103844091D01*
X115742331Y-103793796D01*
X115857546Y-103707546D01*
X115943796Y-103592331D01*
X115994091Y-103457483D01*
X116000500Y-103397873D01*
X116000499Y-101061999D01*
X116020184Y-100994961D01*
X116072987Y-100949206D01*
X116124499Y-100938000D01*
X119575831Y-100938000D01*
X119575847Y-100938001D01*
X119583443Y-100938001D01*
X119741554Y-100938001D01*
X119741557Y-100938001D01*
X119894285Y-100897077D01*
X119944404Y-100868139D01*
X120031216Y-100818020D01*
X120143020Y-100706216D01*
X120143020Y-100706214D01*
X120153228Y-100696007D01*
X120153230Y-100696004D01*
X120396437Y-100452796D01*
X120457758Y-100419313D01*
X120522433Y-100422547D01*
X120648632Y-100463553D01*
X120736110Y-100477408D01*
X120881903Y-100500500D01*
X120881908Y-100500500D01*
X121118097Y-100500500D01*
X121351368Y-100463553D01*
X121384468Y-100452798D01*
X121575992Y-100390568D01*
X121786433Y-100283343D01*
X121977510Y-100144517D01*
X122144517Y-99977510D01*
X122283343Y-99786433D01*
X122390568Y-99575992D01*
X122463553Y-99351368D01*
X122469105Y-99316315D01*
X122500500Y-99118097D01*
X122500500Y-98881902D01*
X122463553Y-98648631D01*
X122390566Y-98424003D01*
X122283342Y-98213566D01*
X122144517Y-98022490D01*
X121977510Y-97855483D01*
X121786433Y-97716657D01*
X121575996Y-97609433D01*
X121351368Y-97536446D01*
X121118097Y-97499500D01*
X121118092Y-97499500D01*
X120881908Y-97499500D01*
X120881903Y-97499500D01*
X120648631Y-97536446D01*
X120424003Y-97609433D01*
X120213566Y-97716657D01*
X120104550Y-97795862D01*
X120022490Y-97855483D01*
X120022488Y-97855485D01*
X120022487Y-97855485D01*
X119855485Y-98022487D01*
X119855485Y-98022488D01*
X119855483Y-98022490D01*
X119795862Y-98104550D01*
X119716657Y-98213566D01*
X119609433Y-98424003D01*
X119536446Y-98648631D01*
X119499500Y-98881902D01*
X119499500Y-99118097D01*
X119536447Y-99351369D01*
X119536447Y-99351372D01*
X119577450Y-99477564D01*
X119577884Y-99492776D01*
X119583203Y-99507035D01*
X119578861Y-99526991D01*
X119579445Y-99547405D01*
X119571357Y-99561489D01*
X119568352Y-99575308D01*
X119547201Y-99603562D01*
X119450085Y-99700680D01*
X119388762Y-99734166D01*
X119362403Y-99737000D01*
X108008924Y-99737000D01*
X107941885Y-99717315D01*
X107896130Y-99664511D01*
X107886186Y-99595353D01*
X107890990Y-99574691D01*
X107963553Y-99351368D01*
X107969105Y-99316315D01*
X108000500Y-99118097D01*
X108000500Y-98881902D01*
X107963553Y-98648631D01*
X107890566Y-98424003D01*
X107783342Y-98213566D01*
X107644517Y-98022490D01*
X107477510Y-97855483D01*
X107421259Y-97814614D01*
X107378595Y-97759284D01*
X107373902Y-97727455D01*
X106629408Y-96982962D01*
X106692993Y-96965925D01*
X106807007Y-96900099D01*
X106900099Y-96807007D01*
X106965925Y-96692993D01*
X106982962Y-96629409D01*
X107722658Y-97369105D01*
X107722658Y-97369104D01*
X107782914Y-97286169D01*
X107782918Y-97286163D01*
X107890102Y-97075802D01*
X107963065Y-96851247D01*
X108000000Y-96618052D01*
X108000000Y-96381947D01*
X107963065Y-96148752D01*
X107890102Y-95924197D01*
X107782914Y-95713828D01*
X107713394Y-95618142D01*
X107689914Y-95552335D01*
X107705739Y-95484281D01*
X107739401Y-95445989D01*
X107742329Y-95443796D01*
X107742331Y-95443796D01*
X107857546Y-95357546D01*
X107943796Y-95242331D01*
X107994091Y-95107483D01*
X108000500Y-95047873D01*
X108000499Y-93881947D01*
X119500000Y-93881947D01*
X119500000Y-94118052D01*
X119536934Y-94351247D01*
X119609897Y-94575802D01*
X119717087Y-94786174D01*
X119777338Y-94869104D01*
X119777340Y-94869105D01*
X120517037Y-94129408D01*
X120534075Y-94192993D01*
X120599901Y-94307007D01*
X120692993Y-94400099D01*
X120807007Y-94465925D01*
X120870590Y-94482962D01*
X120130893Y-95222658D01*
X120213828Y-95282914D01*
X120424197Y-95390102D01*
X120648752Y-95463065D01*
X120648751Y-95463065D01*
X120881948Y-95500000D01*
X121118052Y-95500000D01*
X121351247Y-95463065D01*
X121575802Y-95390102D01*
X121786163Y-95282918D01*
X121786169Y-95282914D01*
X121869104Y-95222658D01*
X121869105Y-95222658D01*
X121129408Y-94482962D01*
X121192993Y-94465925D01*
X121307007Y-94400099D01*
X121400099Y-94307007D01*
X121465925Y-94192993D01*
X121482962Y-94129409D01*
X122222658Y-94869105D01*
X122222658Y-94869104D01*
X122282914Y-94786169D01*
X122282918Y-94786163D01*
X122390102Y-94575802D01*
X122463065Y-94351247D01*
X122500000Y-94118052D01*
X122500000Y-93881947D01*
X122463065Y-93648752D01*
X122390102Y-93424197D01*
X122282914Y-93213828D01*
X122222658Y-93130894D01*
X122222658Y-93130893D01*
X121482962Y-93870590D01*
X121465925Y-93807007D01*
X121400099Y-93692993D01*
X121307007Y-93599901D01*
X121192993Y-93534075D01*
X121129409Y-93517037D01*
X121869105Y-92777340D01*
X121869104Y-92777338D01*
X121786174Y-92717087D01*
X121575802Y-92609897D01*
X121351247Y-92536934D01*
X121351248Y-92536934D01*
X121118052Y-92500000D01*
X120881948Y-92500000D01*
X120648752Y-92536934D01*
X120424197Y-92609897D01*
X120213830Y-92717084D01*
X120130894Y-92777340D01*
X120870591Y-93517037D01*
X120807007Y-93534075D01*
X120692993Y-93599901D01*
X120599901Y-93692993D01*
X120534075Y-93807007D01*
X120517037Y-93870591D01*
X119777340Y-93130894D01*
X119717084Y-93213830D01*
X119609897Y-93424197D01*
X119536934Y-93648752D01*
X119500000Y-93881947D01*
X108000499Y-93881947D01*
X108000499Y-92952128D01*
X107994091Y-92892517D01*
X107994090Y-92892514D01*
X107984922Y-92867931D01*
X107943797Y-92757671D01*
X107943793Y-92757664D01*
X107857547Y-92642455D01*
X107857544Y-92642452D01*
X107742335Y-92556206D01*
X107742328Y-92556202D01*
X107607482Y-92505908D01*
X107607483Y-92505908D01*
X107547883Y-92499501D01*
X107547881Y-92499500D01*
X107547873Y-92499500D01*
X107547864Y-92499500D01*
X105452129Y-92499500D01*
X105452123Y-92499501D01*
X105392516Y-92505908D01*
X105257671Y-92556202D01*
X105257664Y-92556206D01*
X105142455Y-92642452D01*
X105142452Y-92642455D01*
X105056206Y-92757664D01*
X105056202Y-92757671D01*
X105005908Y-92892517D01*
X104999501Y-92952116D01*
X104999501Y-92952123D01*
X104999500Y-92952135D01*
X104999500Y-95047870D01*
X104999501Y-95047876D01*
X105005908Y-95107483D01*
X105056202Y-95242328D01*
X105056206Y-95242335D01*
X105142452Y-95357544D01*
X105142453Y-95357544D01*
X105142454Y-95357546D01*
X105185943Y-95390102D01*
X105260599Y-95445990D01*
X105302469Y-95501924D01*
X105307453Y-95571615D01*
X105286605Y-95618141D01*
X105217087Y-95713824D01*
X105109897Y-95924197D01*
X105036934Y-96148752D01*
X105000000Y-96381947D01*
X105000000Y-96618052D01*
X105036934Y-96851247D01*
X105109897Y-97075802D01*
X105217087Y-97286174D01*
X105277338Y-97369104D01*
X105277340Y-97369105D01*
X106017037Y-96629408D01*
X106034075Y-96692993D01*
X106099901Y-96807007D01*
X106192993Y-96900099D01*
X106307007Y-96965925D01*
X106370590Y-96982962D01*
X105624280Y-97729271D01*
X105615105Y-97772947D01*
X105578739Y-97814615D01*
X105522490Y-97855482D01*
X105355485Y-98022487D01*
X105355485Y-98022488D01*
X105355483Y-98022490D01*
X105295862Y-98104550D01*
X105216657Y-98213566D01*
X105109433Y-98424003D01*
X105036446Y-98648631D01*
X104999500Y-98881902D01*
X104999500Y-99118097D01*
X105036446Y-99351368D01*
X105073258Y-99464660D01*
X105109007Y-99574684D01*
X105111002Y-99644522D01*
X105074922Y-99704355D01*
X105012221Y-99735184D01*
X104991076Y-99737000D01*
X75848097Y-99737000D01*
X75781058Y-99717315D01*
X75735303Y-99664511D01*
X75725359Y-99595353D01*
X75754384Y-99531797D01*
X75760416Y-99525319D01*
X77263248Y-98022487D01*
X79221520Y-96064216D01*
X79300577Y-95927284D01*
X79341501Y-95774557D01*
X79341501Y-95616442D01*
X79341501Y-95608847D01*
X79341500Y-95608829D01*
X79341500Y-93342046D01*
X79361185Y-93275007D01*
X79377815Y-93254369D01*
X80013486Y-92618697D01*
X80074807Y-92585214D01*
X80144498Y-92590198D01*
X80200432Y-92632069D01*
X80211649Y-92650084D01*
X80227713Y-92681611D01*
X80348028Y-92847213D01*
X80492786Y-92991971D01*
X80606841Y-93074835D01*
X80658390Y-93112287D01*
X80774607Y-93171503D01*
X80840776Y-93205218D01*
X80840778Y-93205218D01*
X80840781Y-93205220D01*
X80933973Y-93235500D01*
X81035465Y-93268477D01*
X81076694Y-93275007D01*
X81237648Y-93300500D01*
X81237649Y-93300500D01*
X81442351Y-93300500D01*
X81442352Y-93300500D01*
X81644534Y-93268477D01*
X81839219Y-93205220D01*
X82021610Y-93112287D01*
X82165018Y-93008096D01*
X82187213Y-92991971D01*
X82187215Y-92991968D01*
X82187219Y-92991966D01*
X82331966Y-92847219D01*
X82331968Y-92847215D01*
X82331971Y-92847213D01*
X82397031Y-92757664D01*
X82452287Y-92681610D01*
X82545220Y-92499219D01*
X82608477Y-92304534D01*
X82640500Y-92102352D01*
X82640500Y-91897648D01*
X90199500Y-91897648D01*
X90199500Y-92102351D01*
X90231522Y-92304534D01*
X90294781Y-92499223D01*
X90341136Y-92590198D01*
X90383445Y-92673234D01*
X90387715Y-92681613D01*
X90508028Y-92847213D01*
X90652786Y-92991971D01*
X90766841Y-93074835D01*
X90818390Y-93112287D01*
X90934607Y-93171503D01*
X91000776Y-93205218D01*
X91000778Y-93205218D01*
X91000781Y-93205220D01*
X91093973Y-93235500D01*
X91195465Y-93268477D01*
X91236694Y-93275007D01*
X91397648Y-93300500D01*
X91397649Y-93300500D01*
X91602351Y-93300500D01*
X91602352Y-93300500D01*
X91804534Y-93268477D01*
X91999219Y-93205220D01*
X92181610Y-93112287D01*
X92325018Y-93008096D01*
X92347213Y-92991971D01*
X92347215Y-92991968D01*
X92347219Y-92991966D01*
X92491966Y-92847219D01*
X92491968Y-92847215D01*
X92491971Y-92847213D01*
X92557031Y-92757664D01*
X92612287Y-92681610D01*
X92705220Y-92499219D01*
X92768477Y-92304534D01*
X92800500Y-92102352D01*
X92800500Y-91897648D01*
X92792528Y-91847317D01*
X92768477Y-91695465D01*
X92705218Y-91500776D01*
X92624496Y-91342352D01*
X92612287Y-91318390D01*
X92577931Y-91271102D01*
X92491971Y-91152786D01*
X92347213Y-91008028D01*
X92181613Y-90887715D01*
X92181612Y-90887714D01*
X92181610Y-90887713D01*
X92100305Y-90846286D01*
X91999223Y-90794781D01*
X91804534Y-90731522D01*
X91617353Y-90701876D01*
X91602352Y-90699500D01*
X91397648Y-90699500D01*
X91382647Y-90701876D01*
X91195465Y-90731522D01*
X91000776Y-90794781D01*
X90818386Y-90887715D01*
X90652786Y-91008028D01*
X90508028Y-91152786D01*
X90387715Y-91318386D01*
X90294781Y-91500776D01*
X90231522Y-91695465D01*
X90199500Y-91897648D01*
X82640500Y-91897648D01*
X82632528Y-91847317D01*
X82608477Y-91695465D01*
X82545218Y-91500776D01*
X82464496Y-91342352D01*
X82452287Y-91318390D01*
X82417931Y-91271102D01*
X82331971Y-91152786D01*
X82187213Y-91008028D01*
X82021613Y-90887715D01*
X82021612Y-90887714D01*
X82021610Y-90887713D01*
X81940305Y-90846286D01*
X81839223Y-90794781D01*
X81644534Y-90731522D01*
X81457353Y-90701876D01*
X81442352Y-90699500D01*
X81442351Y-90699500D01*
X81405500Y-90699500D01*
X81338461Y-90679815D01*
X81292706Y-90627011D01*
X81281500Y-90575500D01*
X81281500Y-89602135D01*
X111999500Y-89602135D01*
X111999500Y-92197870D01*
X111999501Y-92197876D01*
X112005908Y-92257483D01*
X112056202Y-92392328D01*
X112056206Y-92392335D01*
X112142452Y-92507544D01*
X112142455Y-92507547D01*
X112257664Y-92593793D01*
X112257671Y-92593797D01*
X112392517Y-92644091D01*
X112392516Y-92644091D01*
X112399444Y-92644835D01*
X112452127Y-92650500D01*
X115547872Y-92650499D01*
X115607483Y-92644091D01*
X115742331Y-92593796D01*
X115857546Y-92507546D01*
X115943796Y-92392331D01*
X115994091Y-92257483D01*
X116000500Y-92197873D01*
X116000499Y-89602128D01*
X115994091Y-89542517D01*
X115989491Y-89530185D01*
X115943797Y-89407671D01*
X115943793Y-89407664D01*
X115857547Y-89292455D01*
X115857544Y-89292452D01*
X115742335Y-89206206D01*
X115742328Y-89206202D01*
X115607482Y-89155908D01*
X115607483Y-89155908D01*
X115547883Y-89149501D01*
X115547881Y-89149500D01*
X115547873Y-89149500D01*
X115547864Y-89149500D01*
X112452129Y-89149500D01*
X112452123Y-89149501D01*
X112392516Y-89155908D01*
X112257671Y-89206202D01*
X112257664Y-89206206D01*
X112142455Y-89292452D01*
X112142452Y-89292455D01*
X112056206Y-89407664D01*
X112056202Y-89407671D01*
X112005908Y-89542517D01*
X111999501Y-89602116D01*
X111999501Y-89602123D01*
X111999500Y-89602135D01*
X81281500Y-89602135D01*
X81281500Y-84854137D01*
X81301185Y-84787098D01*
X81353989Y-84741343D01*
X81423147Y-84731399D01*
X81461795Y-84743652D01*
X81620968Y-84824755D01*
X81815582Y-84887990D01*
X82017683Y-84920000D01*
X82222317Y-84920000D01*
X82424417Y-84887990D01*
X82619031Y-84824755D01*
X82801349Y-84731859D01*
X82845921Y-84699474D01*
X82166447Y-84020000D01*
X82172661Y-84020000D01*
X82274394Y-83992741D01*
X82365606Y-83940080D01*
X82440080Y-83865606D01*
X82492741Y-83774394D01*
X82520000Y-83672661D01*
X82520000Y-83666447D01*
X83199474Y-84345921D01*
X83231859Y-84301349D01*
X83247975Y-84269718D01*
X83295948Y-84218921D01*
X83363768Y-84202123D01*
X83429904Y-84224658D01*
X83446143Y-84238328D01*
X84889289Y-85681474D01*
X84889299Y-85681485D01*
X84893629Y-85685815D01*
X84893630Y-85685816D01*
X85005434Y-85797620D01*
X85092245Y-85847739D01*
X85092247Y-85847741D01*
X85130301Y-85869711D01*
X85142365Y-85876677D01*
X85295093Y-85917601D01*
X85295096Y-85917601D01*
X85460803Y-85917601D01*
X85460819Y-85917600D01*
X93596231Y-85917600D01*
X93596247Y-85917601D01*
X93603843Y-85917601D01*
X93761954Y-85917601D01*
X93761957Y-85917601D01*
X93914685Y-85876677D01*
X93964804Y-85847739D01*
X94051616Y-85797620D01*
X94163420Y-85685816D01*
X94163420Y-85685814D01*
X94173628Y-85675607D01*
X94173630Y-85675604D01*
X95555158Y-84294075D01*
X95616479Y-84260592D01*
X95681151Y-84263825D01*
X95695466Y-84268477D01*
X95897648Y-84300500D01*
X95897649Y-84300500D01*
X96102351Y-84300500D01*
X96102352Y-84300500D01*
X96304534Y-84268477D01*
X96499219Y-84205220D01*
X96681610Y-84112287D01*
X96774590Y-84044732D01*
X96847213Y-83991971D01*
X96847215Y-83991968D01*
X96847219Y-83991966D01*
X96991966Y-83847219D01*
X96991968Y-83847215D01*
X96991971Y-83847213D01*
X97062101Y-83750685D01*
X97112287Y-83681610D01*
X97205220Y-83499219D01*
X97268477Y-83304534D01*
X97300500Y-83102352D01*
X97300500Y-82897648D01*
X97282256Y-82782461D01*
X97268477Y-82695465D01*
X97207472Y-82507713D01*
X97205220Y-82500781D01*
X97205218Y-82500778D01*
X97205218Y-82500776D01*
X97131538Y-82356173D01*
X97112287Y-82318390D01*
X97080092Y-82274077D01*
X96991971Y-82152786D01*
X96847213Y-82008028D01*
X96681613Y-81887715D01*
X96681612Y-81887714D01*
X96681610Y-81887713D01*
X96624653Y-81858691D01*
X96499223Y-81794781D01*
X96304534Y-81731522D01*
X96129995Y-81703878D01*
X96102352Y-81699500D01*
X95897648Y-81699500D01*
X95873329Y-81703351D01*
X95695465Y-81731522D01*
X95500776Y-81794781D01*
X95318386Y-81887715D01*
X95152786Y-82008028D01*
X95008028Y-82152786D01*
X94887715Y-82318386D01*
X94794781Y-82500776D01*
X94731522Y-82695465D01*
X94699500Y-82897648D01*
X94699500Y-83102351D01*
X94731522Y-83304534D01*
X94736173Y-83318848D01*
X94738165Y-83388690D01*
X94705921Y-83444842D01*
X93470484Y-84680281D01*
X93409161Y-84713766D01*
X93382803Y-84716600D01*
X85674247Y-84716600D01*
X85607208Y-84696915D01*
X85586566Y-84680281D01*
X83617466Y-82711181D01*
X83583981Y-82649858D01*
X83588965Y-82580166D01*
X83630837Y-82524233D01*
X83696301Y-82499816D01*
X83705147Y-82499500D01*
X87125049Y-82499500D01*
X87192088Y-82519185D01*
X87237843Y-82571989D01*
X87247787Y-82641147D01*
X87242980Y-82661817D01*
X87232011Y-82695574D01*
X87232010Y-82695581D01*
X87200000Y-82897682D01*
X87200000Y-83102317D01*
X87232009Y-83304417D01*
X87295244Y-83499031D01*
X87388141Y-83681350D01*
X87388147Y-83681359D01*
X87420523Y-83725921D01*
X87420524Y-83725922D01*
X88100000Y-83046446D01*
X88100000Y-83052661D01*
X88127259Y-83154394D01*
X88179920Y-83245606D01*
X88254394Y-83320080D01*
X88345606Y-83372741D01*
X88447339Y-83400000D01*
X88453553Y-83400000D01*
X87774076Y-84079474D01*
X87818650Y-84111859D01*
X88000968Y-84204755D01*
X88195582Y-84267990D01*
X88397683Y-84300000D01*
X88602317Y-84300000D01*
X88804417Y-84267990D01*
X88999031Y-84204755D01*
X89181349Y-84111859D01*
X89225921Y-84079474D01*
X88546447Y-83400000D01*
X88552661Y-83400000D01*
X88654394Y-83372741D01*
X88745606Y-83320080D01*
X88820080Y-83245606D01*
X88872741Y-83154394D01*
X88900000Y-83052661D01*
X88900000Y-83046447D01*
X89579474Y-83725921D01*
X89611859Y-83681349D01*
X89704755Y-83499031D01*
X89767990Y-83304417D01*
X89800000Y-83102317D01*
X89800000Y-82897682D01*
X89767990Y-82695582D01*
X89704755Y-82500968D01*
X89611859Y-82318650D01*
X89579474Y-82274077D01*
X89579474Y-82274076D01*
X88900000Y-82953551D01*
X88900000Y-82947339D01*
X88872741Y-82845606D01*
X88820080Y-82754394D01*
X88745606Y-82679920D01*
X88654394Y-82627259D01*
X88552661Y-82600000D01*
X88546445Y-82600000D01*
X88703622Y-82442822D01*
X88729304Y-82423116D01*
X88743743Y-82414780D01*
X88747972Y-82412339D01*
X88782076Y-82392648D01*
X88804816Y-82379520D01*
X88916620Y-82267716D01*
X88916620Y-82267714D01*
X88926824Y-82257511D01*
X88926827Y-82257506D01*
X94511350Y-76672984D01*
X94572671Y-76639501D01*
X94642363Y-76644485D01*
X94698296Y-76686357D01*
X94721502Y-76741268D01*
X94731523Y-76804535D01*
X94794781Y-76999223D01*
X94852391Y-77112287D01*
X94887585Y-77181359D01*
X94887715Y-77181613D01*
X95008028Y-77347213D01*
X95152786Y-77491971D01*
X95273226Y-77579474D01*
X95318390Y-77612287D01*
X95434607Y-77671503D01*
X95500776Y-77705218D01*
X95500778Y-77705218D01*
X95500781Y-77705220D01*
X95605137Y-77739127D01*
X95695465Y-77768477D01*
X95723555Y-77772926D01*
X95897648Y-77800500D01*
X95897649Y-77800500D01*
X96102351Y-77800500D01*
X96102352Y-77800500D01*
X96304534Y-77768477D01*
X96318842Y-77763827D01*
X96388682Y-77761831D01*
X96444842Y-77794077D01*
X99897139Y-81246374D01*
X99897149Y-81246385D01*
X99901479Y-81250715D01*
X99901480Y-81250716D01*
X100013284Y-81362520D01*
X100064845Y-81392288D01*
X100100095Y-81412639D01*
X100100097Y-81412641D01*
X100138151Y-81434611D01*
X100150215Y-81441577D01*
X100302943Y-81482501D01*
X100302946Y-81482501D01*
X100468653Y-81482501D01*
X100468669Y-81482500D01*
X119536734Y-81482500D01*
X119603773Y-81502185D01*
X119605625Y-81503398D01*
X119737314Y-81591390D01*
X119737327Y-81591397D01*
X119882998Y-81651735D01*
X119883003Y-81651737D01*
X120037653Y-81682499D01*
X120037656Y-81682500D01*
X120037658Y-81682500D01*
X120195344Y-81682500D01*
X120195345Y-81682499D01*
X120349997Y-81651737D01*
X120495679Y-81591394D01*
X120626789Y-81503789D01*
X120738289Y-81392289D01*
X120825894Y-81261179D01*
X120886237Y-81115497D01*
X120917000Y-80960842D01*
X120917000Y-80803158D01*
X120917000Y-80803155D01*
X120916999Y-80803153D01*
X120886238Y-80648510D01*
X120886237Y-80648503D01*
X120886235Y-80648498D01*
X120825897Y-80502827D01*
X120825890Y-80502814D01*
X120738289Y-80371711D01*
X120738286Y-80371707D01*
X120626792Y-80260213D01*
X120626788Y-80260210D01*
X120495685Y-80172609D01*
X120495672Y-80172602D01*
X120350001Y-80112264D01*
X120349989Y-80112261D01*
X120195345Y-80081500D01*
X120195342Y-80081500D01*
X120037658Y-80081500D01*
X120037655Y-80081500D01*
X119883010Y-80112261D01*
X119882998Y-80112264D01*
X119737327Y-80172602D01*
X119737314Y-80172609D01*
X119605625Y-80260602D01*
X119538947Y-80281480D01*
X119536734Y-80281500D01*
X100682097Y-80281500D01*
X100615058Y-80261815D01*
X100594416Y-80245181D01*
X97294077Y-76944842D01*
X97260592Y-76883519D01*
X97263828Y-76818841D01*
X97268477Y-76804534D01*
X97300500Y-76602352D01*
X97300500Y-76397648D01*
X97283875Y-76292685D01*
X97268477Y-76195465D01*
X97222077Y-76052661D01*
X97205220Y-76000781D01*
X97205218Y-76000778D01*
X97205218Y-76000776D01*
X97144903Y-75882403D01*
X97112287Y-75818390D01*
X97080092Y-75774077D01*
X97066948Y-75755985D01*
X97043468Y-75690179D01*
X97059294Y-75622125D01*
X97109399Y-75573430D01*
X97167266Y-75559100D01*
X99082734Y-75559100D01*
X99149773Y-75578785D01*
X99195528Y-75631589D01*
X99205472Y-75700747D01*
X99183052Y-75755985D01*
X99137715Y-75818386D01*
X99044781Y-76000776D01*
X98981522Y-76195465D01*
X98949500Y-76397648D01*
X98949500Y-76602351D01*
X98981522Y-76804534D01*
X99044781Y-76999223D01*
X99102391Y-77112287D01*
X99137585Y-77181359D01*
X99137715Y-77181613D01*
X99258028Y-77347213D01*
X99402786Y-77491971D01*
X99523226Y-77579474D01*
X99568390Y-77612287D01*
X99684607Y-77671503D01*
X99750776Y-77705218D01*
X99750778Y-77705218D01*
X99750781Y-77705220D01*
X99855137Y-77739127D01*
X99945465Y-77768477D01*
X99973555Y-77772926D01*
X100147648Y-77800500D01*
X100147649Y-77800500D01*
X100352351Y-77800500D01*
X100352352Y-77800500D01*
X100554534Y-77768477D01*
X100568842Y-77763827D01*
X100584054Y-77763392D01*
X100598315Y-77758074D01*
X100618268Y-77762414D01*
X100638682Y-77761831D01*
X100652769Y-77769920D01*
X100666588Y-77772926D01*
X100694842Y-77794077D01*
X100866139Y-77965374D01*
X100866149Y-77965385D01*
X100870479Y-77969715D01*
X100870480Y-77969716D01*
X100982284Y-78081520D01*
X101069095Y-78131639D01*
X101069097Y-78131641D01*
X101107151Y-78153611D01*
X101119215Y-78160577D01*
X101271943Y-78201500D01*
X101430057Y-78201500D01*
X108119381Y-78201500D01*
X108119397Y-78201501D01*
X108126993Y-78201501D01*
X108285104Y-78201501D01*
X108285107Y-78201501D01*
X108437835Y-78160577D01*
X108487954Y-78131639D01*
X108574766Y-78081520D01*
X108686570Y-77969716D01*
X108686570Y-77969714D01*
X108696778Y-77959507D01*
X108696780Y-77959504D01*
X109209506Y-77446778D01*
X109209511Y-77446774D01*
X109219714Y-77436570D01*
X109219716Y-77436570D01*
X109331520Y-77324766D01*
X109345530Y-77300500D01*
X109390867Y-77221974D01*
X109390870Y-77221965D01*
X109390876Y-77221957D01*
X109410577Y-77187835D01*
X109451501Y-77035107D01*
X109451501Y-76876993D01*
X109451501Y-76869398D01*
X109451500Y-76869380D01*
X109451500Y-76133010D01*
X109451501Y-76132997D01*
X109451501Y-75964894D01*
X109412314Y-75818650D01*
X109410577Y-75812166D01*
X109377223Y-75754394D01*
X109331524Y-75675240D01*
X109331518Y-75675232D01*
X108253240Y-74596955D01*
X108253238Y-74596952D01*
X108134367Y-74478081D01*
X108134366Y-74478080D01*
X108031135Y-74418480D01*
X107997435Y-74399023D01*
X107844707Y-74358099D01*
X107686593Y-74358099D01*
X107678997Y-74358099D01*
X107678981Y-74358100D01*
X95463170Y-74358100D01*
X95463154Y-74358099D01*
X95455558Y-74358099D01*
X95297443Y-74358099D01*
X95182897Y-74388792D01*
X95144714Y-74399023D01*
X95111015Y-74418480D01*
X95111014Y-74418480D01*
X95007787Y-74478077D01*
X95007782Y-74478081D01*
X94895978Y-74589886D01*
X88223684Y-81262181D01*
X88162361Y-81295666D01*
X88136003Y-81298500D01*
X72044890Y-81298500D01*
X72003969Y-81309464D01*
X72003969Y-81309465D01*
X71966701Y-81319451D01*
X71892164Y-81339423D01*
X71892159Y-81339426D01*
X71755240Y-81418475D01*
X71755232Y-81418481D01*
X71643428Y-81530286D01*
X70494130Y-82679583D01*
X70432807Y-82713068D01*
X70363115Y-82708084D01*
X70318768Y-82679583D01*
X70267213Y-82628028D01*
X70101613Y-82507715D01*
X70101612Y-82507714D01*
X70101610Y-82507713D01*
X70044653Y-82478691D01*
X69919223Y-82414781D01*
X69724534Y-82351522D01*
X69549995Y-82323878D01*
X69522352Y-82319500D01*
X69317648Y-82319500D01*
X69293329Y-82323351D01*
X69115465Y-82351522D01*
X68920776Y-82414781D01*
X68738386Y-82507715D01*
X68572786Y-82628028D01*
X68428028Y-82772786D01*
X68307715Y-82938386D01*
X68260485Y-83031080D01*
X68212510Y-83081876D01*
X68144689Y-83098671D01*
X68078554Y-83076134D01*
X68039515Y-83031080D01*
X68023678Y-82999999D01*
X67992287Y-82938390D01*
X67962711Y-82897682D01*
X67871971Y-82772786D01*
X67727213Y-82628028D01*
X67561613Y-82507715D01*
X67561612Y-82507714D01*
X67561610Y-82507713D01*
X67504653Y-82478691D01*
X67379223Y-82414781D01*
X67184534Y-82351522D01*
X67009995Y-82323878D01*
X66982352Y-82319500D01*
X66777648Y-82319500D01*
X66739599Y-82325526D01*
X66575468Y-82351522D01*
X66566717Y-82354365D01*
X66561154Y-82356173D01*
X66491313Y-82358167D01*
X66435157Y-82325922D01*
X66238990Y-82129755D01*
X66238988Y-82129752D01*
X66120117Y-82010881D01*
X66120116Y-82010880D01*
X66030989Y-81959423D01*
X65983185Y-81931823D01*
X65830457Y-81890899D01*
X65672343Y-81890899D01*
X65664747Y-81890899D01*
X65664731Y-81890900D01*
X63653170Y-81890900D01*
X63653154Y-81890899D01*
X63645558Y-81890899D01*
X63487443Y-81890899D01*
X63411079Y-81911361D01*
X63334714Y-81931823D01*
X63334709Y-81931826D01*
X63197790Y-82010875D01*
X63197782Y-82010881D01*
X62460137Y-82748525D01*
X62398814Y-82782010D01*
X62396651Y-82782461D01*
X62370503Y-82787662D01*
X62370500Y-82787663D01*
X62224827Y-82848002D01*
X62224814Y-82848009D01*
X62093711Y-82935610D01*
X62093707Y-82935613D01*
X61982213Y-83047107D01*
X61982210Y-83047111D01*
X61894609Y-83178214D01*
X61894602Y-83178227D01*
X61834264Y-83323898D01*
X61834261Y-83323910D01*
X61803500Y-83478553D01*
X61803500Y-83636246D01*
X61834261Y-83790889D01*
X61834264Y-83790901D01*
X61894606Y-83936580D01*
X61896302Y-83939754D01*
X61896687Y-83941605D01*
X61896937Y-83942208D01*
X61896822Y-83942255D01*
X61910540Y-84008158D01*
X61885535Y-84073400D01*
X61829227Y-84114767D01*
X61786940Y-84122200D01*
X59810342Y-84122200D01*
X59657613Y-84163123D01*
X59623359Y-84182901D01*
X59623358Y-84182901D01*
X59520687Y-84242177D01*
X59520682Y-84242181D01*
X59462864Y-84300000D01*
X59408880Y-84353984D01*
X59408878Y-84353986D01*
X56994519Y-86768346D01*
X54590484Y-89172381D01*
X54529161Y-89205866D01*
X54502803Y-89208700D01*
X53813740Y-89208700D01*
X53746701Y-89189015D01*
X53700946Y-89136211D01*
X53691002Y-89067053D01*
X53695809Y-89046381D01*
X53719709Y-88972826D01*
X53750500Y-88778422D01*
X53750500Y-87581577D01*
X53719709Y-87387173D01*
X53691487Y-87300317D01*
X53658884Y-87199975D01*
X53658882Y-87199972D01*
X53658882Y-87199970D01*
X53587205Y-87059297D01*
X53569524Y-87024595D01*
X53453828Y-86865354D01*
X53314646Y-86726172D01*
X53155405Y-86610476D01*
X53133816Y-86599476D01*
X52980029Y-86521117D01*
X52792826Y-86460290D01*
X52598422Y-86429500D01*
X52598417Y-86429500D01*
X52401583Y-86429500D01*
X52401578Y-86429500D01*
X52207173Y-86460290D01*
X52019970Y-86521117D01*
X51844594Y-86610476D01*
X51753741Y-86676485D01*
X51685354Y-86726172D01*
X51685352Y-86726174D01*
X51685350Y-86726175D01*
X51643178Y-86768346D01*
X51581854Y-86801830D01*
X51512163Y-86796844D01*
X51467818Y-86768344D01*
X51414648Y-86715174D01*
X51414646Y-86715172D01*
X51255405Y-86599476D01*
X51080029Y-86510117D01*
X50892826Y-86449290D01*
X50698422Y-86418500D01*
X50698417Y-86418500D01*
X50501583Y-86418500D01*
X50501578Y-86418500D01*
X50307173Y-86449290D01*
X50119970Y-86510117D01*
X49944594Y-86599476D01*
X49853741Y-86665485D01*
X49785354Y-86715172D01*
X49785352Y-86715174D01*
X49785351Y-86715174D01*
X49646174Y-86854351D01*
X49646174Y-86854352D01*
X49646172Y-86854354D01*
X49638180Y-86865354D01*
X49530476Y-87013594D01*
X49441117Y-87188970D01*
X49380290Y-87376173D01*
X49349500Y-87570577D01*
X49349500Y-88767422D01*
X49380290Y-88961826D01*
X49441117Y-89149029D01*
X49514195Y-89292452D01*
X49530476Y-89324405D01*
X49573126Y-89383108D01*
X49596606Y-89448913D01*
X49580781Y-89516967D01*
X49560489Y-89543674D01*
X48859355Y-90244808D01*
X48798032Y-90278293D01*
X48728340Y-90273309D01*
X48691981Y-90249942D01*
X48690915Y-90251191D01*
X48687213Y-90248028D01*
X48521613Y-90127715D01*
X48521612Y-90127714D01*
X48521610Y-90127713D01*
X48464653Y-90098691D01*
X48339223Y-90034781D01*
X48144534Y-89971522D01*
X47958521Y-89942061D01*
X47942352Y-89939500D01*
X47737648Y-89939500D01*
X47721479Y-89942061D01*
X47535465Y-89971522D01*
X47340776Y-90034781D01*
X47158386Y-90127715D01*
X46992786Y-90248028D01*
X46848032Y-90392782D01*
X46821668Y-90429070D01*
X46766338Y-90471735D01*
X46696724Y-90477714D01*
X46634929Y-90445108D01*
X46600572Y-90384269D01*
X46598060Y-90369438D01*
X46597640Y-90365533D01*
X46594091Y-90332517D01*
X46543796Y-90197669D01*
X46543795Y-90197668D01*
X46543793Y-90197664D01*
X46457547Y-90082455D01*
X46457544Y-90082452D01*
X46342335Y-89996206D01*
X46342328Y-89996202D01*
X46207482Y-89945908D01*
X46207483Y-89945908D01*
X46147883Y-89939501D01*
X46147881Y-89939500D01*
X46147873Y-89939500D01*
X46147864Y-89939500D01*
X44452129Y-89939500D01*
X44452123Y-89939501D01*
X44392516Y-89945908D01*
X44257671Y-89996202D01*
X44257664Y-89996206D01*
X44142455Y-90082452D01*
X44142452Y-90082455D01*
X44056206Y-90197664D01*
X44056202Y-90197671D01*
X44005908Y-90332517D01*
X43999501Y-90392116D01*
X43999500Y-90392135D01*
X41500500Y-90392135D01*
X41500500Y-71275835D01*
X41502293Y-71269727D01*
X41501118Y-71263471D01*
X41512018Y-71236606D01*
X41520185Y-71208796D01*
X41524994Y-71204628D01*
X41527389Y-71198728D01*
X41551085Y-71182020D01*
X41572989Y-71163041D01*
X41579289Y-71162135D01*
X41584492Y-71158467D01*
X41613453Y-71157222D01*
X41642147Y-71153097D01*
X41647937Y-71155741D01*
X41654297Y-71155468D01*
X41679332Y-71170079D01*
X41705703Y-71182122D01*
X41710524Y-71188283D01*
X41714642Y-71190686D01*
X41725387Y-71207274D01*
X41734980Y-71219531D01*
X41738853Y-71227132D01*
X41739423Y-71229256D01*
X41742175Y-71234022D01*
X41743798Y-71236833D01*
X41743799Y-71236835D01*
X41818477Y-71366183D01*
X41818481Y-71366188D01*
X41937349Y-71485056D01*
X41937355Y-71485061D01*
X42517668Y-72065374D01*
X42517678Y-72065385D01*
X42522008Y-72069715D01*
X42522009Y-72069716D01*
X42633813Y-72181520D01*
X42703435Y-72221716D01*
X42770744Y-72260577D01*
X42923471Y-72301500D01*
X42923472Y-72301500D01*
X48320903Y-72301500D01*
X48387942Y-72321185D01*
X48408584Y-72337819D01*
X50558584Y-74487819D01*
X50592069Y-74549142D01*
X50587085Y-74618834D01*
X50545213Y-74674767D01*
X50479749Y-74699184D01*
X50470903Y-74699500D01*
X50277648Y-74699500D01*
X50253329Y-74703351D01*
X50075465Y-74731522D01*
X49880776Y-74794781D01*
X49698386Y-74887715D01*
X49532786Y-75008028D01*
X49388028Y-75152786D01*
X49267713Y-75318388D01*
X49220203Y-75411630D01*
X49172228Y-75462426D01*
X49104407Y-75479220D01*
X49038272Y-75456682D01*
X48999234Y-75411628D01*
X48951861Y-75318652D01*
X48831582Y-75153105D01*
X48831582Y-75153104D01*
X48686895Y-75008417D01*
X48521349Y-74888140D01*
X48339029Y-74795244D01*
X48144413Y-74732009D01*
X48090000Y-74723390D01*
X48090000Y-75684314D01*
X48085606Y-75679920D01*
X47994394Y-75627259D01*
X47892661Y-75600000D01*
X47787339Y-75600000D01*
X47685606Y-75627259D01*
X47594394Y-75679920D01*
X47590000Y-75684314D01*
X47590000Y-74723390D01*
X47535586Y-74732009D01*
X47340970Y-74795244D01*
X47158650Y-74888140D01*
X46993105Y-75008417D01*
X46993104Y-75008417D01*
X46848417Y-75153104D01*
X46848417Y-75153105D01*
X46728140Y-75318650D01*
X46680765Y-75411629D01*
X46632790Y-75462425D01*
X46564969Y-75479220D01*
X46498834Y-75456682D01*
X46459795Y-75411629D01*
X46412419Y-75318650D01*
X46412287Y-75318390D01*
X46395471Y-75295244D01*
X46291971Y-75152786D01*
X46147213Y-75008028D01*
X45981613Y-74887715D01*
X45981612Y-74887714D01*
X45981610Y-74887713D01*
X45924653Y-74858691D01*
X45799223Y-74794781D01*
X45604534Y-74731522D01*
X45429995Y-74703878D01*
X45402352Y-74699500D01*
X45197648Y-74699500D01*
X45173329Y-74703351D01*
X44995465Y-74731522D01*
X44800776Y-74794781D01*
X44618386Y-74887715D01*
X44452786Y-75008028D01*
X44308028Y-75152786D01*
X44187715Y-75318386D01*
X44094781Y-75500776D01*
X44031522Y-75695465D01*
X43999500Y-75897648D01*
X43999500Y-76102351D01*
X44031522Y-76304534D01*
X44094781Y-76499223D01*
X44147311Y-76602317D01*
X44187585Y-76681359D01*
X44187715Y-76681613D01*
X44308028Y-76847213D01*
X44452786Y-76991971D01*
X44573226Y-77079474D01*
X44618390Y-77112287D01*
X44734607Y-77171503D01*
X44800776Y-77205218D01*
X44800778Y-77205218D01*
X44800781Y-77205220D01*
X44905137Y-77239127D01*
X44995465Y-77268477D01*
X45096557Y-77284488D01*
X45197648Y-77300500D01*
X45197649Y-77300500D01*
X45402351Y-77300500D01*
X45402352Y-77300500D01*
X45604534Y-77268477D01*
X45799219Y-77205220D01*
X45981610Y-77112287D01*
X46087844Y-77035104D01*
X46147213Y-76991971D01*
X46147215Y-76991968D01*
X46147219Y-76991966D01*
X46291966Y-76847219D01*
X46291968Y-76847215D01*
X46291971Y-76847213D01*
X46412284Y-76681614D01*
X46412286Y-76681611D01*
X46412287Y-76681610D01*
X46459795Y-76588369D01*
X46507770Y-76537574D01*
X46575591Y-76520779D01*
X46641725Y-76543316D01*
X46680765Y-76588370D01*
X46728140Y-76681349D01*
X46848417Y-76846894D01*
X46848417Y-76846895D01*
X46993104Y-76991582D01*
X47158650Y-77111859D01*
X47340968Y-77204754D01*
X47535578Y-77267988D01*
X47590000Y-77276607D01*
X47590000Y-76315686D01*
X47594394Y-76320080D01*
X47685606Y-76372741D01*
X47787339Y-76400000D01*
X47892661Y-76400000D01*
X47994394Y-76372741D01*
X48085606Y-76320080D01*
X48090000Y-76315686D01*
X48090000Y-77276606D01*
X48144421Y-77267988D01*
X48339031Y-77204754D01*
X48521349Y-77111859D01*
X48686894Y-76991582D01*
X48686895Y-76991582D01*
X48831582Y-76846895D01*
X48831582Y-76846894D01*
X48951861Y-76681347D01*
X48999234Y-76588371D01*
X49047208Y-76537575D01*
X49115028Y-76520779D01*
X49181164Y-76543316D01*
X49220203Y-76588369D01*
X49267713Y-76681611D01*
X49388028Y-76847213D01*
X49532786Y-76991971D01*
X49653226Y-77079474D01*
X49698390Y-77112287D01*
X49814607Y-77171503D01*
X49880776Y-77205218D01*
X49880778Y-77205218D01*
X49880781Y-77205220D01*
X49985137Y-77239127D01*
X50075465Y-77268477D01*
X50176557Y-77284488D01*
X50277648Y-77300500D01*
X50277649Y-77300500D01*
X50482351Y-77300500D01*
X50482352Y-77300500D01*
X50684534Y-77268477D01*
X50879219Y-77205220D01*
X51061610Y-77112287D01*
X51167844Y-77035104D01*
X51227216Y-76991969D01*
X51230923Y-76988803D01*
X51232515Y-76990667D01*
X51284763Y-76961827D01*
X51354477Y-76966494D01*
X51399355Y-76995191D01*
X52007184Y-77603020D01*
X52007186Y-77603021D01*
X52007190Y-77603024D01*
X52129331Y-77673541D01*
X52144116Y-77682077D01*
X52296843Y-77723001D01*
X52296845Y-77723001D01*
X52462554Y-77723001D01*
X52462570Y-77723000D01*
X63130831Y-77723000D01*
X63130847Y-77723001D01*
X63138443Y-77723001D01*
X63296554Y-77723001D01*
X63296557Y-77723001D01*
X63449285Y-77682077D01*
X63499404Y-77653139D01*
X63586216Y-77603020D01*
X63698020Y-77491216D01*
X63698020Y-77491214D01*
X63708228Y-77481007D01*
X63708230Y-77481004D01*
X63895158Y-77294075D01*
X63956479Y-77260592D01*
X64021151Y-77263825D01*
X64035466Y-77268477D01*
X64237648Y-77300500D01*
X64237649Y-77300500D01*
X64442351Y-77300500D01*
X64442352Y-77300500D01*
X64644534Y-77268477D01*
X64839219Y-77205220D01*
X65021610Y-77112287D01*
X65127844Y-77035104D01*
X65187213Y-76991971D01*
X65187215Y-76991968D01*
X65187219Y-76991966D01*
X65331966Y-76847219D01*
X65331968Y-76847215D01*
X65331971Y-76847213D01*
X65452286Y-76681611D01*
X65452415Y-76681359D01*
X65499795Y-76588369D01*
X65547769Y-76537573D01*
X65615590Y-76520778D01*
X65681725Y-76543315D01*
X65720765Y-76588369D01*
X65768141Y-76681350D01*
X65768147Y-76681359D01*
X65800523Y-76725921D01*
X65800524Y-76725922D01*
X66480000Y-76046446D01*
X66480000Y-76052661D01*
X66507259Y-76154394D01*
X66559920Y-76245606D01*
X66634394Y-76320080D01*
X66725606Y-76372741D01*
X66827339Y-76400000D01*
X66833553Y-76400000D01*
X66154076Y-77079474D01*
X66198650Y-77111859D01*
X66380968Y-77204755D01*
X66575582Y-77267990D01*
X66777683Y-77300000D01*
X66982317Y-77300000D01*
X67184417Y-77267990D01*
X67379031Y-77204755D01*
X67561349Y-77111859D01*
X67605921Y-77079474D01*
X66926447Y-76400000D01*
X66932661Y-76400000D01*
X67034394Y-76372741D01*
X67125606Y-76320080D01*
X67200080Y-76245606D01*
X67252741Y-76154394D01*
X67280000Y-76052661D01*
X67280000Y-76046447D01*
X67959474Y-76725921D01*
X67991861Y-76681347D01*
X67991861Y-76681346D01*
X68039234Y-76588371D01*
X68087208Y-76537575D01*
X68155028Y-76520779D01*
X68221164Y-76543316D01*
X68260203Y-76588369D01*
X68307713Y-76681611D01*
X68428028Y-76847213D01*
X68572786Y-76991971D01*
X68693226Y-77079474D01*
X68738390Y-77112287D01*
X68854607Y-77171503D01*
X68920776Y-77205218D01*
X68920778Y-77205218D01*
X68920781Y-77205220D01*
X69025137Y-77239127D01*
X69115465Y-77268477D01*
X69216557Y-77284488D01*
X69317648Y-77300500D01*
X69317649Y-77300500D01*
X69522351Y-77300500D01*
X69522352Y-77300500D01*
X69724534Y-77268477D01*
X69919219Y-77205220D01*
X70101610Y-77112287D01*
X70207844Y-77035104D01*
X70267213Y-76991971D01*
X70267215Y-76991968D01*
X70267219Y-76991966D01*
X70411966Y-76847219D01*
X70411968Y-76847215D01*
X70411971Y-76847213D01*
X70532284Y-76681614D01*
X70532286Y-76681611D01*
X70532287Y-76681610D01*
X70579516Y-76588917D01*
X70627489Y-76538123D01*
X70695310Y-76521328D01*
X70761445Y-76543865D01*
X70800483Y-76588917D01*
X70828797Y-76644485D01*
X70847715Y-76681614D01*
X70968028Y-76847213D01*
X71112786Y-76991971D01*
X71233226Y-77079474D01*
X71278390Y-77112287D01*
X71394607Y-77171503D01*
X71460776Y-77205218D01*
X71460778Y-77205218D01*
X71460781Y-77205220D01*
X71565137Y-77239127D01*
X71655465Y-77268477D01*
X71756557Y-77284488D01*
X71857648Y-77300500D01*
X71857649Y-77300500D01*
X72062351Y-77300500D01*
X72062352Y-77300500D01*
X72264534Y-77268477D01*
X72459219Y-77205220D01*
X72641610Y-77112287D01*
X72747844Y-77035104D01*
X72807213Y-76991971D01*
X72807215Y-76991968D01*
X72807219Y-76991966D01*
X72858293Y-76940891D01*
X72866228Y-76936558D01*
X72871647Y-76929317D01*
X72896417Y-76920073D01*
X72919615Y-76907406D01*
X72928633Y-76908050D01*
X72937107Y-76904889D01*
X72962941Y-76910504D01*
X72989306Y-76912390D01*
X72998350Y-76918201D01*
X73005383Y-76919730D01*
X73017489Y-76928791D01*
X73017754Y-76928395D01*
X73017757Y-76928397D01*
X73026092Y-76935230D01*
X73033598Y-76940848D01*
X73033641Y-76940876D01*
X73036642Y-76943877D01*
X73036643Y-76943879D01*
X73036649Y-76943885D01*
X73036655Y-76943890D01*
X73600039Y-77507274D01*
X73600049Y-77507285D01*
X73604379Y-77511615D01*
X73604380Y-77511616D01*
X73716184Y-77623420D01*
X73802995Y-77673539D01*
X73802997Y-77673541D01*
X73841051Y-77695511D01*
X73853115Y-77702477D01*
X74005843Y-77743401D01*
X74005846Y-77743401D01*
X74171553Y-77743401D01*
X74171569Y-77743400D01*
X80890431Y-77743400D01*
X80890447Y-77743401D01*
X80898043Y-77743401D01*
X81056154Y-77743401D01*
X81056157Y-77743401D01*
X81208885Y-77702477D01*
X81259004Y-77673539D01*
X81345816Y-77623420D01*
X81457620Y-77511616D01*
X81457620Y-77511614D01*
X81467828Y-77501407D01*
X81467830Y-77501404D01*
X81675158Y-77294075D01*
X81736479Y-77260592D01*
X81801151Y-77263825D01*
X81815466Y-77268477D01*
X82017648Y-77300500D01*
X82017649Y-77300500D01*
X82222351Y-77300500D01*
X82222352Y-77300500D01*
X82424534Y-77268477D01*
X82619219Y-77205220D01*
X82801610Y-77112287D01*
X82907844Y-77035104D01*
X82967213Y-76991971D01*
X82967215Y-76991968D01*
X82967219Y-76991966D01*
X83111966Y-76847219D01*
X83111968Y-76847215D01*
X83111971Y-76847213D01*
X83164732Y-76774590D01*
X83232287Y-76681610D01*
X83325220Y-76499219D01*
X83358211Y-76397682D01*
X87200000Y-76397682D01*
X87200000Y-76602317D01*
X87232009Y-76804417D01*
X87295244Y-76999031D01*
X87388141Y-77181350D01*
X87388147Y-77181359D01*
X87420523Y-77225921D01*
X87420524Y-77225922D01*
X88100000Y-76546446D01*
X88100000Y-76552661D01*
X88127259Y-76654394D01*
X88179920Y-76745606D01*
X88254394Y-76820080D01*
X88345606Y-76872741D01*
X88447339Y-76900000D01*
X88453553Y-76900000D01*
X87774076Y-77579474D01*
X87818650Y-77611859D01*
X88000968Y-77704755D01*
X88195582Y-77767990D01*
X88397683Y-77800000D01*
X88602317Y-77800000D01*
X88804417Y-77767990D01*
X88999031Y-77704755D01*
X89181349Y-77611859D01*
X89225921Y-77579474D01*
X88546447Y-76900000D01*
X88552661Y-76900000D01*
X88654394Y-76872741D01*
X88745606Y-76820080D01*
X88820080Y-76745606D01*
X88872741Y-76654394D01*
X88900000Y-76552661D01*
X88900000Y-76546447D01*
X89579474Y-77225921D01*
X89611859Y-77181349D01*
X89704755Y-76999031D01*
X89767990Y-76804417D01*
X89800000Y-76602317D01*
X89800000Y-76397682D01*
X89767990Y-76195582D01*
X89704755Y-76000968D01*
X89611859Y-75818650D01*
X89579474Y-75774077D01*
X89579474Y-75774076D01*
X88900000Y-76453551D01*
X88900000Y-76447339D01*
X88872741Y-76345606D01*
X88820080Y-76254394D01*
X88745606Y-76179920D01*
X88654394Y-76127259D01*
X88552661Y-76100000D01*
X88546446Y-76100000D01*
X89225922Y-75420524D01*
X89225921Y-75420523D01*
X89181359Y-75388147D01*
X89181350Y-75388141D01*
X88999031Y-75295244D01*
X88804417Y-75232009D01*
X88602317Y-75200000D01*
X88397683Y-75200000D01*
X88195582Y-75232009D01*
X88000968Y-75295244D01*
X87818644Y-75388143D01*
X87774077Y-75420523D01*
X87774077Y-75420524D01*
X88453554Y-76100000D01*
X88447339Y-76100000D01*
X88345606Y-76127259D01*
X88254394Y-76179920D01*
X88179920Y-76254394D01*
X88127259Y-76345606D01*
X88100000Y-76447339D01*
X88100000Y-76453553D01*
X87420524Y-75774077D01*
X87420523Y-75774077D01*
X87388143Y-75818644D01*
X87295244Y-76000968D01*
X87232009Y-76195582D01*
X87200000Y-76397682D01*
X83358211Y-76397682D01*
X83388477Y-76304534D01*
X83420500Y-76102352D01*
X83420500Y-75897648D01*
X83388477Y-75695466D01*
X83383825Y-75681151D01*
X83383391Y-75665940D01*
X83378074Y-75651683D01*
X83382414Y-75631728D01*
X83381832Y-75611312D01*
X83389920Y-75597225D01*
X83392926Y-75583410D01*
X83414073Y-75555160D01*
X86560317Y-72408919D01*
X86621640Y-72375434D01*
X86647998Y-72372600D01*
X107268843Y-72372600D01*
X112261231Y-72372600D01*
X112261247Y-72372601D01*
X112268843Y-72372601D01*
X112426954Y-72372601D01*
X112426957Y-72372601D01*
X112579685Y-72331677D01*
X112631953Y-72301500D01*
X112631954Y-72301500D01*
X112716609Y-72252624D01*
X112716608Y-72252624D01*
X112716616Y-72252620D01*
X112828420Y-72140816D01*
X112828420Y-72140814D01*
X112838624Y-72130611D01*
X112838628Y-72130606D01*
X114857076Y-70112157D01*
X114918397Y-70078674D01*
X114983073Y-70081909D01*
X115158580Y-70138934D01*
X115165215Y-70141090D01*
X115414038Y-70180500D01*
X115414039Y-70180500D01*
X115665961Y-70180500D01*
X115665962Y-70180500D01*
X115914785Y-70141090D01*
X116154379Y-70063241D01*
X116378845Y-69948870D01*
X116582656Y-69800793D01*
X116760793Y-69622656D01*
X116908870Y-69418845D01*
X117023241Y-69194379D01*
X117101090Y-68954785D01*
X117140500Y-68705962D01*
X117140500Y-68454038D01*
X117101090Y-68205215D01*
X117101089Y-68205211D01*
X117101089Y-68205210D01*
X117041909Y-68023073D01*
X117039914Y-67953232D01*
X117072157Y-67897076D01*
X117649506Y-67319728D01*
X117649511Y-67319724D01*
X117659714Y-67309520D01*
X117659716Y-67309520D01*
X117771520Y-67197716D01*
X117834727Y-67088237D01*
X117834729Y-67088235D01*
X117841750Y-67076073D01*
X117850577Y-67060785D01*
X117891501Y-66908057D01*
X117891501Y-66749943D01*
X117891501Y-66742348D01*
X117891500Y-66742330D01*
X117891500Y-64724500D01*
X117911185Y-64657461D01*
X117963989Y-64611706D01*
X118015500Y-64600500D01*
X118166610Y-64600500D01*
X118166611Y-64600500D01*
X118337701Y-64573402D01*
X118502445Y-64519873D01*
X118656788Y-64441232D01*
X118796928Y-64339414D01*
X118919414Y-64216928D01*
X119021232Y-64076788D01*
X119099873Y-63922445D01*
X119153402Y-63757701D01*
X119180500Y-63586611D01*
X119180500Y-63413389D01*
X119153402Y-63242299D01*
X119099873Y-63077555D01*
X119021232Y-62923212D01*
X118919414Y-62783072D01*
X118796928Y-62660586D01*
X118656788Y-62558768D01*
X118502445Y-62480127D01*
X118337701Y-62426598D01*
X118337699Y-62426597D01*
X118337698Y-62426597D01*
X118206271Y-62405781D01*
X118166611Y-62399500D01*
X117993389Y-62399500D01*
X117953728Y-62405781D01*
X117822302Y-62426597D01*
X117657552Y-62480128D01*
X117503211Y-62558768D01*
X117459147Y-62590783D01*
X117363072Y-62660586D01*
X117363070Y-62660588D01*
X117363069Y-62660588D01*
X117312181Y-62711477D01*
X117250858Y-62744962D01*
X117181166Y-62739978D01*
X117125233Y-62698106D01*
X117100816Y-62632642D01*
X117100500Y-62623796D01*
X117100500Y-60300096D01*
X117120185Y-60233057D01*
X117136815Y-60212419D01*
X117379506Y-59969727D01*
X117379511Y-59969724D01*
X117389714Y-59959520D01*
X117389716Y-59959520D01*
X117501520Y-59847716D01*
X117535495Y-59788870D01*
X117554539Y-59755885D01*
X117554539Y-59755884D01*
X117580577Y-59710785D01*
X117621500Y-59558058D01*
X117621500Y-59399943D01*
X117621500Y-49880060D01*
X117621501Y-49880047D01*
X117621501Y-49711944D01*
X117621501Y-49711943D01*
X117580577Y-49559216D01*
X117542792Y-49493769D01*
X117501524Y-49422290D01*
X117501518Y-49422282D01*
X117136595Y-49057359D01*
X117103110Y-48996036D01*
X117101803Y-48950282D01*
X117140500Y-48705962D01*
X117140500Y-48454038D01*
X117101090Y-48205215D01*
X117023241Y-47965621D01*
X117023237Y-47965613D01*
X117020272Y-47959792D01*
X117007377Y-47891122D01*
X117033655Y-47826383D01*
X117090763Y-47786127D01*
X117130758Y-47779500D01*
X120758903Y-47779500D01*
X120825942Y-47799185D01*
X120846584Y-47815819D01*
X122126561Y-49095796D01*
X122160046Y-49157119D01*
X122156811Y-49221794D01*
X122133985Y-49292045D01*
X122099500Y-49509778D01*
X122099500Y-49730221D01*
X122133985Y-49947952D01*
X122202103Y-50157603D01*
X122202104Y-50157606D01*
X122270122Y-50291096D01*
X122299120Y-50348007D01*
X122302187Y-50354025D01*
X122431752Y-50532358D01*
X122431756Y-50532363D01*
X122587636Y-50688243D01*
X122587641Y-50688247D01*
X122738560Y-50797895D01*
X122765978Y-50817815D01*
X122860573Y-50866014D01*
X122962393Y-50917895D01*
X122962396Y-50917896D01*
X123067221Y-50951955D01*
X123172049Y-50986015D01*
X123389778Y-51020500D01*
X123389779Y-51020500D01*
X123610221Y-51020500D01*
X123610222Y-51020500D01*
X123827951Y-50986015D01*
X124037606Y-50917895D01*
X124234022Y-50817815D01*
X124412365Y-50688242D01*
X124568242Y-50532365D01*
X124697815Y-50354022D01*
X124797895Y-50157606D01*
X124866015Y-49947951D01*
X124900500Y-49730222D01*
X124900500Y-49509778D01*
X124866015Y-49292049D01*
X124816474Y-49139576D01*
X124797896Y-49082396D01*
X124797895Y-49082393D01*
X124736751Y-48962394D01*
X124697815Y-48885978D01*
X124681260Y-48863192D01*
X124568247Y-48707641D01*
X124568243Y-48707636D01*
X124412363Y-48551756D01*
X124412358Y-48551752D01*
X124234025Y-48422187D01*
X124234024Y-48422186D01*
X124234022Y-48422185D01*
X124171096Y-48390122D01*
X124037606Y-48322104D01*
X124037603Y-48322103D01*
X123827952Y-48253985D01*
X123719086Y-48236742D01*
X123610222Y-48219500D01*
X123389778Y-48219500D01*
X123346232Y-48226397D01*
X123172045Y-48253985D01*
X123101794Y-48276811D01*
X123031953Y-48278806D01*
X122975796Y-48246561D01*
X121546590Y-46817355D01*
X121546588Y-46817352D01*
X121427717Y-46698481D01*
X121427716Y-46698480D01*
X121316340Y-46634177D01*
X121316338Y-46634176D01*
X121290785Y-46619423D01*
X121290784Y-46619422D01*
X121290783Y-46619422D01*
X121234881Y-46604443D01*
X121138057Y-46578499D01*
X120979943Y-46578499D01*
X120972347Y-46578499D01*
X120972331Y-46578500D01*
X115038743Y-46578500D01*
X114880628Y-46578500D01*
X114727901Y-46619423D01*
X114702347Y-46634177D01*
X114667356Y-46654379D01*
X114590971Y-46698479D01*
X114590968Y-46698481D01*
X113658481Y-47630968D01*
X113658477Y-47630973D01*
X113641998Y-47659518D01*
X113641997Y-47659520D01*
X113579423Y-47767901D01*
X113538499Y-47920629D01*
X113538499Y-47920631D01*
X113538499Y-48088732D01*
X113538500Y-48088745D01*
X113538500Y-48431003D01*
X113518815Y-48498042D01*
X113502181Y-48518684D01*
X112668184Y-49352681D01*
X112606861Y-49386166D01*
X112580503Y-49389000D01*
X105024500Y-49389000D01*
X104957461Y-49369315D01*
X104911706Y-49316511D01*
X104900500Y-49265000D01*
X104900500Y-49199778D01*
X104866015Y-48982049D01*
X104797895Y-48772394D01*
X104797895Y-48772393D01*
X104759387Y-48696819D01*
X104697815Y-48575978D01*
X104593034Y-48431758D01*
X104568247Y-48397641D01*
X104568243Y-48397636D01*
X104412363Y-48241756D01*
X104412358Y-48241752D01*
X104234025Y-48112187D01*
X104234024Y-48112186D01*
X104234022Y-48112185D01*
X104168389Y-48078743D01*
X104037606Y-48012104D01*
X104037603Y-48012103D01*
X103827952Y-47943985D01*
X103680500Y-47920631D01*
X103610222Y-47909500D01*
X103389778Y-47909500D01*
X103319500Y-47920631D01*
X103172047Y-47943985D01*
X102962396Y-48012103D01*
X102962393Y-48012104D01*
X102765974Y-48112187D01*
X102587641Y-48241752D01*
X102587636Y-48241756D01*
X102431756Y-48397636D01*
X102431752Y-48397641D01*
X102302187Y-48575974D01*
X102202104Y-48772393D01*
X102202103Y-48772396D01*
X102133985Y-48982047D01*
X102099500Y-49199778D01*
X102099500Y-49265000D01*
X102079815Y-49332039D01*
X102027011Y-49377794D01*
X101975500Y-49389000D01*
X97126427Y-49389000D01*
X97059388Y-49369315D01*
X97013633Y-49316511D01*
X97003689Y-49247353D01*
X97015941Y-49208707D01*
X97020490Y-49199778D01*
X97023241Y-49194379D01*
X97101090Y-48954785D01*
X97140500Y-48705962D01*
X97140500Y-48454038D01*
X97101090Y-48205215D01*
X97023241Y-47965621D01*
X97023239Y-47965618D01*
X97023239Y-47965616D01*
X96963050Y-47847489D01*
X96908870Y-47741155D01*
X96849559Y-47659520D01*
X96760798Y-47537350D01*
X96760794Y-47537345D01*
X96582654Y-47359205D01*
X96582649Y-47359201D01*
X96378848Y-47211132D01*
X96378847Y-47211131D01*
X96378845Y-47211130D01*
X96308747Y-47175413D01*
X96154383Y-47096760D01*
X95914785Y-47018910D01*
X95665962Y-46979500D01*
X95414038Y-46979500D01*
X95289626Y-46999205D01*
X95165214Y-47018910D01*
X94925616Y-47096760D01*
X94701151Y-47211132D01*
X94497350Y-47359201D01*
X94497345Y-47359205D01*
X94319205Y-47537345D01*
X94319201Y-47537350D01*
X94171132Y-47741151D01*
X94084185Y-47911795D01*
X94036211Y-47962591D01*
X93973700Y-47979500D01*
X87105498Y-47979500D01*
X87038459Y-47959815D01*
X87017817Y-47943181D01*
X85961417Y-46886781D01*
X85927932Y-46825458D01*
X85932916Y-46755766D01*
X85974788Y-46699833D01*
X86040252Y-46675416D01*
X86049098Y-46675100D01*
X87641329Y-46675100D01*
X87708368Y-46694785D01*
X87751814Y-46742805D01*
X87821132Y-46878848D01*
X87969201Y-47082649D01*
X87969205Y-47082654D01*
X88147345Y-47260794D01*
X88147350Y-47260798D01*
X88309814Y-47378834D01*
X88351155Y-47408870D01*
X88494184Y-47481747D01*
X88575616Y-47523239D01*
X88575618Y-47523239D01*
X88575621Y-47523241D01*
X88815215Y-47601090D01*
X89064038Y-47640500D01*
X89064039Y-47640500D01*
X89315961Y-47640500D01*
X89315962Y-47640500D01*
X89564785Y-47601090D01*
X89804379Y-47523241D01*
X90028845Y-47408870D01*
X90232656Y-47260793D01*
X90410793Y-47082656D01*
X90558870Y-46878845D01*
X90628186Y-46742805D01*
X90676161Y-46692009D01*
X90738671Y-46675100D01*
X96728731Y-46675100D01*
X96728747Y-46675101D01*
X96736343Y-46675101D01*
X96894455Y-46675101D01*
X96894457Y-46675101D01*
X96993061Y-46648679D01*
X97007821Y-46644725D01*
X97039914Y-46640500D01*
X99063331Y-46640500D01*
X99063347Y-46640501D01*
X99070943Y-46640501D01*
X99229054Y-46640501D01*
X99229057Y-46640501D01*
X99381785Y-46599577D01*
X99458788Y-46555119D01*
X99518716Y-46520520D01*
X99630520Y-46408716D01*
X99630520Y-46408714D01*
X99640724Y-46398511D01*
X99640728Y-46398506D01*
X102912416Y-43126818D01*
X102973739Y-43093333D01*
X103000097Y-43090499D01*
X104200002Y-43090499D01*
X104200008Y-43090499D01*
X104302797Y-43079999D01*
X104469334Y-43024814D01*
X104618656Y-42932712D01*
X104742712Y-42808656D01*
X104834814Y-42659334D01*
X104889999Y-42492797D01*
X104900500Y-42390009D01*
X104900499Y-40989992D01*
X104889999Y-40887203D01*
X104834814Y-40720666D01*
X104742712Y-40571344D01*
X104618656Y-40447288D01*
X104525888Y-40390069D01*
X104469336Y-40355187D01*
X104469331Y-40355185D01*
X104467862Y-40354698D01*
X104302797Y-40300001D01*
X104302795Y-40300000D01*
X104200010Y-40289500D01*
X102799998Y-40289500D01*
X102799981Y-40289501D01*
X102697203Y-40300000D01*
X102697200Y-40300001D01*
X102530668Y-40355185D01*
X102530663Y-40355187D01*
X102381342Y-40447289D01*
X102257289Y-40571342D01*
X102165187Y-40720663D01*
X102165185Y-40720668D01*
X102137349Y-40804670D01*
X102110001Y-40887203D01*
X102110001Y-40887204D01*
X102110000Y-40887204D01*
X102099500Y-40989983D01*
X102099500Y-42189902D01*
X102079815Y-42256941D01*
X102063181Y-42277583D01*
X98937584Y-45403181D01*
X98876261Y-45436666D01*
X98849903Y-45439500D01*
X96936670Y-45439500D01*
X96936654Y-45439499D01*
X96929058Y-45439499D01*
X96770943Y-45439499D01*
X96657579Y-45469875D01*
X96625486Y-45474100D01*
X94489447Y-45474100D01*
X94422408Y-45454415D01*
X94376653Y-45401611D01*
X94366709Y-45332453D01*
X94395734Y-45268897D01*
X94413960Y-45251724D01*
X94436671Y-45234297D01*
X94487042Y-45195646D01*
X94695646Y-44987042D01*
X94875238Y-44752994D01*
X95022743Y-44497507D01*
X95135639Y-44224952D01*
X95211993Y-43939993D01*
X95250500Y-43647506D01*
X95250500Y-43413389D01*
X96979500Y-43413389D01*
X96979500Y-43586611D01*
X97006598Y-43757701D01*
X97060127Y-43922445D01*
X97138768Y-44076788D01*
X97240586Y-44216928D01*
X97363072Y-44339414D01*
X97503212Y-44441232D01*
X97657555Y-44519873D01*
X97822299Y-44573402D01*
X97993389Y-44600500D01*
X97993390Y-44600500D01*
X98166610Y-44600500D01*
X98166611Y-44600500D01*
X98337701Y-44573402D01*
X98502445Y-44519873D01*
X98656788Y-44441232D01*
X98796928Y-44339414D01*
X98919414Y-44216928D01*
X99021232Y-44076788D01*
X99099873Y-43922445D01*
X99153402Y-43757701D01*
X99180500Y-43586611D01*
X99180500Y-43413389D01*
X99153402Y-43242299D01*
X99099873Y-43077555D01*
X99021232Y-42923212D01*
X98919414Y-42783072D01*
X98796928Y-42660586D01*
X98656788Y-42558768D01*
X98541254Y-42499901D01*
X98502447Y-42480128D01*
X98502446Y-42480127D01*
X98502445Y-42480127D01*
X98337701Y-42426598D01*
X98337699Y-42426597D01*
X98337698Y-42426597D01*
X98206271Y-42405781D01*
X98166611Y-42399500D01*
X97993389Y-42399500D01*
X97953728Y-42405781D01*
X97822302Y-42426597D01*
X97657552Y-42480128D01*
X97503211Y-42558768D01*
X97463553Y-42587582D01*
X97363072Y-42660586D01*
X97363070Y-42660588D01*
X97363069Y-42660588D01*
X97240588Y-42783069D01*
X97240588Y-42783070D01*
X97240586Y-42783072D01*
X97196859Y-42843256D01*
X97138768Y-42923211D01*
X97060128Y-43077552D01*
X97006597Y-43242302D01*
X96983205Y-43389998D01*
X96979500Y-43413389D01*
X95250500Y-43413389D01*
X95250500Y-43352494D01*
X95211993Y-43060007D01*
X95135639Y-42775048D01*
X95022743Y-42502493D01*
X94994542Y-42453648D01*
X94875238Y-42247006D01*
X94695647Y-42012959D01*
X94695641Y-42012952D01*
X94487047Y-41804358D01*
X94487040Y-41804352D01*
X94252993Y-41624761D01*
X93997510Y-41477258D01*
X93997500Y-41477254D01*
X93724961Y-41364364D01*
X93724954Y-41364362D01*
X93724952Y-41364361D01*
X93439993Y-41288007D01*
X93391113Y-41281571D01*
X93147513Y-41249500D01*
X93147506Y-41249500D01*
X92852494Y-41249500D01*
X92852486Y-41249500D01*
X92574085Y-41286153D01*
X92560007Y-41288007D01*
X92515256Y-41299998D01*
X92275048Y-41364361D01*
X92275038Y-41364364D01*
X92002499Y-41477254D01*
X92002489Y-41477258D01*
X91747006Y-41624761D01*
X91512959Y-41804352D01*
X91512952Y-41804358D01*
X91304358Y-42012952D01*
X91304352Y-42012959D01*
X91124761Y-42247006D01*
X90977258Y-42502489D01*
X90977254Y-42502499D01*
X90864364Y-42775038D01*
X90864361Y-42775048D01*
X90797438Y-43024812D01*
X90788008Y-43060004D01*
X90788006Y-43060015D01*
X90749500Y-43352486D01*
X90749500Y-43647513D01*
X90781571Y-43891113D01*
X90788007Y-43939993D01*
X90862212Y-44216930D01*
X90864361Y-44224951D01*
X90864364Y-44224961D01*
X90977254Y-44497500D01*
X90977258Y-44497510D01*
X91124761Y-44752993D01*
X91304352Y-44987040D01*
X91304358Y-44987047D01*
X91512952Y-45195641D01*
X91512956Y-45195644D01*
X91512958Y-45195646D01*
X91540949Y-45217124D01*
X91586040Y-45251724D01*
X91627242Y-45308152D01*
X91631397Y-45377898D01*
X91597184Y-45438819D01*
X91535467Y-45471571D01*
X91510553Y-45474100D01*
X90773930Y-45474100D01*
X90706891Y-45454415D01*
X90663445Y-45406395D01*
X90643378Y-45367011D01*
X90558870Y-45201155D01*
X90418329Y-45007716D01*
X90410798Y-44997350D01*
X90410794Y-44997345D01*
X90232654Y-44819205D01*
X90232649Y-44819201D01*
X90028848Y-44671132D01*
X90028847Y-44671131D01*
X90028845Y-44671130D01*
X89958747Y-44635413D01*
X89804383Y-44556760D01*
X89564785Y-44478910D01*
X89508896Y-44470058D01*
X89315962Y-44439500D01*
X89064038Y-44439500D01*
X89053103Y-44441232D01*
X88814561Y-44479013D01*
X88745267Y-44470058D01*
X88691815Y-44425062D01*
X88671176Y-44358310D01*
X88689901Y-44290997D01*
X88707479Y-44268862D01*
X88759414Y-44216928D01*
X88861232Y-44076788D01*
X88939873Y-43922445D01*
X88993402Y-43757701D01*
X89020500Y-43586611D01*
X89020500Y-43413389D01*
X88993402Y-43242299D01*
X88939873Y-43077555D01*
X88861232Y-42923212D01*
X88759414Y-42783072D01*
X88707482Y-42731140D01*
X88673997Y-42669817D01*
X88678981Y-42600125D01*
X88720853Y-42544192D01*
X88786317Y-42519775D01*
X88814561Y-42520986D01*
X88815212Y-42521089D01*
X88815215Y-42521090D01*
X89064038Y-42560500D01*
X89064039Y-42560500D01*
X89315961Y-42560500D01*
X89315962Y-42560500D01*
X89564785Y-42521090D01*
X89804379Y-42443241D01*
X90028845Y-42328870D01*
X90232656Y-42180793D01*
X90410793Y-42002656D01*
X90558870Y-41798845D01*
X90673241Y-41574379D01*
X90751090Y-41334785D01*
X90790500Y-41085962D01*
X90790500Y-40834038D01*
X90751090Y-40585215D01*
X90673241Y-40345621D01*
X90673239Y-40345618D01*
X90673239Y-40345616D01*
X90631747Y-40264184D01*
X90558870Y-40121155D01*
X90457107Y-39981090D01*
X90410798Y-39917350D01*
X90410794Y-39917345D01*
X90232654Y-39739205D01*
X90232649Y-39739201D01*
X90028848Y-39591132D01*
X90028847Y-39591131D01*
X90028845Y-39591130D01*
X89958747Y-39555413D01*
X89804383Y-39476760D01*
X89564785Y-39398910D01*
X89564779Y-39398909D01*
X89315962Y-39359500D01*
X89064038Y-39359500D01*
X88939626Y-39379205D01*
X88815214Y-39398910D01*
X88575616Y-39476760D01*
X88351151Y-39591132D01*
X88147350Y-39739201D01*
X88147345Y-39739205D01*
X87969205Y-39917345D01*
X87969201Y-39917350D01*
X87821132Y-40121151D01*
X87821130Y-40121155D01*
X87741685Y-40277076D01*
X87734185Y-40291795D01*
X87686211Y-40342591D01*
X87623700Y-40359500D01*
X84340940Y-40359500D01*
X84300019Y-40370464D01*
X84300019Y-40370465D01*
X84262751Y-40380451D01*
X84188214Y-40400423D01*
X84188213Y-40400424D01*
X84080024Y-40462887D01*
X84018024Y-40479500D01*
X82799998Y-40479500D01*
X82799981Y-40479501D01*
X82697203Y-40490000D01*
X82697200Y-40490001D01*
X82530668Y-40545185D01*
X82530663Y-40545187D01*
X82381342Y-40637289D01*
X82257289Y-40761342D01*
X82165187Y-40910663D01*
X82165186Y-40910666D01*
X82110001Y-41077203D01*
X82110001Y-41077204D01*
X82110000Y-41077204D01*
X82099500Y-41179983D01*
X82099500Y-41643603D01*
X82079815Y-41710642D01*
X82027011Y-41756397D01*
X81957853Y-41766341D01*
X81894297Y-41737316D01*
X81887819Y-41731284D01*
X77506316Y-37349781D01*
X77472831Y-37288458D01*
X77477815Y-37218766D01*
X77519687Y-37162833D01*
X77585151Y-37138416D01*
X77593997Y-37138100D01*
X94259089Y-37138100D01*
X94326128Y-37157785D01*
X94371883Y-37210589D01*
X94381827Y-37279747D01*
X94352802Y-37343303D01*
X94346770Y-37349781D01*
X94319205Y-37377345D01*
X94319201Y-37377350D01*
X94171132Y-37581151D01*
X94056760Y-37805616D01*
X93978910Y-38045214D01*
X93939500Y-38294038D01*
X93939500Y-38545961D01*
X93978910Y-38794785D01*
X94056760Y-39034383D01*
X94171132Y-39258848D01*
X94319201Y-39462649D01*
X94319205Y-39462654D01*
X94497345Y-39640794D01*
X94497350Y-39640798D01*
X94635236Y-39740977D01*
X94701155Y-39788870D01*
X94844184Y-39861747D01*
X94925616Y-39903239D01*
X94925618Y-39903239D01*
X94925621Y-39903241D01*
X95165215Y-39981090D01*
X95414038Y-40020500D01*
X95414039Y-40020500D01*
X95665961Y-40020500D01*
X95665962Y-40020500D01*
X95914785Y-39981090D01*
X96154379Y-39903241D01*
X96378845Y-39788870D01*
X96582656Y-39640793D01*
X96760793Y-39462656D01*
X96908870Y-39258845D01*
X97023241Y-39034379D01*
X97101090Y-38794785D01*
X97140500Y-38545962D01*
X97140500Y-38294038D01*
X97101090Y-38045215D01*
X97023241Y-37805621D01*
X97023239Y-37805618D01*
X97023239Y-37805616D01*
X96954846Y-37671389D01*
X96908870Y-37581155D01*
X96773087Y-37394265D01*
X96760798Y-37377350D01*
X96760794Y-37377345D01*
X96733230Y-37349781D01*
X96699745Y-37288458D01*
X96704729Y-37218766D01*
X96746601Y-37162833D01*
X96812065Y-37138416D01*
X96820911Y-37138100D01*
X112713303Y-37138100D01*
X112780342Y-37157785D01*
X112826097Y-37210589D01*
X112836041Y-37279747D01*
X112807016Y-37343303D01*
X112800984Y-37349781D01*
X110409788Y-39740977D01*
X110348465Y-39774462D01*
X110278773Y-39769478D01*
X110236434Y-39742267D01*
X110236352Y-39742364D01*
X110235646Y-39741761D01*
X110234426Y-39740977D01*
X110232654Y-39739205D01*
X110232649Y-39739201D01*
X110028848Y-39591132D01*
X110028847Y-39591131D01*
X110028845Y-39591130D01*
X109958747Y-39555413D01*
X109804383Y-39476760D01*
X109564785Y-39398910D01*
X109564779Y-39398909D01*
X109315962Y-39359500D01*
X109064038Y-39359500D01*
X108939626Y-39379205D01*
X108815214Y-39398910D01*
X108575616Y-39476760D01*
X108351151Y-39591132D01*
X108147350Y-39739201D01*
X108147345Y-39739205D01*
X107969205Y-39917345D01*
X107969201Y-39917350D01*
X107821132Y-40121151D01*
X107706760Y-40345616D01*
X107628910Y-40585214D01*
X107589500Y-40834038D01*
X107589500Y-41085961D01*
X107628910Y-41334785D01*
X107706760Y-41574383D01*
X107742030Y-41643603D01*
X107804568Y-41766341D01*
X107821132Y-41798848D01*
X107969201Y-42002649D01*
X107969205Y-42002654D01*
X107969207Y-42002656D01*
X108147344Y-42180793D01*
X108147345Y-42180794D01*
X108147344Y-42180794D01*
X108153661Y-42185383D01*
X108196327Y-42240714D01*
X108202305Y-42310327D01*
X108169699Y-42372122D01*
X108108860Y-42406479D01*
X108061378Y-42408174D01*
X108006611Y-42399500D01*
X107833389Y-42399500D01*
X107793728Y-42405781D01*
X107662302Y-42426597D01*
X107497552Y-42480128D01*
X107343211Y-42558768D01*
X107303553Y-42587582D01*
X107203072Y-42660586D01*
X107203070Y-42660588D01*
X107203069Y-42660588D01*
X107080588Y-42783069D01*
X107080588Y-42783070D01*
X107080586Y-42783072D01*
X107036859Y-42843256D01*
X106978768Y-42923211D01*
X106900128Y-43077552D01*
X106846597Y-43242302D01*
X106823205Y-43389998D01*
X106819500Y-43413389D01*
X106819500Y-43586611D01*
X106846598Y-43757701D01*
X106900127Y-43922445D01*
X106978768Y-44076788D01*
X107080586Y-44216928D01*
X107203072Y-44339414D01*
X107343212Y-44441232D01*
X107497555Y-44519873D01*
X107662299Y-44573402D01*
X107833389Y-44600500D01*
X107833390Y-44600500D01*
X108006609Y-44600500D01*
X108006611Y-44600500D01*
X108061379Y-44591825D01*
X108130669Y-44600779D01*
X108184122Y-44645774D01*
X108204762Y-44712526D01*
X108186038Y-44779840D01*
X108153668Y-44814611D01*
X108147347Y-44819204D01*
X108147345Y-44819205D01*
X107969205Y-44997345D01*
X107969201Y-44997350D01*
X107821132Y-45201151D01*
X107706760Y-45425616D01*
X107628910Y-45665214D01*
X107589500Y-45914038D01*
X107589500Y-46165961D01*
X107628910Y-46414785D01*
X107706760Y-46654383D01*
X107821132Y-46878848D01*
X107969201Y-47082649D01*
X107969205Y-47082654D01*
X108147345Y-47260794D01*
X108147350Y-47260798D01*
X108309814Y-47378834D01*
X108351155Y-47408870D01*
X108494184Y-47481747D01*
X108575616Y-47523239D01*
X108575618Y-47523239D01*
X108575621Y-47523241D01*
X108815215Y-47601090D01*
X109064038Y-47640500D01*
X109064039Y-47640500D01*
X109315961Y-47640500D01*
X109315962Y-47640500D01*
X109564785Y-47601090D01*
X109804379Y-47523241D01*
X110028845Y-47408870D01*
X110232656Y-47260793D01*
X110410793Y-47082656D01*
X110558870Y-46878845D01*
X110673241Y-46654379D01*
X110751090Y-46414785D01*
X110790500Y-46165962D01*
X110790500Y-45914038D01*
X110751090Y-45665215D01*
X110751089Y-45665211D01*
X110751089Y-45665210D01*
X110691909Y-45483073D01*
X110689914Y-45413232D01*
X110722157Y-45357076D01*
X110959713Y-45119521D01*
X110959716Y-45119520D01*
X111071520Y-45007716D01*
X111092119Y-44972035D01*
X111100990Y-44962242D01*
X111119971Y-44950623D01*
X111136076Y-44935268D01*
X111149190Y-44932739D01*
X111160583Y-44925767D01*
X111182830Y-44926255D01*
X111204682Y-44922043D01*
X111217081Y-44927006D01*
X111230436Y-44927300D01*
X111248889Y-44939739D01*
X111269548Y-44948010D01*
X111286292Y-44964954D01*
X111288371Y-44966356D01*
X111288906Y-44967600D01*
X111291275Y-44969997D01*
X111304354Y-44987043D01*
X111512952Y-45195641D01*
X111512959Y-45195647D01*
X111747006Y-45375238D01*
X112002489Y-45522741D01*
X112002490Y-45522741D01*
X112002493Y-45522743D01*
X112275048Y-45635639D01*
X112560007Y-45711993D01*
X112852494Y-45750500D01*
X112852501Y-45750500D01*
X113147499Y-45750500D01*
X113147506Y-45750500D01*
X113439993Y-45711993D01*
X113724952Y-45635639D01*
X113997507Y-45522743D01*
X114252994Y-45375238D01*
X114487042Y-45195646D01*
X114695646Y-44987042D01*
X114875238Y-44752994D01*
X115022743Y-44497507D01*
X115135639Y-44224952D01*
X115211993Y-43939993D01*
X115250500Y-43647506D01*
X115250500Y-43413389D01*
X116979500Y-43413389D01*
X116979500Y-43586611D01*
X117006598Y-43757701D01*
X117060127Y-43922445D01*
X117138768Y-44076788D01*
X117240586Y-44216928D01*
X117363072Y-44339414D01*
X117503212Y-44441232D01*
X117657555Y-44519873D01*
X117822299Y-44573402D01*
X117993389Y-44600500D01*
X117993390Y-44600500D01*
X118166610Y-44600500D01*
X118166611Y-44600500D01*
X118337701Y-44573402D01*
X118502445Y-44519873D01*
X118656788Y-44441232D01*
X118796928Y-44339414D01*
X118919414Y-44216928D01*
X119021232Y-44076788D01*
X119099873Y-43922445D01*
X119153402Y-43757701D01*
X119180500Y-43586611D01*
X119180500Y-43413389D01*
X119153402Y-43242299D01*
X119099873Y-43077555D01*
X119021232Y-42923212D01*
X118919414Y-42783072D01*
X118796928Y-42660586D01*
X118656788Y-42558768D01*
X118541254Y-42499901D01*
X118502447Y-42480128D01*
X118502446Y-42480127D01*
X118502445Y-42480127D01*
X118337701Y-42426598D01*
X118337699Y-42426597D01*
X118337698Y-42426597D01*
X118206271Y-42405781D01*
X118166611Y-42399500D01*
X117993389Y-42399500D01*
X117953728Y-42405781D01*
X117822302Y-42426597D01*
X117657552Y-42480128D01*
X117503211Y-42558768D01*
X117463553Y-42587582D01*
X117363072Y-42660586D01*
X117363070Y-42660588D01*
X117363069Y-42660588D01*
X117240588Y-42783069D01*
X117240588Y-42783070D01*
X117240586Y-42783072D01*
X117196859Y-42843256D01*
X117138768Y-42923211D01*
X117060128Y-43077552D01*
X117006597Y-43242302D01*
X116983205Y-43389998D01*
X116979500Y-43413389D01*
X115250500Y-43413389D01*
X115250500Y-43352494D01*
X115211993Y-43060007D01*
X115135639Y-42775048D01*
X115022743Y-42502493D01*
X114994542Y-42453648D01*
X114875238Y-42247006D01*
X114695647Y-42012959D01*
X114695641Y-42012952D01*
X114487047Y-41804358D01*
X114487040Y-41804352D01*
X114252993Y-41624761D01*
X113997510Y-41477258D01*
X113997500Y-41477254D01*
X113724961Y-41364364D01*
X113724954Y-41364362D01*
X113724952Y-41364361D01*
X113439993Y-41288007D01*
X113391113Y-41281571D01*
X113147513Y-41249500D01*
X113147506Y-41249500D01*
X112852494Y-41249500D01*
X112852486Y-41249500D01*
X112574085Y-41286153D01*
X112560007Y-41288007D01*
X112515256Y-41299998D01*
X112275048Y-41364361D01*
X112275038Y-41364364D01*
X112002499Y-41477254D01*
X112002489Y-41477258D01*
X111747006Y-41624761D01*
X111512959Y-41804352D01*
X111512952Y-41804358D01*
X111403181Y-41914130D01*
X111341858Y-41947615D01*
X111272166Y-41942631D01*
X111216233Y-41900759D01*
X111191816Y-41835295D01*
X111191500Y-41826449D01*
X111191500Y-40709096D01*
X111211185Y-40642057D01*
X111227814Y-40621420D01*
X113741970Y-38107263D01*
X113803291Y-38073780D01*
X113872983Y-38078764D01*
X113928916Y-38120636D01*
X113953333Y-38186100D01*
X113952122Y-38214343D01*
X113939500Y-38294037D01*
X113939500Y-38545961D01*
X113978910Y-38794785D01*
X114056760Y-39034383D01*
X114171132Y-39258848D01*
X114319201Y-39462649D01*
X114319205Y-39462654D01*
X114497345Y-39640794D01*
X114497350Y-39640798D01*
X114635236Y-39740977D01*
X114701155Y-39788870D01*
X114844184Y-39861747D01*
X114925616Y-39903239D01*
X114925618Y-39903239D01*
X114925621Y-39903241D01*
X115165215Y-39981090D01*
X115414038Y-40020500D01*
X115414039Y-40020500D01*
X115665961Y-40020500D01*
X115665962Y-40020500D01*
X115914785Y-39981090D01*
X116154379Y-39903241D01*
X116378845Y-39788870D01*
X116582656Y-39640793D01*
X116760793Y-39462656D01*
X116908870Y-39258845D01*
X117023241Y-39034379D01*
X117101090Y-38794785D01*
X117140500Y-38545962D01*
X117140500Y-38294038D01*
X117101090Y-38045215D01*
X117023241Y-37805621D01*
X117023237Y-37805613D01*
X117020272Y-37799792D01*
X117007377Y-37731122D01*
X117033655Y-37666383D01*
X117090763Y-37626127D01*
X117130758Y-37619500D01*
X118218903Y-37619500D01*
X118285942Y-37639185D01*
X118306584Y-37655819D01*
X122063181Y-41412416D01*
X122096666Y-41473739D01*
X122099500Y-41500097D01*
X122099500Y-42700001D01*
X122099501Y-42700018D01*
X122110000Y-42802796D01*
X122110001Y-42802799D01*
X122165185Y-42969331D01*
X122165186Y-42969334D01*
X122257288Y-43118656D01*
X122381344Y-43242712D01*
X122530666Y-43334814D01*
X122697203Y-43389999D01*
X122799991Y-43400500D01*
X124200008Y-43400499D01*
X124302797Y-43389999D01*
X124469334Y-43334814D01*
X124618656Y-43242712D01*
X124742712Y-43118656D01*
X124834814Y-42969334D01*
X124889999Y-42802797D01*
X124900500Y-42700009D01*
X124900499Y-41299992D01*
X124889999Y-41197203D01*
X124834814Y-41030666D01*
X124742712Y-40881344D01*
X124618656Y-40757288D01*
X124469334Y-40665186D01*
X124302797Y-40610001D01*
X124302795Y-40610000D01*
X124200016Y-40599500D01*
X124200009Y-40599500D01*
X123000098Y-40599500D01*
X122933059Y-40579815D01*
X122912417Y-40563181D01*
X119006590Y-36657355D01*
X118999521Y-36650286D01*
X118999520Y-36650284D01*
X118887716Y-36538480D01*
X118887713Y-36538478D01*
X118525190Y-36175955D01*
X118525188Y-36175952D01*
X118406317Y-36057081D01*
X118406316Y-36057080D01*
X118387970Y-36046488D01*
X118319505Y-36006960D01*
X118319503Y-36006959D01*
X118276339Y-35982038D01*
X118269386Y-35978023D01*
X118231203Y-35967792D01*
X118116657Y-35937099D01*
X117958543Y-35937099D01*
X117950947Y-35937099D01*
X117950931Y-35937100D01*
X53533340Y-35937100D01*
X53492419Y-35948064D01*
X53492419Y-35948065D01*
X53455151Y-35958051D01*
X53380614Y-35978023D01*
X53380609Y-35978026D01*
X53243690Y-36057075D01*
X53243682Y-36057081D01*
X52762284Y-36538480D01*
X49872922Y-39427840D01*
X49811599Y-39461325D01*
X49746923Y-39458090D01*
X49564787Y-39398910D01*
X49398903Y-39372636D01*
X49315962Y-39359500D01*
X49064038Y-39359500D01*
X48939626Y-39379205D01*
X48815214Y-39398910D01*
X48575616Y-39476760D01*
X48351151Y-39591132D01*
X48147350Y-39739201D01*
X48147345Y-39739205D01*
X47969205Y-39917345D01*
X47969201Y-39917350D01*
X47821132Y-40121151D01*
X47706760Y-40345616D01*
X47628910Y-40585214D01*
X47589500Y-40834038D01*
X47589500Y-41085961D01*
X47628910Y-41334785D01*
X47706760Y-41574383D01*
X47742030Y-41643603D01*
X47804568Y-41766341D01*
X47821132Y-41798848D01*
X47969201Y-42002649D01*
X47969205Y-42002654D01*
X47969207Y-42002656D01*
X48147344Y-42180793D01*
X48147345Y-42180794D01*
X48147344Y-42180794D01*
X48153661Y-42185383D01*
X48196327Y-42240714D01*
X48202305Y-42310327D01*
X48169699Y-42372122D01*
X48108860Y-42406479D01*
X48061378Y-42408174D01*
X48006611Y-42399500D01*
X47833389Y-42399500D01*
X47793728Y-42405781D01*
X47662302Y-42426597D01*
X47497552Y-42480128D01*
X47343211Y-42558768D01*
X47303553Y-42587582D01*
X47203072Y-42660586D01*
X47203070Y-42660588D01*
X47203069Y-42660588D01*
X47080588Y-42783069D01*
X47080588Y-42783070D01*
X47080586Y-42783072D01*
X47036859Y-42843256D01*
X46978768Y-42923211D01*
X46900128Y-43077552D01*
X46846597Y-43242302D01*
X46823205Y-43389998D01*
X46819500Y-43413389D01*
X46819500Y-43586611D01*
X46846598Y-43757701D01*
X46900127Y-43922445D01*
X46978768Y-44076788D01*
X47080586Y-44216928D01*
X47203072Y-44339414D01*
X47343212Y-44441232D01*
X47497555Y-44519873D01*
X47662299Y-44573402D01*
X47833389Y-44600500D01*
X47833390Y-44600500D01*
X48006609Y-44600500D01*
X48006611Y-44600500D01*
X48061379Y-44591825D01*
X48130669Y-44600779D01*
X48184122Y-44645774D01*
X48204762Y-44712526D01*
X48186038Y-44779840D01*
X48153668Y-44814611D01*
X48147347Y-44819204D01*
X48147345Y-44819205D01*
X47969205Y-44997345D01*
X47969201Y-44997350D01*
X47821132Y-45201151D01*
X47706760Y-45425616D01*
X47628910Y-45665214D01*
X47589500Y-45914038D01*
X47589500Y-46165961D01*
X47628910Y-46414785D01*
X47706760Y-46654383D01*
X47821132Y-46878848D01*
X47969201Y-47082649D01*
X47969205Y-47082654D01*
X48147345Y-47260794D01*
X48147350Y-47260798D01*
X48309814Y-47378834D01*
X48351155Y-47408870D01*
X48494184Y-47481747D01*
X48575616Y-47523239D01*
X48575618Y-47523239D01*
X48575621Y-47523241D01*
X48815215Y-47601090D01*
X49064038Y-47640500D01*
X49064039Y-47640500D01*
X49315961Y-47640500D01*
X49315962Y-47640500D01*
X49564785Y-47601090D01*
X49804379Y-47523241D01*
X50028845Y-47408870D01*
X50232656Y-47260793D01*
X50410793Y-47082656D01*
X50558870Y-46878845D01*
X50645815Y-46708204D01*
X50693789Y-46657409D01*
X50756300Y-46640500D01*
X59373331Y-46640500D01*
X59373347Y-46640501D01*
X59380943Y-46640501D01*
X59539054Y-46640501D01*
X59539057Y-46640501D01*
X59691785Y-46599577D01*
X59768788Y-46555119D01*
X59828716Y-46520520D01*
X59940520Y-46408716D01*
X59940520Y-46408714D01*
X59950724Y-46398511D01*
X59950728Y-46398506D01*
X62912416Y-43436818D01*
X62973739Y-43403333D01*
X63000097Y-43400499D01*
X64200002Y-43400499D01*
X64200008Y-43400499D01*
X64302797Y-43389999D01*
X64469334Y-43334814D01*
X64618656Y-43242712D01*
X64742712Y-43118656D01*
X64834814Y-42969334D01*
X64889999Y-42802797D01*
X64900500Y-42700009D01*
X64900499Y-41299992D01*
X64889999Y-41197203D01*
X64834814Y-41030666D01*
X64742712Y-40881344D01*
X64618656Y-40757288D01*
X64469334Y-40665186D01*
X64302797Y-40610001D01*
X64302795Y-40610000D01*
X64200010Y-40599500D01*
X62799998Y-40599500D01*
X62799981Y-40599501D01*
X62697203Y-40610000D01*
X62697200Y-40610001D01*
X62530668Y-40665185D01*
X62530663Y-40665187D01*
X62381342Y-40757289D01*
X62257289Y-40881342D01*
X62165187Y-41030663D01*
X62165186Y-41030666D01*
X62110001Y-41197203D01*
X62110001Y-41197204D01*
X62110000Y-41197204D01*
X62099500Y-41299983D01*
X62099500Y-42499901D01*
X62079815Y-42566940D01*
X62063181Y-42587582D01*
X61345532Y-43305232D01*
X59938239Y-44712526D01*
X59247584Y-45403181D01*
X59186261Y-45436666D01*
X59159903Y-45439500D01*
X54534538Y-45439500D01*
X54467499Y-45419815D01*
X54421744Y-45367011D01*
X54411800Y-45297853D01*
X54440825Y-45234297D01*
X54459052Y-45217124D01*
X54471679Y-45207434D01*
X54487042Y-45195646D01*
X54695646Y-44987042D01*
X54875238Y-44752994D01*
X55022743Y-44497507D01*
X55135639Y-44224952D01*
X55211993Y-43939993D01*
X55250500Y-43647506D01*
X55250500Y-43413389D01*
X56979500Y-43413389D01*
X56979500Y-43586611D01*
X57006598Y-43757701D01*
X57060127Y-43922445D01*
X57138768Y-44076788D01*
X57240586Y-44216928D01*
X57363072Y-44339414D01*
X57503212Y-44441232D01*
X57657555Y-44519873D01*
X57822299Y-44573402D01*
X57993389Y-44600500D01*
X57993390Y-44600500D01*
X58166610Y-44600500D01*
X58166611Y-44600500D01*
X58337701Y-44573402D01*
X58502445Y-44519873D01*
X58656788Y-44441232D01*
X58796928Y-44339414D01*
X58919414Y-44216928D01*
X59021232Y-44076788D01*
X59099873Y-43922445D01*
X59153402Y-43757701D01*
X59180500Y-43586611D01*
X59180500Y-43413389D01*
X59153402Y-43242299D01*
X59099873Y-43077555D01*
X59021232Y-42923212D01*
X58919414Y-42783072D01*
X58796928Y-42660586D01*
X58656788Y-42558768D01*
X58541254Y-42499901D01*
X58502447Y-42480128D01*
X58502446Y-42480127D01*
X58502445Y-42480127D01*
X58337701Y-42426598D01*
X58337699Y-42426597D01*
X58337698Y-42426597D01*
X58206271Y-42405781D01*
X58166611Y-42399500D01*
X57993389Y-42399500D01*
X57953728Y-42405781D01*
X57822302Y-42426597D01*
X57657552Y-42480128D01*
X57503211Y-42558768D01*
X57463553Y-42587582D01*
X57363072Y-42660586D01*
X57363070Y-42660588D01*
X57363069Y-42660588D01*
X57240588Y-42783069D01*
X57240588Y-42783070D01*
X57240586Y-42783072D01*
X57196859Y-42843256D01*
X57138768Y-42923211D01*
X57060128Y-43077552D01*
X57006597Y-43242302D01*
X56983205Y-43389998D01*
X56979500Y-43413389D01*
X55250500Y-43413389D01*
X55250500Y-43352494D01*
X55211993Y-43060007D01*
X55135639Y-42775048D01*
X55022743Y-42502493D01*
X54994542Y-42453648D01*
X54875238Y-42247006D01*
X54695647Y-42012959D01*
X54695641Y-42012952D01*
X54487047Y-41804358D01*
X54487040Y-41804352D01*
X54252993Y-41624761D01*
X53997510Y-41477258D01*
X53997500Y-41477254D01*
X53724961Y-41364364D01*
X53724954Y-41364362D01*
X53724952Y-41364361D01*
X53439993Y-41288007D01*
X53391113Y-41281571D01*
X53147513Y-41249500D01*
X53147506Y-41249500D01*
X52852494Y-41249500D01*
X52852486Y-41249500D01*
X52574085Y-41286153D01*
X52560007Y-41288007D01*
X52515256Y-41299998D01*
X52275048Y-41364361D01*
X52275038Y-41364364D01*
X52002499Y-41477254D01*
X52002489Y-41477258D01*
X51747006Y-41624761D01*
X51512959Y-41804352D01*
X51512952Y-41804358D01*
X51304358Y-42012952D01*
X51304352Y-42012959D01*
X51124761Y-42247006D01*
X50977258Y-42502489D01*
X50977254Y-42502499D01*
X50864364Y-42775038D01*
X50864361Y-42775048D01*
X50797438Y-43024812D01*
X50788008Y-43060004D01*
X50788006Y-43060015D01*
X50749500Y-43352486D01*
X50749500Y-43647513D01*
X50781571Y-43891113D01*
X50788007Y-43939993D01*
X50862212Y-44216930D01*
X50864361Y-44224951D01*
X50864364Y-44224961D01*
X50977254Y-44497500D01*
X50977258Y-44497510D01*
X51124761Y-44752993D01*
X51304352Y-44987040D01*
X51304358Y-44987047D01*
X51512952Y-45195641D01*
X51512959Y-45195647D01*
X51540948Y-45217124D01*
X51582151Y-45273552D01*
X51586306Y-45343298D01*
X51552094Y-45404218D01*
X51490376Y-45436971D01*
X51465462Y-45439500D01*
X50756300Y-45439500D01*
X50689261Y-45419815D01*
X50645815Y-45371795D01*
X50558870Y-45201155D01*
X50418329Y-45007716D01*
X50410798Y-44997350D01*
X50410794Y-44997345D01*
X50232654Y-44819205D01*
X50232649Y-44819201D01*
X50028848Y-44671132D01*
X50028847Y-44671131D01*
X50028845Y-44671130D01*
X49958747Y-44635413D01*
X49804383Y-44556760D01*
X49564785Y-44478910D01*
X49508896Y-44470058D01*
X49315962Y-44439500D01*
X49064038Y-44439500D01*
X49053103Y-44441232D01*
X48814561Y-44479013D01*
X48745267Y-44470058D01*
X48691815Y-44425062D01*
X48671176Y-44358310D01*
X48689901Y-44290997D01*
X48707479Y-44268862D01*
X48759414Y-44216928D01*
X48861232Y-44076788D01*
X48939873Y-43922445D01*
X48993402Y-43757701D01*
X49020500Y-43586611D01*
X49020500Y-43413389D01*
X48993402Y-43242299D01*
X48939873Y-43077555D01*
X48861232Y-42923212D01*
X48759414Y-42783072D01*
X48707482Y-42731140D01*
X48673997Y-42669817D01*
X48678981Y-42600125D01*
X48720853Y-42544192D01*
X48786317Y-42519775D01*
X48814561Y-42520986D01*
X48815212Y-42521089D01*
X48815215Y-42521090D01*
X49064038Y-42560500D01*
X49064039Y-42560500D01*
X49315961Y-42560500D01*
X49315962Y-42560500D01*
X49564785Y-42521090D01*
X49804379Y-42443241D01*
X50028845Y-42328870D01*
X50232656Y-42180793D01*
X50410793Y-42002656D01*
X50558870Y-41798845D01*
X50673241Y-41574379D01*
X50751090Y-41334785D01*
X50790500Y-41085962D01*
X50790500Y-40834038D01*
X50772544Y-40720668D01*
X50751090Y-40585214D01*
X50738083Y-40545185D01*
X50691907Y-40403071D01*
X50689913Y-40333235D01*
X50722156Y-40277078D01*
X53611520Y-37387716D01*
X53611520Y-37387714D01*
X53621721Y-37377514D01*
X53621724Y-37377509D01*
X53824817Y-37174416D01*
X53886140Y-37140934D01*
X53912497Y-37138100D01*
X54259089Y-37138100D01*
X54326128Y-37157785D01*
X54371883Y-37210589D01*
X54381827Y-37279747D01*
X54352802Y-37343303D01*
X54346770Y-37349781D01*
X54319205Y-37377345D01*
X54319201Y-37377350D01*
X54171132Y-37581151D01*
X54056760Y-37805616D01*
X53978910Y-38045214D01*
X53939500Y-38294038D01*
X53939500Y-38545961D01*
X53978910Y-38794785D01*
X54056760Y-39034383D01*
X54171132Y-39258848D01*
X54319201Y-39462649D01*
X54319205Y-39462654D01*
X54497345Y-39640794D01*
X54497350Y-39640798D01*
X54635236Y-39740977D01*
X54701155Y-39788870D01*
X54844184Y-39861747D01*
X54925616Y-39903239D01*
X54925618Y-39903239D01*
X54925621Y-39903241D01*
X55165215Y-39981090D01*
X55414038Y-40020500D01*
X55414039Y-40020500D01*
X55665961Y-40020500D01*
X55665962Y-40020500D01*
X55914785Y-39981090D01*
X56154379Y-39903241D01*
X56378845Y-39788870D01*
X56582656Y-39640793D01*
X56760793Y-39462656D01*
X56908870Y-39258845D01*
X57023241Y-39034379D01*
X57101090Y-38794785D01*
X57140500Y-38545962D01*
X57140500Y-38294038D01*
X57101090Y-38045215D01*
X57023241Y-37805621D01*
X57023239Y-37805618D01*
X57023239Y-37805616D01*
X56954846Y-37671389D01*
X56908870Y-37581155D01*
X56773087Y-37394265D01*
X56760798Y-37377350D01*
X56760794Y-37377345D01*
X56733230Y-37349781D01*
X56699745Y-37288458D01*
X56704729Y-37218766D01*
X56746601Y-37162833D01*
X56812065Y-37138416D01*
X56820911Y-37138100D01*
X71943303Y-37138100D01*
X72010342Y-37157785D01*
X72056097Y-37210589D01*
X72066041Y-37279747D01*
X72037016Y-37343303D01*
X72030984Y-37349781D01*
X69933303Y-39447460D01*
X69871980Y-39480945D01*
X69807303Y-39477710D01*
X69804383Y-39476761D01*
X69804379Y-39476759D01*
X69690280Y-39439686D01*
X69564785Y-39398909D01*
X69349982Y-39364888D01*
X69315962Y-39359500D01*
X69064038Y-39359500D01*
X68939626Y-39379205D01*
X68815214Y-39398910D01*
X68575616Y-39476760D01*
X68351151Y-39591132D01*
X68147350Y-39739201D01*
X68147345Y-39739205D01*
X67969205Y-39917345D01*
X67969201Y-39917350D01*
X67821132Y-40121151D01*
X67706760Y-40345616D01*
X67628910Y-40585214D01*
X67589500Y-40834038D01*
X67589500Y-41085961D01*
X67628910Y-41334785D01*
X67706760Y-41574383D01*
X67742030Y-41643603D01*
X67804568Y-41766341D01*
X67821132Y-41798848D01*
X67969201Y-42002649D01*
X67969205Y-42002654D01*
X67969207Y-42002656D01*
X68147344Y-42180793D01*
X68147345Y-42180794D01*
X68147344Y-42180794D01*
X68153661Y-42185383D01*
X68196327Y-42240714D01*
X68202305Y-42310327D01*
X68169699Y-42372122D01*
X68108860Y-42406479D01*
X68061378Y-42408174D01*
X68006611Y-42399500D01*
X67833389Y-42399500D01*
X67793728Y-42405781D01*
X67662302Y-42426597D01*
X67497552Y-42480128D01*
X67343211Y-42558768D01*
X67303553Y-42587582D01*
X67203072Y-42660586D01*
X67203070Y-42660588D01*
X67203069Y-42660588D01*
X67080588Y-42783069D01*
X67080588Y-42783070D01*
X67080586Y-42783072D01*
X67036859Y-42843256D01*
X66978768Y-42923211D01*
X66900128Y-43077552D01*
X66846597Y-43242302D01*
X66823205Y-43389998D01*
X66819500Y-43413389D01*
X66819500Y-43586611D01*
X66846598Y-43757701D01*
X66900127Y-43922445D01*
X66978768Y-44076788D01*
X67080586Y-44216928D01*
X67203072Y-44339414D01*
X67343212Y-44441232D01*
X67497555Y-44519873D01*
X67662299Y-44573402D01*
X67833389Y-44600500D01*
X67833390Y-44600500D01*
X68006609Y-44600500D01*
X68006611Y-44600500D01*
X68061379Y-44591825D01*
X68130669Y-44600779D01*
X68184122Y-44645774D01*
X68204762Y-44712526D01*
X68186038Y-44779840D01*
X68153668Y-44814611D01*
X68147347Y-44819204D01*
X68147345Y-44819205D01*
X67969205Y-44997345D01*
X67969201Y-44997350D01*
X67821132Y-45201151D01*
X67706760Y-45425616D01*
X67628910Y-45665214D01*
X67589500Y-45914038D01*
X67589500Y-46165961D01*
X67628910Y-46414785D01*
X67706760Y-46654383D01*
X67821132Y-46878848D01*
X67969201Y-47082649D01*
X67969205Y-47082654D01*
X68134370Y-47247819D01*
X68167855Y-47309142D01*
X68162871Y-47378834D01*
X68120999Y-47434767D01*
X68055535Y-47459184D01*
X68046689Y-47459500D01*
X65139057Y-47459500D01*
X64980943Y-47459500D01*
X64828215Y-47500423D01*
X64828214Y-47500423D01*
X64828212Y-47500424D01*
X64828209Y-47500425D01*
X64778096Y-47529359D01*
X64778095Y-47529360D01*
X64764256Y-47537350D01*
X64691285Y-47579479D01*
X64691282Y-47579481D01*
X64579478Y-47691286D01*
X64024202Y-48246561D01*
X63962879Y-48280046D01*
X63898203Y-48276811D01*
X63873584Y-48268812D01*
X63827952Y-48253985D01*
X63719086Y-48236742D01*
X63610222Y-48219500D01*
X63389778Y-48219500D01*
X63317201Y-48230995D01*
X63172047Y-48253985D01*
X62962396Y-48322103D01*
X62962393Y-48322104D01*
X62765974Y-48422187D01*
X62587641Y-48551752D01*
X62587636Y-48551756D01*
X62431756Y-48707636D01*
X62431752Y-48707641D01*
X62302187Y-48885974D01*
X62202104Y-49082393D01*
X62202103Y-49082396D01*
X62133985Y-49292047D01*
X62099500Y-49509778D01*
X62099500Y-49730221D01*
X62133985Y-49947952D01*
X62202103Y-50157603D01*
X62202104Y-50157606D01*
X62270122Y-50291096D01*
X62299120Y-50348007D01*
X62302187Y-50354025D01*
X62431752Y-50532358D01*
X62431756Y-50532363D01*
X62587636Y-50688243D01*
X62587641Y-50688247D01*
X62738560Y-50797895D01*
X62765978Y-50817815D01*
X62860573Y-50866014D01*
X62962393Y-50917895D01*
X62962396Y-50917896D01*
X63067221Y-50951955D01*
X63172049Y-50986015D01*
X63389778Y-51020500D01*
X63389779Y-51020500D01*
X63610221Y-51020500D01*
X63610222Y-51020500D01*
X63827951Y-50986015D01*
X64037606Y-50917895D01*
X64234022Y-50817815D01*
X64412365Y-50688242D01*
X64568242Y-50532365D01*
X64697815Y-50354022D01*
X64797895Y-50157606D01*
X64866015Y-49947951D01*
X64900500Y-49730222D01*
X64900500Y-49509778D01*
X64866015Y-49292049D01*
X64843188Y-49221794D01*
X64841193Y-49151953D01*
X64873436Y-49095797D01*
X65272416Y-48696819D01*
X65333739Y-48663334D01*
X65360097Y-48660500D01*
X71527831Y-48660500D01*
X71527847Y-48660501D01*
X71535443Y-48660501D01*
X71693554Y-48660501D01*
X71693557Y-48660501D01*
X71846285Y-48619577D01*
X71921800Y-48575978D01*
X71983216Y-48540520D01*
X72095020Y-48428716D01*
X72095020Y-48428714D01*
X72105224Y-48418511D01*
X72105227Y-48418506D01*
X72712416Y-47811319D01*
X72773739Y-47777834D01*
X72800097Y-47775000D01*
X73951535Y-47775000D01*
X74018574Y-47794685D01*
X74064329Y-47847489D01*
X74074273Y-47916647D01*
X74062020Y-47955294D01*
X74056761Y-47965613D01*
X73978910Y-48205214D01*
X73939500Y-48454038D01*
X73939500Y-48705961D01*
X73978910Y-48954785D01*
X74056760Y-49194383D01*
X74118988Y-49316511D01*
X74155923Y-49389000D01*
X74171132Y-49418848D01*
X74319201Y-49622649D01*
X74319205Y-49622654D01*
X74497345Y-49800794D01*
X74497350Y-49800798D01*
X74534725Y-49827952D01*
X74701155Y-49948870D01*
X74871795Y-50035815D01*
X74922591Y-50083789D01*
X74939500Y-50146300D01*
X74939500Y-53493330D01*
X74939499Y-53493348D01*
X74939499Y-53659054D01*
X74939498Y-53659054D01*
X74980423Y-53811785D01*
X75009358Y-53861900D01*
X75009359Y-53861904D01*
X75009360Y-53861904D01*
X75059479Y-53948714D01*
X75059481Y-53948717D01*
X75178349Y-54067585D01*
X75178355Y-54067590D01*
X79094583Y-57983819D01*
X79128068Y-58045142D01*
X79123084Y-58114834D01*
X79081212Y-58170767D01*
X79015748Y-58195184D01*
X79006902Y-58195500D01*
X78431657Y-58195500D01*
X78273542Y-58195500D01*
X78120815Y-58236423D01*
X78120814Y-58236423D01*
X78120812Y-58236424D01*
X78120809Y-58236425D01*
X78070696Y-58265359D01*
X78070695Y-58265360D01*
X78027289Y-58290420D01*
X77983885Y-58315479D01*
X77983882Y-58315481D01*
X77272106Y-59027258D01*
X77210783Y-59060743D01*
X77141091Y-59055759D01*
X77085158Y-59013887D01*
X77060741Y-58948423D01*
X77066493Y-58901261D01*
X77101090Y-58794785D01*
X77140500Y-58545962D01*
X77140500Y-58294038D01*
X77101090Y-58045215D01*
X77023241Y-57805621D01*
X77023239Y-57805618D01*
X77023239Y-57805616D01*
X76981747Y-57724184D01*
X76908870Y-57581155D01*
X76880920Y-57542685D01*
X76760798Y-57377350D01*
X76760794Y-57377345D01*
X76582654Y-57199205D01*
X76582649Y-57199201D01*
X76378848Y-57051132D01*
X76378847Y-57051131D01*
X76378845Y-57051130D01*
X76298688Y-57010288D01*
X76154383Y-56936760D01*
X75914785Y-56858910D01*
X75665962Y-56819500D01*
X75414038Y-56819500D01*
X75289626Y-56839205D01*
X75165214Y-56858910D01*
X74925616Y-56936760D01*
X74701151Y-57051132D01*
X74497350Y-57199201D01*
X74497345Y-57199205D01*
X74319205Y-57377345D01*
X74319201Y-57377350D01*
X74171132Y-57581151D01*
X74056760Y-57805616D01*
X73978910Y-58045214D01*
X73939500Y-58294038D01*
X73939500Y-58545961D01*
X73976600Y-58780202D01*
X73967645Y-58849496D01*
X73922649Y-58902948D01*
X73855898Y-58923587D01*
X73854127Y-58923600D01*
X58616540Y-58923600D01*
X58575619Y-58934564D01*
X58575619Y-58934565D01*
X58546666Y-58942323D01*
X58463814Y-58964523D01*
X58463809Y-58964526D01*
X58326890Y-59043575D01*
X58326882Y-59043581D01*
X58155583Y-59214881D01*
X58094260Y-59248366D01*
X58067902Y-59251200D01*
X57115115Y-59251200D01*
X57048076Y-59231515D01*
X57002321Y-59178711D01*
X56992377Y-59109553D01*
X57004630Y-59070905D01*
X57023239Y-59034383D01*
X57023239Y-59034382D01*
X57023241Y-59034379D01*
X57101090Y-58794785D01*
X57140500Y-58545962D01*
X57140500Y-58294038D01*
X57101090Y-58045215D01*
X57023241Y-57805621D01*
X57023239Y-57805618D01*
X57023239Y-57805616D01*
X56981747Y-57724184D01*
X56908870Y-57581155D01*
X56880920Y-57542685D01*
X56760798Y-57377350D01*
X56760794Y-57377345D01*
X56582654Y-57199205D01*
X56582649Y-57199201D01*
X56378848Y-57051132D01*
X56378847Y-57051131D01*
X56378845Y-57051130D01*
X56298688Y-57010288D01*
X56154383Y-56936760D01*
X55914785Y-56858910D01*
X55665962Y-56819500D01*
X55414038Y-56819500D01*
X55289626Y-56839205D01*
X55165214Y-56858910D01*
X54925616Y-56936760D01*
X54701151Y-57051132D01*
X54497350Y-57199201D01*
X54497345Y-57199205D01*
X54319205Y-57377345D01*
X54319201Y-57377350D01*
X54171132Y-57581151D01*
X54056760Y-57805616D01*
X53978910Y-58045214D01*
X53939500Y-58294038D01*
X53939500Y-58545961D01*
X53978910Y-58794785D01*
X54056760Y-59034383D01*
X54075370Y-59070905D01*
X54088266Y-59139574D01*
X54061990Y-59204314D01*
X54004884Y-59244572D01*
X53964885Y-59251200D01*
X50384969Y-59251200D01*
X50384953Y-59251199D01*
X50377357Y-59251199D01*
X50219243Y-59251199D01*
X50111887Y-59279965D01*
X50066510Y-59292124D01*
X50066509Y-59292125D01*
X50022771Y-59317378D01*
X50022766Y-59317381D01*
X50016395Y-59321060D01*
X49929584Y-59371180D01*
X49866628Y-59434135D01*
X49859500Y-59439466D01*
X49834761Y-59448677D01*
X49811599Y-59461325D01*
X49802076Y-59460848D01*
X49794022Y-59463848D01*
X49773779Y-59459433D01*
X49746924Y-59458090D01*
X49564787Y-59398910D01*
X49389706Y-59371180D01*
X49315962Y-59359500D01*
X49064038Y-59359500D01*
X48990294Y-59371180D01*
X48815214Y-59398910D01*
X48575616Y-59476760D01*
X48351151Y-59591132D01*
X48147350Y-59739201D01*
X48147345Y-59739205D01*
X47969205Y-59917345D01*
X47969201Y-59917350D01*
X47821132Y-60121151D01*
X47821130Y-60121155D01*
X47758514Y-60244047D01*
X47734185Y-60291795D01*
X47686211Y-60342591D01*
X47623700Y-60359500D01*
X45506669Y-60359500D01*
X45506653Y-60359499D01*
X45499057Y-60359499D01*
X45340943Y-60359499D01*
X45233587Y-60388265D01*
X45188210Y-60400424D01*
X45188209Y-60400425D01*
X45138096Y-60429359D01*
X45138095Y-60429360D01*
X45110417Y-60445340D01*
X45051285Y-60479479D01*
X45051282Y-60479481D01*
X44939478Y-60591286D01*
X44087582Y-61443181D01*
X44026259Y-61476666D01*
X43999901Y-61479500D01*
X42799998Y-61479500D01*
X42799981Y-61479501D01*
X42697203Y-61490000D01*
X42697200Y-61490001D01*
X42530668Y-61545185D01*
X42530663Y-61545187D01*
X42381342Y-61637289D01*
X42257289Y-61761342D01*
X42165187Y-61910663D01*
X42165185Y-61910668D01*
X42138903Y-61989983D01*
X42110001Y-62077203D01*
X42110001Y-62077204D01*
X42110000Y-62077204D01*
X42099500Y-62179983D01*
X42099500Y-63580001D01*
X42099501Y-63580018D01*
X42110000Y-63682796D01*
X42110001Y-63682799D01*
X42151707Y-63808657D01*
X42165186Y-63849334D01*
X42257288Y-63998656D01*
X42381344Y-64122712D01*
X42530666Y-64214814D01*
X42697203Y-64269999D01*
X42799991Y-64280500D01*
X44200008Y-64280499D01*
X44302797Y-64269999D01*
X44469334Y-64214814D01*
X44618656Y-64122712D01*
X44742712Y-63998656D01*
X44834814Y-63849334D01*
X44889999Y-63682797D01*
X44900500Y-63580009D01*
X44900499Y-62380096D01*
X44920184Y-62313058D01*
X44936818Y-62292416D01*
X45632416Y-61596819D01*
X45693739Y-61563334D01*
X45720097Y-61560500D01*
X47623700Y-61560500D01*
X47690739Y-61580185D01*
X47734184Y-61628204D01*
X47802022Y-61761344D01*
X47821132Y-61798848D01*
X47969201Y-62002649D01*
X47969205Y-62002654D01*
X47969207Y-62002656D01*
X48147344Y-62180793D01*
X48147345Y-62180794D01*
X48147344Y-62180794D01*
X48153661Y-62185383D01*
X48196327Y-62240714D01*
X48202305Y-62310327D01*
X48169699Y-62372122D01*
X48108860Y-62406479D01*
X48061378Y-62408174D01*
X48006611Y-62399500D01*
X47833389Y-62399500D01*
X47793728Y-62405781D01*
X47662302Y-62426597D01*
X47497552Y-62480128D01*
X47343211Y-62558768D01*
X47299147Y-62590783D01*
X47203072Y-62660586D01*
X47203070Y-62660588D01*
X47203069Y-62660588D01*
X47080588Y-62783069D01*
X47080588Y-62783070D01*
X47080586Y-62783072D01*
X47036859Y-62843256D01*
X46978768Y-62923211D01*
X46900128Y-63077552D01*
X46846597Y-63242302D01*
X46819500Y-63413389D01*
X46819500Y-63586610D01*
X46831018Y-63659336D01*
X46846598Y-63757701D01*
X46900127Y-63922445D01*
X46978768Y-64076788D01*
X47080586Y-64216928D01*
X47203072Y-64339414D01*
X47343212Y-64441232D01*
X47497555Y-64519873D01*
X47662299Y-64573402D01*
X47833389Y-64600500D01*
X47833390Y-64600500D01*
X48006609Y-64600500D01*
X48006611Y-64600500D01*
X48061379Y-64591825D01*
X48130669Y-64600779D01*
X48184122Y-64645774D01*
X48204762Y-64712526D01*
X48186038Y-64779840D01*
X48153668Y-64814611D01*
X48147347Y-64819204D01*
X48147345Y-64819205D01*
X47969205Y-64997345D01*
X47969201Y-64997350D01*
X47821132Y-65201151D01*
X47706760Y-65425616D01*
X47628910Y-65665214D01*
X47628910Y-65665215D01*
X47589500Y-65914038D01*
X47589500Y-66165962D01*
X47618253Y-66347499D01*
X47628910Y-66414785D01*
X47706760Y-66654383D01*
X47745686Y-66730778D01*
X47802560Y-66842400D01*
X47821132Y-66878848D01*
X47969201Y-67082649D01*
X47969205Y-67082654D01*
X48147345Y-67260794D01*
X48147350Y-67260798D01*
X48325117Y-67389952D01*
X48351155Y-67408870D01*
X48494184Y-67481747D01*
X48575616Y-67523239D01*
X48575618Y-67523239D01*
X48575621Y-67523241D01*
X48815215Y-67601090D01*
X49064038Y-67640500D01*
X49064039Y-67640500D01*
X49315961Y-67640500D01*
X49315962Y-67640500D01*
X49564785Y-67601090D01*
X49804379Y-67523241D01*
X50028845Y-67408870D01*
X50232656Y-67260793D01*
X50410793Y-67082656D01*
X50558870Y-66878845D01*
X50645815Y-66708204D01*
X50693789Y-66657409D01*
X50756300Y-66640500D01*
X54681217Y-66640500D01*
X54748256Y-66660185D01*
X54768898Y-66676819D01*
X54981204Y-66889125D01*
X55014689Y-66950448D01*
X55009705Y-67020140D01*
X54967833Y-67076073D01*
X54931854Y-67094733D01*
X54925620Y-67096759D01*
X54701151Y-67211132D01*
X54497350Y-67359201D01*
X54497345Y-67359205D01*
X54319205Y-67537345D01*
X54319201Y-67537350D01*
X54171132Y-67741151D01*
X54056760Y-67965616D01*
X53978910Y-68205214D01*
X53939500Y-68454038D01*
X53939500Y-68626337D01*
X53919815Y-68693376D01*
X53867011Y-68739131D01*
X53797853Y-68749075D01*
X53768050Y-68740899D01*
X53764490Y-68739424D01*
X53719112Y-68727265D01*
X53611757Y-68698499D01*
X53453643Y-68698499D01*
X53446047Y-68698499D01*
X53446031Y-68698500D01*
X43081586Y-68698500D01*
X42923471Y-68698500D01*
X42770744Y-68739423D01*
X42770743Y-68739423D01*
X42770741Y-68739424D01*
X42770738Y-68739425D01*
X42720625Y-68768359D01*
X42720624Y-68768360D01*
X42677218Y-68793420D01*
X42633814Y-68818479D01*
X42633811Y-68818481D01*
X41818481Y-69633811D01*
X41818479Y-69633814D01*
X41768827Y-69719814D01*
X41768809Y-69719845D01*
X41768360Y-69720624D01*
X41739423Y-69770744D01*
X41738436Y-69774427D01*
X41732852Y-69784462D01*
X41712844Y-69804151D01*
X41695224Y-69826019D01*
X41688273Y-69828332D01*
X41683053Y-69833470D01*
X41655572Y-69839217D01*
X41628930Y-69848086D01*
X41621831Y-69846274D01*
X41614663Y-69847774D01*
X41588438Y-69837752D01*
X41561230Y-69830809D01*
X41556237Y-69825447D01*
X41549396Y-69822833D01*
X41532753Y-69800224D01*
X41513618Y-69779674D01*
X41511723Y-69771658D01*
X41507975Y-69766566D01*
X41507040Y-69751840D01*
X41500500Y-69724165D01*
X41500500Y-48454038D01*
X53939500Y-48454038D01*
X53939500Y-48705961D01*
X53978910Y-48954785D01*
X54056760Y-49194383D01*
X54118988Y-49316511D01*
X54155923Y-49389000D01*
X54171132Y-49418848D01*
X54319201Y-49622649D01*
X54319205Y-49622654D01*
X54497345Y-49800794D01*
X54497350Y-49800798D01*
X54534725Y-49827952D01*
X54701155Y-49948870D01*
X54839792Y-50019509D01*
X54925616Y-50063239D01*
X54925618Y-50063239D01*
X54925621Y-50063241D01*
X55165215Y-50141090D01*
X55414038Y-50180500D01*
X55414039Y-50180500D01*
X55665961Y-50180500D01*
X55665962Y-50180500D01*
X55914785Y-50141090D01*
X56154379Y-50063241D01*
X56378845Y-49948870D01*
X56582656Y-49800793D01*
X56760793Y-49622656D01*
X56908870Y-49418845D01*
X57023241Y-49194379D01*
X57101090Y-48954785D01*
X57140500Y-48705962D01*
X57140500Y-48454038D01*
X57101090Y-48205215D01*
X57023241Y-47965621D01*
X57023239Y-47965618D01*
X57023239Y-47965616D01*
X56963050Y-47847489D01*
X56908870Y-47741155D01*
X56849559Y-47659520D01*
X56760798Y-47537350D01*
X56760794Y-47537345D01*
X56582654Y-47359205D01*
X56582649Y-47359201D01*
X56378848Y-47211132D01*
X56378847Y-47211131D01*
X56378845Y-47211130D01*
X56308747Y-47175413D01*
X56154383Y-47096760D01*
X55914785Y-47018910D01*
X55665962Y-46979500D01*
X55414038Y-46979500D01*
X55289626Y-46999205D01*
X55165214Y-47018910D01*
X54925616Y-47096760D01*
X54701151Y-47211132D01*
X54497350Y-47359201D01*
X54497345Y-47359205D01*
X54319205Y-47537345D01*
X54319201Y-47537350D01*
X54171132Y-47741151D01*
X54056760Y-47965616D01*
X53978910Y-48205214D01*
X53939500Y-48454038D01*
X41500500Y-48454038D01*
X41500500Y-36629420D01*
X41520185Y-36562381D01*
X41572989Y-36516626D01*
X41642147Y-36506682D01*
X41705703Y-36535707D01*
X41742154Y-36592427D01*
X41742643Y-36592262D01*
X41743308Y-36594222D01*
X41743477Y-36594485D01*
X41743856Y-36595838D01*
X41743945Y-36596098D01*
X41836773Y-36820205D01*
X41836776Y-36820212D01*
X41958064Y-37030289D01*
X41958066Y-37030292D01*
X41958067Y-37030293D01*
X42105733Y-37222736D01*
X42105739Y-37222743D01*
X42277256Y-37394260D01*
X42277262Y-37394265D01*
X42469711Y-37541936D01*
X42679788Y-37663224D01*
X42903900Y-37756054D01*
X43138211Y-37818838D01*
X43318586Y-37842584D01*
X43378711Y-37850500D01*
X43378712Y-37850500D01*
X43621289Y-37850500D01*
X43669388Y-37844167D01*
X43861789Y-37818838D01*
X44096100Y-37756054D01*
X44320212Y-37663224D01*
X44530289Y-37541936D01*
X44722738Y-37394265D01*
X44894265Y-37222738D01*
X45041936Y-37030289D01*
X45163224Y-36820212D01*
X45256054Y-36596100D01*
X45318838Y-36361789D01*
X45350500Y-36121288D01*
X45350500Y-35878712D01*
X45350500Y-35878711D01*
X122149500Y-35878711D01*
X122149500Y-36121288D01*
X122181161Y-36361785D01*
X122243947Y-36596104D01*
X122336773Y-36820205D01*
X122336776Y-36820212D01*
X122458064Y-37030289D01*
X122458066Y-37030292D01*
X122458067Y-37030293D01*
X122605733Y-37222736D01*
X122605739Y-37222743D01*
X122777256Y-37394260D01*
X122777262Y-37394265D01*
X122969711Y-37541936D01*
X123179788Y-37663224D01*
X123403900Y-37756054D01*
X123638211Y-37818838D01*
X123818586Y-37842584D01*
X123878711Y-37850500D01*
X123878712Y-37850500D01*
X124121289Y-37850500D01*
X124169388Y-37844167D01*
X124361789Y-37818838D01*
X124596100Y-37756054D01*
X124820212Y-37663224D01*
X125030289Y-37541936D01*
X125222738Y-37394265D01*
X125394265Y-37222738D01*
X125541936Y-37030289D01*
X125663224Y-36820212D01*
X125756054Y-36596100D01*
X125818838Y-36361789D01*
X125850500Y-36121288D01*
X125850500Y-35878712D01*
X125818838Y-35638211D01*
X125756054Y-35403900D01*
X125663224Y-35179788D01*
X125541936Y-34969711D01*
X125394265Y-34777262D01*
X125394260Y-34777256D01*
X125222743Y-34605739D01*
X125222736Y-34605733D01*
X125030293Y-34458067D01*
X125030292Y-34458066D01*
X125030289Y-34458064D01*
X124820212Y-34336776D01*
X124820205Y-34336773D01*
X124596104Y-34243947D01*
X124361785Y-34181161D01*
X124121289Y-34149500D01*
X124121288Y-34149500D01*
X123878712Y-34149500D01*
X123878711Y-34149500D01*
X123638214Y-34181161D01*
X123403895Y-34243947D01*
X123179794Y-34336773D01*
X123179785Y-34336777D01*
X122969706Y-34458067D01*
X122777263Y-34605733D01*
X122777256Y-34605739D01*
X122605739Y-34777256D01*
X122605733Y-34777263D01*
X122458067Y-34969706D01*
X122336777Y-35179785D01*
X122336773Y-35179794D01*
X122243947Y-35403895D01*
X122181161Y-35638214D01*
X122149500Y-35878711D01*
X45350500Y-35878711D01*
X45318838Y-35638211D01*
X45256054Y-35403900D01*
X45163224Y-35179788D01*
X45041936Y-34969711D01*
X44894265Y-34777262D01*
X44894260Y-34777256D01*
X44722743Y-34605739D01*
X44722736Y-34605733D01*
X44530293Y-34458067D01*
X44530292Y-34458066D01*
X44530289Y-34458064D01*
X44320212Y-34336776D01*
X44320205Y-34336773D01*
X44096104Y-34243947D01*
X43861785Y-34181161D01*
X43621289Y-34149500D01*
X43621288Y-34149500D01*
X43378712Y-34149500D01*
X43378711Y-34149500D01*
X43138214Y-34181161D01*
X42903895Y-34243947D01*
X42679794Y-34336773D01*
X42679785Y-34336777D01*
X42469706Y-34458067D01*
X42277263Y-34605733D01*
X42277256Y-34605739D01*
X42105739Y-34777256D01*
X42105733Y-34777263D01*
X41958067Y-34969706D01*
X41836777Y-35179785D01*
X41836773Y-35179794D01*
X41743945Y-35403901D01*
X41742643Y-35407738D01*
X41741438Y-35407329D01*
X41707905Y-35462337D01*
X41645057Y-35492863D01*
X41575682Y-35484565D01*
X41521806Y-35440077D01*
X41500535Y-35373524D01*
X41500500Y-35370579D01*
X41500500Y-33624500D01*
X41520185Y-33557461D01*
X41572989Y-33511706D01*
X41624500Y-33500500D01*
X126375500Y-33500500D01*
X126442539Y-33520185D01*
G37*
%TD.AperFunction*%
%TD*%
M02*
