%TF.GenerationSoftware,KiCad,Pcbnew,9.0.7*%
%TF.CreationDate,2026-01-20T04:17:15+09:00*%
%TF.ProjectId,LEFT_Parade,4c454654-5f50-4617-9261-64652e6b6963,rev?*%
%TF.SameCoordinates,Original*%
%TF.FileFunction,Copper,L1,Top*%
%TF.FilePolarity,Positive*%
%FSLAX46Y46*%
G04 Gerber Fmt 4.6, Leading zero omitted, Abs format (unit mm)*
G04 Created by KiCad (PCBNEW 9.0.7) date 2026-01-20 04:17:15*
%MOMM*%
%LPD*%
G01*
G04 APERTURE LIST*
G04 Aperture macros list*
%AMRoundRect*
0 Rectangle with rounded corners*
0 $1 Rounding radius*
0 $2 $3 $4 $5 $6 $7 $8 $9 X,Y pos of 4 corners*
0 Add a 4 corners polygon primitive as box body*
4,1,4,$2,$3,$4,$5,$6,$7,$8,$9,$2,$3,0*
0 Add four circle primitives for the rounded corners*
1,1,$1+$1,$2,$3*
1,1,$1+$1,$4,$5*
1,1,$1+$1,$6,$7*
1,1,$1+$1,$8,$9*
0 Add four rect primitives between the rounded corners*
20,1,$1+$1,$2,$3,$4,$5,0*
20,1,$1+$1,$4,$5,$6,$7,0*
20,1,$1+$1,$6,$7,$8,$9,0*
20,1,$1+$1,$8,$9,$2,$3,0*%
G04 Aperture macros list end*
%TA.AperFunction,ComponentPad*%
%ADD10C,2.200000*%
%TD*%
%TA.AperFunction,ComponentPad*%
%ADD11RoundRect,0.250000X-0.650000X0.650000X-0.650000X-0.650000X0.650000X-0.650000X0.650000X0.650000X0*%
%TD*%
%TA.AperFunction,ComponentPad*%
%ADD12C,1.800000*%
%TD*%
%TA.AperFunction,ComponentPad*%
%ADD13R,1.600000X1.600000*%
%TD*%
%TA.AperFunction,ComponentPad*%
%ADD14O,1.600000X1.600000*%
%TD*%
%TA.AperFunction,ComponentPad*%
%ADD15O,1.500000X2.500000*%
%TD*%
%TA.AperFunction,ComponentPad*%
%ADD16C,1.600000*%
%TD*%
%TA.AperFunction,ComponentPad*%
%ADD17R,1.800000X1.800000*%
%TD*%
%TA.AperFunction,ComponentPad*%
%ADD18RoundRect,0.250000X0.550000X-0.550000X0.550000X0.550000X-0.550000X0.550000X-0.550000X-0.550000X0*%
%TD*%
%TA.AperFunction,ComponentPad*%
%ADD19R,2.000000X2.000000*%
%TD*%
%TA.AperFunction,ComponentPad*%
%ADD20C,2.000000*%
%TD*%
%TA.AperFunction,ComponentPad*%
%ADD21R,3.000000X2.500000*%
%TD*%
%TA.AperFunction,ViaPad*%
%ADD22C,0.600000*%
%TD*%
%TA.AperFunction,Conductor*%
%ADD23C,0.200000*%
%TD*%
G04 APERTURE END LIST*
D10*
%TO.P,SW3,2,2*%
%TO.N,Net-(D2-K)*%
X69190000Y-40960000D03*
%TO.P,SW3,1,1*%
%TO.N,Net-(U2B-~{Q2})*%
X75540000Y-38420000D03*
%TD*%
%TO.P,SW17,1,1*%
%TO.N,Net-(U2B-~{Q0})*%
X55540000Y-68580000D03*
%TO.P,SW17,2,2*%
%TO.N,Net-(D8-K)*%
X49190000Y-66040000D03*
%TD*%
%TO.P,SW16,1,1*%
%TO.N,Net-(U2B-~{Q1})*%
X75540000Y-68580000D03*
%TO.P,SW16,2,2*%
%TO.N,Net-(D7-K)*%
X69190000Y-66040000D03*
%TD*%
%TO.P,SW15,1,1*%
%TO.N,Net-(U2B-~{Q2})*%
X95540000Y-68580000D03*
%TO.P,SW15,2,2*%
%TO.N,Net-(D6-K)*%
X89190000Y-66040000D03*
%TD*%
%TO.P,SW14,1,1*%
%TO.N,Net-(U2B-~{Q3})*%
X115540000Y-68580000D03*
%TO.P,SW14,2,2*%
%TO.N,Net-(D5-K)*%
X109190000Y-66040000D03*
%TD*%
%TO.P,SW13,1,1*%
%TO.N,Net-(U2B-~{Q0})*%
X55540000Y-48580000D03*
%TO.P,SW13,2,2*%
%TO.N,Net-(D4-K)*%
X49190000Y-46040000D03*
%TD*%
%TO.P,SW12,1,1*%
%TO.N,Net-(U2B-~{Q1})*%
X75540000Y-48580000D03*
%TO.P,SW12,2,2*%
%TO.N,Net-(D3-K)*%
X69190000Y-46040000D03*
%TD*%
%TO.P,SW11,1,1*%
%TO.N,Net-(U2B-~{Q2})*%
X95540000Y-48580000D03*
%TO.P,SW11,2,2*%
%TO.N,Net-(D2-K)*%
X89190000Y-46040000D03*
%TD*%
%TO.P,SW10,1,1*%
%TO.N,Net-(U2B-~{Q3})*%
X115540000Y-48580000D03*
%TO.P,SW10,2,2*%
%TO.N,Net-(D1-K)*%
X109190000Y-46040000D03*
%TD*%
D11*
%TO.P,D5,1,K*%
%TO.N,Net-(D5-K)*%
X43500000Y-62880000D03*
D12*
%TO.P,D5,2,A*%
%TO.N,Net-(D5-A)*%
X43500000Y-70500000D03*
%TD*%
D10*
%TO.P,SW9,1,1*%
%TO.N,Net-(U2B-~{Q0})*%
X115540000Y-58420000D03*
%TO.P,SW9,2,2*%
%TO.N,Net-(D8-K)*%
X109190000Y-60960000D03*
%TD*%
D13*
%TO.P,U1,1,PA02_A0_D0*%
%TO.N,unconnected-(U1-PA02_A0_D0-Pad1)*%
X45300000Y-91240000D03*
D14*
%TO.P,U1,2,PA4_A1_D1*%
%TO.N,Net-(U1-PA4_A1_D1)*%
X47840000Y-91240000D03*
%TO.P,U1,3,PA10_A2_D2*%
%TO.N,Net-(U1-PA10_A2_D2)*%
X50380000Y-91240000D03*
%TO.P,U1,4,PA11_A3_D3*%
%TO.N,Net-(U1-PA11_A3_D3)*%
X52920000Y-91240000D03*
%TO.P,U1,5,PA8_A4_D4_SDA*%
%TO.N,Net-(U1-PA8_A4_D4_SDA)*%
X55460000Y-91240000D03*
%TO.P,U1,6,PA9_A5_D5_SCL*%
%TO.N,Net-(U1-PA9_A5_D5_SCL)*%
X58000000Y-91240000D03*
%TO.P,U1,7,PB08_A6_D6_TX*%
%TO.N,unconnected-(U1-PB08_A6_D6_TX-Pad7)*%
X60540000Y-91240000D03*
%TO.P,U1,8,PB09_A7_D7_RX*%
%TO.N,Net-(D5-A)*%
X60540000Y-76000000D03*
%TO.P,U1,9,PA7_A8_D8_SCK*%
%TO.N,Net-(D1-A)*%
X58000000Y-76000000D03*
%TO.P,U1,10,PA5_A9_D9_MISO*%
%TO.N,Net-(U1-PA5_A9_D9_MISO)*%
X55460000Y-76000000D03*
%TO.P,U1,11,PA6_A10_D10_MOSI*%
X52920000Y-76000000D03*
%TO.P,U1,12,3V3*%
%TO.N,Net-(U1-3V3)*%
X50380000Y-76000000D03*
%TO.P,U1,13,GND*%
%TO.N,Net-(U1-PA5_A9_D9_MISO)*%
X47840000Y-76000000D03*
%TO.P,U1,14,5V*%
%TO.N,Net-(D10-A)*%
X45300000Y-76000000D03*
D15*
%TO.P,U1,B+*%
%TO.N,N/C*%
X52500000Y-88180000D03*
%TO.P,U1,B-*%
X50600000Y-88169000D03*
%TD*%
D16*
%TO.P,R2,1*%
%TO.N,Net-(U1-PA11_A3_D3)*%
X91340000Y-88500000D03*
%TO.P,R2,2*%
%TO.N,Net-(C1-Pad2)*%
X101500000Y-88500000D03*
%TD*%
D11*
%TO.P,D3,1,K*%
%TO.N,Net-(D3-K)*%
X83500000Y-41880000D03*
D12*
%TO.P,D3,2,A*%
%TO.N,Net-(D1-A)*%
X83500000Y-49500000D03*
%TD*%
D16*
%TO.P,C2,1*%
%TO.N,Net-(C2-Pad1)*%
X100250000Y-76500000D03*
%TO.P,C2,2*%
%TO.N,Net-(C1-Pad1)*%
X107750000Y-76500000D03*
%TD*%
D17*
%TO.P,D9,1,K*%
%TO.N,Net-(D9-K)*%
X65230000Y-89500000D03*
D12*
%TO.P,D9,2,A*%
%TO.N,Net-(D10-A)*%
X67770000Y-89500000D03*
%TD*%
D10*
%TO.P,SW4,1,1*%
%TO.N,Net-(U2B-~{Q1})*%
X95540000Y-38420000D03*
%TO.P,SW4,2,2*%
%TO.N,Net-(D3-K)*%
X89190000Y-40960000D03*
%TD*%
%TO.P,SW6,1,1*%
%TO.N,Net-(U2B-~{Q3})*%
X55540000Y-58420000D03*
%TO.P,SW6,2,2*%
%TO.N,Net-(D5-K)*%
X49190000Y-60960000D03*
%TD*%
D18*
%TO.P,U2,1,~{EN}*%
%TO.N,Net-(U1-PA5_A9_D9_MISO)*%
X64340000Y-83620000D03*
D16*
%TO.P,U2,2,A*%
%TO.N,Net-(U1-PA9_A5_D5_SCL)*%
X66880000Y-83620000D03*
%TO.P,U2,3,B*%
%TO.N,Net-(U1-PA4_A1_D1)*%
X69420000Y-83620000D03*
%TO.P,U2,4,~{Q0}*%
%TO.N,unconnected-(U2A-~{Q0}-Pad4)*%
X71960000Y-83620000D03*
%TO.P,U2,5,~{Q1}*%
%TO.N,Net-(D10-K)*%
X74500000Y-83620000D03*
%TO.P,U2,6,~{Q2}*%
%TO.N,Net-(D9-K)*%
X77040000Y-83620000D03*
%TO.P,U2,7,~{Q3}*%
%TO.N,unconnected-(U2A-~{Q3}-Pad7)*%
X79580000Y-83620000D03*
%TO.P,U2,8,GND*%
%TO.N,Net-(U1-PA5_A9_D9_MISO)*%
X82120000Y-83620000D03*
%TO.P,U2,9,~{Q3}*%
%TO.N,Net-(U2B-~{Q3})*%
X82120000Y-76000000D03*
%TO.P,U2,10,~{Q2}*%
%TO.N,Net-(U2B-~{Q2})*%
X79580000Y-76000000D03*
%TO.P,U2,11,~{Q1}*%
%TO.N,Net-(U2B-~{Q1})*%
X77040000Y-76000000D03*
%TO.P,U2,12,~{Q0}*%
%TO.N,Net-(U2B-~{Q0})*%
X74500000Y-76000000D03*
%TO.P,U2,13,B*%
%TO.N,Net-(U1-PA5_A9_D9_MISO)*%
X71960000Y-76000000D03*
%TO.P,U2,14,A*%
X69420000Y-76000000D03*
%TO.P,U2,15,~{EN}*%
X66880000Y-76000000D03*
%TO.P,U2,16,VCC*%
%TO.N,Net-(U1-3V3)*%
X64340000Y-76000000D03*
%TD*%
D11*
%TO.P,D8,1,K*%
%TO.N,Net-(D8-K)*%
X103500000Y-62690000D03*
D12*
%TO.P,D8,2,A*%
%TO.N,Net-(D5-A)*%
X103500000Y-70310000D03*
%TD*%
D16*
%TO.P,R1,1*%
%TO.N,Net-(U1-PA8_A4_D4_SDA)*%
X76920000Y-88000000D03*
%TO.P,R1,2*%
%TO.N,Net-(C2-Pad1)*%
X87080000Y-88000000D03*
%TD*%
D11*
%TO.P,D4,1,K*%
%TO.N,Net-(D4-K)*%
X63500000Y-42000000D03*
D12*
%TO.P,D4,2,A*%
%TO.N,Net-(D1-A)*%
X63500000Y-49620000D03*
%TD*%
D11*
%TO.P,D1,1,K*%
%TO.N,Net-(D1-K)*%
X123500000Y-42000000D03*
D12*
%TO.P,D1,2,A*%
%TO.N,Net-(D1-A)*%
X123500000Y-49620000D03*
%TD*%
D10*
%TO.P,SW7,1,1*%
%TO.N,Net-(U2B-~{Q2})*%
X75540000Y-58420000D03*
%TO.P,SW7,2,2*%
%TO.N,Net-(D6-K)*%
X69190000Y-60960000D03*
%TD*%
%TO.P,SW2,1,1*%
%TO.N,Net-(U2B-~{Q3})*%
X55540000Y-38420000D03*
%TO.P,SW2,2,2*%
%TO.N,Net-(D1-K)*%
X49190000Y-40960000D03*
%TD*%
D16*
%TO.P,C1,1*%
%TO.N,Net-(C1-Pad1)*%
X88500000Y-83000000D03*
%TO.P,C1,2*%
%TO.N,Net-(C1-Pad2)*%
X96000000Y-83000000D03*
%TD*%
D11*
%TO.P,D7,1,K*%
%TO.N,Net-(D7-K)*%
X83500000Y-62690000D03*
D12*
%TO.P,D7,2,A*%
%TO.N,Net-(D5-A)*%
X83500000Y-70310000D03*
%TD*%
D11*
%TO.P,D6,1,K*%
%TO.N,Net-(D6-K)*%
X63500000Y-62690000D03*
D12*
%TO.P,D6,2,A*%
%TO.N,Net-(D5-A)*%
X63500000Y-70310000D03*
%TD*%
D11*
%TO.P,D2,1,K*%
%TO.N,Net-(D2-K)*%
X103500000Y-41690000D03*
D12*
%TO.P,D2,2,A*%
%TO.N,Net-(D1-A)*%
X103500000Y-49310000D03*
%TD*%
D17*
%TO.P,D10,1,K*%
%TO.N,Net-(D10-K)*%
X71460000Y-89500000D03*
D12*
%TO.P,D10,2,A*%
%TO.N,Net-(D10-A)*%
X74000000Y-89500000D03*
%TD*%
D19*
%TO.P,SW1,A,A*%
%TO.N,Net-(C2-Pad1)*%
X106500000Y-94000000D03*
D20*
%TO.P,SW1,B,B*%
%TO.N,Net-(C1-Pad2)*%
X106500000Y-99000000D03*
%TO.P,SW1,C,C*%
%TO.N,Net-(C1-Pad1)*%
X106500000Y-96500000D03*
D21*
%TO.P,SW1,MP*%
%TO.N,N/C*%
X114000000Y-90900000D03*
X114000000Y-102100000D03*
D20*
%TO.P,SW1,S1,S1*%
%TO.N,Net-(U1-PA5_A9_D9_MISO)*%
X121000000Y-94000000D03*
%TO.P,SW1,S2,S2*%
%TO.N,Net-(U1-PA10_A2_D2)*%
X121000000Y-99000000D03*
%TD*%
D10*
%TO.P,SW8,1,1*%
%TO.N,Net-(U2B-~{Q1})*%
X95540000Y-58420000D03*
%TO.P,SW8,2,2*%
%TO.N,Net-(D7-K)*%
X89190000Y-60960000D03*
%TD*%
D16*
%TO.P,C3,1*%
%TO.N,Net-(U1-PA5_A9_D9_MISO)*%
X88500000Y-76500000D03*
%TO.P,C3,2*%
%TO.N,Net-(U1-PA10_A2_D2)*%
X96000000Y-76500000D03*
%TD*%
D10*
%TO.P,SW5,1,1*%
%TO.N,Net-(U2B-~{Q0})*%
X115540000Y-38420000D03*
%TO.P,SW5,2,2*%
%TO.N,Net-(D4-K)*%
X109190000Y-40960000D03*
%TD*%
D22*
%TO.N,Net-(D8-K)*%
X100500000Y-56500000D03*
%TO.N,Net-(U1-PA9_A5_D5_SCL)*%
X62604000Y-83557400D03*
%TO.N,Net-(U2B-~{Q3})*%
X57537800Y-72453500D03*
%TO.N,Net-(U1-PA10_A2_D2)*%
X120116500Y-80882000D03*
%TO.N,Net-(D10-A)*%
X63319800Y-80882000D03*
%TO.N,Net-(D6-K)*%
X94411000Y-60470200D03*
%TO.N,Net-(D5-K)*%
X87234200Y-66948000D03*
X84244900Y-58796000D03*
%TO.N,Net-(D5-A)*%
X81232100Y-66318500D03*
%TD*%
D23*
%TO.N,Net-(D1-A)*%
X72500000Y-47174500D02*
X81174500Y-47174500D01*
X81174500Y-47174500D02*
X83500000Y-49500000D01*
X114139000Y-47999686D02*
X114139000Y-48731100D01*
X114139000Y-48731100D02*
X112880600Y-49989500D01*
X123500000Y-49620000D02*
X121059000Y-47179000D01*
X121059000Y-47179000D02*
X114959686Y-47179000D01*
X114959686Y-47179000D02*
X114139000Y-47999686D01*
X112880600Y-49989500D02*
X103500000Y-49989500D01*
X65060000Y-48060000D02*
X71614500Y-48060000D01*
X71614500Y-48060000D02*
X72500000Y-47174500D01*
%TO.N,Net-(D8-K)*%
X94162057Y-61071200D02*
X95928800Y-61071200D01*
X94066837Y-60975979D02*
X94162057Y-61071200D01*
X90649000Y-62446184D02*
X92119205Y-60975979D01*
X74942900Y-66500000D02*
X79972800Y-66500000D01*
X92119205Y-60975979D02*
X94066837Y-60975979D01*
X87774686Y-65394000D02*
X90649000Y-62519686D01*
X81078800Y-65394000D02*
X87774686Y-65394000D01*
X90649000Y-62519686D02*
X90649000Y-62446184D01*
X54981314Y-66040000D02*
X56384214Y-67442900D01*
X56384214Y-67442900D02*
X74000000Y-67442900D01*
X74000000Y-67442900D02*
X74942900Y-66500000D01*
X79972800Y-66500000D02*
X81078800Y-65394000D01*
X49190000Y-66040000D02*
X54981314Y-66040000D01*
X95928800Y-61071200D02*
X100500000Y-56500000D01*
%TO.N,Net-(D5-K)*%
X87234200Y-66948000D02*
X88544000Y-68257800D01*
X88544000Y-68257800D02*
X93800886Y-68257800D01*
X93800886Y-68257800D02*
X96018686Y-66040000D01*
X96018686Y-66040000D02*
X99493000Y-66040000D01*
%TO.N,Net-(U2B-~{Q0})*%
X93912401Y-65912401D02*
X93824800Y-66000000D01*
X93912401Y-65912401D02*
X91968002Y-67856800D01*
X91968002Y-67856800D02*
X88992943Y-67856800D01*
X87136143Y-66000000D02*
X84500000Y-66000000D01*
X88992943Y-67856800D02*
X87136143Y-66000000D01*
X84500000Y-66000000D02*
X78911600Y-71588400D01*
%TO.N,Net-(D5-K)*%
X99493000Y-66040000D02*
X109190000Y-66040000D01*
%TO.N,Net-(U2B-~{Q2})*%
X75620000Y-38420000D02*
X76645400Y-38420000D01*
X76645400Y-38420000D02*
X86805400Y-48580000D01*
X86805400Y-48580000D02*
X95540000Y-48580000D01*
%TO.N,Net-(D1-K)*%
X123500000Y-42000000D02*
X118519000Y-37019000D01*
X118519000Y-37019000D02*
X113981000Y-37019000D01*
X110591000Y-40409000D02*
X110591000Y-44639000D01*
X113981000Y-37019000D02*
X110591000Y-40409000D01*
X110591000Y-44639000D02*
X109190000Y-46040000D01*
%TO.N,Net-(U2B-~{Q3})*%
X115540000Y-68580000D02*
X117291000Y-66829000D01*
X117021000Y-49791000D02*
X115810000Y-48580000D01*
X117291000Y-66829000D02*
X117291000Y-64409470D01*
X117291000Y-64409470D02*
X116500000Y-63618470D01*
X116500000Y-63618470D02*
X116500000Y-60000000D01*
X116500000Y-60000000D02*
X117021000Y-59479000D01*
X117021000Y-59479000D02*
X117021000Y-49791000D01*
X115540000Y-68580000D02*
X112347900Y-71772100D01*
X112347900Y-71772100D02*
X107347900Y-71772100D01*
%TO.N,Net-(D7-K)*%
X83500000Y-62690000D02*
X81903500Y-62690000D01*
X81903500Y-62690000D02*
X78553500Y-66040000D01*
X78553500Y-66040000D02*
X69190000Y-66040000D01*
%TO.N,Net-(U2B-~{Q1})*%
X80154300Y-58194300D02*
X75540000Y-53580000D01*
X75540000Y-48580000D02*
X75540000Y-53580000D01*
%TO.N,Net-(D1-A)*%
X63500000Y-49620000D02*
X65060000Y-48060000D01*
%TO.N,Net-(D4-K)*%
X63500000Y-42000000D02*
X59460000Y-46040000D01*
X59460000Y-46040000D02*
X49190000Y-46040000D01*
%TO.N,Net-(U2B-~{Q0})*%
X56898400Y-71588400D02*
X56898400Y-69938400D01*
X56898400Y-69938400D02*
X55540000Y-68580000D01*
%TO.N,Net-(U1-PA9_A5_D5_SCL)*%
X62604000Y-83453900D02*
X62604000Y-83557400D01*
X63566500Y-82491400D02*
X62604000Y-83453900D01*
X65751400Y-82491400D02*
X63566500Y-82491400D01*
X66880000Y-83620000D02*
X65751400Y-82491400D01*
X62604000Y-83557400D02*
X62604000Y-83453900D01*
X62604000Y-83453900D02*
X62604000Y-83557400D01*
%TO.N,Net-(U1-3V3)*%
X51481700Y-76228300D02*
X51481700Y-76000000D01*
X52375900Y-77122500D02*
X51481700Y-76228300D01*
X63217500Y-77122500D02*
X52375900Y-77122500D01*
X64340000Y-76000000D02*
X63217500Y-77122500D01*
X50380000Y-76000000D02*
X51481700Y-76000000D01*
%TO.N,Net-(U1-PA4_A1_D1)*%
X48941700Y-91011700D02*
X48941700Y-91240000D01*
X50144200Y-89809200D02*
X48941700Y-91011700D01*
X54802900Y-89809200D02*
X50144200Y-89809200D01*
X59889400Y-84722700D02*
X54802900Y-89809200D01*
X68317300Y-84722700D02*
X59889400Y-84722700D01*
X69420000Y-83620000D02*
X68317300Y-84722700D01*
X47840000Y-91240000D02*
X48941700Y-91240000D01*
%TO.N,Net-(U2B-~{Q0})*%
X115620000Y-58420000D02*
X101405000Y-58420000D01*
X115540000Y-38420000D02*
X115409000Y-38551000D01*
X101405000Y-58420000D02*
X93912401Y-65912401D01*
X115409000Y-58209000D02*
X115620000Y-58420000D01*
X78911600Y-71588400D02*
X74500000Y-76000000D01*
X78911600Y-71588400D02*
X56898400Y-71588400D01*
%TO.N,Net-(U2B-~{Q1})*%
X95314300Y-58194300D02*
X80154300Y-58194300D01*
X95540000Y-58420000D02*
X95314300Y-58194300D01*
%TO.N,Net-(U2B-~{Q3})*%
X86347900Y-71772100D02*
X82120000Y-76000000D01*
X107347900Y-71772100D02*
X86347900Y-71772100D01*
X80977100Y-77142900D02*
X82120000Y-76000000D01*
X74084900Y-77142900D02*
X80977100Y-77142900D01*
X73398300Y-76456300D02*
X74084900Y-77142900D01*
X73398300Y-75872600D02*
X73398300Y-76456300D01*
X69979200Y-72453500D02*
X73398300Y-75872600D01*
X57537800Y-72453500D02*
X69979200Y-72453500D01*
%TO.N,Net-(U1-PA10_A2_D2)*%
X100382000Y-80882000D02*
X96000000Y-76500000D01*
X120116500Y-80882000D02*
X100382000Y-80882000D01*
X119662500Y-100337500D02*
X121000000Y-99000000D01*
X60441500Y-100337500D02*
X119662500Y-100337500D01*
X51481700Y-91377700D02*
X60441500Y-100337500D01*
X51481700Y-91240000D02*
X51481700Y-91377700D01*
X50380000Y-91240000D02*
X51481700Y-91240000D01*
%TO.N,Net-(U1-PA5_A9_D9_MISO)*%
X52920000Y-76000000D02*
X55460000Y-76000000D01*
X84218100Y-85718100D02*
X82120000Y-83620000D01*
X112718100Y-85718100D02*
X84218100Y-85718100D01*
X121000000Y-94000000D02*
X112718100Y-85718100D01*
X71960000Y-76000000D02*
X69420000Y-76000000D01*
X87455400Y-77544600D02*
X88500000Y-76500000D01*
X73504600Y-77544600D02*
X87455400Y-77544600D01*
X71960000Y-76000000D02*
X73504600Y-77544600D01*
X51815200Y-74895200D02*
X52920000Y-76000000D01*
X49908800Y-74895200D02*
X51815200Y-74895200D01*
X48941700Y-75862300D02*
X49908800Y-74895200D01*
X48941700Y-76000000D02*
X48941700Y-75862300D01*
X47840000Y-76000000D02*
X48941700Y-76000000D01*
X66880000Y-76000000D02*
X69420000Y-76000000D01*
%TO.N,Net-(U1-PA11_A3_D3)*%
X87487600Y-92352400D02*
X91340000Y-88500000D01*
X54996400Y-92352400D02*
X87487600Y-92352400D01*
X54021700Y-91377700D02*
X54996400Y-92352400D01*
X54021700Y-91240000D02*
X54021700Y-91377700D01*
X52920000Y-91240000D02*
X54021700Y-91240000D01*
%TO.N,Net-(U1-PA8_A4_D4_SDA)*%
X55460000Y-91240000D02*
X56561700Y-91240000D01*
X68440300Y-87413300D02*
X68204900Y-87648700D01*
X76333300Y-87413300D02*
X68440300Y-87413300D01*
X76920000Y-88000000D02*
X76333300Y-87413300D01*
X68204900Y-87648700D02*
X68038600Y-87815000D01*
X68204900Y-87648700D02*
X68038600Y-87815000D01*
X56561700Y-91011700D02*
X56561700Y-91240000D01*
X59758400Y-87815000D02*
X56561700Y-91011700D01*
X68038600Y-87815000D02*
X59758400Y-87815000D01*
%TO.N,Net-(D10-A)*%
X68975200Y-88294800D02*
X67770000Y-89500000D01*
X72794800Y-88294800D02*
X68975200Y-88294800D01*
X74000000Y-89500000D02*
X72794800Y-88294800D01*
X46401700Y-76228300D02*
X46401700Y-76000000D01*
X51055400Y-80882000D02*
X46401700Y-76228300D01*
X63319800Y-80882000D02*
X51055400Y-80882000D01*
X45300000Y-76000000D02*
X46401700Y-76000000D01*
X63319800Y-80882000D02*
X63566200Y-80882000D01*
X63566200Y-80882000D02*
X63319800Y-80882000D01*
%TO.N,Net-(D9-K)*%
X66431700Y-89124400D02*
X66431700Y-89500000D01*
X67257800Y-88298300D02*
X66431700Y-89124400D01*
X68323500Y-88298300D02*
X67257800Y-88298300D01*
X68756800Y-87865000D02*
X68323500Y-88298300D01*
X74798300Y-87865000D02*
X68756800Y-87865000D01*
X76099100Y-89165800D02*
X74798300Y-87865000D01*
X77331200Y-89165800D02*
X76099100Y-89165800D01*
X78027800Y-88469200D02*
X77331200Y-89165800D01*
X78027800Y-84607800D02*
X78027800Y-88469200D01*
X77040000Y-83620000D02*
X78027800Y-84607800D01*
X65230000Y-89500000D02*
X66431700Y-89500000D01*
%TO.N,Net-(D8-K)*%
X105230000Y-60960000D02*
X103500000Y-62690000D01*
X109270000Y-60960000D02*
X105230000Y-60960000D01*
%TO.N,Net-(D7-K)*%
X85230000Y-60960000D02*
X89190000Y-60960000D01*
X83500000Y-62690000D02*
X85230000Y-60960000D01*
%TO.N,Net-(D6-K)*%
X65230000Y-60960000D02*
X69190000Y-60960000D01*
X63500000Y-62690000D02*
X65230000Y-60960000D01*
X93442700Y-59501900D02*
X94411000Y-60470200D01*
X79285700Y-59501900D02*
X93442700Y-59501900D01*
X78534200Y-60253400D02*
X79285700Y-59501900D01*
X69896600Y-60253400D02*
X78534200Y-60253400D01*
X69190000Y-60960000D02*
X69896600Y-60253400D01*
%TO.N,Net-(D5-K)*%
X45420000Y-60960000D02*
X49190000Y-60960000D01*
X43500000Y-62880000D02*
X45420000Y-60960000D01*
X50298300Y-59851700D02*
X49190000Y-60960000D01*
X58368000Y-59851700D02*
X50298300Y-59851700D01*
X58695600Y-59524100D02*
X58368000Y-59851700D01*
X74661800Y-59524100D02*
X58695600Y-59524100D01*
X74989400Y-59851700D02*
X74661800Y-59524100D01*
X77296900Y-59851700D02*
X74989400Y-59851700D01*
X78352600Y-58796000D02*
X77296900Y-59851700D01*
X84244900Y-58796000D02*
X78352600Y-58796000D01*
X87234200Y-66948000D02*
X84868700Y-66948000D01*
X84868700Y-66948000D02*
X87234200Y-66948000D01*
%TO.N,Net-(D5-A)*%
X60540000Y-76000000D02*
X59438300Y-76000000D01*
X103500000Y-70310000D02*
X83500000Y-70310000D01*
X77240600Y-70310000D02*
X81232100Y-66318500D01*
X63500000Y-70310000D02*
X77240600Y-70310000D01*
X59438300Y-75771700D02*
X59438300Y-76000000D01*
X54166600Y-70500000D02*
X59438300Y-75771700D01*
X43500000Y-70500000D02*
X54166600Y-70500000D01*
%TO.N,Net-(D3-K)*%
X84420000Y-40960000D02*
X83500000Y-41880000D01*
X89230000Y-40960000D02*
X84420000Y-40960000D01*
%TO.N,Net-(D2-K)*%
X99150000Y-46040000D02*
X103500000Y-41690000D01*
X96850000Y-46040000D02*
X99150000Y-46040000D01*
X96815400Y-46074600D02*
X96850000Y-46040000D01*
X85381900Y-46074600D02*
X96815400Y-46074600D01*
X76305700Y-36998400D02*
X85381900Y-46074600D01*
X73231600Y-36998400D02*
X76305700Y-36998400D01*
X69270000Y-40960000D02*
X73231600Y-36998400D01*
%TO.N,Net-(D1-K)*%
X53131000Y-37019000D02*
X49190000Y-40960000D01*
X53612400Y-36537600D02*
X53131000Y-37019000D01*
X118037600Y-36537600D02*
X53612400Y-36537600D01*
X123500000Y-42000000D02*
X118037600Y-36537600D01*
%TO.N,Net-(D1-A)*%
X103500000Y-49989500D02*
X103500000Y-49310000D01*
X83989500Y-49989500D02*
X83500000Y-49500000D01*
X103500000Y-49989500D02*
X83989500Y-49989500D01*
%TO.N,Net-(C2-Pad1)*%
X99683300Y-94000000D02*
X106500000Y-94000000D01*
X93038700Y-87355400D02*
X99683300Y-94000000D01*
X87724600Y-87355400D02*
X93038700Y-87355400D01*
X87080000Y-88000000D02*
X87724600Y-87355400D01*
%TO.N,Net-(C1-Pad1)*%
X106609600Y-75359600D02*
X107750000Y-76500000D01*
X95542600Y-75359600D02*
X106609600Y-75359600D01*
X88500000Y-82402200D02*
X95542600Y-75359600D01*
X88500000Y-83000000D02*
X88500000Y-82402200D01*
%TD*%
M02*
