M48
; DRILL file {KiCad 9.0.7} date 2026-02-09T02:17:32+0900
; FORMAT={-:-/ absolute / metric / decimal}
; #@! TF.CreationDate,2026-02-09T02:17:32+09:00
; #@! TF.GenerationSoftware,Kicad,Pcbnew,9.0.7
; #@! TF.FileFunction,NonPlated,1,2,NPTH
FMAT,2
METRIC
; #@! TA.AperFunction,NonPlated,NPTH,ComponentDrill
T1C1.700
; #@! TA.AperFunction,NonPlated,NPTH,ComponentDrill
T2C3.200
; #@! TA.AperFunction,NonPlated,NPTH,ComponentDrill
T3C4.000
%
G90
G05
T1
X47.92Y-43.5
X47.92Y-43.5
X47.92Y-63.5
X47.92Y-63.5
X58.08Y-43.5
X58.08Y-43.5
X58.08Y-63.5
X58.08Y-63.5
X67.92Y-43.5
X67.92Y-43.5
X67.92Y-63.5
X67.92Y-63.5
X78.08Y-43.5
X78.08Y-43.5
X78.08Y-63.5
X78.08Y-63.5
X87.92Y-43.5
X87.92Y-43.5
X87.92Y-63.5
X87.92Y-63.5
X98.08Y-43.5
X98.08Y-43.5
X98.08Y-63.5
X98.08Y-63.5
X107.92Y-43.5
X107.92Y-43.5
X107.92Y-63.5
X107.92Y-63.5
X118.08Y-43.5
X118.08Y-43.5
X118.08Y-63.5
X118.08Y-63.5
T2
X43.5Y-36.0
X44.0Y-102.5
X124.0Y-36.0
X124.5Y-102.0
T3
X53.0Y-43.5
X53.0Y-43.5
X53.0Y-63.5
X53.0Y-63.5
X73.0Y-43.5
X73.0Y-43.5
X73.0Y-63.5
X73.0Y-63.5
X93.0Y-43.5
X93.0Y-43.5
X93.0Y-63.5
X93.0Y-63.5
X113.0Y-43.5
X113.0Y-43.5
X113.0Y-63.5
X113.0Y-63.5
M30
