%TF.GenerationSoftware,KiCad,Pcbnew,9.0.7*%
%TF.CreationDate,2026-02-09T02:17:26+09:00*%
%TF.ProjectId,LEFT_Parade,4c454654-5f50-4617-9261-64652e6b6963,rev?*%
%TF.SameCoordinates,Original*%
%TF.FileFunction,Legend,Top*%
%TF.FilePolarity,Positive*%
%FSLAX46Y46*%
G04 Gerber Fmt 4.6, Leading zero omitted, Abs format (unit mm)*
G04 Created by KiCad (PCBNEW 9.0.7) date 2026-02-09 02:17:26*
%MOMM*%
%LPD*%
G01*
G04 APERTURE LIST*
%ADD10C,0.200000*%
%ADD11C,0.300000*%
%ADD12C,0.700000*%
%ADD13C,0.150000*%
%ADD14C,0.120000*%
%ADD15C,0.000000*%
G04 APERTURE END LIST*
D10*
X132756665Y-96500000D02*
G75*
G02*
X95243335Y-96500000I-18756665J0D01*
G01*
X95243335Y-96500000D02*
G75*
G02*
X132756665Y-96500000I18756665J0D01*
G01*
D11*
X84911653Y-103800828D02*
X85268796Y-104800828D01*
X85268796Y-104800828D02*
X85625939Y-103800828D01*
X86768796Y-104729400D02*
X86625939Y-104800828D01*
X86625939Y-104800828D02*
X86340225Y-104800828D01*
X86340225Y-104800828D02*
X86197367Y-104729400D01*
X86197367Y-104729400D02*
X86125939Y-104586542D01*
X86125939Y-104586542D02*
X86125939Y-104015114D01*
X86125939Y-104015114D02*
X86197367Y-103872257D01*
X86197367Y-103872257D02*
X86340225Y-103800828D01*
X86340225Y-103800828D02*
X86625939Y-103800828D01*
X86625939Y-103800828D02*
X86768796Y-103872257D01*
X86768796Y-103872257D02*
X86840225Y-104015114D01*
X86840225Y-104015114D02*
X86840225Y-104157971D01*
X86840225Y-104157971D02*
X86125939Y-104300828D01*
X87483081Y-104800828D02*
X87483081Y-103800828D01*
X87483081Y-104086542D02*
X87554510Y-103943685D01*
X87554510Y-103943685D02*
X87625939Y-103872257D01*
X87625939Y-103872257D02*
X87768796Y-103800828D01*
X87768796Y-103800828D02*
X87911653Y-103800828D01*
X88411652Y-104657971D02*
X88483081Y-104729400D01*
X88483081Y-104729400D02*
X88411652Y-104800828D01*
X88411652Y-104800828D02*
X88340224Y-104729400D01*
X88340224Y-104729400D02*
X88411652Y-104657971D01*
X88411652Y-104657971D02*
X88411652Y-104800828D01*
X90554510Y-103300828D02*
X90697367Y-103300828D01*
X90697367Y-103300828D02*
X90840224Y-103372257D01*
X90840224Y-103372257D02*
X90911653Y-103443685D01*
X90911653Y-103443685D02*
X90983081Y-103586542D01*
X90983081Y-103586542D02*
X91054510Y-103872257D01*
X91054510Y-103872257D02*
X91054510Y-104229400D01*
X91054510Y-104229400D02*
X90983081Y-104515114D01*
X90983081Y-104515114D02*
X90911653Y-104657971D01*
X90911653Y-104657971D02*
X90840224Y-104729400D01*
X90840224Y-104729400D02*
X90697367Y-104800828D01*
X90697367Y-104800828D02*
X90554510Y-104800828D01*
X90554510Y-104800828D02*
X90411653Y-104729400D01*
X90411653Y-104729400D02*
X90340224Y-104657971D01*
X90340224Y-104657971D02*
X90268795Y-104515114D01*
X90268795Y-104515114D02*
X90197367Y-104229400D01*
X90197367Y-104229400D02*
X90197367Y-103872257D01*
X90197367Y-103872257D02*
X90268795Y-103586542D01*
X90268795Y-103586542D02*
X90340224Y-103443685D01*
X90340224Y-103443685D02*
X90411653Y-103372257D01*
X90411653Y-103372257D02*
X90554510Y-103300828D01*
X91697366Y-104657971D02*
X91768795Y-104729400D01*
X91768795Y-104729400D02*
X91697366Y-104800828D01*
X91697366Y-104800828D02*
X91625938Y-104729400D01*
X91625938Y-104729400D02*
X91697366Y-104657971D01*
X91697366Y-104657971D02*
X91697366Y-104800828D01*
X93197367Y-104800828D02*
X92340224Y-104800828D01*
X92768795Y-104800828D02*
X92768795Y-103300828D01*
X92768795Y-103300828D02*
X92625938Y-103515114D01*
X92625938Y-103515114D02*
X92483081Y-103657971D01*
X92483081Y-103657971D02*
X92340224Y-103729400D01*
X93840223Y-104657971D02*
X93911652Y-104729400D01*
X93911652Y-104729400D02*
X93840223Y-104800828D01*
X93840223Y-104800828D02*
X93768795Y-104729400D01*
X93768795Y-104729400D02*
X93840223Y-104657971D01*
X93840223Y-104657971D02*
X93840223Y-104800828D01*
X94483081Y-103443685D02*
X94554509Y-103372257D01*
X94554509Y-103372257D02*
X94697367Y-103300828D01*
X94697367Y-103300828D02*
X95054509Y-103300828D01*
X95054509Y-103300828D02*
X95197367Y-103372257D01*
X95197367Y-103372257D02*
X95268795Y-103443685D01*
X95268795Y-103443685D02*
X95340224Y-103586542D01*
X95340224Y-103586542D02*
X95340224Y-103729400D01*
X95340224Y-103729400D02*
X95268795Y-103943685D01*
X95268795Y-103943685D02*
X94411652Y-104800828D01*
X94411652Y-104800828D02*
X95340224Y-104800828D01*
D12*
X64585526Y-102096457D02*
X63156954Y-102096457D01*
X63156954Y-102096457D02*
X63531954Y-99096457D01*
X65781954Y-100525028D02*
X66781954Y-100525028D01*
X67014097Y-102096457D02*
X65585525Y-102096457D01*
X65585525Y-102096457D02*
X65960525Y-99096457D01*
X65960525Y-99096457D02*
X67389097Y-99096457D01*
X69496240Y-100525028D02*
X68496240Y-100525028D01*
X68299811Y-102096457D02*
X68674811Y-99096457D01*
X68674811Y-99096457D02*
X70103383Y-99096457D01*
X70817669Y-99096457D02*
X72531954Y-99096457D01*
X71299812Y-102096457D02*
X71674812Y-99096457D01*
X75442668Y-102096457D02*
X75817668Y-99096457D01*
X75817668Y-99096457D02*
X76960525Y-99096457D01*
X76960525Y-99096457D02*
X77228382Y-99239314D01*
X77228382Y-99239314D02*
X77353382Y-99382171D01*
X77353382Y-99382171D02*
X77460525Y-99667885D01*
X77460525Y-99667885D02*
X77406954Y-100096457D01*
X77406954Y-100096457D02*
X77228382Y-100382171D01*
X77228382Y-100382171D02*
X77067668Y-100525028D01*
X77067668Y-100525028D02*
X76764097Y-100667885D01*
X76764097Y-100667885D02*
X75621240Y-100667885D01*
X79728382Y-102096457D02*
X79924811Y-100525028D01*
X79924811Y-100525028D02*
X79817668Y-100239314D01*
X79817668Y-100239314D02*
X79549811Y-100096457D01*
X79549811Y-100096457D02*
X78978382Y-100096457D01*
X78978382Y-100096457D02*
X78674811Y-100239314D01*
X79746240Y-101953600D02*
X79442668Y-102096457D01*
X79442668Y-102096457D02*
X78728382Y-102096457D01*
X78728382Y-102096457D02*
X78460525Y-101953600D01*
X78460525Y-101953600D02*
X78353382Y-101667885D01*
X78353382Y-101667885D02*
X78389097Y-101382171D01*
X78389097Y-101382171D02*
X78567668Y-101096457D01*
X78567668Y-101096457D02*
X78871240Y-100953600D01*
X78871240Y-100953600D02*
X79585525Y-100953600D01*
X79585525Y-100953600D02*
X79889097Y-100810742D01*
X81156954Y-102096457D02*
X81406954Y-100096457D01*
X81335526Y-100667885D02*
X81514097Y-100382171D01*
X81514097Y-100382171D02*
X81674811Y-100239314D01*
X81674811Y-100239314D02*
X81978383Y-100096457D01*
X81978383Y-100096457D02*
X82264097Y-100096457D01*
X84299811Y-102096457D02*
X84496240Y-100525028D01*
X84496240Y-100525028D02*
X84389097Y-100239314D01*
X84389097Y-100239314D02*
X84121240Y-100096457D01*
X84121240Y-100096457D02*
X83549811Y-100096457D01*
X83549811Y-100096457D02*
X83246240Y-100239314D01*
X84317669Y-101953600D02*
X84014097Y-102096457D01*
X84014097Y-102096457D02*
X83299811Y-102096457D01*
X83299811Y-102096457D02*
X83031954Y-101953600D01*
X83031954Y-101953600D02*
X82924811Y-101667885D01*
X82924811Y-101667885D02*
X82960526Y-101382171D01*
X82960526Y-101382171D02*
X83139097Y-101096457D01*
X83139097Y-101096457D02*
X83442669Y-100953600D01*
X83442669Y-100953600D02*
X84156954Y-100953600D01*
X84156954Y-100953600D02*
X84460526Y-100810742D01*
X87014097Y-102096457D02*
X87389097Y-99096457D01*
X87031955Y-101953600D02*
X86728383Y-102096457D01*
X86728383Y-102096457D02*
X86156955Y-102096457D01*
X86156955Y-102096457D02*
X85889097Y-101953600D01*
X85889097Y-101953600D02*
X85764097Y-101810742D01*
X85764097Y-101810742D02*
X85656955Y-101525028D01*
X85656955Y-101525028D02*
X85764097Y-100667885D01*
X85764097Y-100667885D02*
X85942669Y-100382171D01*
X85942669Y-100382171D02*
X86103383Y-100239314D01*
X86103383Y-100239314D02*
X86406955Y-100096457D01*
X86406955Y-100096457D02*
X86978383Y-100096457D01*
X86978383Y-100096457D02*
X87246240Y-100239314D01*
X89603383Y-101953600D02*
X89299812Y-102096457D01*
X89299812Y-102096457D02*
X88728383Y-102096457D01*
X88728383Y-102096457D02*
X88460526Y-101953600D01*
X88460526Y-101953600D02*
X88353383Y-101667885D01*
X88353383Y-101667885D02*
X88496241Y-100525028D01*
X88496241Y-100525028D02*
X88674812Y-100239314D01*
X88674812Y-100239314D02*
X88978383Y-100096457D01*
X88978383Y-100096457D02*
X89549812Y-100096457D01*
X89549812Y-100096457D02*
X89817669Y-100239314D01*
X89817669Y-100239314D02*
X89924812Y-100525028D01*
X89924812Y-100525028D02*
X89889098Y-100810742D01*
X89889098Y-100810742D02*
X88424812Y-101096457D01*
D13*
X46424819Y-67428094D02*
X45424819Y-67428094D01*
X45424819Y-67428094D02*
X45424819Y-67189999D01*
X45424819Y-67189999D02*
X45472438Y-67047142D01*
X45472438Y-67047142D02*
X45567676Y-66951904D01*
X45567676Y-66951904D02*
X45662914Y-66904285D01*
X45662914Y-66904285D02*
X45853390Y-66856666D01*
X45853390Y-66856666D02*
X45996247Y-66856666D01*
X45996247Y-66856666D02*
X46186723Y-66904285D01*
X46186723Y-66904285D02*
X46281961Y-66951904D01*
X46281961Y-66951904D02*
X46377200Y-67047142D01*
X46377200Y-67047142D02*
X46424819Y-67189999D01*
X46424819Y-67189999D02*
X46424819Y-67428094D01*
X45424819Y-65951904D02*
X45424819Y-66428094D01*
X45424819Y-66428094D02*
X45901009Y-66475713D01*
X45901009Y-66475713D02*
X45853390Y-66428094D01*
X45853390Y-66428094D02*
X45805771Y-66332856D01*
X45805771Y-66332856D02*
X45805771Y-66094761D01*
X45805771Y-66094761D02*
X45853390Y-65999523D01*
X45853390Y-65999523D02*
X45901009Y-65951904D01*
X45901009Y-65951904D02*
X45996247Y-65904285D01*
X45996247Y-65904285D02*
X46234342Y-65904285D01*
X46234342Y-65904285D02*
X46329580Y-65951904D01*
X46329580Y-65951904D02*
X46377200Y-65999523D01*
X46377200Y-65999523D02*
X46424819Y-66094761D01*
X46424819Y-66094761D02*
X46424819Y-66332856D01*
X46424819Y-66332856D02*
X46377200Y-66428094D01*
X46377200Y-66428094D02*
X46329580Y-66475713D01*
X45854819Y-63141904D02*
X44854819Y-63141904D01*
X45854819Y-62570476D02*
X45283390Y-62999047D01*
X44854819Y-62570476D02*
X45426247Y-63141904D01*
X86253333Y-90084819D02*
X85920000Y-89608628D01*
X85681905Y-90084819D02*
X85681905Y-89084819D01*
X85681905Y-89084819D02*
X86062857Y-89084819D01*
X86062857Y-89084819D02*
X86158095Y-89132438D01*
X86158095Y-89132438D02*
X86205714Y-89180057D01*
X86205714Y-89180057D02*
X86253333Y-89275295D01*
X86253333Y-89275295D02*
X86253333Y-89418152D01*
X86253333Y-89418152D02*
X86205714Y-89513390D01*
X86205714Y-89513390D02*
X86158095Y-89561009D01*
X86158095Y-89561009D02*
X86062857Y-89608628D01*
X86062857Y-89608628D02*
X85681905Y-89608628D01*
X87205714Y-90084819D02*
X86634286Y-90084819D01*
X86920000Y-90084819D02*
X86920000Y-89084819D01*
X86920000Y-89084819D02*
X86824762Y-89227676D01*
X86824762Y-89227676D02*
X86729524Y-89322914D01*
X86729524Y-89322914D02*
X86634286Y-89370533D01*
X111666667Y-56033200D02*
X111809524Y-56080819D01*
X111809524Y-56080819D02*
X112047619Y-56080819D01*
X112047619Y-56080819D02*
X112142857Y-56033200D01*
X112142857Y-56033200D02*
X112190476Y-55985580D01*
X112190476Y-55985580D02*
X112238095Y-55890342D01*
X112238095Y-55890342D02*
X112238095Y-55795104D01*
X112238095Y-55795104D02*
X112190476Y-55699866D01*
X112190476Y-55699866D02*
X112142857Y-55652247D01*
X112142857Y-55652247D02*
X112047619Y-55604628D01*
X112047619Y-55604628D02*
X111857143Y-55557009D01*
X111857143Y-55557009D02*
X111761905Y-55509390D01*
X111761905Y-55509390D02*
X111714286Y-55461771D01*
X111714286Y-55461771D02*
X111666667Y-55366533D01*
X111666667Y-55366533D02*
X111666667Y-55271295D01*
X111666667Y-55271295D02*
X111714286Y-55176057D01*
X111714286Y-55176057D02*
X111761905Y-55128438D01*
X111761905Y-55128438D02*
X111857143Y-55080819D01*
X111857143Y-55080819D02*
X112095238Y-55080819D01*
X112095238Y-55080819D02*
X112238095Y-55128438D01*
X112571429Y-55080819D02*
X112809524Y-56080819D01*
X112809524Y-56080819D02*
X113000000Y-55366533D01*
X113000000Y-55366533D02*
X113190476Y-56080819D01*
X113190476Y-56080819D02*
X113428572Y-55080819D01*
X113857143Y-56080819D02*
X114047619Y-56080819D01*
X114047619Y-56080819D02*
X114142857Y-56033200D01*
X114142857Y-56033200D02*
X114190476Y-55985580D01*
X114190476Y-55985580D02*
X114285714Y-55842723D01*
X114285714Y-55842723D02*
X114333333Y-55652247D01*
X114333333Y-55652247D02*
X114333333Y-55271295D01*
X114333333Y-55271295D02*
X114285714Y-55176057D01*
X114285714Y-55176057D02*
X114238095Y-55128438D01*
X114238095Y-55128438D02*
X114142857Y-55080819D01*
X114142857Y-55080819D02*
X113952381Y-55080819D01*
X113952381Y-55080819D02*
X113857143Y-55128438D01*
X113857143Y-55128438D02*
X113809524Y-55176057D01*
X113809524Y-55176057D02*
X113761905Y-55271295D01*
X113761905Y-55271295D02*
X113761905Y-55509390D01*
X113761905Y-55509390D02*
X113809524Y-55604628D01*
X113809524Y-55604628D02*
X113857143Y-55652247D01*
X113857143Y-55652247D02*
X113952381Y-55699866D01*
X113952381Y-55699866D02*
X114142857Y-55699866D01*
X114142857Y-55699866D02*
X114238095Y-55652247D01*
X114238095Y-55652247D02*
X114285714Y-55604628D01*
X114285714Y-55604628D02*
X114333333Y-55509390D01*
D10*
X55643409Y-86870326D02*
X55643409Y-86536993D01*
X56167219Y-86394136D02*
X56167219Y-86870326D01*
X56167219Y-86870326D02*
X55167219Y-86870326D01*
X55167219Y-86870326D02*
X55167219Y-86394136D01*
X56119600Y-86013183D02*
X56167219Y-85870326D01*
X56167219Y-85870326D02*
X56167219Y-85632231D01*
X56167219Y-85632231D02*
X56119600Y-85536993D01*
X56119600Y-85536993D02*
X56071980Y-85489374D01*
X56071980Y-85489374D02*
X55976742Y-85441755D01*
X55976742Y-85441755D02*
X55881504Y-85441755D01*
X55881504Y-85441755D02*
X55786266Y-85489374D01*
X55786266Y-85489374D02*
X55738647Y-85536993D01*
X55738647Y-85536993D02*
X55691028Y-85632231D01*
X55691028Y-85632231D02*
X55643409Y-85822707D01*
X55643409Y-85822707D02*
X55595790Y-85917945D01*
X55595790Y-85917945D02*
X55548171Y-85965564D01*
X55548171Y-85965564D02*
X55452933Y-86013183D01*
X55452933Y-86013183D02*
X55357695Y-86013183D01*
X55357695Y-86013183D02*
X55262457Y-85965564D01*
X55262457Y-85965564D02*
X55214838Y-85917945D01*
X55214838Y-85917945D02*
X55167219Y-85822707D01*
X55167219Y-85822707D02*
X55167219Y-85584612D01*
X55167219Y-85584612D02*
X55214838Y-85441755D01*
X56167219Y-85013183D02*
X55167219Y-85013183D01*
X55167219Y-85013183D02*
X55167219Y-84632231D01*
X55167219Y-84632231D02*
X55214838Y-84536993D01*
X55214838Y-84536993D02*
X55262457Y-84489374D01*
X55262457Y-84489374D02*
X55357695Y-84441755D01*
X55357695Y-84441755D02*
X55500552Y-84441755D01*
X55500552Y-84441755D02*
X55595790Y-84489374D01*
X55595790Y-84489374D02*
X55643409Y-84536993D01*
X55643409Y-84536993D02*
X55691028Y-84632231D01*
X55691028Y-84632231D02*
X55691028Y-85013183D01*
X55167219Y-84108421D02*
X55167219Y-83489374D01*
X55167219Y-83489374D02*
X55548171Y-83822707D01*
X55548171Y-83822707D02*
X55548171Y-83679850D01*
X55548171Y-83679850D02*
X55595790Y-83584612D01*
X55595790Y-83584612D02*
X55643409Y-83536993D01*
X55643409Y-83536993D02*
X55738647Y-83489374D01*
X55738647Y-83489374D02*
X55976742Y-83489374D01*
X55976742Y-83489374D02*
X56071980Y-83536993D01*
X56071980Y-83536993D02*
X56119600Y-83584612D01*
X56119600Y-83584612D02*
X56167219Y-83679850D01*
X56167219Y-83679850D02*
X56167219Y-83965564D01*
X56167219Y-83965564D02*
X56119600Y-84060802D01*
X56119600Y-84060802D02*
X56071980Y-84108421D01*
X55262457Y-83108421D02*
X55214838Y-83060802D01*
X55214838Y-83060802D02*
X55167219Y-82965564D01*
X55167219Y-82965564D02*
X55167219Y-82727469D01*
X55167219Y-82727469D02*
X55214838Y-82632231D01*
X55214838Y-82632231D02*
X55262457Y-82584612D01*
X55262457Y-82584612D02*
X55357695Y-82536993D01*
X55357695Y-82536993D02*
X55452933Y-82536993D01*
X55452933Y-82536993D02*
X55595790Y-82584612D01*
X55595790Y-82584612D02*
X56167219Y-83156040D01*
X56167219Y-83156040D02*
X56167219Y-82536993D01*
X56071980Y-81536993D02*
X56119600Y-81584612D01*
X56119600Y-81584612D02*
X56167219Y-81727469D01*
X56167219Y-81727469D02*
X56167219Y-81822707D01*
X56167219Y-81822707D02*
X56119600Y-81965564D01*
X56119600Y-81965564D02*
X56024361Y-82060802D01*
X56024361Y-82060802D02*
X55929123Y-82108421D01*
X55929123Y-82108421D02*
X55738647Y-82156040D01*
X55738647Y-82156040D02*
X55595790Y-82156040D01*
X55595790Y-82156040D02*
X55405314Y-82108421D01*
X55405314Y-82108421D02*
X55310076Y-82060802D01*
X55310076Y-82060802D02*
X55214838Y-81965564D01*
X55214838Y-81965564D02*
X55167219Y-81822707D01*
X55167219Y-81822707D02*
X55167219Y-81727469D01*
X55167219Y-81727469D02*
X55214838Y-81584612D01*
X55214838Y-81584612D02*
X55262457Y-81536993D01*
X55167219Y-81203659D02*
X55167219Y-80584612D01*
X55167219Y-80584612D02*
X55548171Y-80917945D01*
X55548171Y-80917945D02*
X55548171Y-80775088D01*
X55548171Y-80775088D02*
X55595790Y-80679850D01*
X55595790Y-80679850D02*
X55643409Y-80632231D01*
X55643409Y-80632231D02*
X55738647Y-80584612D01*
X55738647Y-80584612D02*
X55976742Y-80584612D01*
X55976742Y-80584612D02*
X56071980Y-80632231D01*
X56071980Y-80632231D02*
X56119600Y-80679850D01*
X56119600Y-80679850D02*
X56167219Y-80775088D01*
X56167219Y-80775088D02*
X56167219Y-81060802D01*
X56167219Y-81060802D02*
X56119600Y-81156040D01*
X56119600Y-81156040D02*
X56071980Y-81203659D01*
D13*
X122666666Y-32304819D02*
X122333333Y-31828628D01*
X122095238Y-32304819D02*
X122095238Y-31304819D01*
X122095238Y-31304819D02*
X122476190Y-31304819D01*
X122476190Y-31304819D02*
X122571428Y-31352438D01*
X122571428Y-31352438D02*
X122619047Y-31400057D01*
X122619047Y-31400057D02*
X122666666Y-31495295D01*
X122666666Y-31495295D02*
X122666666Y-31638152D01*
X122666666Y-31638152D02*
X122619047Y-31733390D01*
X122619047Y-31733390D02*
X122571428Y-31781009D01*
X122571428Y-31781009D02*
X122476190Y-31828628D01*
X122476190Y-31828628D02*
X122095238Y-31828628D01*
X123095238Y-31781009D02*
X123428571Y-31781009D01*
X123571428Y-32304819D02*
X123095238Y-32304819D01*
X123095238Y-32304819D02*
X123095238Y-31304819D01*
X123095238Y-31304819D02*
X123571428Y-31304819D01*
X124333333Y-31781009D02*
X124000000Y-31781009D01*
X124000000Y-32304819D02*
X124000000Y-31304819D01*
X124000000Y-31304819D02*
X124476190Y-31304819D01*
X125000000Y-31304819D02*
X125000000Y-31542914D01*
X124761905Y-31447676D02*
X125000000Y-31542914D01*
X125000000Y-31542914D02*
X125238095Y-31447676D01*
X124857143Y-31733390D02*
X125000000Y-31542914D01*
X125000000Y-31542914D02*
X125142857Y-31733390D01*
X125761905Y-31304819D02*
X125761905Y-31542914D01*
X125523810Y-31447676D02*
X125761905Y-31542914D01*
X125761905Y-31542914D02*
X126000000Y-31447676D01*
X125619048Y-31733390D02*
X125761905Y-31542914D01*
X125761905Y-31542914D02*
X125904762Y-31733390D01*
X86424819Y-46428094D02*
X85424819Y-46428094D01*
X85424819Y-46428094D02*
X85424819Y-46189999D01*
X85424819Y-46189999D02*
X85472438Y-46047142D01*
X85472438Y-46047142D02*
X85567676Y-45951904D01*
X85567676Y-45951904D02*
X85662914Y-45904285D01*
X85662914Y-45904285D02*
X85853390Y-45856666D01*
X85853390Y-45856666D02*
X85996247Y-45856666D01*
X85996247Y-45856666D02*
X86186723Y-45904285D01*
X86186723Y-45904285D02*
X86281961Y-45951904D01*
X86281961Y-45951904D02*
X86377200Y-46047142D01*
X86377200Y-46047142D02*
X86424819Y-46189999D01*
X86424819Y-46189999D02*
X86424819Y-46428094D01*
X85424819Y-45523332D02*
X85424819Y-44904285D01*
X85424819Y-44904285D02*
X85805771Y-45237618D01*
X85805771Y-45237618D02*
X85805771Y-45094761D01*
X85805771Y-45094761D02*
X85853390Y-44999523D01*
X85853390Y-44999523D02*
X85901009Y-44951904D01*
X85901009Y-44951904D02*
X85996247Y-44904285D01*
X85996247Y-44904285D02*
X86234342Y-44904285D01*
X86234342Y-44904285D02*
X86329580Y-44951904D01*
X86329580Y-44951904D02*
X86377200Y-44999523D01*
X86377200Y-44999523D02*
X86424819Y-45094761D01*
X86424819Y-45094761D02*
X86424819Y-45380475D01*
X86424819Y-45380475D02*
X86377200Y-45475713D01*
X86377200Y-45475713D02*
X86329580Y-45523332D01*
X85854819Y-42141904D02*
X84854819Y-42141904D01*
X85854819Y-41570476D02*
X85283390Y-41999047D01*
X84854819Y-41570476D02*
X85426247Y-42141904D01*
X103833333Y-74189580D02*
X103785714Y-74237200D01*
X103785714Y-74237200D02*
X103642857Y-74284819D01*
X103642857Y-74284819D02*
X103547619Y-74284819D01*
X103547619Y-74284819D02*
X103404762Y-74237200D01*
X103404762Y-74237200D02*
X103309524Y-74141961D01*
X103309524Y-74141961D02*
X103261905Y-74046723D01*
X103261905Y-74046723D02*
X103214286Y-73856247D01*
X103214286Y-73856247D02*
X103214286Y-73713390D01*
X103214286Y-73713390D02*
X103261905Y-73522914D01*
X103261905Y-73522914D02*
X103309524Y-73427676D01*
X103309524Y-73427676D02*
X103404762Y-73332438D01*
X103404762Y-73332438D02*
X103547619Y-73284819D01*
X103547619Y-73284819D02*
X103642857Y-73284819D01*
X103642857Y-73284819D02*
X103785714Y-73332438D01*
X103785714Y-73332438D02*
X103833333Y-73380057D01*
X104214286Y-73380057D02*
X104261905Y-73332438D01*
X104261905Y-73332438D02*
X104357143Y-73284819D01*
X104357143Y-73284819D02*
X104595238Y-73284819D01*
X104595238Y-73284819D02*
X104690476Y-73332438D01*
X104690476Y-73332438D02*
X104738095Y-73380057D01*
X104738095Y-73380057D02*
X104785714Y-73475295D01*
X104785714Y-73475295D02*
X104785714Y-73570533D01*
X104785714Y-73570533D02*
X104738095Y-73713390D01*
X104738095Y-73713390D02*
X104166667Y-74284819D01*
X104166667Y-74284819D02*
X104785714Y-74284819D01*
X63261905Y-92494819D02*
X63261905Y-91494819D01*
X63261905Y-91494819D02*
X63500000Y-91494819D01*
X63500000Y-91494819D02*
X63642857Y-91542438D01*
X63642857Y-91542438D02*
X63738095Y-91637676D01*
X63738095Y-91637676D02*
X63785714Y-91732914D01*
X63785714Y-91732914D02*
X63833333Y-91923390D01*
X63833333Y-91923390D02*
X63833333Y-92066247D01*
X63833333Y-92066247D02*
X63785714Y-92256723D01*
X63785714Y-92256723D02*
X63738095Y-92351961D01*
X63738095Y-92351961D02*
X63642857Y-92447200D01*
X63642857Y-92447200D02*
X63500000Y-92494819D01*
X63500000Y-92494819D02*
X63261905Y-92494819D01*
X64309524Y-92494819D02*
X64500000Y-92494819D01*
X64500000Y-92494819D02*
X64595238Y-92447200D01*
X64595238Y-92447200D02*
X64642857Y-92399580D01*
X64642857Y-92399580D02*
X64738095Y-92256723D01*
X64738095Y-92256723D02*
X64785714Y-92066247D01*
X64785714Y-92066247D02*
X64785714Y-91685295D01*
X64785714Y-91685295D02*
X64738095Y-91590057D01*
X64738095Y-91590057D02*
X64690476Y-91542438D01*
X64690476Y-91542438D02*
X64595238Y-91494819D01*
X64595238Y-91494819D02*
X64404762Y-91494819D01*
X64404762Y-91494819D02*
X64309524Y-91542438D01*
X64309524Y-91542438D02*
X64261905Y-91590057D01*
X64261905Y-91590057D02*
X64214286Y-91685295D01*
X64214286Y-91685295D02*
X64214286Y-91923390D01*
X64214286Y-91923390D02*
X64261905Y-92018628D01*
X64261905Y-92018628D02*
X64309524Y-92066247D01*
X64309524Y-92066247D02*
X64404762Y-92113866D01*
X64404762Y-92113866D02*
X64595238Y-92113866D01*
X64595238Y-92113866D02*
X64690476Y-92066247D01*
X64690476Y-92066247D02*
X64738095Y-92018628D01*
X64738095Y-92018628D02*
X64785714Y-91923390D01*
X91666667Y-36033200D02*
X91809524Y-36080819D01*
X91809524Y-36080819D02*
X92047619Y-36080819D01*
X92047619Y-36080819D02*
X92142857Y-36033200D01*
X92142857Y-36033200D02*
X92190476Y-35985580D01*
X92190476Y-35985580D02*
X92238095Y-35890342D01*
X92238095Y-35890342D02*
X92238095Y-35795104D01*
X92238095Y-35795104D02*
X92190476Y-35699866D01*
X92190476Y-35699866D02*
X92142857Y-35652247D01*
X92142857Y-35652247D02*
X92047619Y-35604628D01*
X92047619Y-35604628D02*
X91857143Y-35557009D01*
X91857143Y-35557009D02*
X91761905Y-35509390D01*
X91761905Y-35509390D02*
X91714286Y-35461771D01*
X91714286Y-35461771D02*
X91666667Y-35366533D01*
X91666667Y-35366533D02*
X91666667Y-35271295D01*
X91666667Y-35271295D02*
X91714286Y-35176057D01*
X91714286Y-35176057D02*
X91761905Y-35128438D01*
X91761905Y-35128438D02*
X91857143Y-35080819D01*
X91857143Y-35080819D02*
X92095238Y-35080819D01*
X92095238Y-35080819D02*
X92238095Y-35128438D01*
X92571429Y-35080819D02*
X92809524Y-36080819D01*
X92809524Y-36080819D02*
X93000000Y-35366533D01*
X93000000Y-35366533D02*
X93190476Y-36080819D01*
X93190476Y-36080819D02*
X93428572Y-35080819D01*
X94238095Y-35414152D02*
X94238095Y-36080819D01*
X94000000Y-35033200D02*
X93761905Y-35747485D01*
X93761905Y-35747485D02*
X94380952Y-35747485D01*
X51666667Y-56033200D02*
X51809524Y-56080819D01*
X51809524Y-56080819D02*
X52047619Y-56080819D01*
X52047619Y-56080819D02*
X52142857Y-56033200D01*
X52142857Y-56033200D02*
X52190476Y-55985580D01*
X52190476Y-55985580D02*
X52238095Y-55890342D01*
X52238095Y-55890342D02*
X52238095Y-55795104D01*
X52238095Y-55795104D02*
X52190476Y-55699866D01*
X52190476Y-55699866D02*
X52142857Y-55652247D01*
X52142857Y-55652247D02*
X52047619Y-55604628D01*
X52047619Y-55604628D02*
X51857143Y-55557009D01*
X51857143Y-55557009D02*
X51761905Y-55509390D01*
X51761905Y-55509390D02*
X51714286Y-55461771D01*
X51714286Y-55461771D02*
X51666667Y-55366533D01*
X51666667Y-55366533D02*
X51666667Y-55271295D01*
X51666667Y-55271295D02*
X51714286Y-55176057D01*
X51714286Y-55176057D02*
X51761905Y-55128438D01*
X51761905Y-55128438D02*
X51857143Y-55080819D01*
X51857143Y-55080819D02*
X52095238Y-55080819D01*
X52095238Y-55080819D02*
X52238095Y-55128438D01*
X52571429Y-55080819D02*
X52809524Y-56080819D01*
X52809524Y-56080819D02*
X53000000Y-55366533D01*
X53000000Y-55366533D02*
X53190476Y-56080819D01*
X53190476Y-56080819D02*
X53428572Y-55080819D01*
X54238095Y-55080819D02*
X54047619Y-55080819D01*
X54047619Y-55080819D02*
X53952381Y-55128438D01*
X53952381Y-55128438D02*
X53904762Y-55176057D01*
X53904762Y-55176057D02*
X53809524Y-55318914D01*
X53809524Y-55318914D02*
X53761905Y-55509390D01*
X53761905Y-55509390D02*
X53761905Y-55890342D01*
X53761905Y-55890342D02*
X53809524Y-55985580D01*
X53809524Y-55985580D02*
X53857143Y-56033200D01*
X53857143Y-56033200D02*
X53952381Y-56080819D01*
X53952381Y-56080819D02*
X54142857Y-56080819D01*
X54142857Y-56080819D02*
X54238095Y-56033200D01*
X54238095Y-56033200D02*
X54285714Y-55985580D01*
X54285714Y-55985580D02*
X54333333Y-55890342D01*
X54333333Y-55890342D02*
X54333333Y-55652247D01*
X54333333Y-55652247D02*
X54285714Y-55557009D01*
X54285714Y-55557009D02*
X54238095Y-55509390D01*
X54238095Y-55509390D02*
X54142857Y-55461771D01*
X54142857Y-55461771D02*
X53952381Y-55461771D01*
X53952381Y-55461771D02*
X53857143Y-55509390D01*
X53857143Y-55509390D02*
X53809524Y-55557009D01*
X53809524Y-55557009D02*
X53761905Y-55652247D01*
X61464819Y-80571904D02*
X62274342Y-80571904D01*
X62274342Y-80571904D02*
X62369580Y-80524285D01*
X62369580Y-80524285D02*
X62417200Y-80476666D01*
X62417200Y-80476666D02*
X62464819Y-80381428D01*
X62464819Y-80381428D02*
X62464819Y-80190952D01*
X62464819Y-80190952D02*
X62417200Y-80095714D01*
X62417200Y-80095714D02*
X62369580Y-80048095D01*
X62369580Y-80048095D02*
X62274342Y-80000476D01*
X62274342Y-80000476D02*
X61464819Y-80000476D01*
X61560057Y-79571904D02*
X61512438Y-79524285D01*
X61512438Y-79524285D02*
X61464819Y-79429047D01*
X61464819Y-79429047D02*
X61464819Y-79190952D01*
X61464819Y-79190952D02*
X61512438Y-79095714D01*
X61512438Y-79095714D02*
X61560057Y-79048095D01*
X61560057Y-79048095D02*
X61655295Y-79000476D01*
X61655295Y-79000476D02*
X61750533Y-79000476D01*
X61750533Y-79000476D02*
X61893390Y-79048095D01*
X61893390Y-79048095D02*
X62464819Y-79619523D01*
X62464819Y-79619523D02*
X62464819Y-79000476D01*
X106424819Y-67238094D02*
X105424819Y-67238094D01*
X105424819Y-67238094D02*
X105424819Y-66999999D01*
X105424819Y-66999999D02*
X105472438Y-66857142D01*
X105472438Y-66857142D02*
X105567676Y-66761904D01*
X105567676Y-66761904D02*
X105662914Y-66714285D01*
X105662914Y-66714285D02*
X105853390Y-66666666D01*
X105853390Y-66666666D02*
X105996247Y-66666666D01*
X105996247Y-66666666D02*
X106186723Y-66714285D01*
X106186723Y-66714285D02*
X106281961Y-66761904D01*
X106281961Y-66761904D02*
X106377200Y-66857142D01*
X106377200Y-66857142D02*
X106424819Y-66999999D01*
X106424819Y-66999999D02*
X106424819Y-67238094D01*
X105853390Y-66095237D02*
X105805771Y-66190475D01*
X105805771Y-66190475D02*
X105758152Y-66238094D01*
X105758152Y-66238094D02*
X105662914Y-66285713D01*
X105662914Y-66285713D02*
X105615295Y-66285713D01*
X105615295Y-66285713D02*
X105520057Y-66238094D01*
X105520057Y-66238094D02*
X105472438Y-66190475D01*
X105472438Y-66190475D02*
X105424819Y-66095237D01*
X105424819Y-66095237D02*
X105424819Y-65904761D01*
X105424819Y-65904761D02*
X105472438Y-65809523D01*
X105472438Y-65809523D02*
X105520057Y-65761904D01*
X105520057Y-65761904D02*
X105615295Y-65714285D01*
X105615295Y-65714285D02*
X105662914Y-65714285D01*
X105662914Y-65714285D02*
X105758152Y-65761904D01*
X105758152Y-65761904D02*
X105805771Y-65809523D01*
X105805771Y-65809523D02*
X105853390Y-65904761D01*
X105853390Y-65904761D02*
X105853390Y-66095237D01*
X105853390Y-66095237D02*
X105901009Y-66190475D01*
X105901009Y-66190475D02*
X105948628Y-66238094D01*
X105948628Y-66238094D02*
X106043866Y-66285713D01*
X106043866Y-66285713D02*
X106234342Y-66285713D01*
X106234342Y-66285713D02*
X106329580Y-66238094D01*
X106329580Y-66238094D02*
X106377200Y-66190475D01*
X106377200Y-66190475D02*
X106424819Y-66095237D01*
X106424819Y-66095237D02*
X106424819Y-65904761D01*
X106424819Y-65904761D02*
X106377200Y-65809523D01*
X106377200Y-65809523D02*
X106329580Y-65761904D01*
X106329580Y-65761904D02*
X106234342Y-65714285D01*
X106234342Y-65714285D02*
X106043866Y-65714285D01*
X106043866Y-65714285D02*
X105948628Y-65761904D01*
X105948628Y-65761904D02*
X105901009Y-65809523D01*
X105901009Y-65809523D02*
X105853390Y-65904761D01*
X105854819Y-62951904D02*
X104854819Y-62951904D01*
X105854819Y-62380476D02*
X105283390Y-62809047D01*
X104854819Y-62380476D02*
X105426247Y-62951904D01*
X75285714Y-92454819D02*
X75285714Y-91454819D01*
X75285714Y-91454819D02*
X75523809Y-91454819D01*
X75523809Y-91454819D02*
X75666666Y-91502438D01*
X75666666Y-91502438D02*
X75761904Y-91597676D01*
X75761904Y-91597676D02*
X75809523Y-91692914D01*
X75809523Y-91692914D02*
X75857142Y-91883390D01*
X75857142Y-91883390D02*
X75857142Y-92026247D01*
X75857142Y-92026247D02*
X75809523Y-92216723D01*
X75809523Y-92216723D02*
X75761904Y-92311961D01*
X75761904Y-92311961D02*
X75666666Y-92407200D01*
X75666666Y-92407200D02*
X75523809Y-92454819D01*
X75523809Y-92454819D02*
X75285714Y-92454819D01*
X76809523Y-92454819D02*
X76238095Y-92454819D01*
X76523809Y-92454819D02*
X76523809Y-91454819D01*
X76523809Y-91454819D02*
X76428571Y-91597676D01*
X76428571Y-91597676D02*
X76333333Y-91692914D01*
X76333333Y-91692914D02*
X76238095Y-91740533D01*
X77761904Y-92454819D02*
X77190476Y-92454819D01*
X77476190Y-92454819D02*
X77476190Y-91454819D01*
X77476190Y-91454819D02*
X77380952Y-91597676D01*
X77380952Y-91597676D02*
X77285714Y-91692914D01*
X77285714Y-91692914D02*
X77190476Y-91740533D01*
X66424819Y-46548094D02*
X65424819Y-46548094D01*
X65424819Y-46548094D02*
X65424819Y-46309999D01*
X65424819Y-46309999D02*
X65472438Y-46167142D01*
X65472438Y-46167142D02*
X65567676Y-46071904D01*
X65567676Y-46071904D02*
X65662914Y-46024285D01*
X65662914Y-46024285D02*
X65853390Y-45976666D01*
X65853390Y-45976666D02*
X65996247Y-45976666D01*
X65996247Y-45976666D02*
X66186723Y-46024285D01*
X66186723Y-46024285D02*
X66281961Y-46071904D01*
X66281961Y-46071904D02*
X66377200Y-46167142D01*
X66377200Y-46167142D02*
X66424819Y-46309999D01*
X66424819Y-46309999D02*
X66424819Y-46548094D01*
X65758152Y-45119523D02*
X66424819Y-45119523D01*
X65377200Y-45357618D02*
X66091485Y-45595713D01*
X66091485Y-45595713D02*
X66091485Y-44976666D01*
X65854819Y-42261904D02*
X64854819Y-42261904D01*
X65854819Y-41690476D02*
X65283390Y-42119047D01*
X64854819Y-41690476D02*
X65426247Y-42261904D01*
X126424819Y-46548094D02*
X125424819Y-46548094D01*
X125424819Y-46548094D02*
X125424819Y-46309999D01*
X125424819Y-46309999D02*
X125472438Y-46167142D01*
X125472438Y-46167142D02*
X125567676Y-46071904D01*
X125567676Y-46071904D02*
X125662914Y-46024285D01*
X125662914Y-46024285D02*
X125853390Y-45976666D01*
X125853390Y-45976666D02*
X125996247Y-45976666D01*
X125996247Y-45976666D02*
X126186723Y-46024285D01*
X126186723Y-46024285D02*
X126281961Y-46071904D01*
X126281961Y-46071904D02*
X126377200Y-46167142D01*
X126377200Y-46167142D02*
X126424819Y-46309999D01*
X126424819Y-46309999D02*
X126424819Y-46548094D01*
X126424819Y-45024285D02*
X126424819Y-45595713D01*
X126424819Y-45309999D02*
X125424819Y-45309999D01*
X125424819Y-45309999D02*
X125567676Y-45405237D01*
X125567676Y-45405237D02*
X125662914Y-45500475D01*
X125662914Y-45500475D02*
X125710533Y-45595713D01*
X125854819Y-42261904D02*
X124854819Y-42261904D01*
X125854819Y-41690476D02*
X125283390Y-42119047D01*
X124854819Y-41690476D02*
X125426247Y-42261904D01*
X71666667Y-56033200D02*
X71809524Y-56080819D01*
X71809524Y-56080819D02*
X72047619Y-56080819D01*
X72047619Y-56080819D02*
X72142857Y-56033200D01*
X72142857Y-56033200D02*
X72190476Y-55985580D01*
X72190476Y-55985580D02*
X72238095Y-55890342D01*
X72238095Y-55890342D02*
X72238095Y-55795104D01*
X72238095Y-55795104D02*
X72190476Y-55699866D01*
X72190476Y-55699866D02*
X72142857Y-55652247D01*
X72142857Y-55652247D02*
X72047619Y-55604628D01*
X72047619Y-55604628D02*
X71857143Y-55557009D01*
X71857143Y-55557009D02*
X71761905Y-55509390D01*
X71761905Y-55509390D02*
X71714286Y-55461771D01*
X71714286Y-55461771D02*
X71666667Y-55366533D01*
X71666667Y-55366533D02*
X71666667Y-55271295D01*
X71666667Y-55271295D02*
X71714286Y-55176057D01*
X71714286Y-55176057D02*
X71761905Y-55128438D01*
X71761905Y-55128438D02*
X71857143Y-55080819D01*
X71857143Y-55080819D02*
X72095238Y-55080819D01*
X72095238Y-55080819D02*
X72238095Y-55128438D01*
X72571429Y-55080819D02*
X72809524Y-56080819D01*
X72809524Y-56080819D02*
X73000000Y-55366533D01*
X73000000Y-55366533D02*
X73190476Y-56080819D01*
X73190476Y-56080819D02*
X73428572Y-55080819D01*
X73714286Y-55080819D02*
X74380952Y-55080819D01*
X74380952Y-55080819D02*
X73952381Y-56080819D01*
X51666667Y-36033200D02*
X51809524Y-36080819D01*
X51809524Y-36080819D02*
X52047619Y-36080819D01*
X52047619Y-36080819D02*
X52142857Y-36033200D01*
X52142857Y-36033200D02*
X52190476Y-35985580D01*
X52190476Y-35985580D02*
X52238095Y-35890342D01*
X52238095Y-35890342D02*
X52238095Y-35795104D01*
X52238095Y-35795104D02*
X52190476Y-35699866D01*
X52190476Y-35699866D02*
X52142857Y-35652247D01*
X52142857Y-35652247D02*
X52047619Y-35604628D01*
X52047619Y-35604628D02*
X51857143Y-35557009D01*
X51857143Y-35557009D02*
X51761905Y-35509390D01*
X51761905Y-35509390D02*
X51714286Y-35461771D01*
X51714286Y-35461771D02*
X51666667Y-35366533D01*
X51666667Y-35366533D02*
X51666667Y-35271295D01*
X51666667Y-35271295D02*
X51714286Y-35176057D01*
X51714286Y-35176057D02*
X51761905Y-35128438D01*
X51761905Y-35128438D02*
X51857143Y-35080819D01*
X51857143Y-35080819D02*
X52095238Y-35080819D01*
X52095238Y-35080819D02*
X52238095Y-35128438D01*
X52571429Y-35080819D02*
X52809524Y-36080819D01*
X52809524Y-36080819D02*
X53000000Y-35366533D01*
X53000000Y-35366533D02*
X53190476Y-36080819D01*
X53190476Y-36080819D02*
X53428572Y-35080819D01*
X53761905Y-35176057D02*
X53809524Y-35128438D01*
X53809524Y-35128438D02*
X53904762Y-35080819D01*
X53904762Y-35080819D02*
X54142857Y-35080819D01*
X54142857Y-35080819D02*
X54238095Y-35128438D01*
X54238095Y-35128438D02*
X54285714Y-35176057D01*
X54285714Y-35176057D02*
X54333333Y-35271295D01*
X54333333Y-35271295D02*
X54333333Y-35366533D01*
X54333333Y-35366533D02*
X54285714Y-35509390D01*
X54285714Y-35509390D02*
X53714286Y-36080819D01*
X53714286Y-36080819D02*
X54333333Y-36080819D01*
X92083333Y-80689580D02*
X92035714Y-80737200D01*
X92035714Y-80737200D02*
X91892857Y-80784819D01*
X91892857Y-80784819D02*
X91797619Y-80784819D01*
X91797619Y-80784819D02*
X91654762Y-80737200D01*
X91654762Y-80737200D02*
X91559524Y-80641961D01*
X91559524Y-80641961D02*
X91511905Y-80546723D01*
X91511905Y-80546723D02*
X91464286Y-80356247D01*
X91464286Y-80356247D02*
X91464286Y-80213390D01*
X91464286Y-80213390D02*
X91511905Y-80022914D01*
X91511905Y-80022914D02*
X91559524Y-79927676D01*
X91559524Y-79927676D02*
X91654762Y-79832438D01*
X91654762Y-79832438D02*
X91797619Y-79784819D01*
X91797619Y-79784819D02*
X91892857Y-79784819D01*
X91892857Y-79784819D02*
X92035714Y-79832438D01*
X92035714Y-79832438D02*
X92083333Y-79880057D01*
X93035714Y-80784819D02*
X92464286Y-80784819D01*
X92750000Y-80784819D02*
X92750000Y-79784819D01*
X92750000Y-79784819D02*
X92654762Y-79927676D01*
X92654762Y-79927676D02*
X92559524Y-80022914D01*
X92559524Y-80022914D02*
X92464286Y-80070533D01*
X86424819Y-67238094D02*
X85424819Y-67238094D01*
X85424819Y-67238094D02*
X85424819Y-66999999D01*
X85424819Y-66999999D02*
X85472438Y-66857142D01*
X85472438Y-66857142D02*
X85567676Y-66761904D01*
X85567676Y-66761904D02*
X85662914Y-66714285D01*
X85662914Y-66714285D02*
X85853390Y-66666666D01*
X85853390Y-66666666D02*
X85996247Y-66666666D01*
X85996247Y-66666666D02*
X86186723Y-66714285D01*
X86186723Y-66714285D02*
X86281961Y-66761904D01*
X86281961Y-66761904D02*
X86377200Y-66857142D01*
X86377200Y-66857142D02*
X86424819Y-66999999D01*
X86424819Y-66999999D02*
X86424819Y-67238094D01*
X85424819Y-66333332D02*
X85424819Y-65666666D01*
X85424819Y-65666666D02*
X86424819Y-66095237D01*
X85854819Y-62951904D02*
X84854819Y-62951904D01*
X85854819Y-62380476D02*
X85283390Y-62809047D01*
X84854819Y-62380476D02*
X85426247Y-62951904D01*
X66424819Y-67238094D02*
X65424819Y-67238094D01*
X65424819Y-67238094D02*
X65424819Y-66999999D01*
X65424819Y-66999999D02*
X65472438Y-66857142D01*
X65472438Y-66857142D02*
X65567676Y-66761904D01*
X65567676Y-66761904D02*
X65662914Y-66714285D01*
X65662914Y-66714285D02*
X65853390Y-66666666D01*
X65853390Y-66666666D02*
X65996247Y-66666666D01*
X65996247Y-66666666D02*
X66186723Y-66714285D01*
X66186723Y-66714285D02*
X66281961Y-66761904D01*
X66281961Y-66761904D02*
X66377200Y-66857142D01*
X66377200Y-66857142D02*
X66424819Y-66999999D01*
X66424819Y-66999999D02*
X66424819Y-67238094D01*
X65424819Y-65809523D02*
X65424819Y-65999999D01*
X65424819Y-65999999D02*
X65472438Y-66095237D01*
X65472438Y-66095237D02*
X65520057Y-66142856D01*
X65520057Y-66142856D02*
X65662914Y-66238094D01*
X65662914Y-66238094D02*
X65853390Y-66285713D01*
X65853390Y-66285713D02*
X66234342Y-66285713D01*
X66234342Y-66285713D02*
X66329580Y-66238094D01*
X66329580Y-66238094D02*
X66377200Y-66190475D01*
X66377200Y-66190475D02*
X66424819Y-66095237D01*
X66424819Y-66095237D02*
X66424819Y-65904761D01*
X66424819Y-65904761D02*
X66377200Y-65809523D01*
X66377200Y-65809523D02*
X66329580Y-65761904D01*
X66329580Y-65761904D02*
X66234342Y-65714285D01*
X66234342Y-65714285D02*
X65996247Y-65714285D01*
X65996247Y-65714285D02*
X65901009Y-65761904D01*
X65901009Y-65761904D02*
X65853390Y-65809523D01*
X65853390Y-65809523D02*
X65805771Y-65904761D01*
X65805771Y-65904761D02*
X65805771Y-66095237D01*
X65805771Y-66095237D02*
X65853390Y-66190475D01*
X65853390Y-66190475D02*
X65901009Y-66238094D01*
X65901009Y-66238094D02*
X65996247Y-66285713D01*
X65854819Y-62951904D02*
X64854819Y-62951904D01*
X65854819Y-62380476D02*
X65283390Y-62809047D01*
X64854819Y-62380476D02*
X65426247Y-62951904D01*
X106424819Y-46238094D02*
X105424819Y-46238094D01*
X105424819Y-46238094D02*
X105424819Y-45999999D01*
X105424819Y-45999999D02*
X105472438Y-45857142D01*
X105472438Y-45857142D02*
X105567676Y-45761904D01*
X105567676Y-45761904D02*
X105662914Y-45714285D01*
X105662914Y-45714285D02*
X105853390Y-45666666D01*
X105853390Y-45666666D02*
X105996247Y-45666666D01*
X105996247Y-45666666D02*
X106186723Y-45714285D01*
X106186723Y-45714285D02*
X106281961Y-45761904D01*
X106281961Y-45761904D02*
X106377200Y-45857142D01*
X106377200Y-45857142D02*
X106424819Y-45999999D01*
X106424819Y-45999999D02*
X106424819Y-46238094D01*
X105520057Y-45285713D02*
X105472438Y-45238094D01*
X105472438Y-45238094D02*
X105424819Y-45142856D01*
X105424819Y-45142856D02*
X105424819Y-44904761D01*
X105424819Y-44904761D02*
X105472438Y-44809523D01*
X105472438Y-44809523D02*
X105520057Y-44761904D01*
X105520057Y-44761904D02*
X105615295Y-44714285D01*
X105615295Y-44714285D02*
X105710533Y-44714285D01*
X105710533Y-44714285D02*
X105853390Y-44761904D01*
X105853390Y-44761904D02*
X106424819Y-45333332D01*
X106424819Y-45333332D02*
X106424819Y-44714285D01*
X105854819Y-41951904D02*
X104854819Y-41951904D01*
X105854819Y-41380476D02*
X105283390Y-41809047D01*
X104854819Y-41380476D02*
X105426247Y-41951904D01*
X71666667Y-36033200D02*
X71809524Y-36080819D01*
X71809524Y-36080819D02*
X72047619Y-36080819D01*
X72047619Y-36080819D02*
X72142857Y-36033200D01*
X72142857Y-36033200D02*
X72190476Y-35985580D01*
X72190476Y-35985580D02*
X72238095Y-35890342D01*
X72238095Y-35890342D02*
X72238095Y-35795104D01*
X72238095Y-35795104D02*
X72190476Y-35699866D01*
X72190476Y-35699866D02*
X72142857Y-35652247D01*
X72142857Y-35652247D02*
X72047619Y-35604628D01*
X72047619Y-35604628D02*
X71857143Y-35557009D01*
X71857143Y-35557009D02*
X71761905Y-35509390D01*
X71761905Y-35509390D02*
X71714286Y-35461771D01*
X71714286Y-35461771D02*
X71666667Y-35366533D01*
X71666667Y-35366533D02*
X71666667Y-35271295D01*
X71666667Y-35271295D02*
X71714286Y-35176057D01*
X71714286Y-35176057D02*
X71761905Y-35128438D01*
X71761905Y-35128438D02*
X71857143Y-35080819D01*
X71857143Y-35080819D02*
X72095238Y-35080819D01*
X72095238Y-35080819D02*
X72238095Y-35128438D01*
X72571429Y-35080819D02*
X72809524Y-36080819D01*
X72809524Y-36080819D02*
X73000000Y-35366533D01*
X73000000Y-35366533D02*
X73190476Y-36080819D01*
X73190476Y-36080819D02*
X73428572Y-35080819D01*
X73714286Y-35080819D02*
X74333333Y-35080819D01*
X74333333Y-35080819D02*
X74000000Y-35461771D01*
X74000000Y-35461771D02*
X74142857Y-35461771D01*
X74142857Y-35461771D02*
X74238095Y-35509390D01*
X74238095Y-35509390D02*
X74285714Y-35557009D01*
X74285714Y-35557009D02*
X74333333Y-35652247D01*
X74333333Y-35652247D02*
X74333333Y-35890342D01*
X74333333Y-35890342D02*
X74285714Y-35985580D01*
X74285714Y-35985580D02*
X74238095Y-36033200D01*
X74238095Y-36033200D02*
X74142857Y-36080819D01*
X74142857Y-36080819D02*
X73857143Y-36080819D01*
X73857143Y-36080819D02*
X73761905Y-36033200D01*
X73761905Y-36033200D02*
X73714286Y-35985580D01*
X68785714Y-92494819D02*
X68785714Y-91494819D01*
X68785714Y-91494819D02*
X69023809Y-91494819D01*
X69023809Y-91494819D02*
X69166666Y-91542438D01*
X69166666Y-91542438D02*
X69261904Y-91637676D01*
X69261904Y-91637676D02*
X69309523Y-91732914D01*
X69309523Y-91732914D02*
X69357142Y-91923390D01*
X69357142Y-91923390D02*
X69357142Y-92066247D01*
X69357142Y-92066247D02*
X69309523Y-92256723D01*
X69309523Y-92256723D02*
X69261904Y-92351961D01*
X69261904Y-92351961D02*
X69166666Y-92447200D01*
X69166666Y-92447200D02*
X69023809Y-92494819D01*
X69023809Y-92494819D02*
X68785714Y-92494819D01*
X70309523Y-92494819D02*
X69738095Y-92494819D01*
X70023809Y-92494819D02*
X70023809Y-91494819D01*
X70023809Y-91494819D02*
X69928571Y-91637676D01*
X69928571Y-91637676D02*
X69833333Y-91732914D01*
X69833333Y-91732914D02*
X69738095Y-91780533D01*
X70928571Y-91494819D02*
X71023809Y-91494819D01*
X71023809Y-91494819D02*
X71119047Y-91542438D01*
X71119047Y-91542438D02*
X71166666Y-91590057D01*
X71166666Y-91590057D02*
X71214285Y-91685295D01*
X71214285Y-91685295D02*
X71261904Y-91875771D01*
X71261904Y-91875771D02*
X71261904Y-92113866D01*
X71261904Y-92113866D02*
X71214285Y-92304342D01*
X71214285Y-92304342D02*
X71166666Y-92399580D01*
X71166666Y-92399580D02*
X71119047Y-92447200D01*
X71119047Y-92447200D02*
X71023809Y-92494819D01*
X71023809Y-92494819D02*
X70928571Y-92494819D01*
X70928571Y-92494819D02*
X70833333Y-92447200D01*
X70833333Y-92447200D02*
X70785714Y-92399580D01*
X70785714Y-92399580D02*
X70738095Y-92304342D01*
X70738095Y-92304342D02*
X70690476Y-92113866D01*
X70690476Y-92113866D02*
X70690476Y-91875771D01*
X70690476Y-91875771D02*
X70738095Y-91685295D01*
X70738095Y-91685295D02*
X70785714Y-91590057D01*
X70785714Y-91590057D02*
X70833333Y-91542438D01*
X70833333Y-91542438D02*
X70928571Y-91494819D01*
X107966667Y-89707200D02*
X108109524Y-89754819D01*
X108109524Y-89754819D02*
X108347619Y-89754819D01*
X108347619Y-89754819D02*
X108442857Y-89707200D01*
X108442857Y-89707200D02*
X108490476Y-89659580D01*
X108490476Y-89659580D02*
X108538095Y-89564342D01*
X108538095Y-89564342D02*
X108538095Y-89469104D01*
X108538095Y-89469104D02*
X108490476Y-89373866D01*
X108490476Y-89373866D02*
X108442857Y-89326247D01*
X108442857Y-89326247D02*
X108347619Y-89278628D01*
X108347619Y-89278628D02*
X108157143Y-89231009D01*
X108157143Y-89231009D02*
X108061905Y-89183390D01*
X108061905Y-89183390D02*
X108014286Y-89135771D01*
X108014286Y-89135771D02*
X107966667Y-89040533D01*
X107966667Y-89040533D02*
X107966667Y-88945295D01*
X107966667Y-88945295D02*
X108014286Y-88850057D01*
X108014286Y-88850057D02*
X108061905Y-88802438D01*
X108061905Y-88802438D02*
X108157143Y-88754819D01*
X108157143Y-88754819D02*
X108395238Y-88754819D01*
X108395238Y-88754819D02*
X108538095Y-88802438D01*
X108871429Y-88754819D02*
X109109524Y-89754819D01*
X109109524Y-89754819D02*
X109300000Y-89040533D01*
X109300000Y-89040533D02*
X109490476Y-89754819D01*
X109490476Y-89754819D02*
X109728572Y-88754819D01*
X110633333Y-89754819D02*
X110061905Y-89754819D01*
X110347619Y-89754819D02*
X110347619Y-88754819D01*
X110347619Y-88754819D02*
X110252381Y-88897676D01*
X110252381Y-88897676D02*
X110157143Y-88992914D01*
X110157143Y-88992914D02*
X110061905Y-89040533D01*
X91666667Y-56033200D02*
X91809524Y-56080819D01*
X91809524Y-56080819D02*
X92047619Y-56080819D01*
X92047619Y-56080819D02*
X92142857Y-56033200D01*
X92142857Y-56033200D02*
X92190476Y-55985580D01*
X92190476Y-55985580D02*
X92238095Y-55890342D01*
X92238095Y-55890342D02*
X92238095Y-55795104D01*
X92238095Y-55795104D02*
X92190476Y-55699866D01*
X92190476Y-55699866D02*
X92142857Y-55652247D01*
X92142857Y-55652247D02*
X92047619Y-55604628D01*
X92047619Y-55604628D02*
X91857143Y-55557009D01*
X91857143Y-55557009D02*
X91761905Y-55509390D01*
X91761905Y-55509390D02*
X91714286Y-55461771D01*
X91714286Y-55461771D02*
X91666667Y-55366533D01*
X91666667Y-55366533D02*
X91666667Y-55271295D01*
X91666667Y-55271295D02*
X91714286Y-55176057D01*
X91714286Y-55176057D02*
X91761905Y-55128438D01*
X91761905Y-55128438D02*
X91857143Y-55080819D01*
X91857143Y-55080819D02*
X92095238Y-55080819D01*
X92095238Y-55080819D02*
X92238095Y-55128438D01*
X92571429Y-55080819D02*
X92809524Y-56080819D01*
X92809524Y-56080819D02*
X93000000Y-55366533D01*
X93000000Y-55366533D02*
X93190476Y-56080819D01*
X93190476Y-56080819D02*
X93428572Y-55080819D01*
X93952381Y-55509390D02*
X93857143Y-55461771D01*
X93857143Y-55461771D02*
X93809524Y-55414152D01*
X93809524Y-55414152D02*
X93761905Y-55318914D01*
X93761905Y-55318914D02*
X93761905Y-55271295D01*
X93761905Y-55271295D02*
X93809524Y-55176057D01*
X93809524Y-55176057D02*
X93857143Y-55128438D01*
X93857143Y-55128438D02*
X93952381Y-55080819D01*
X93952381Y-55080819D02*
X94142857Y-55080819D01*
X94142857Y-55080819D02*
X94238095Y-55128438D01*
X94238095Y-55128438D02*
X94285714Y-55176057D01*
X94285714Y-55176057D02*
X94333333Y-55271295D01*
X94333333Y-55271295D02*
X94333333Y-55318914D01*
X94333333Y-55318914D02*
X94285714Y-55414152D01*
X94285714Y-55414152D02*
X94238095Y-55461771D01*
X94238095Y-55461771D02*
X94142857Y-55509390D01*
X94142857Y-55509390D02*
X93952381Y-55509390D01*
X93952381Y-55509390D02*
X93857143Y-55557009D01*
X93857143Y-55557009D02*
X93809524Y-55604628D01*
X93809524Y-55604628D02*
X93761905Y-55699866D01*
X93761905Y-55699866D02*
X93761905Y-55890342D01*
X93761905Y-55890342D02*
X93809524Y-55985580D01*
X93809524Y-55985580D02*
X93857143Y-56033200D01*
X93857143Y-56033200D02*
X93952381Y-56080819D01*
X93952381Y-56080819D02*
X94142857Y-56080819D01*
X94142857Y-56080819D02*
X94238095Y-56033200D01*
X94238095Y-56033200D02*
X94285714Y-55985580D01*
X94285714Y-55985580D02*
X94333333Y-55890342D01*
X94333333Y-55890342D02*
X94333333Y-55699866D01*
X94333333Y-55699866D02*
X94285714Y-55604628D01*
X94285714Y-55604628D02*
X94238095Y-55557009D01*
X94238095Y-55557009D02*
X94142857Y-55509390D01*
X92083333Y-74189580D02*
X92035714Y-74237200D01*
X92035714Y-74237200D02*
X91892857Y-74284819D01*
X91892857Y-74284819D02*
X91797619Y-74284819D01*
X91797619Y-74284819D02*
X91654762Y-74237200D01*
X91654762Y-74237200D02*
X91559524Y-74141961D01*
X91559524Y-74141961D02*
X91511905Y-74046723D01*
X91511905Y-74046723D02*
X91464286Y-73856247D01*
X91464286Y-73856247D02*
X91464286Y-73713390D01*
X91464286Y-73713390D02*
X91511905Y-73522914D01*
X91511905Y-73522914D02*
X91559524Y-73427676D01*
X91559524Y-73427676D02*
X91654762Y-73332438D01*
X91654762Y-73332438D02*
X91797619Y-73284819D01*
X91797619Y-73284819D02*
X91892857Y-73284819D01*
X91892857Y-73284819D02*
X92035714Y-73332438D01*
X92035714Y-73332438D02*
X92083333Y-73380057D01*
X92416667Y-73284819D02*
X93035714Y-73284819D01*
X93035714Y-73284819D02*
X92702381Y-73665771D01*
X92702381Y-73665771D02*
X92845238Y-73665771D01*
X92845238Y-73665771D02*
X92940476Y-73713390D01*
X92940476Y-73713390D02*
X92988095Y-73761009D01*
X92988095Y-73761009D02*
X93035714Y-73856247D01*
X93035714Y-73856247D02*
X93035714Y-74094342D01*
X93035714Y-74094342D02*
X92988095Y-74189580D01*
X92988095Y-74189580D02*
X92940476Y-74237200D01*
X92940476Y-74237200D02*
X92845238Y-74284819D01*
X92845238Y-74284819D02*
X92559524Y-74284819D01*
X92559524Y-74284819D02*
X92464286Y-74237200D01*
X92464286Y-74237200D02*
X92416667Y-74189580D01*
X111666667Y-36033200D02*
X111809524Y-36080819D01*
X111809524Y-36080819D02*
X112047619Y-36080819D01*
X112047619Y-36080819D02*
X112142857Y-36033200D01*
X112142857Y-36033200D02*
X112190476Y-35985580D01*
X112190476Y-35985580D02*
X112238095Y-35890342D01*
X112238095Y-35890342D02*
X112238095Y-35795104D01*
X112238095Y-35795104D02*
X112190476Y-35699866D01*
X112190476Y-35699866D02*
X112142857Y-35652247D01*
X112142857Y-35652247D02*
X112047619Y-35604628D01*
X112047619Y-35604628D02*
X111857143Y-35557009D01*
X111857143Y-35557009D02*
X111761905Y-35509390D01*
X111761905Y-35509390D02*
X111714286Y-35461771D01*
X111714286Y-35461771D02*
X111666667Y-35366533D01*
X111666667Y-35366533D02*
X111666667Y-35271295D01*
X111666667Y-35271295D02*
X111714286Y-35176057D01*
X111714286Y-35176057D02*
X111761905Y-35128438D01*
X111761905Y-35128438D02*
X111857143Y-35080819D01*
X111857143Y-35080819D02*
X112095238Y-35080819D01*
X112095238Y-35080819D02*
X112238095Y-35128438D01*
X112571429Y-35080819D02*
X112809524Y-36080819D01*
X112809524Y-36080819D02*
X113000000Y-35366533D01*
X113000000Y-35366533D02*
X113190476Y-36080819D01*
X113190476Y-36080819D02*
X113428572Y-35080819D01*
X114285714Y-35080819D02*
X113809524Y-35080819D01*
X113809524Y-35080819D02*
X113761905Y-35557009D01*
X113761905Y-35557009D02*
X113809524Y-35509390D01*
X113809524Y-35509390D02*
X113904762Y-35461771D01*
X113904762Y-35461771D02*
X114142857Y-35461771D01*
X114142857Y-35461771D02*
X114238095Y-35509390D01*
X114238095Y-35509390D02*
X114285714Y-35557009D01*
X114285714Y-35557009D02*
X114333333Y-35652247D01*
X114333333Y-35652247D02*
X114333333Y-35890342D01*
X114333333Y-35890342D02*
X114285714Y-35985580D01*
X114285714Y-35985580D02*
X114238095Y-36033200D01*
X114238095Y-36033200D02*
X114142857Y-36080819D01*
X114142857Y-36080819D02*
X113904762Y-36080819D01*
X113904762Y-36080819D02*
X113809524Y-36033200D01*
X113809524Y-36033200D02*
X113761905Y-35985580D01*
D14*
%TO.C,D5*%
X42030000Y-63970000D02*
X42030000Y-69410000D01*
X42030000Y-69410000D02*
X42360000Y-69410000D01*
X42360000Y-63970000D02*
X42030000Y-63970000D01*
X44640000Y-63970000D02*
X44970000Y-63970000D01*
X44970000Y-63970000D02*
X44970000Y-69410000D01*
X44970000Y-64750000D02*
X42030000Y-64750000D01*
X44970000Y-64870000D02*
X42030000Y-64870000D01*
X44970000Y-64990000D02*
X42030000Y-64990000D01*
X44970000Y-69410000D02*
X44640000Y-69410000D01*
%TO.C,R1*%
X82380000Y-92000000D02*
X83150000Y-92000000D01*
X90460000Y-92000000D02*
X89690000Y-92000000D01*
X83150000Y-90630000D02*
X89690000Y-90630000D01*
X89690000Y-93370000D01*
X83150000Y-93370000D01*
X83150000Y-90630000D01*
%TO.C,SW9*%
X106015000Y-56515000D02*
X119985000Y-56515000D01*
X106015000Y-70485000D02*
X106015000Y-56515000D01*
X119985000Y-56515000D02*
X119985000Y-70485000D01*
X119985000Y-70485000D02*
X106015000Y-70485000D01*
%TO.C,U1*%
X43850000Y-91915000D02*
X43850000Y-76740000D01*
X45400000Y-76740000D02*
X45970000Y-76740000D01*
X45400000Y-91915000D02*
X45970000Y-91915000D01*
X47490000Y-76740000D02*
X48510000Y-76740000D01*
X47490000Y-91915000D02*
X48510000Y-91915000D01*
X50030000Y-76740000D02*
X51050000Y-76740000D01*
X50030000Y-91915000D02*
X51050000Y-91915000D01*
X52570000Y-76740000D02*
X53590000Y-76740000D01*
X52570000Y-91915000D02*
X53590000Y-91915000D01*
X55110000Y-76740000D02*
X56130000Y-76740000D01*
X55110000Y-91915000D02*
X56130000Y-91915000D01*
X57650000Y-76740000D02*
X58670000Y-76740000D01*
X57650000Y-91915000D02*
X58670000Y-91915000D01*
X60190000Y-76740000D02*
X61210000Y-76740000D01*
X60190000Y-91915000D02*
X61210000Y-91915000D01*
X61210000Y-76740000D02*
X61780000Y-76740000D01*
X61210000Y-91915000D02*
X61780000Y-91915000D01*
X61750000Y-91915000D02*
X61750000Y-76740000D01*
%TO.C,D3*%
X82030000Y-42970000D02*
X82030000Y-48410000D01*
X82030000Y-48410000D02*
X82360000Y-48410000D01*
X82360000Y-42970000D02*
X82030000Y-42970000D01*
X84640000Y-42970000D02*
X84970000Y-42970000D01*
X84970000Y-42970000D02*
X84970000Y-48410000D01*
X84970000Y-43750000D02*
X82030000Y-43750000D01*
X84970000Y-43870000D02*
X82030000Y-43870000D01*
X84970000Y-43990000D02*
X82030000Y-43990000D01*
X84970000Y-48410000D02*
X84640000Y-48410000D01*
%TO.C,C2*%
X101290000Y-76500000D02*
X101330000Y-76500000D01*
X106710000Y-76500000D02*
X106670000Y-76500000D01*
X101330000Y-74830000D02*
X106670000Y-74830000D01*
X106670000Y-78170000D01*
X101330000Y-78170000D01*
X101330000Y-74830000D01*
%TO.C,D9*%
X62440000Y-93764000D02*
X62440000Y-93920000D01*
X62440000Y-96080000D02*
X62440000Y-96236000D01*
X62440000Y-93764484D02*
G75*
G02*
X65671437Y-93920000I1560000J-1235516D01*
G01*
X62959039Y-93920000D02*
G75*
G02*
X65040961Y-93920000I1040961J-1080000D01*
G01*
X65040961Y-96080000D02*
G75*
G02*
X62959039Y-96080000I-1040961J1080000D01*
G01*
X65671437Y-96080000D02*
G75*
G02*
X62440000Y-96235516I-1671437J1080000D01*
G01*
%TO.C,SW4*%
X86015000Y-36515000D02*
X99985000Y-36515000D01*
X86015000Y-50485000D02*
X86015000Y-36515000D01*
X99985000Y-36515000D02*
X99985000Y-50485000D01*
X99985000Y-50485000D02*
X86015000Y-50485000D01*
D15*
%TO.C,G\u002A\u002A\u002A*%
G36*
X49428134Y-101462842D02*
G01*
X49440519Y-101468695D01*
X49451815Y-101479752D01*
X49453582Y-101481784D01*
X49472795Y-101504076D01*
X49472795Y-101907754D01*
X49472780Y-101998189D01*
X49472701Y-102074089D01*
X49472504Y-102136810D01*
X49472137Y-102187706D01*
X49471548Y-102228132D01*
X49470684Y-102259443D01*
X49469493Y-102282995D01*
X49467922Y-102300142D01*
X49465918Y-102312240D01*
X49463430Y-102320643D01*
X49460404Y-102326707D01*
X49456787Y-102331786D01*
X49456334Y-102332366D01*
X49439872Y-102353299D01*
X49230550Y-102353299D01*
X49021228Y-102353299D01*
X49004766Y-102332366D01*
X49000195Y-102325971D01*
X48996559Y-102318513D01*
X48993750Y-102308221D01*
X48991663Y-102293329D01*
X48990190Y-102272067D01*
X48989224Y-102242666D01*
X48988660Y-102203358D01*
X48988391Y-102152375D01*
X48988309Y-102087948D01*
X48988305Y-102059349D01*
X48988558Y-101995387D01*
X48989275Y-101934630D01*
X48990391Y-101879420D01*
X48991843Y-101832096D01*
X48993568Y-101794998D01*
X48995500Y-101770467D01*
X48996358Y-101764471D01*
X49016432Y-101699300D01*
X49050134Y-101638982D01*
X49095565Y-101585019D01*
X49150826Y-101538909D01*
X49214017Y-101502152D01*
X49283241Y-101476247D01*
X49356597Y-101462694D01*
X49380414Y-101461217D01*
X49409739Y-101460811D01*
X49428134Y-101462842D01*
G37*
G36*
X53162431Y-100537517D02*
G01*
X53181926Y-100557019D01*
X53181926Y-100771893D01*
X53181926Y-100986768D01*
X53689172Y-100986768D01*
X53791403Y-100986778D01*
X53878945Y-100986831D01*
X53952993Y-100986965D01*
X54014743Y-100987217D01*
X54065390Y-100987624D01*
X54106130Y-100988225D01*
X54138159Y-100989055D01*
X54162672Y-100990153D01*
X54180865Y-100991555D01*
X54193933Y-100993299D01*
X54203072Y-100995422D01*
X54209478Y-100997961D01*
X54214346Y-101000954D01*
X54217346Y-101003235D01*
X54238274Y-101019701D01*
X54238274Y-101201282D01*
X54238274Y-101382862D01*
X54217346Y-101399329D01*
X54213590Y-101402128D01*
X54209229Y-101404591D01*
X54203277Y-101406739D01*
X54194751Y-101408593D01*
X54182666Y-101410175D01*
X54166039Y-101411506D01*
X54143885Y-101412609D01*
X54115220Y-101413504D01*
X54079059Y-101414214D01*
X54034419Y-101414760D01*
X53980315Y-101415163D01*
X53915763Y-101415445D01*
X53839779Y-101415627D01*
X53751379Y-101415732D01*
X53649578Y-101415781D01*
X53533392Y-101415795D01*
X53466422Y-101415795D01*
X52736426Y-101415795D01*
X52716931Y-101396294D01*
X52697436Y-101376793D01*
X52697436Y-100966906D01*
X52697436Y-100557019D01*
X52716931Y-100537517D01*
X52736426Y-100518016D01*
X52939681Y-100518016D01*
X53142936Y-100518016D01*
X53162431Y-100537517D01*
G37*
G36*
X57120492Y-100988213D02*
G01*
X57265727Y-100988417D01*
X57370293Y-100988635D01*
X58274451Y-100990741D01*
X58289633Y-101009497D01*
X58294630Y-101016801D01*
X58298399Y-101026158D01*
X58301111Y-101039740D01*
X58302937Y-101059722D01*
X58304047Y-101088278D01*
X58304612Y-101127582D01*
X58304804Y-101179807D01*
X58304815Y-101202523D01*
X58304815Y-101376793D01*
X58285320Y-101396294D01*
X58265825Y-101415795D01*
X57362009Y-101415514D01*
X57219207Y-101415442D01*
X57091488Y-101415315D01*
X56978048Y-101415121D01*
X56878084Y-101414853D01*
X56790793Y-101414500D01*
X56715373Y-101414052D01*
X56651021Y-101413500D01*
X56596934Y-101412835D01*
X56552309Y-101412046D01*
X56516343Y-101411125D01*
X56488233Y-101410060D01*
X56467177Y-101408844D01*
X56452372Y-101407466D01*
X56443014Y-101405917D01*
X56438742Y-101404457D01*
X56422028Y-101391192D01*
X56413487Y-101378918D01*
X56410987Y-101364395D01*
X56409110Y-101337182D01*
X56407838Y-101300318D01*
X56407154Y-101256842D01*
X56407040Y-101209791D01*
X56407478Y-101162204D01*
X56408451Y-101117120D01*
X56409942Y-101077576D01*
X56411933Y-101046611D01*
X56414407Y-101027263D01*
X56415539Y-101023431D01*
X56429710Y-101005408D01*
X56445323Y-100995131D01*
X56454896Y-100993667D01*
X56476341Y-100992381D01*
X56510037Y-100991271D01*
X56556358Y-100990335D01*
X56615681Y-100989570D01*
X56688382Y-100988973D01*
X56774837Y-100988541D01*
X56875423Y-100988272D01*
X56990516Y-100988164D01*
X57120492Y-100988213D01*
G37*
G36*
X56780440Y-101456791D02*
G01*
X56813628Y-101457439D01*
X56834897Y-101458418D01*
X56840968Y-101459169D01*
X56859735Y-101468338D01*
X56874952Y-101480949D01*
X56879736Y-101486784D01*
X56883467Y-101494057D01*
X56886275Y-101504667D01*
X56888290Y-101520515D01*
X56889644Y-101543499D01*
X56890467Y-101575520D01*
X56890889Y-101618478D01*
X56891041Y-101674272D01*
X56891057Y-101715229D01*
X56891057Y-101932217D01*
X57581474Y-101932217D01*
X58271892Y-101932217D01*
X58288354Y-101953151D01*
X58293831Y-101960993D01*
X58297940Y-101970183D01*
X58300876Y-101982973D01*
X58302835Y-102001615D01*
X58304011Y-102028359D01*
X58304602Y-102065459D01*
X58304801Y-102115165D01*
X58304815Y-102142758D01*
X58304730Y-102198991D01*
X58304343Y-102241585D01*
X58303459Y-102272793D01*
X58301883Y-102294867D01*
X58299419Y-102310058D01*
X58295871Y-102320617D01*
X58291045Y-102328797D01*
X58288354Y-102332366D01*
X58271892Y-102353299D01*
X57355691Y-102353299D01*
X56439489Y-102353299D01*
X56423028Y-102332366D01*
X56419341Y-102327312D01*
X56416250Y-102321430D01*
X56413702Y-102313363D01*
X56411646Y-102301757D01*
X56410028Y-102285256D01*
X56408796Y-102262505D01*
X56407897Y-102232150D01*
X56407279Y-102192835D01*
X56406890Y-102143205D01*
X56406676Y-102081906D01*
X56406586Y-102007582D01*
X56406566Y-101918878D01*
X56406566Y-101907754D01*
X56406566Y-101504076D01*
X56425721Y-101481784D01*
X56444877Y-101459493D01*
X56633982Y-101457086D01*
X56688155Y-101456590D01*
X56737795Y-101456500D01*
X56780440Y-101456791D01*
G37*
G36*
X49601466Y-100986906D02*
G01*
X49714521Y-100986990D01*
X49812779Y-100987197D01*
X49897329Y-100987545D01*
X49969259Y-100988056D01*
X50029656Y-100988749D01*
X50079609Y-100989644D01*
X50120206Y-100990763D01*
X50152535Y-100992124D01*
X50177684Y-100993747D01*
X50196741Y-100995654D01*
X50210795Y-100997864D01*
X50212413Y-100998196D01*
X50280647Y-101019420D01*
X50344044Y-101052114D01*
X50400878Y-101094384D01*
X50449417Y-101144336D01*
X50487935Y-101200076D01*
X50514701Y-101259710D01*
X50527988Y-101321345D01*
X50529143Y-101345156D01*
X50527454Y-101370714D01*
X50520716Y-101387072D01*
X50508216Y-101399329D01*
X50504460Y-101402128D01*
X50500098Y-101404591D01*
X50494146Y-101406739D01*
X50485620Y-101408593D01*
X50473535Y-101410175D01*
X50456908Y-101411506D01*
X50434754Y-101412609D01*
X50406089Y-101413504D01*
X50369929Y-101414214D01*
X50325288Y-101414760D01*
X50271185Y-101415163D01*
X50206633Y-101415445D01*
X50130649Y-101415627D01*
X50042248Y-101415732D01*
X49940447Y-101415781D01*
X49824261Y-101415795D01*
X49757292Y-101415795D01*
X49027295Y-101415795D01*
X49007800Y-101396294D01*
X49001382Y-101389541D01*
X48996554Y-101382392D01*
X48993090Y-101372640D01*
X48990764Y-101358079D01*
X48989348Y-101336502D01*
X48988618Y-101305702D01*
X48988345Y-101263472D01*
X48988305Y-101207605D01*
X48988305Y-101206265D01*
X48988527Y-101155160D01*
X48989149Y-101108959D01*
X48990102Y-101070195D01*
X48991319Y-101041401D01*
X48992730Y-101025109D01*
X48993239Y-101022876D01*
X48996050Y-101016116D01*
X48999661Y-101010258D01*
X49005154Y-101005236D01*
X49013617Y-101000987D01*
X49026133Y-100997447D01*
X49043787Y-100994552D01*
X49067665Y-100992237D01*
X49098852Y-100990438D01*
X49138432Y-100989091D01*
X49187491Y-100988132D01*
X49247114Y-100987497D01*
X49318385Y-100987121D01*
X49402391Y-100986940D01*
X49500215Y-100986891D01*
X49601466Y-100986906D01*
G37*
G36*
X60463180Y-100518134D02*
G01*
X60539544Y-100518438D01*
X60602205Y-100519457D01*
X60653337Y-100521483D01*
X60695115Y-100524807D01*
X60729715Y-100529722D01*
X60759313Y-100536518D01*
X60786082Y-100545489D01*
X60812200Y-100556927D01*
X60833751Y-100567871D01*
X60877001Y-100595974D01*
X60921191Y-100633606D01*
X60961983Y-100676401D01*
X60995042Y-100719995D01*
X61009224Y-100744447D01*
X61033052Y-100792117D01*
X61035192Y-101558007D01*
X61035535Y-101685920D01*
X61035794Y-101798887D01*
X61035956Y-101897852D01*
X61036009Y-101983757D01*
X61035937Y-102057547D01*
X61035729Y-102120165D01*
X61035370Y-102172556D01*
X61034847Y-102215661D01*
X61034147Y-102250426D01*
X61033255Y-102277793D01*
X61032159Y-102298707D01*
X61030845Y-102314110D01*
X61029300Y-102324947D01*
X61027509Y-102332161D01*
X61025460Y-102336696D01*
X61024033Y-102338599D01*
X61018986Y-102343063D01*
X61011639Y-102346524D01*
X61000089Y-102349108D01*
X60982434Y-102350941D01*
X60956771Y-102352150D01*
X60921200Y-102352862D01*
X60873817Y-102353203D01*
X60812721Y-102353298D01*
X60802874Y-102353299D01*
X60740104Y-102353270D01*
X60691276Y-102353076D01*
X60654448Y-102352559D01*
X60627677Y-102351560D01*
X60609021Y-102349921D01*
X60596536Y-102347482D01*
X60588280Y-102344086D01*
X60582311Y-102339573D01*
X60577744Y-102334911D01*
X60560475Y-102316523D01*
X60560475Y-101632246D01*
X60560475Y-100947970D01*
X60401828Y-100945520D01*
X60341567Y-100944857D01*
X60295175Y-100943729D01*
X60260821Y-100940290D01*
X60236670Y-100932692D01*
X60220892Y-100919088D01*
X60211653Y-100897631D01*
X60207121Y-100866474D01*
X60205463Y-100823769D01*
X60204847Y-100767670D01*
X60204573Y-100746687D01*
X60203791Y-100686815D01*
X60203671Y-100640669D01*
X60204441Y-100606092D01*
X60206330Y-100580925D01*
X60209565Y-100563012D01*
X60214375Y-100550193D01*
X60220988Y-100540312D01*
X60227093Y-100533704D01*
X60232475Y-100529075D01*
X60239513Y-100525458D01*
X60250076Y-100522731D01*
X60266030Y-100520771D01*
X60289244Y-100519453D01*
X60321584Y-100518656D01*
X60364918Y-100518256D01*
X60421113Y-100518129D01*
X60463180Y-100518134D01*
G37*
G36*
X53076095Y-101456921D02*
G01*
X53106300Y-101458670D01*
X53128320Y-101461623D01*
X53144079Y-101465966D01*
X53155499Y-101471888D01*
X53164505Y-101479575D01*
X53166072Y-101481219D01*
X53170784Y-101487028D01*
X53174459Y-101494393D01*
X53177224Y-101505212D01*
X53179209Y-101521381D01*
X53180542Y-101544798D01*
X53181351Y-101577359D01*
X53181765Y-101620961D01*
X53181912Y-101677502D01*
X53181926Y-101715229D01*
X53181926Y-101932217D01*
X53694215Y-101932217D01*
X53797013Y-101932228D01*
X53885105Y-101932286D01*
X53959666Y-101932424D01*
X54021876Y-101932680D01*
X54072912Y-101933088D01*
X54113952Y-101933684D01*
X54146173Y-101934503D01*
X54170753Y-101935581D01*
X54188871Y-101936953D01*
X54201702Y-101938654D01*
X54210426Y-101940720D01*
X54216220Y-101943187D01*
X54220262Y-101946089D01*
X54222389Y-101948107D01*
X54227536Y-101954117D01*
X54231436Y-101961891D01*
X54234260Y-101973542D01*
X54236180Y-101991180D01*
X54237369Y-102016916D01*
X54237998Y-102052861D01*
X54238241Y-102101127D01*
X54238274Y-102142758D01*
X54238197Y-102200765D01*
X54237853Y-102244994D01*
X54237069Y-102277555D01*
X54235672Y-102300560D01*
X54233491Y-102316120D01*
X54230352Y-102326346D01*
X54226085Y-102333349D01*
X54222389Y-102337409D01*
X54219425Y-102340098D01*
X54215597Y-102342464D01*
X54209933Y-102344530D01*
X54201459Y-102346314D01*
X54189205Y-102347839D01*
X54172198Y-102349124D01*
X54149466Y-102350190D01*
X54120038Y-102351057D01*
X54082941Y-102351746D01*
X54037203Y-102352277D01*
X53981852Y-102352671D01*
X53915916Y-102352948D01*
X53838424Y-102353129D01*
X53748403Y-102353234D01*
X53644881Y-102353284D01*
X53526887Y-102353299D01*
X53468431Y-102353299D01*
X52730358Y-102353299D01*
X52713897Y-102332366D01*
X52710210Y-102327312D01*
X52707119Y-102321430D01*
X52704571Y-102313363D01*
X52702515Y-102301757D01*
X52700897Y-102285256D01*
X52699665Y-102262505D01*
X52698766Y-102232150D01*
X52698149Y-102192835D01*
X52697759Y-102143205D01*
X52697546Y-102081906D01*
X52697455Y-102007582D01*
X52697436Y-101918878D01*
X52697436Y-101907754D01*
X52697436Y-101504076D01*
X52716590Y-101481784D01*
X52735745Y-101459493D01*
X52917137Y-101457033D01*
X52983437Y-101456290D01*
X53035782Y-101456190D01*
X53076095Y-101456921D01*
G37*
G36*
X59686129Y-100986944D02*
G01*
X59807506Y-100987118D01*
X59914108Y-100987432D01*
X60006490Y-100987896D01*
X60085207Y-100988513D01*
X60150814Y-100989292D01*
X60203866Y-100990239D01*
X60244917Y-100991360D01*
X60274523Y-100992661D01*
X60293238Y-100994150D01*
X60301434Y-100995744D01*
X60319277Y-101009825D01*
X60329994Y-101026132D01*
X60331968Y-101036704D01*
X60333609Y-101058465D01*
X60334923Y-101092018D01*
X60335919Y-101137964D01*
X60336603Y-101196903D01*
X60336983Y-101269438D01*
X60337066Y-101356169D01*
X60336860Y-101457698D01*
X60336485Y-101551454D01*
X60334110Y-102055364D01*
X60315700Y-102100971D01*
X60280364Y-102167789D01*
X60232175Y-102227018D01*
X60172985Y-102277081D01*
X60104643Y-102316400D01*
X60032342Y-102342520D01*
X60022580Y-102344365D01*
X60007393Y-102345996D01*
X59985907Y-102347426D01*
X59957252Y-102348666D01*
X59920555Y-102349728D01*
X59874945Y-102350623D01*
X59819549Y-102351364D01*
X59753496Y-102351961D01*
X59675914Y-102352426D01*
X59585931Y-102352772D01*
X59482674Y-102353009D01*
X59365273Y-102353149D01*
X59233482Y-102353205D01*
X58474376Y-102353299D01*
X58457106Y-102334911D01*
X58452401Y-102329511D01*
X58448638Y-102323269D01*
X58445714Y-102314474D01*
X58443521Y-102301413D01*
X58441955Y-102282375D01*
X58440911Y-102255648D01*
X58440282Y-102219519D01*
X58439964Y-102172278D01*
X58439851Y-102112211D01*
X58439837Y-102054535D01*
X58440094Y-101967820D01*
X58441145Y-101895183D01*
X58443413Y-101834818D01*
X58447320Y-101784918D01*
X58453289Y-101743676D01*
X58461742Y-101709285D01*
X58473101Y-101679938D01*
X58487789Y-101653828D01*
X58506229Y-101629149D01*
X58528841Y-101604092D01*
X58550141Y-101582639D01*
X58614129Y-101530293D01*
X58684796Y-101492201D01*
X58761259Y-101468737D01*
X58839123Y-101460325D01*
X58866649Y-101460687D01*
X58883968Y-101464221D01*
X58896699Y-101472752D01*
X58905127Y-101481784D01*
X58924327Y-101504076D01*
X58924327Y-101718147D01*
X58924327Y-101932217D01*
X59388961Y-101932217D01*
X59853596Y-101932217D01*
X59853596Y-101674006D01*
X59853596Y-101415795D01*
X59166211Y-101415795D01*
X58478827Y-101415795D01*
X58459332Y-101396294D01*
X58446727Y-101379405D01*
X58440845Y-101358554D01*
X58441340Y-101330208D01*
X58447867Y-101290833D01*
X58448643Y-101287081D01*
X58469810Y-101223374D01*
X58504752Y-101163837D01*
X58551538Y-101110248D01*
X58608240Y-101064385D01*
X58672927Y-101028027D01*
X58743671Y-101002950D01*
X58761507Y-100998772D01*
X58773274Y-100996724D01*
X58788609Y-100994920D01*
X58808490Y-100993344D01*
X58833896Y-100991983D01*
X58865806Y-100990821D01*
X58905199Y-100989843D01*
X58953054Y-100989035D01*
X59010348Y-100988383D01*
X59078061Y-100987871D01*
X59157171Y-100987484D01*
X59248658Y-100987209D01*
X59353500Y-100987029D01*
X59472675Y-100986932D01*
X59549423Y-100986906D01*
X59686129Y-100986944D01*
G37*
G36*
X56251821Y-101006041D02*
G01*
X56271544Y-101025771D01*
X56271450Y-101528650D01*
X56271411Y-101634538D01*
X56271282Y-101725808D01*
X56270983Y-101803735D01*
X56270431Y-101869591D01*
X56269545Y-101924648D01*
X56268243Y-101970180D01*
X56266446Y-102007460D01*
X56264070Y-102037760D01*
X56261035Y-102062353D01*
X56257260Y-102082513D01*
X56252662Y-102099512D01*
X56247161Y-102114623D01*
X56240676Y-102129119D01*
X56233124Y-102144273D01*
X56231948Y-102146576D01*
X56209949Y-102180032D01*
X56177905Y-102216703D01*
X56139943Y-102252629D01*
X56100191Y-102283848D01*
X56068365Y-102303574D01*
X56053131Y-102311647D01*
X56039293Y-102318796D01*
X56025840Y-102325078D01*
X56011760Y-102330548D01*
X55996042Y-102335263D01*
X55977673Y-102339278D01*
X55955644Y-102342650D01*
X55928941Y-102345435D01*
X55896554Y-102347688D01*
X55857471Y-102349466D01*
X55810681Y-102350824D01*
X55755173Y-102351819D01*
X55689933Y-102352507D01*
X55613953Y-102352944D01*
X55526219Y-102353186D01*
X55425720Y-102353288D01*
X55311445Y-102353307D01*
X55182383Y-102353299D01*
X55170724Y-102353299D01*
X55043879Y-102353286D01*
X54931962Y-102353234D01*
X54834017Y-102353127D01*
X54749088Y-102352946D01*
X54676217Y-102352676D01*
X54614449Y-102352299D01*
X54562827Y-102351797D01*
X54520394Y-102351153D01*
X54486194Y-102350351D01*
X54459270Y-102349373D01*
X54438666Y-102348201D01*
X54423425Y-102346819D01*
X54412592Y-102345210D01*
X54405208Y-102343355D01*
X54400319Y-102341239D01*
X54397622Y-102339396D01*
X54393192Y-102335523D01*
X54389612Y-102330767D01*
X54386808Y-102323550D01*
X54384704Y-102312291D01*
X54383223Y-102295412D01*
X54382290Y-102271333D01*
X54381829Y-102238475D01*
X54381765Y-102195260D01*
X54382021Y-102140106D01*
X54382522Y-102071436D01*
X54382843Y-102031338D01*
X54385209Y-101737183D01*
X54411835Y-101683106D01*
X54452277Y-101618517D01*
X54504684Y-101563528D01*
X54567727Y-101519042D01*
X54640076Y-101485964D01*
X54720401Y-101465195D01*
X54736121Y-101462761D01*
X54783020Y-101459062D01*
X54817289Y-101463108D01*
X54840338Y-101475209D01*
X54850147Y-101487867D01*
X54852274Y-101499649D01*
X54854148Y-101525315D01*
X54855703Y-101562861D01*
X54856870Y-101610283D01*
X54857585Y-101665576D01*
X54857786Y-101717181D01*
X54857786Y-101932217D01*
X55322420Y-101932217D01*
X55787054Y-101932217D01*
X55787054Y-101674006D01*
X55787054Y-101415795D01*
X55105073Y-101415795D01*
X54423092Y-101415795D01*
X54401358Y-101398694D01*
X54390047Y-101388733D01*
X54383831Y-101378226D01*
X54381551Y-101362613D01*
X54382047Y-101337333D01*
X54382670Y-101325203D01*
X54393926Y-101260078D01*
X54419654Y-101198102D01*
X54458516Y-101140870D01*
X54509176Y-101089976D01*
X54570298Y-101047014D01*
X54640543Y-101013579D01*
X54645595Y-101011699D01*
X54702908Y-100990741D01*
X55467503Y-100988526D01*
X56232097Y-100986311D01*
X56251821Y-101006041D01*
G37*
G36*
X52542919Y-101006269D02*
G01*
X52562414Y-101025771D01*
X52562414Y-101524994D01*
X52562389Y-101631269D01*
X52562261Y-101722930D01*
X52561944Y-101801256D01*
X52561356Y-101867522D01*
X52560414Y-101923005D01*
X52559033Y-101968983D01*
X52557130Y-102006732D01*
X52554621Y-102037529D01*
X52551424Y-102062651D01*
X52547455Y-102083375D01*
X52542629Y-102100978D01*
X52536865Y-102116735D01*
X52530077Y-102131925D01*
X52522183Y-102147825D01*
X52521606Y-102148959D01*
X52500896Y-102180282D01*
X52470157Y-102215260D01*
X52433387Y-102250090D01*
X52394586Y-102280974D01*
X52359110Y-102303396D01*
X52343971Y-102311496D01*
X52330216Y-102318669D01*
X52316834Y-102324972D01*
X52302814Y-102330461D01*
X52287147Y-102335193D01*
X52268821Y-102339222D01*
X52246825Y-102342606D01*
X52220150Y-102345401D01*
X52187785Y-102347663D01*
X52148719Y-102349448D01*
X52101941Y-102350812D01*
X52046441Y-102351811D01*
X51981209Y-102352502D01*
X51905234Y-102352941D01*
X51817505Y-102353184D01*
X51717011Y-102353288D01*
X51602743Y-102353307D01*
X51473689Y-102353299D01*
X51461594Y-102353299D01*
X51335039Y-102353291D01*
X51223407Y-102353253D01*
X51125734Y-102353166D01*
X51041056Y-102353013D01*
X50968412Y-102352773D01*
X50906837Y-102352428D01*
X50855370Y-102351960D01*
X50813046Y-102351348D01*
X50778903Y-102350575D01*
X50751979Y-102349622D01*
X50731309Y-102348469D01*
X50715931Y-102347098D01*
X50704883Y-102345491D01*
X50697200Y-102343627D01*
X50691921Y-102341488D01*
X50688081Y-102339056D01*
X50686886Y-102338121D01*
X50668136Y-102322943D01*
X50665798Y-102090005D01*
X50665450Y-102027082D01*
X50665639Y-101966117D01*
X50666317Y-101909838D01*
X50667435Y-101860978D01*
X50668945Y-101822267D01*
X50670800Y-101796435D01*
X50671005Y-101794638D01*
X50687391Y-101722121D01*
X50717540Y-101656105D01*
X50760275Y-101597686D01*
X50814422Y-101547958D01*
X50878805Y-101508019D01*
X50952250Y-101478963D01*
X51026991Y-101462761D01*
X51073889Y-101459062D01*
X51108158Y-101463108D01*
X51131207Y-101475209D01*
X51141016Y-101487867D01*
X51143143Y-101499649D01*
X51145018Y-101525315D01*
X51146572Y-101562861D01*
X51147740Y-101610283D01*
X51148454Y-101665576D01*
X51148655Y-101717181D01*
X51148655Y-101932217D01*
X51613289Y-101932217D01*
X52077923Y-101932217D01*
X52077923Y-101674006D01*
X52077923Y-101415795D01*
X51395314Y-101415795D01*
X50712705Y-101415795D01*
X50691071Y-101397181D01*
X50677634Y-101383081D01*
X50671603Y-101367210D01*
X50670646Y-101342961D01*
X50670748Y-101339580D01*
X50673629Y-101299397D01*
X50680470Y-101265999D01*
X50693215Y-101231970D01*
X50705960Y-101205254D01*
X50736392Y-101157699D01*
X50777930Y-101111101D01*
X50826149Y-101069754D01*
X50876622Y-101037950D01*
X50880372Y-101036070D01*
X50896598Y-101028106D01*
X50911618Y-101021054D01*
X50926454Y-101014860D01*
X50942130Y-101009467D01*
X50959667Y-101004819D01*
X50980088Y-101000861D01*
X51004415Y-100997538D01*
X51033670Y-100994793D01*
X51068877Y-100992570D01*
X51111056Y-100990815D01*
X51161231Y-100989471D01*
X51220425Y-100988483D01*
X51289658Y-100987794D01*
X51369955Y-100987349D01*
X51462336Y-100987093D01*
X51567825Y-100986970D01*
X51687444Y-100986923D01*
X51782428Y-100986906D01*
X52523423Y-100986768D01*
X52542919Y-101006269D01*
G37*
G36*
X48833788Y-101006269D02*
G01*
X48853283Y-101025771D01*
X48853283Y-101524994D01*
X48853264Y-101632088D01*
X48853141Y-101724558D01*
X48852815Y-101803673D01*
X48852185Y-101870698D01*
X48851154Y-101926901D01*
X48849620Y-101973550D01*
X48847485Y-102011910D01*
X48844649Y-102043249D01*
X48841013Y-102068833D01*
X48836477Y-102089931D01*
X48830942Y-102107808D01*
X48824308Y-102123732D01*
X48816476Y-102138969D01*
X48807346Y-102154787D01*
X48803306Y-102161565D01*
X48770183Y-102206171D01*
X48726247Y-102249600D01*
X48676250Y-102287493D01*
X48647262Y-102304731D01*
X48629943Y-102313904D01*
X48613996Y-102321842D01*
X48598187Y-102328636D01*
X48581277Y-102334373D01*
X48562032Y-102339144D01*
X48539214Y-102343037D01*
X48511587Y-102346142D01*
X48477916Y-102348547D01*
X48436962Y-102350343D01*
X48387491Y-102351617D01*
X48328266Y-102352460D01*
X48258050Y-102352961D01*
X48175607Y-102353208D01*
X48079700Y-102353291D01*
X47973972Y-102353299D01*
X47439524Y-102353299D01*
X47439524Y-102567163D01*
X47439347Y-102624420D01*
X47438846Y-102676849D01*
X47438070Y-102722232D01*
X47437067Y-102758352D01*
X47435886Y-102782990D01*
X47434591Y-102793888D01*
X47428808Y-102804690D01*
X47419522Y-102813130D01*
X47404930Y-102819480D01*
X47383226Y-102824014D01*
X47352609Y-102827006D01*
X47311273Y-102828729D01*
X47257416Y-102829456D01*
X47199659Y-102829493D01*
X47146184Y-102829076D01*
X47097360Y-102828181D01*
X47055655Y-102826896D01*
X47023535Y-102825307D01*
X47003467Y-102823499D01*
X46998442Y-102822436D01*
X46989302Y-102818486D01*
X46981861Y-102813750D01*
X46975959Y-102806688D01*
X46971434Y-102795758D01*
X46968125Y-102779420D01*
X46965873Y-102756133D01*
X46964515Y-102724354D01*
X46963891Y-102682543D01*
X46963840Y-102629159D01*
X46964202Y-102562661D01*
X46964680Y-102498939D01*
X46966948Y-102205941D01*
X46992322Y-102154403D01*
X47029255Y-102095924D01*
X47078849Y-102042448D01*
X47138051Y-101996643D01*
X47203808Y-101961180D01*
X47221417Y-101954053D01*
X47230813Y-101950586D01*
X47240087Y-101947594D01*
X47250438Y-101945038D01*
X47263061Y-101942877D01*
X47279156Y-101941071D01*
X47299919Y-101939580D01*
X47326547Y-101938363D01*
X47360239Y-101937381D01*
X47402190Y-101936593D01*
X47453600Y-101935959D01*
X47515665Y-101935438D01*
X47589583Y-101934992D01*
X47676550Y-101934578D01*
X47777765Y-101934158D01*
X47818777Y-101933994D01*
X48368793Y-101931798D01*
X48368793Y-101673797D01*
X48368793Y-101415795D01*
X47904158Y-101415795D01*
X47439524Y-101415795D01*
X47439524Y-101485631D01*
X47435103Y-101559959D01*
X47421032Y-101623858D01*
X47396101Y-101680361D01*
X47359097Y-101732502D01*
X47327661Y-101765818D01*
X47269433Y-101812166D01*
X47201721Y-101849002D01*
X47134056Y-101872488D01*
X47090270Y-101880932D01*
X47048278Y-101884187D01*
X47012106Y-101882260D01*
X46985781Y-101875159D01*
X46980629Y-101872179D01*
X46962977Y-101859812D01*
X46962977Y-101439756D01*
X46962977Y-101019701D01*
X46983904Y-101003235D01*
X46987276Y-101000704D01*
X46991185Y-100998447D01*
X46996512Y-100996448D01*
X47004134Y-100994692D01*
X47014932Y-100993161D01*
X47029784Y-100991842D01*
X47049569Y-100990718D01*
X47075168Y-100989773D01*
X47107459Y-100988993D01*
X47147321Y-100988361D01*
X47195634Y-100987862D01*
X47253276Y-100987479D01*
X47321127Y-100987199D01*
X47400067Y-100987003D01*
X47490974Y-100986879D01*
X47594728Y-100986808D01*
X47712207Y-100986777D01*
X47844292Y-100986769D01*
X47909562Y-100986768D01*
X48814293Y-100986768D01*
X48833788Y-101006269D01*
G37*
G36*
X48146587Y-97595215D02*
G01*
X48238688Y-97595487D01*
X48316637Y-97595994D01*
X48380869Y-97596741D01*
X48431817Y-97597731D01*
X48469913Y-97598967D01*
X48495591Y-97600453D01*
X48508756Y-97602074D01*
X48558121Y-97619198D01*
X48602884Y-97646853D01*
X48638153Y-97681847D01*
X48644400Y-97690587D01*
X48666635Y-97724188D01*
X48668888Y-98143874D01*
X48671141Y-98563559D01*
X51115711Y-98563559D01*
X51350677Y-98563564D01*
X51570282Y-98563581D01*
X51775050Y-98563613D01*
X51965506Y-98563662D01*
X52142173Y-98563731D01*
X52305576Y-98563823D01*
X52456238Y-98563941D01*
X52594685Y-98564086D01*
X52721439Y-98564262D01*
X52837026Y-98564472D01*
X52941969Y-98564718D01*
X53036792Y-98565003D01*
X53122020Y-98565329D01*
X53198177Y-98565700D01*
X53265786Y-98566117D01*
X53325372Y-98566584D01*
X53377459Y-98567103D01*
X53422571Y-98567678D01*
X53461232Y-98568310D01*
X53493967Y-98569002D01*
X53521299Y-98569757D01*
X53543753Y-98570578D01*
X53561852Y-98571468D01*
X53576121Y-98572428D01*
X53587084Y-98573463D01*
X53595265Y-98574574D01*
X53601188Y-98575763D01*
X53603197Y-98576308D01*
X53658085Y-98598825D01*
X53700225Y-98630241D01*
X53730440Y-98671191D01*
X53733500Y-98677175D01*
X53754126Y-98719348D01*
X53751969Y-99231366D01*
X53751524Y-99334191D01*
X53751094Y-99422341D01*
X53750636Y-99497032D01*
X53750108Y-99559479D01*
X53749469Y-99610898D01*
X53748677Y-99652503D01*
X53747689Y-99685510D01*
X53746465Y-99711134D01*
X53744961Y-99730591D01*
X53743137Y-99745096D01*
X53740949Y-99755864D01*
X53738358Y-99764110D01*
X53735320Y-99771050D01*
X53733228Y-99775164D01*
X53707094Y-99810492D01*
X53669659Y-99841477D01*
X53625482Y-99864623D01*
X53609027Y-99870299D01*
X53604386Y-99871320D01*
X53597241Y-99872283D01*
X53587140Y-99873188D01*
X53573637Y-99874039D01*
X53556279Y-99874835D01*
X53534620Y-99875579D01*
X53508209Y-99876272D01*
X53476596Y-99876917D01*
X53439334Y-99877514D01*
X53395972Y-99878065D01*
X53346060Y-99878572D01*
X53289151Y-99879037D01*
X53224793Y-99879460D01*
X53152539Y-99879844D01*
X53071939Y-99880190D01*
X52982543Y-99880500D01*
X52883902Y-99880775D01*
X52775567Y-99881017D01*
X52657088Y-99881227D01*
X52528016Y-99881408D01*
X52387903Y-99881560D01*
X52236298Y-99881686D01*
X52072752Y-99881786D01*
X51896816Y-99881863D01*
X51708040Y-99881919D01*
X51505976Y-99881953D01*
X51290174Y-99881969D01*
X51060184Y-99881968D01*
X50815558Y-99881952D01*
X50555846Y-99881921D01*
X50343039Y-99881889D01*
X50067515Y-99881837D01*
X49807453Y-99881772D01*
X49562428Y-99881694D01*
X49332017Y-99881601D01*
X49115797Y-99881491D01*
X48913344Y-99881363D01*
X48724235Y-99881215D01*
X48548045Y-99881047D01*
X48384351Y-99880856D01*
X48232730Y-99880641D01*
X48092758Y-99880401D01*
X47964012Y-99880134D01*
X47846068Y-99879839D01*
X47738502Y-99879514D01*
X47640890Y-99879157D01*
X47552810Y-99878768D01*
X47473837Y-99878345D01*
X47403549Y-99877887D01*
X47341520Y-99877391D01*
X47287329Y-99876856D01*
X47240551Y-99876282D01*
X47200762Y-99875666D01*
X47167539Y-99875008D01*
X47140459Y-99874304D01*
X47119098Y-99873556D01*
X47103032Y-99872759D01*
X47091838Y-99871914D01*
X47085092Y-99871019D01*
X47083490Y-99870630D01*
X47054188Y-99858726D01*
X47024526Y-99842630D01*
X47018341Y-99838562D01*
X47010446Y-99833569D01*
X47003334Y-99829559D01*
X46996965Y-99825722D01*
X46991297Y-99821247D01*
X46986291Y-99815325D01*
X46981905Y-99807146D01*
X46978099Y-99795901D01*
X46974833Y-99780778D01*
X46972065Y-99760970D01*
X46969755Y-99735665D01*
X46967863Y-99704054D01*
X46966348Y-99665327D01*
X46965168Y-99618674D01*
X46964284Y-99563286D01*
X46963656Y-99498351D01*
X46963241Y-99423062D01*
X46963000Y-99336607D01*
X46962893Y-99238177D01*
X46962877Y-99126962D01*
X46962913Y-99002152D01*
X46962959Y-98862938D01*
X46962977Y-98735264D01*
X46962977Y-97690834D01*
X46983197Y-97666795D01*
X47001596Y-97650067D01*
X47027983Y-97631982D01*
X47048723Y-97620502D01*
X47094027Y-97598248D01*
X47781050Y-97595773D01*
X47918202Y-97595362D01*
X48039903Y-97595174D01*
X48146587Y-97595215D01*
G37*
G36*
X59913331Y-94194681D02*
G01*
X60039684Y-94194776D01*
X60155196Y-94194944D01*
X60260369Y-94195194D01*
X60355710Y-94195533D01*
X60441722Y-94195970D01*
X60518908Y-94196512D01*
X60587775Y-94197166D01*
X60648825Y-94197941D01*
X60702563Y-94198845D01*
X60749494Y-94199884D01*
X60790121Y-94201068D01*
X60824950Y-94202404D01*
X60854484Y-94203899D01*
X60879228Y-94205562D01*
X60899685Y-94207400D01*
X60916361Y-94209421D01*
X60929759Y-94211633D01*
X60940385Y-94214043D01*
X60948741Y-94216660D01*
X60955333Y-94219491D01*
X60960664Y-94222544D01*
X60965240Y-94225827D01*
X60969564Y-94229348D01*
X60974141Y-94233114D01*
X60979474Y-94237133D01*
X60981935Y-94238815D01*
X60992362Y-94245400D01*
X61001388Y-94251132D01*
X61009114Y-94257137D01*
X61015642Y-94264542D01*
X61021071Y-94274472D01*
X61025502Y-94288055D01*
X61029035Y-94306416D01*
X61031772Y-94330684D01*
X61033811Y-94361982D01*
X61035255Y-94401440D01*
X61036202Y-94450182D01*
X61036755Y-94509335D01*
X61037013Y-94580026D01*
X61037077Y-94663381D01*
X61037047Y-94760527D01*
X61037023Y-94856351D01*
X61037023Y-95416140D01*
X61016802Y-95440179D01*
X60998403Y-95456907D01*
X60972017Y-95474992D01*
X60951277Y-95486472D01*
X60905972Y-95508726D01*
X58441823Y-95510763D01*
X55977673Y-95512799D01*
X55977673Y-95822515D01*
X55977673Y-96132230D01*
X58433880Y-96134304D01*
X58668246Y-96134504D01*
X58887254Y-96134699D01*
X59091435Y-96134891D01*
X59281317Y-96135085D01*
X59457427Y-96135284D01*
X59620294Y-96135490D01*
X59770448Y-96135709D01*
X59908415Y-96135943D01*
X60034725Y-96136196D01*
X60149906Y-96136471D01*
X60254487Y-96136772D01*
X60348996Y-96137103D01*
X60433961Y-96137466D01*
X60509911Y-96137866D01*
X60577375Y-96138306D01*
X60636880Y-96138789D01*
X60688956Y-96139319D01*
X60734130Y-96139899D01*
X60772932Y-96140534D01*
X60805889Y-96141226D01*
X60833530Y-96141979D01*
X60856384Y-96142796D01*
X60874978Y-96143682D01*
X60889842Y-96144639D01*
X60901504Y-96145671D01*
X60910492Y-96146782D01*
X60917335Y-96147974D01*
X60922561Y-96149253D01*
X60926699Y-96150620D01*
X60927373Y-96150878D01*
X60955067Y-96164831D01*
X60985135Y-96184666D01*
X61000841Y-96197236D01*
X61037023Y-96229095D01*
X61037023Y-96795808D01*
X61037023Y-97362521D01*
X61000841Y-97394380D01*
X60973578Y-97415105D01*
X60943404Y-97433282D01*
X60927373Y-97440738D01*
X60923847Y-97441952D01*
X60919385Y-97443097D01*
X60913529Y-97444175D01*
X60905816Y-97445188D01*
X60895789Y-97446138D01*
X60882986Y-97447028D01*
X60866946Y-97447860D01*
X60847211Y-97448636D01*
X60823319Y-97449359D01*
X60794812Y-97450030D01*
X60761227Y-97450651D01*
X60722106Y-97451226D01*
X60676987Y-97451755D01*
X60625412Y-97452242D01*
X60566919Y-97452689D01*
X60501049Y-97453097D01*
X60427341Y-97453470D01*
X60345336Y-97453808D01*
X60254572Y-97454115D01*
X60154591Y-97454393D01*
X60044930Y-97454643D01*
X59925132Y-97454869D01*
X59794734Y-97455071D01*
X59653278Y-97455254D01*
X59500303Y-97455418D01*
X59335348Y-97455566D01*
X59157955Y-97455699D01*
X58967661Y-97455822D01*
X58764008Y-97455935D01*
X58546535Y-97456040D01*
X58314782Y-97456141D01*
X58068288Y-97456239D01*
X57806594Y-97456336D01*
X57673389Y-97456384D01*
X57446779Y-97456447D01*
X57224207Y-97456477D01*
X57006203Y-97456473D01*
X56793300Y-97456437D01*
X56586028Y-97456369D01*
X56384919Y-97456271D01*
X56190503Y-97456143D01*
X56003311Y-97455987D01*
X55823875Y-97455802D01*
X55652726Y-97455591D01*
X55490394Y-97455354D01*
X55337411Y-97455092D01*
X55194308Y-97454806D01*
X55061616Y-97454497D01*
X54939865Y-97454165D01*
X54829588Y-97453813D01*
X54731315Y-97453440D01*
X54645577Y-97453047D01*
X54572905Y-97452637D01*
X54513831Y-97452208D01*
X54468885Y-97451763D01*
X54438599Y-97451303D01*
X54423503Y-97450828D01*
X54421997Y-97450679D01*
X54370675Y-97434688D01*
X54325055Y-97409243D01*
X54288016Y-97376616D01*
X54262440Y-97339079D01*
X54254731Y-97318751D01*
X54253503Y-97306407D01*
X54252367Y-97279342D01*
X54251325Y-97238724D01*
X54250376Y-97185723D01*
X54249521Y-97121506D01*
X54248760Y-97047243D01*
X54248092Y-96964101D01*
X54247519Y-96873249D01*
X54247040Y-96775857D01*
X54246656Y-96673092D01*
X54246366Y-96566122D01*
X54246171Y-96456118D01*
X54246071Y-96344246D01*
X54246066Y-96231676D01*
X54246157Y-96119577D01*
X54246343Y-96009116D01*
X54246624Y-95901463D01*
X54247001Y-95797785D01*
X54247475Y-95699252D01*
X54248044Y-95607032D01*
X54248710Y-95522294D01*
X54249472Y-95446206D01*
X54250330Y-95379937D01*
X54251286Y-95324655D01*
X54252338Y-95281529D01*
X54253488Y-95251727D01*
X54254439Y-95238598D01*
X54275842Y-95118437D01*
X54312235Y-95003466D01*
X54363552Y-94893796D01*
X54429730Y-94789539D01*
X54510706Y-94690806D01*
X54606415Y-94597710D01*
X54631426Y-94576339D01*
X54751696Y-94485170D01*
X54879131Y-94406558D01*
X55014711Y-94340072D01*
X55159420Y-94285281D01*
X55314239Y-94241753D01*
X55461413Y-94212123D01*
X55469731Y-94210837D01*
X55479189Y-94209631D01*
X55490304Y-94208501D01*
X55503589Y-94207445D01*
X55519560Y-94206459D01*
X55538731Y-94205540D01*
X55561617Y-94204686D01*
X55588734Y-94203893D01*
X55620595Y-94203159D01*
X55657716Y-94202479D01*
X55700612Y-94201852D01*
X55749796Y-94201274D01*
X55805786Y-94200742D01*
X55869094Y-94200253D01*
X55940236Y-94199804D01*
X56019727Y-94199392D01*
X56108082Y-94199014D01*
X56205815Y-94198666D01*
X56313441Y-94198346D01*
X56431475Y-94198051D01*
X56560432Y-94197778D01*
X56700827Y-94197523D01*
X56853174Y-94197284D01*
X57017989Y-94197057D01*
X57195787Y-94196840D01*
X57387081Y-94196629D01*
X57592387Y-94196421D01*
X57812220Y-94196214D01*
X58047094Y-94196004D01*
X58205053Y-94195867D01*
X58451678Y-94195648D01*
X58682921Y-94195433D01*
X58899289Y-94195229D01*
X59101284Y-94195044D01*
X59289412Y-94194886D01*
X59464176Y-94194763D01*
X59626081Y-94194683D01*
X59775631Y-94194653D01*
X59913331Y-94194681D01*
G37*
G36*
X52458582Y-94195001D02*
G01*
X52594974Y-94195041D01*
X52719999Y-94195121D01*
X52834159Y-94195242D01*
X52937955Y-94195407D01*
X53031890Y-94195617D01*
X53116465Y-94195874D01*
X53192183Y-94196180D01*
X53259545Y-94196538D01*
X53319053Y-94196948D01*
X53371210Y-94197414D01*
X53416517Y-94197936D01*
X53455476Y-94198517D01*
X53488590Y-94199159D01*
X53516359Y-94199864D01*
X53539287Y-94200634D01*
X53557875Y-94201469D01*
X53572625Y-94202374D01*
X53584039Y-94203349D01*
X53592618Y-94204396D01*
X53598866Y-94205518D01*
X53601928Y-94206292D01*
X53657104Y-94228576D01*
X53699568Y-94259876D01*
X53730061Y-94300764D01*
X53733500Y-94307454D01*
X53754126Y-94349627D01*
X53751969Y-94861644D01*
X53751524Y-94964469D01*
X53751094Y-95052619D01*
X53750636Y-95127311D01*
X53750108Y-95189758D01*
X53749469Y-95241176D01*
X53748677Y-95282781D01*
X53747689Y-95315788D01*
X53746465Y-95341413D01*
X53744961Y-95360870D01*
X53743137Y-95375374D01*
X53740949Y-95386142D01*
X53738358Y-95394388D01*
X53735320Y-95401328D01*
X53733228Y-95405442D01*
X53716480Y-95429754D01*
X53693481Y-95454185D01*
X53683237Y-95462839D01*
X53677552Y-95467561D01*
X53672872Y-95471977D01*
X53668670Y-95476096D01*
X53664423Y-95479930D01*
X53659605Y-95483489D01*
X53653692Y-95486782D01*
X53646158Y-95489820D01*
X53636478Y-95492613D01*
X53624128Y-95495171D01*
X53608583Y-95497505D01*
X53589318Y-95499625D01*
X53565808Y-95501540D01*
X53537527Y-95503262D01*
X53503952Y-95504800D01*
X53464557Y-95506164D01*
X53418817Y-95507365D01*
X53366207Y-95508413D01*
X53306202Y-95509319D01*
X53238279Y-95510091D01*
X53161910Y-95510741D01*
X53076572Y-95511280D01*
X52981740Y-95511716D01*
X52876889Y-95512060D01*
X52761494Y-95512322D01*
X52635029Y-95512514D01*
X52496971Y-95512644D01*
X52346794Y-95512723D01*
X52183973Y-95512761D01*
X52007983Y-95512769D01*
X51818299Y-95512757D01*
X51614397Y-95512734D01*
X51395752Y-95512711D01*
X51161838Y-95512699D01*
X51119415Y-95512699D01*
X48670606Y-95512699D01*
X48670606Y-95822464D01*
X48670606Y-96132230D01*
X51126813Y-96134304D01*
X51361025Y-96134503D01*
X51579882Y-96134696D01*
X51783913Y-96134885D01*
X51973647Y-96135075D01*
X52149615Y-96135268D01*
X52312345Y-96135469D01*
X52462368Y-96135681D01*
X52600212Y-96135908D01*
X52726407Y-96136154D01*
X52841484Y-96136421D01*
X52945970Y-96136715D01*
X53040396Y-96137037D01*
X53125292Y-96137393D01*
X53201186Y-96137785D01*
X53268609Y-96138218D01*
X53328090Y-96138695D01*
X53380158Y-96139219D01*
X53425343Y-96139794D01*
X53464174Y-96140425D01*
X53497182Y-96141113D01*
X53524895Y-96141864D01*
X53547842Y-96142681D01*
X53566555Y-96143567D01*
X53581561Y-96144526D01*
X53593391Y-96145562D01*
X53602574Y-96146678D01*
X53609640Y-96147878D01*
X53615118Y-96149166D01*
X53619537Y-96150544D01*
X53621986Y-96151450D01*
X53657510Y-96170220D01*
X53691738Y-96196983D01*
X53720686Y-96227853D01*
X53740372Y-96258946D01*
X53745003Y-96271441D01*
X53746846Y-96286220D01*
X53748479Y-96315179D01*
X53749902Y-96356610D01*
X53751117Y-96408805D01*
X53752122Y-96470055D01*
X53752917Y-96538653D01*
X53753504Y-96612889D01*
X53753881Y-96691055D01*
X53754048Y-96771444D01*
X53754007Y-96852347D01*
X53753756Y-96932055D01*
X53753295Y-97008861D01*
X53752626Y-97081056D01*
X53751747Y-97146931D01*
X53750658Y-97204780D01*
X53749361Y-97252892D01*
X53747853Y-97289560D01*
X53746137Y-97313076D01*
X53745003Y-97320175D01*
X53730537Y-97350165D01*
X53705091Y-97381608D01*
X53672650Y-97410617D01*
X53637196Y-97433307D01*
X53621986Y-97440166D01*
X53618446Y-97441427D01*
X53614230Y-97442616D01*
X53608876Y-97443735D01*
X53601923Y-97444787D01*
X53592910Y-97445774D01*
X53581378Y-97446698D01*
X53566863Y-97447562D01*
X53548906Y-97448367D01*
X53527045Y-97449116D01*
X53500819Y-97449812D01*
X53469768Y-97450456D01*
X53433430Y-97451051D01*
X53391344Y-97451600D01*
X53343050Y-97452104D01*
X53288086Y-97452566D01*
X53225991Y-97452988D01*
X53156305Y-97453372D01*
X53078566Y-97453721D01*
X52992313Y-97454037D01*
X52897086Y-97454323D01*
X52792422Y-97454580D01*
X52677862Y-97454811D01*
X52552945Y-97455018D01*
X52417208Y-97455204D01*
X52270192Y-97455371D01*
X52111435Y-97455520D01*
X51940477Y-97455655D01*
X51756855Y-97455778D01*
X51560110Y-97455891D01*
X51349780Y-97455996D01*
X51125404Y-97456095D01*
X50886522Y-97456192D01*
X50632671Y-97456288D01*
X50366322Y-97456384D01*
X50140858Y-97456448D01*
X49919307Y-97456480D01*
X49702204Y-97456480D01*
X49490084Y-97456450D01*
X49283483Y-97456390D01*
X49082937Y-97456301D01*
X48888982Y-97456184D01*
X48702151Y-97456040D01*
X48522983Y-97455869D01*
X48352010Y-97455673D01*
X48189770Y-97455453D01*
X48036798Y-97455209D01*
X47893629Y-97454942D01*
X47760799Y-97454653D01*
X47638844Y-97454343D01*
X47528298Y-97454013D01*
X47429697Y-97453664D01*
X47343578Y-97453297D01*
X47270475Y-97452912D01*
X47210924Y-97452510D01*
X47165460Y-97452092D01*
X47134619Y-97451660D01*
X47118937Y-97451214D01*
X47117114Y-97451052D01*
X47063144Y-97435160D01*
X47017736Y-97409574D01*
X46995517Y-97391430D01*
X46962765Y-97361830D01*
X46964856Y-96232682D01*
X46966948Y-95103534D01*
X46985347Y-95051892D01*
X47034328Y-94936408D01*
X47096536Y-94828192D01*
X47172358Y-94726770D01*
X47262184Y-94631666D01*
X47366402Y-94542407D01*
X47454754Y-94478670D01*
X47579427Y-94402814D01*
X47710801Y-94338713D01*
X47850411Y-94285784D01*
X47999789Y-94243443D01*
X48154346Y-94212123D01*
X48162664Y-94210837D01*
X48172122Y-94209631D01*
X48183237Y-94208501D01*
X48196522Y-94207445D01*
X48212493Y-94206459D01*
X48231664Y-94205540D01*
X48254550Y-94204686D01*
X48281667Y-94203893D01*
X48313528Y-94203159D01*
X48350649Y-94202479D01*
X48393545Y-94201852D01*
X48442730Y-94201274D01*
X48498719Y-94200742D01*
X48562027Y-94200253D01*
X48633169Y-94199804D01*
X48712660Y-94199392D01*
X48801015Y-94199014D01*
X48898748Y-94198666D01*
X49006374Y-94198346D01*
X49124408Y-94198051D01*
X49253365Y-94197778D01*
X49393760Y-94197523D01*
X49546108Y-94197284D01*
X49710922Y-94197057D01*
X49888720Y-94196840D01*
X50080014Y-94196629D01*
X50285320Y-94196421D01*
X50505153Y-94196214D01*
X50740028Y-94196004D01*
X50897986Y-94195867D01*
X51143387Y-94195661D01*
X51373406Y-94195479D01*
X51588543Y-94195323D01*
X51789301Y-94195195D01*
X51976182Y-94195097D01*
X52149688Y-94195031D01*
X52310321Y-94194998D01*
X52458582Y-94195001D01*
G37*
G36*
X55453654Y-97595215D02*
G01*
X55545755Y-97595487D01*
X55623704Y-97595994D01*
X55687936Y-97596741D01*
X55738884Y-97597731D01*
X55776980Y-97598967D01*
X55802658Y-97600453D01*
X55815823Y-97602074D01*
X55865187Y-97619198D01*
X55909951Y-97646853D01*
X55945220Y-97681847D01*
X55951467Y-97690587D01*
X55973702Y-97724188D01*
X55975955Y-98143874D01*
X55978208Y-98563559D01*
X58422778Y-98563559D01*
X58658946Y-98563551D01*
X58879757Y-98563534D01*
X59085737Y-98563516D01*
X59277412Y-98563507D01*
X59455311Y-98563516D01*
X59619959Y-98563554D01*
X59771885Y-98563628D01*
X59911614Y-98563748D01*
X60039675Y-98563923D01*
X60156593Y-98564164D01*
X60262896Y-98564478D01*
X60359112Y-98564876D01*
X60445766Y-98565366D01*
X60523385Y-98565959D01*
X60592498Y-98566662D01*
X60653630Y-98567487D01*
X60707310Y-98568441D01*
X60754063Y-98569534D01*
X60794416Y-98570775D01*
X60828898Y-98572175D01*
X60858034Y-98573741D01*
X60882352Y-98575483D01*
X60902378Y-98577412D01*
X60918640Y-98579535D01*
X60931665Y-98581862D01*
X60941980Y-98584403D01*
X60950111Y-98587166D01*
X60956585Y-98590162D01*
X60961930Y-98593399D01*
X60966673Y-98596887D01*
X60971340Y-98600634D01*
X60976459Y-98604651D01*
X60982186Y-98608703D01*
X60992551Y-98615249D01*
X61001526Y-98620951D01*
X61009211Y-98626933D01*
X61015705Y-98634319D01*
X61021109Y-98644234D01*
X61025520Y-98657803D01*
X61029040Y-98676150D01*
X61031768Y-98700399D01*
X61033803Y-98731676D01*
X61035245Y-98771103D01*
X61036194Y-98819807D01*
X61036749Y-98878912D01*
X61037010Y-98949541D01*
X61037076Y-99032820D01*
X61037047Y-99129872D01*
X61037023Y-99227731D01*
X61037023Y-99789177D01*
X61007267Y-99817249D01*
X60981116Y-99838208D01*
X60951301Y-99857031D01*
X60941742Y-99861884D01*
X60905972Y-99878448D01*
X57665447Y-99880195D01*
X57394956Y-99880339D01*
X57139892Y-99880468D01*
X56899797Y-99880582D01*
X56674212Y-99880678D01*
X56462680Y-99880755D01*
X56264742Y-99880811D01*
X56079940Y-99880844D01*
X55907817Y-99880853D01*
X55747913Y-99880835D01*
X55599771Y-99880790D01*
X55462932Y-99880716D01*
X55336939Y-99880610D01*
X55221334Y-99880471D01*
X55115658Y-99880297D01*
X55019453Y-99880087D01*
X54932261Y-99879840D01*
X54853623Y-99879552D01*
X54783083Y-99879222D01*
X54720181Y-99878850D01*
X54664460Y-99878432D01*
X54615461Y-99877968D01*
X54572727Y-99877456D01*
X54535798Y-99876893D01*
X54504218Y-99876279D01*
X54477527Y-99875611D01*
X54455268Y-99874888D01*
X54436983Y-99874107D01*
X54422214Y-99873269D01*
X54410501Y-99872370D01*
X54401388Y-99871408D01*
X54394416Y-99870383D01*
X54389127Y-99869293D01*
X54385063Y-99868135D01*
X54384443Y-99867925D01*
X54339714Y-99846957D01*
X54300827Y-99818321D01*
X54272042Y-99785396D01*
X54265029Y-99773256D01*
X54262838Y-99768345D01*
X54260869Y-99762337D01*
X54259109Y-99754385D01*
X54257543Y-99743643D01*
X54256158Y-99729266D01*
X54254939Y-99710408D01*
X54254817Y-99707632D01*
X58908442Y-99707632D01*
X58983896Y-99707632D01*
X59059349Y-99707632D01*
X59837711Y-99707632D01*
X59913164Y-99707632D01*
X59988618Y-99707632D01*
X59988618Y-99644072D01*
X59988618Y-99584485D01*
X60147467Y-99584485D01*
X60147467Y-99707632D01*
X60528705Y-99707632D01*
X60909943Y-99707632D01*
X60909943Y-99644072D01*
X60909943Y-99580512D01*
X60604158Y-99580512D01*
X60298374Y-99580512D01*
X60298374Y-99520925D01*
X60298374Y-99461338D01*
X60373827Y-99461338D01*
X60449280Y-99461338D01*
X60449280Y-99397779D01*
X60449280Y-99334219D01*
X60524734Y-99334219D01*
X60600187Y-99334219D01*
X60600187Y-99270659D01*
X60600187Y-99207100D01*
X60679612Y-99207100D01*
X60759037Y-99207100D01*
X60759037Y-99147513D01*
X60759037Y-99087926D01*
X60834490Y-99087926D01*
X60909943Y-99087926D01*
X60909943Y-99024366D01*
X60909943Y-98960806D01*
X60834490Y-98960806D01*
X60759037Y-98960806D01*
X60759037Y-99024366D01*
X60759037Y-99087926D01*
X60679612Y-99087926D01*
X60600187Y-99087926D01*
X60600187Y-99147513D01*
X60600187Y-99207100D01*
X60524734Y-99207100D01*
X60449280Y-99207100D01*
X60449280Y-99270659D01*
X60449280Y-99334219D01*
X60373827Y-99334219D01*
X60298374Y-99334219D01*
X60298374Y-99397779D01*
X60298374Y-99461338D01*
X60222920Y-99461338D01*
X60147467Y-99461338D01*
X60147467Y-99584485D01*
X59988618Y-99584485D01*
X59988618Y-99580512D01*
X59913164Y-99580512D01*
X59837711Y-99580512D01*
X59837711Y-99644072D01*
X59837711Y-99707632D01*
X59059349Y-99707632D01*
X59059349Y-99644072D01*
X59059349Y-99580512D01*
X58983896Y-99580512D01*
X58908442Y-99580512D01*
X58908442Y-99644072D01*
X58908442Y-99707632D01*
X54254817Y-99707632D01*
X54253872Y-99686221D01*
X54252942Y-99655860D01*
X54252688Y-99644072D01*
X54252136Y-99618478D01*
X54251439Y-99573230D01*
X54250837Y-99519269D01*
X54250316Y-99455749D01*
X54250302Y-99453393D01*
X58908442Y-99453393D01*
X58983896Y-99453393D01*
X59059349Y-99453393D01*
X59059349Y-99393806D01*
X59059349Y-99334219D01*
X58983896Y-99334219D01*
X58908442Y-99334219D01*
X58908442Y-99393806D01*
X58908442Y-99453393D01*
X54250302Y-99453393D01*
X54249935Y-99393806D01*
X54249861Y-99381824D01*
X54249459Y-99296648D01*
X54249357Y-99269335D01*
X54249095Y-99199374D01*
X54248756Y-99089157D01*
X54248426Y-98965149D01*
X54248128Y-98841632D01*
X59218199Y-98841632D01*
X59218199Y-99269335D01*
X59218299Y-99350324D01*
X59218588Y-99426504D01*
X59219047Y-99496401D01*
X59219657Y-99558539D01*
X59220398Y-99611443D01*
X59221253Y-99653638D01*
X59222200Y-99683650D01*
X59223223Y-99700003D01*
X59223770Y-99702612D01*
X59233704Y-99704843D01*
X59255602Y-99706121D01*
X59285559Y-99706279D01*
X59301209Y-99705922D01*
X59373077Y-99703659D01*
X59373765Y-99644072D01*
X59374498Y-99580512D01*
X59678861Y-99580512D01*
X59758286Y-99580512D01*
X59837711Y-99580512D01*
X59837711Y-99520925D01*
X59837711Y-99461338D01*
X59758286Y-99461338D01*
X59678861Y-99461338D01*
X59678861Y-99520925D01*
X59678861Y-99580512D01*
X59374498Y-99580512D01*
X59375186Y-99520925D01*
X59375209Y-99518939D01*
X59375874Y-99461338D01*
X59527955Y-99461338D01*
X59603408Y-99461338D01*
X59678861Y-99461338D01*
X59678861Y-99397779D01*
X59678861Y-99334219D01*
X59603408Y-99334219D01*
X59527955Y-99334219D01*
X59527955Y-99397779D01*
X59527955Y-99461338D01*
X59375874Y-99461338D01*
X59376607Y-99397779D01*
X59377341Y-99334219D01*
X59452648Y-99334219D01*
X59527955Y-99334219D01*
X59527955Y-99270659D01*
X59527955Y-99207100D01*
X59603408Y-99207100D01*
X59678861Y-99207100D01*
X59678861Y-99147800D01*
X59678861Y-99088501D01*
X59756300Y-99086227D01*
X59833739Y-99083953D01*
X59835984Y-99024366D01*
X60147467Y-99024366D01*
X60147467Y-99087926D01*
X60222920Y-99087926D01*
X60298374Y-99087926D01*
X60298374Y-99024366D01*
X60298374Y-98960806D01*
X60528705Y-98960806D01*
X60759037Y-98960806D01*
X60759037Y-98901219D01*
X60759037Y-98841632D01*
X60528705Y-98841632D01*
X60298374Y-98841632D01*
X60298374Y-98901219D01*
X60298374Y-98960806D01*
X60222920Y-98960806D01*
X60147467Y-98960806D01*
X60147467Y-99024366D01*
X59835984Y-99024366D01*
X59836059Y-99022380D01*
X59838379Y-98960806D01*
X59913498Y-98960806D01*
X59988618Y-98960806D01*
X59988618Y-98901219D01*
X59988618Y-98841632D01*
X59913164Y-98841632D01*
X59837711Y-98841632D01*
X59837711Y-98901219D01*
X59837711Y-98960806D01*
X59758286Y-98960806D01*
X59678861Y-98960806D01*
X59678861Y-99024366D01*
X59678861Y-99087926D01*
X59603408Y-99087926D01*
X59527955Y-99087926D01*
X59527955Y-99147513D01*
X59527955Y-99207100D01*
X59452501Y-99207100D01*
X59377048Y-99207100D01*
X59377048Y-99024366D01*
X59377048Y-98841632D01*
X59297623Y-98841632D01*
X59218199Y-98841632D01*
X54248128Y-98841632D01*
X54248091Y-98826506D01*
X54247925Y-98754238D01*
X54247605Y-98594822D01*
X54247415Y-98450775D01*
X54247357Y-98321576D01*
X54247435Y-98206705D01*
X54247653Y-98105640D01*
X54248013Y-98017861D01*
X54248520Y-97942848D01*
X54249176Y-97880080D01*
X54249985Y-97829036D01*
X54250951Y-97789195D01*
X54252076Y-97760037D01*
X54253366Y-97741041D01*
X54254677Y-97732170D01*
X54274792Y-97688271D01*
X54308856Y-97650642D01*
X54355587Y-97620601D01*
X54401094Y-97598248D01*
X55088117Y-97595773D01*
X55225269Y-97595362D01*
X55346970Y-97595174D01*
X55453654Y-97595215D01*
G37*
D14*
%TO.C,SW6*%
X46015000Y-56515000D02*
X59985000Y-56515000D01*
X46015000Y-70485000D02*
X46015000Y-56515000D01*
X59985000Y-56515000D02*
X59985000Y-70485000D01*
X59985000Y-70485000D02*
X46015000Y-70485000D01*
%TO.C,U2*%
X63010000Y-77160000D02*
X63010000Y-78810000D01*
X63010000Y-80810000D02*
X63010000Y-82460000D01*
X63010000Y-82460000D02*
X83450000Y-82460000D01*
X83450000Y-77160000D02*
X63010000Y-77160000D01*
X83450000Y-82460000D02*
X83450000Y-77160000D01*
X63010000Y-78810000D02*
G75*
G02*
X63010000Y-80810000I0J-1000000D01*
G01*
%TO.C,D8*%
X102030000Y-63780000D02*
X102030000Y-69220000D01*
X102030000Y-69220000D02*
X102360000Y-69220000D01*
X102360000Y-63780000D02*
X102030000Y-63780000D01*
X104640000Y-63780000D02*
X104970000Y-63780000D01*
X104970000Y-63780000D02*
X104970000Y-69220000D01*
X104970000Y-64560000D02*
X102030000Y-64560000D01*
X104970000Y-64680000D02*
X102030000Y-64680000D01*
X104970000Y-64800000D02*
X102030000Y-64800000D01*
X104970000Y-69220000D02*
X104640000Y-69220000D01*
%TO.C,D11*%
X74710000Y-93764000D02*
X74710000Y-93920000D01*
X74710000Y-96080000D02*
X74710000Y-96236000D01*
X74710000Y-93764484D02*
G75*
G02*
X77941437Y-93920000I1560000J-1235516D01*
G01*
X75229039Y-93920000D02*
G75*
G02*
X77310961Y-93920000I1040961J-1080000D01*
G01*
X77310961Y-96080000D02*
G75*
G02*
X75229039Y-96080000I-1040961J1080000D01*
G01*
X77941437Y-96080000D02*
G75*
G02*
X74710000Y-96235516I-1671437J1080000D01*
G01*
%TO.C,D4*%
X62030000Y-43090000D02*
X62030000Y-48530000D01*
X62030000Y-48530000D02*
X62360000Y-48530000D01*
X62360000Y-43090000D02*
X62030000Y-43090000D01*
X64640000Y-43090000D02*
X64970000Y-43090000D01*
X64970000Y-43090000D02*
X64970000Y-48530000D01*
X64970000Y-43870000D02*
X62030000Y-43870000D01*
X64970000Y-43990000D02*
X62030000Y-43990000D01*
X64970000Y-44110000D02*
X62030000Y-44110000D01*
X64970000Y-48530000D02*
X64640000Y-48530000D01*
%TO.C,D1*%
X122030000Y-43090000D02*
X122030000Y-48530000D01*
X122030000Y-48530000D02*
X122360000Y-48530000D01*
X122360000Y-43090000D02*
X122030000Y-43090000D01*
X124640000Y-43090000D02*
X124970000Y-43090000D01*
X124970000Y-43090000D02*
X124970000Y-48530000D01*
X124970000Y-43870000D02*
X122030000Y-43870000D01*
X124970000Y-43990000D02*
X122030000Y-43990000D01*
X124970000Y-44110000D02*
X122030000Y-44110000D01*
X124970000Y-48530000D02*
X124640000Y-48530000D01*
%TO.C,SW7*%
X66015000Y-56515000D02*
X79985000Y-56515000D01*
X66015000Y-70485000D02*
X66015000Y-56515000D01*
X79985000Y-56515000D02*
X79985000Y-70485000D01*
X79985000Y-70485000D02*
X66015000Y-70485000D01*
%TO.C,SW2*%
X46015000Y-36515000D02*
X59985000Y-36515000D01*
X46015000Y-50485000D02*
X46015000Y-36515000D01*
X59985000Y-36515000D02*
X59985000Y-50485000D01*
X59985000Y-50485000D02*
X46015000Y-50485000D01*
%TO.C,C1*%
X89540000Y-83000000D02*
X89580000Y-83000000D01*
X94960000Y-83000000D02*
X94920000Y-83000000D01*
X89580000Y-81330000D02*
X94920000Y-81330000D01*
X94920000Y-84670000D01*
X89580000Y-84670000D01*
X89580000Y-81330000D01*
%TO.C,D7*%
X82030000Y-63780000D02*
X82030000Y-69220000D01*
X82030000Y-69220000D02*
X82360000Y-69220000D01*
X82360000Y-63780000D02*
X82030000Y-63780000D01*
X84640000Y-63780000D02*
X84970000Y-63780000D01*
X84970000Y-63780000D02*
X84970000Y-69220000D01*
X84970000Y-64560000D02*
X82030000Y-64560000D01*
X84970000Y-64680000D02*
X82030000Y-64680000D01*
X84970000Y-64800000D02*
X82030000Y-64800000D01*
X84970000Y-69220000D02*
X84640000Y-69220000D01*
%TO.C,D6*%
X62030000Y-63780000D02*
X62030000Y-69220000D01*
X62030000Y-69220000D02*
X62360000Y-69220000D01*
X62360000Y-63780000D02*
X62030000Y-63780000D01*
X64640000Y-63780000D02*
X64970000Y-63780000D01*
X64970000Y-63780000D02*
X64970000Y-69220000D01*
X64970000Y-64560000D02*
X62030000Y-64560000D01*
X64970000Y-64680000D02*
X62030000Y-64680000D01*
X64970000Y-64800000D02*
X62030000Y-64800000D01*
X64970000Y-69220000D02*
X64640000Y-69220000D01*
%TO.C,D2*%
X102030000Y-42780000D02*
X102030000Y-48220000D01*
X102030000Y-48220000D02*
X102360000Y-48220000D01*
X102360000Y-42780000D02*
X102030000Y-42780000D01*
X104640000Y-42780000D02*
X104970000Y-42780000D01*
X104970000Y-42780000D02*
X104970000Y-48220000D01*
X104970000Y-43560000D02*
X102030000Y-43560000D01*
X104970000Y-43680000D02*
X102030000Y-43680000D01*
X104970000Y-43800000D02*
X102030000Y-43800000D01*
X104970000Y-48220000D02*
X104640000Y-48220000D01*
%TO.C,SW3*%
X66015000Y-36515000D02*
X79985000Y-36515000D01*
X66015000Y-50485000D02*
X66015000Y-36515000D01*
X79985000Y-36515000D02*
X79985000Y-50485000D01*
X79985000Y-50485000D02*
X66015000Y-50485000D01*
%TO.C,D10*%
X68440000Y-93764000D02*
X68440000Y-93920000D01*
X68440000Y-96080000D02*
X68440000Y-96236000D01*
X68440000Y-93764484D02*
G75*
G02*
X71671437Y-93920000I1560000J-1235516D01*
G01*
X68959039Y-93920000D02*
G75*
G02*
X71040961Y-93920000I1040961J-1080000D01*
G01*
X71040961Y-96080000D02*
G75*
G02*
X68959039Y-96080000I-1040961J1080000D01*
G01*
X71671437Y-96080000D02*
G75*
G02*
X68440000Y-96235516I-1671437J1080000D01*
G01*
%TO.C,SW1*%
X106200000Y-92400000D02*
X106800000Y-92400000D01*
X106500000Y-92700000D02*
X106200000Y-92400000D01*
X106800000Y-92400000D02*
X106500000Y-92700000D01*
X107300000Y-90200000D02*
X107300000Y-92700000D01*
X107300000Y-102800000D02*
X107300000Y-100000000D01*
X112100000Y-90200000D02*
X107300000Y-90200000D01*
X112200000Y-102800000D02*
X107300000Y-102800000D01*
X113500000Y-96500000D02*
X114500000Y-96500000D01*
X114000000Y-96000000D02*
X114000000Y-97000000D01*
X115800000Y-90200000D02*
X120700000Y-90200000D01*
X120700000Y-90200000D02*
X120700000Y-92800000D01*
X120700000Y-95200000D02*
X120700000Y-97800000D01*
X120700000Y-100200000D02*
X120700000Y-102800000D01*
X120700000Y-102800000D02*
X115800000Y-102800000D01*
X117000000Y-96500000D02*
G75*
G02*
X111000000Y-96500000I-3000000J0D01*
G01*
X111000000Y-96500000D02*
G75*
G02*
X117000000Y-96500000I3000000J0D01*
G01*
%TO.C,SW8*%
X86015000Y-56515000D02*
X99985000Y-56515000D01*
X86015000Y-70485000D02*
X86015000Y-56515000D01*
X99985000Y-56515000D02*
X99985000Y-70485000D01*
X99985000Y-70485000D02*
X86015000Y-70485000D01*
%TO.C,C3*%
X89540000Y-76500000D02*
X89580000Y-76500000D01*
X94960000Y-76500000D02*
X94920000Y-76500000D01*
X89580000Y-74830000D02*
X94920000Y-74830000D01*
X94920000Y-78170000D01*
X89580000Y-78170000D01*
X89580000Y-74830000D01*
%TO.C,SW5*%
X106015000Y-36515000D02*
X119985000Y-36515000D01*
X106015000Y-50485000D02*
X106015000Y-36515000D01*
X119985000Y-36515000D02*
X119985000Y-50485000D01*
X119985000Y-50485000D02*
X106015000Y-50485000D01*
%TD*%
M02*
