M48
; DRILL file {KiCad 9.0.7} date 2026-01-20T04:17:20+0900
; FORMAT={-:-/ absolute / metric / decimal}
; #@! TF.CreationDate,2026-01-20T04:17:20+09:00
; #@! TF.GenerationSoftware,Kicad,Pcbnew,9.0.7
; #@! TF.FileFunction,Plated,1,2,PTH
FMAT,2
METRIC
; #@! TA.AperFunction,Plated,PTH,ViaDrill
T1C0.300
; #@! TA.AperFunction,Plated,PTH,ComponentDrill
T2C0.800
; #@! TA.AperFunction,Plated,PTH,ComponentDrill
T3C0.900
; #@! TA.AperFunction,Plated,PTH,ComponentDrill
T4C1.000
; #@! TA.AperFunction,Plated,PTH,ComponentDrill
T5C1.500
; #@! TA.AperFunction,Plated,PTH,ComponentDrill
T6C2.000
%
G90
G05
T1
X57.538Y-72.453
X62.604Y-83.557
X63.32Y-80.882
X81.232Y-66.319
X84.245Y-58.796
X87.234Y-66.948
X94.411Y-60.47
X100.5Y-56.5
X120.116Y-80.882
T2
X45.3Y-76.0
X45.3Y-91.24
X47.84Y-76.0
X47.84Y-91.24
X50.38Y-76.0
X50.38Y-91.24
X52.92Y-76.0
X52.92Y-91.24
X55.46Y-76.0
X55.46Y-91.24
X58.0Y-76.0
X58.0Y-91.24
X60.54Y-76.0
X60.54Y-91.24
X64.34Y-76.0
X64.34Y-83.62
X66.88Y-76.0
X66.88Y-83.62
X69.42Y-76.0
X69.42Y-83.62
X71.96Y-76.0
X71.96Y-83.62
X74.5Y-76.0
X74.5Y-83.62
X76.92Y-88.0
X77.04Y-76.0
X77.04Y-83.62
X79.58Y-76.0
X79.58Y-83.62
X82.12Y-76.0
X82.12Y-83.62
X87.08Y-88.0
X88.5Y-76.5
X88.5Y-83.0
X91.34Y-88.5
X96.0Y-76.5
X96.0Y-83.0
X100.25Y-76.5
X101.5Y-88.5
X107.75Y-76.5
T3
X43.5Y-62.88
X43.5Y-70.5
X63.5Y-42.0
X63.5Y-49.62
X63.5Y-62.69
X63.5Y-70.31
X65.23Y-89.5
X67.77Y-89.5
X71.46Y-89.5
X74.0Y-89.5
X83.5Y-41.88
X83.5Y-49.5
X83.5Y-62.69
X83.5Y-70.31
X103.5Y-41.69
X103.5Y-49.31
X103.5Y-62.69
X103.5Y-70.31
X123.5Y-42.0
X123.5Y-49.62
T4
X106.5Y-94.0
X106.5Y-96.5
X106.5Y-99.0
X121.0Y-94.0
X121.0Y-99.0
T5
X49.19Y-40.96
X49.19Y-46.04
X49.19Y-60.96
X49.19Y-66.04
X55.54Y-38.42
X55.54Y-48.58
X55.54Y-58.42
X55.54Y-68.58
X69.19Y-40.96
X69.19Y-46.04
X69.19Y-60.96
X69.19Y-66.04
X75.54Y-38.42
X75.54Y-48.58
X75.54Y-58.42
X75.54Y-68.58
X89.19Y-40.96
X89.19Y-46.04
X89.19Y-60.96
X89.19Y-66.04
X95.54Y-38.42
X95.54Y-48.58
X95.54Y-58.42
X95.54Y-68.58
X109.19Y-40.96
X109.19Y-46.04
X109.19Y-60.96
X109.19Y-66.04
X115.54Y-38.42
X115.54Y-48.58
X115.54Y-58.42
X115.54Y-68.58
T4
G00X50.6Y-88.669
M15
G01X50.6Y-87.669
M16
G05
G00X52.5Y-88.68
M15
G01X52.5Y-87.68
M16
G05
T6
G00X113.75Y-90.9
M15
G01X114.25Y-90.9
M16
G05
G00X113.75Y-102.1
M15
G01X114.25Y-102.1
M16
G05
M30
