%TF.GenerationSoftware,KiCad,Pcbnew,9.0.7*%
%TF.CreationDate,2026-01-20T04:17:16+09:00*%
%TF.ProjectId,LEFT_Parade,4c454654-5f50-4617-9261-64652e6b6963,rev?*%
%TF.SameCoordinates,Original*%
%TF.FileFunction,Soldermask,Bot*%
%TF.FilePolarity,Negative*%
%FSLAX46Y46*%
G04 Gerber Fmt 4.6, Leading zero omitted, Abs format (unit mm)*
G04 Created by KiCad (PCBNEW 9.0.7) date 2026-01-20 04:17:16*
%MOMM*%
%LPD*%
G01*
G04 APERTURE LIST*
G04 Aperture macros list*
%AMRoundRect*
0 Rectangle with rounded corners*
0 $1 Rounding radius*
0 $2 $3 $4 $5 $6 $7 $8 $9 X,Y pos of 4 corners*
0 Add a 4 corners polygon primitive as box body*
4,1,4,$2,$3,$4,$5,$6,$7,$8,$9,$2,$3,0*
0 Add four circle primitives for the rounded corners*
1,1,$1+$1,$2,$3*
1,1,$1+$1,$4,$5*
1,1,$1+$1,$6,$7*
1,1,$1+$1,$8,$9*
0 Add four rect primitives between the rounded corners*
20,1,$1+$1,$2,$3,$4,$5,0*
20,1,$1+$1,$4,$5,$6,$7,0*
20,1,$1+$1,$6,$7,$8,$9,0*
20,1,$1+$1,$8,$9,$2,$3,0*%
G04 Aperture macros list end*
%ADD10C,2.200000*%
%ADD11C,1.700000*%
%ADD12C,4.000000*%
%ADD13C,3.200000*%
%ADD14RoundRect,0.250000X-0.650000X0.650000X-0.650000X-0.650000X0.650000X-0.650000X0.650000X0.650000X0*%
%ADD15C,1.800000*%
%ADD16R,1.600000X1.600000*%
%ADD17O,1.600000X1.600000*%
%ADD18O,1.500000X2.500000*%
%ADD19C,1.600000*%
%ADD20R,1.800000X1.800000*%
%ADD21RoundRect,0.250000X0.550000X-0.550000X0.550000X0.550000X-0.550000X0.550000X-0.550000X-0.550000X0*%
%ADD22R,2.000000X2.000000*%
%ADD23C,2.000000*%
%ADD24R,3.000000X2.500000*%
G04 APERTURE END LIST*
D10*
%TO.C,SW3*%
X69190000Y-40960000D03*
X75540000Y-38420000D03*
D11*
X78080000Y-43500000D03*
D12*
X73000000Y-43500000D03*
D11*
X67920000Y-43500000D03*
%TD*%
%TO.C,SW17*%
X47920000Y-63500000D03*
D12*
X53000000Y-63500000D03*
D11*
X58080000Y-63500000D03*
D10*
X55540000Y-68580000D03*
X49190000Y-66040000D03*
%TD*%
D11*
%TO.C,SW16*%
X67920000Y-63500000D03*
D12*
X73000000Y-63500000D03*
D11*
X78080000Y-63500000D03*
D10*
X75540000Y-68580000D03*
X69190000Y-66040000D03*
%TD*%
D11*
%TO.C,SW15*%
X87920000Y-63500000D03*
D12*
X93000000Y-63500000D03*
D11*
X98080000Y-63500000D03*
D10*
X95540000Y-68580000D03*
X89190000Y-66040000D03*
%TD*%
D11*
%TO.C,SW14*%
X107920000Y-63500000D03*
D12*
X113000000Y-63500000D03*
D11*
X118080000Y-63500000D03*
D10*
X115540000Y-68580000D03*
X109190000Y-66040000D03*
%TD*%
D11*
%TO.C,SW13*%
X47920000Y-43500000D03*
D12*
X53000000Y-43500000D03*
D11*
X58080000Y-43500000D03*
D10*
X55540000Y-48580000D03*
X49190000Y-46040000D03*
%TD*%
D11*
%TO.C,SW12*%
X67920000Y-43500000D03*
D12*
X73000000Y-43500000D03*
D11*
X78080000Y-43500000D03*
D10*
X75540000Y-48580000D03*
X69190000Y-46040000D03*
%TD*%
D11*
%TO.C,SW11*%
X87920000Y-43500000D03*
D12*
X93000000Y-43500000D03*
D11*
X98080000Y-43500000D03*
D10*
X95540000Y-48580000D03*
X89190000Y-46040000D03*
%TD*%
D11*
%TO.C,SW10*%
X107920000Y-43500000D03*
D12*
X113000000Y-43500000D03*
D11*
X118080000Y-43500000D03*
D10*
X115540000Y-48580000D03*
X109190000Y-46040000D03*
%TD*%
D13*
%TO.C,*%
X44000000Y-103000000D03*
%TD*%
%TO.C,*%
X123000000Y-103000000D03*
%TD*%
%TO.C,*%
X43500000Y-36000000D03*
%TD*%
%TO.C,REF\u002A\u002A*%
X123000000Y-35500000D03*
%TD*%
D14*
%TO.C,D5*%
X43500000Y-62880000D03*
D15*
X43500000Y-70500000D03*
%TD*%
D11*
%TO.C,SW9*%
X107920000Y-63500000D03*
D12*
X113000000Y-63500000D03*
D11*
X118080000Y-63500000D03*
D10*
X115540000Y-58420000D03*
X109190000Y-60960000D03*
%TD*%
D16*
%TO.C,U1*%
X45300000Y-91240000D03*
D17*
X47840000Y-91240000D03*
X50380000Y-91240000D03*
X52920000Y-91240000D03*
X55460000Y-91240000D03*
X58000000Y-91240000D03*
X60540000Y-91240000D03*
X60540000Y-76000000D03*
X58000000Y-76000000D03*
X55460000Y-76000000D03*
X52920000Y-76000000D03*
X50380000Y-76000000D03*
X47840000Y-76000000D03*
X45300000Y-76000000D03*
D18*
X52500000Y-88180000D03*
X50600000Y-88169000D03*
%TD*%
D19*
%TO.C,R2*%
X91340000Y-88500000D03*
X101500000Y-88500000D03*
%TD*%
D14*
%TO.C,D3*%
X83500000Y-41880000D03*
D15*
X83500000Y-49500000D03*
%TD*%
D19*
%TO.C,C2*%
X100250000Y-76500000D03*
X107750000Y-76500000D03*
%TD*%
D20*
%TO.C,D9*%
X65230000Y-89500000D03*
D15*
X67770000Y-89500000D03*
%TD*%
D11*
%TO.C,SW4*%
X87920000Y-43500000D03*
D12*
X93000000Y-43500000D03*
D11*
X98080000Y-43500000D03*
D10*
X95540000Y-38420000D03*
X89190000Y-40960000D03*
%TD*%
D11*
%TO.C,SW6*%
X47920000Y-63500000D03*
D12*
X53000000Y-63500000D03*
D11*
X58080000Y-63500000D03*
D10*
X55540000Y-58420000D03*
X49190000Y-60960000D03*
%TD*%
D21*
%TO.C,U2*%
X64340000Y-83620000D03*
D19*
X66880000Y-83620000D03*
X69420000Y-83620000D03*
X71960000Y-83620000D03*
X74500000Y-83620000D03*
X77040000Y-83620000D03*
X79580000Y-83620000D03*
X82120000Y-83620000D03*
X82120000Y-76000000D03*
X79580000Y-76000000D03*
X77040000Y-76000000D03*
X74500000Y-76000000D03*
X71960000Y-76000000D03*
X69420000Y-76000000D03*
X66880000Y-76000000D03*
X64340000Y-76000000D03*
%TD*%
D14*
%TO.C,D8*%
X103500000Y-62690000D03*
D15*
X103500000Y-70310000D03*
%TD*%
D19*
%TO.C,R1*%
X76920000Y-88000000D03*
X87080000Y-88000000D03*
%TD*%
D14*
%TO.C,D4*%
X63500000Y-42000000D03*
D15*
X63500000Y-49620000D03*
%TD*%
D14*
%TO.C,D1*%
X123500000Y-42000000D03*
D15*
X123500000Y-49620000D03*
%TD*%
D11*
%TO.C,SW7*%
X67920000Y-63500000D03*
D12*
X73000000Y-63500000D03*
D11*
X78080000Y-63500000D03*
D10*
X75540000Y-58420000D03*
X69190000Y-60960000D03*
%TD*%
D11*
%TO.C,SW2*%
X47920000Y-43500000D03*
D12*
X53000000Y-43500000D03*
D11*
X58080000Y-43500000D03*
D10*
X55540000Y-38420000D03*
X49190000Y-40960000D03*
%TD*%
D19*
%TO.C,C1*%
X88500000Y-83000000D03*
X96000000Y-83000000D03*
%TD*%
D14*
%TO.C,D7*%
X83500000Y-62690000D03*
D15*
X83500000Y-70310000D03*
%TD*%
D14*
%TO.C,D6*%
X63500000Y-62690000D03*
D15*
X63500000Y-70310000D03*
%TD*%
D14*
%TO.C,D2*%
X103500000Y-41690000D03*
D15*
X103500000Y-49310000D03*
%TD*%
D20*
%TO.C,D10*%
X71460000Y-89500000D03*
D15*
X74000000Y-89500000D03*
%TD*%
D22*
%TO.C,SW1*%
X106500000Y-94000000D03*
D23*
X106500000Y-99000000D03*
X106500000Y-96500000D03*
D24*
X114000000Y-90900000D03*
X114000000Y-102100000D03*
D23*
X121000000Y-94000000D03*
X121000000Y-99000000D03*
%TD*%
D11*
%TO.C,SW8*%
X87920000Y-63500000D03*
D12*
X93000000Y-63500000D03*
D11*
X98080000Y-63500000D03*
D10*
X95540000Y-58420000D03*
X89190000Y-60960000D03*
%TD*%
D19*
%TO.C,C3*%
X88500000Y-76500000D03*
X96000000Y-76500000D03*
%TD*%
D11*
%TO.C,SW5*%
X107920000Y-43500000D03*
D12*
X113000000Y-43500000D03*
D11*
X118080000Y-43500000D03*
D10*
X115540000Y-38420000D03*
X109190000Y-40960000D03*
%TD*%
M02*
