%TF.GenerationSoftware,KiCad,Pcbnew,9.0.7*%
%TF.CreationDate,2026-01-20T04:17:16+09:00*%
%TF.ProjectId,LEFT_Parade,4c454654-5f50-4617-9261-64652e6b6963,rev?*%
%TF.SameCoordinates,Original*%
%TF.FileFunction,Legend,Bot*%
%TF.FilePolarity,Positive*%
%FSLAX46Y46*%
G04 Gerber Fmt 4.6, Leading zero omitted, Abs format (unit mm)*
G04 Created by KiCad (PCBNEW 9.0.7) date 2026-01-20 04:17:16*
%MOMM*%
%LPD*%
G01*
G04 APERTURE LIST*
%ADD10C,0.700000*%
%ADD11C,0.200000*%
%ADD12C,0.100000*%
%ADD13C,0.120000*%
%ADD14C,0.000000*%
G04 APERTURE END LIST*
D10*
X74628759Y-102096457D02*
X75450188Y-100667885D01*
X76343045Y-102096457D02*
X75968045Y-99096457D01*
X75968045Y-99096457D02*
X74825188Y-99096457D01*
X74825188Y-99096457D02*
X74557331Y-99239314D01*
X74557331Y-99239314D02*
X74432331Y-99382171D01*
X74432331Y-99382171D02*
X74325188Y-99667885D01*
X74325188Y-99667885D02*
X74378759Y-100096457D01*
X74378759Y-100096457D02*
X74557331Y-100382171D01*
X74557331Y-100382171D02*
X74718045Y-100525028D01*
X74718045Y-100525028D02*
X75021616Y-100667885D01*
X75021616Y-100667885D02*
X76164474Y-100667885D01*
X73343045Y-102096457D02*
X72968045Y-99096457D01*
X69985903Y-99239314D02*
X70253760Y-99096457D01*
X70253760Y-99096457D02*
X70682331Y-99096457D01*
X70682331Y-99096457D02*
X71128760Y-99239314D01*
X71128760Y-99239314D02*
X71450188Y-99525028D01*
X71450188Y-99525028D02*
X71628760Y-99810742D01*
X71628760Y-99810742D02*
X71843045Y-100382171D01*
X71843045Y-100382171D02*
X71896617Y-100810742D01*
X71896617Y-100810742D02*
X71825188Y-101382171D01*
X71825188Y-101382171D02*
X71718045Y-101667885D01*
X71718045Y-101667885D02*
X71468045Y-101953600D01*
X71468045Y-101953600D02*
X71057331Y-102096457D01*
X71057331Y-102096457D02*
X70771617Y-102096457D01*
X70771617Y-102096457D02*
X70325188Y-101953600D01*
X70325188Y-101953600D02*
X70164474Y-101810742D01*
X70164474Y-101810742D02*
X70039474Y-100810742D01*
X70039474Y-100810742D02*
X70610903Y-100810742D01*
X68914474Y-102096457D02*
X68539474Y-99096457D01*
X68718045Y-100525028D02*
X67003760Y-100525028D01*
X67200188Y-102096457D02*
X66825188Y-99096457D01*
X65825188Y-99096457D02*
X64110903Y-99096457D01*
X65343046Y-102096457D02*
X64968046Y-99096457D01*
X61200189Y-102096457D02*
X60825189Y-99096457D01*
X60825189Y-99096457D02*
X59682332Y-99096457D01*
X59682332Y-99096457D02*
X59414475Y-99239314D01*
X59414475Y-99239314D02*
X59289475Y-99382171D01*
X59289475Y-99382171D02*
X59182332Y-99667885D01*
X59182332Y-99667885D02*
X59235903Y-100096457D01*
X59235903Y-100096457D02*
X59414475Y-100382171D01*
X59414475Y-100382171D02*
X59575189Y-100525028D01*
X59575189Y-100525028D02*
X59878760Y-100667885D01*
X59878760Y-100667885D02*
X61021618Y-100667885D01*
X56914475Y-102096457D02*
X56718046Y-100525028D01*
X56718046Y-100525028D02*
X56825189Y-100239314D01*
X56825189Y-100239314D02*
X57093046Y-100096457D01*
X57093046Y-100096457D02*
X57664475Y-100096457D01*
X57664475Y-100096457D02*
X57968046Y-100239314D01*
X56896618Y-101953600D02*
X57200189Y-102096457D01*
X57200189Y-102096457D02*
X57914475Y-102096457D01*
X57914475Y-102096457D02*
X58182332Y-101953600D01*
X58182332Y-101953600D02*
X58289475Y-101667885D01*
X58289475Y-101667885D02*
X58253760Y-101382171D01*
X58253760Y-101382171D02*
X58075189Y-101096457D01*
X58075189Y-101096457D02*
X57771618Y-100953600D01*
X57771618Y-100953600D02*
X57057332Y-100953600D01*
X57057332Y-100953600D02*
X56753760Y-100810742D01*
X55485903Y-102096457D02*
X55235903Y-100096457D01*
X55307332Y-100667885D02*
X55128760Y-100382171D01*
X55128760Y-100382171D02*
X54968046Y-100239314D01*
X54968046Y-100239314D02*
X54664474Y-100096457D01*
X54664474Y-100096457D02*
X54378760Y-100096457D01*
X52343046Y-102096457D02*
X52146617Y-100525028D01*
X52146617Y-100525028D02*
X52253760Y-100239314D01*
X52253760Y-100239314D02*
X52521617Y-100096457D01*
X52521617Y-100096457D02*
X53093046Y-100096457D01*
X53093046Y-100096457D02*
X53396617Y-100239314D01*
X52325189Y-101953600D02*
X52628760Y-102096457D01*
X52628760Y-102096457D02*
X53343046Y-102096457D01*
X53343046Y-102096457D02*
X53610903Y-101953600D01*
X53610903Y-101953600D02*
X53718046Y-101667885D01*
X53718046Y-101667885D02*
X53682331Y-101382171D01*
X53682331Y-101382171D02*
X53503760Y-101096457D01*
X53503760Y-101096457D02*
X53200189Y-100953600D01*
X53200189Y-100953600D02*
X52485903Y-100953600D01*
X52485903Y-100953600D02*
X52182331Y-100810742D01*
X49628760Y-102096457D02*
X49253760Y-99096457D01*
X49610903Y-101953600D02*
X49914474Y-102096457D01*
X49914474Y-102096457D02*
X50485903Y-102096457D01*
X50485903Y-102096457D02*
X50753760Y-101953600D01*
X50753760Y-101953600D02*
X50878760Y-101810742D01*
X50878760Y-101810742D02*
X50985903Y-101525028D01*
X50985903Y-101525028D02*
X50878760Y-100667885D01*
X50878760Y-100667885D02*
X50700188Y-100382171D01*
X50700188Y-100382171D02*
X50539474Y-100239314D01*
X50539474Y-100239314D02*
X50235903Y-100096457D01*
X50235903Y-100096457D02*
X49664474Y-100096457D01*
X49664474Y-100096457D02*
X49396617Y-100239314D01*
X47039474Y-101953600D02*
X47343045Y-102096457D01*
X47343045Y-102096457D02*
X47914474Y-102096457D01*
X47914474Y-102096457D02*
X48182331Y-101953600D01*
X48182331Y-101953600D02*
X48289474Y-101667885D01*
X48289474Y-101667885D02*
X48146617Y-100525028D01*
X48146617Y-100525028D02*
X47968045Y-100239314D01*
X47968045Y-100239314D02*
X47664474Y-100096457D01*
X47664474Y-100096457D02*
X47093045Y-100096457D01*
X47093045Y-100096457D02*
X46825188Y-100239314D01*
X46825188Y-100239314D02*
X46718045Y-100525028D01*
X46718045Y-100525028D02*
X46753759Y-100810742D01*
X46753759Y-100810742D02*
X48218045Y-101096457D01*
D11*
X132756665Y-96256665D02*
G75*
G02*
X95243335Y-96256665I-18756665J0D01*
G01*
X95243335Y-96256665D02*
G75*
G02*
X132756665Y-96256665I18756665J0D01*
G01*
D12*
X54784523Y-66934800D02*
X54641666Y-66982419D01*
X54641666Y-66982419D02*
X54403571Y-66982419D01*
X54403571Y-66982419D02*
X54308333Y-66934800D01*
X54308333Y-66934800D02*
X54260714Y-66887180D01*
X54260714Y-66887180D02*
X54213095Y-66791942D01*
X54213095Y-66791942D02*
X54213095Y-66696704D01*
X54213095Y-66696704D02*
X54260714Y-66601466D01*
X54260714Y-66601466D02*
X54308333Y-66553847D01*
X54308333Y-66553847D02*
X54403571Y-66506228D01*
X54403571Y-66506228D02*
X54594047Y-66458609D01*
X54594047Y-66458609D02*
X54689285Y-66410990D01*
X54689285Y-66410990D02*
X54736904Y-66363371D01*
X54736904Y-66363371D02*
X54784523Y-66268133D01*
X54784523Y-66268133D02*
X54784523Y-66172895D01*
X54784523Y-66172895D02*
X54736904Y-66077657D01*
X54736904Y-66077657D02*
X54689285Y-66030038D01*
X54689285Y-66030038D02*
X54594047Y-65982419D01*
X54594047Y-65982419D02*
X54355952Y-65982419D01*
X54355952Y-65982419D02*
X54213095Y-66030038D01*
X53879761Y-65982419D02*
X53641666Y-66982419D01*
X53641666Y-66982419D02*
X53451190Y-66268133D01*
X53451190Y-66268133D02*
X53260714Y-66982419D01*
X53260714Y-66982419D02*
X53022619Y-65982419D01*
X52117857Y-66982419D02*
X52689285Y-66982419D01*
X52403571Y-66982419D02*
X52403571Y-65982419D01*
X52403571Y-65982419D02*
X52498809Y-66125276D01*
X52498809Y-66125276D02*
X52594047Y-66220514D01*
X52594047Y-66220514D02*
X52689285Y-66268133D01*
X51784523Y-65982419D02*
X51117857Y-65982419D01*
X51117857Y-65982419D02*
X51546428Y-66982419D01*
X74784523Y-66934800D02*
X74641666Y-66982419D01*
X74641666Y-66982419D02*
X74403571Y-66982419D01*
X74403571Y-66982419D02*
X74308333Y-66934800D01*
X74308333Y-66934800D02*
X74260714Y-66887180D01*
X74260714Y-66887180D02*
X74213095Y-66791942D01*
X74213095Y-66791942D02*
X74213095Y-66696704D01*
X74213095Y-66696704D02*
X74260714Y-66601466D01*
X74260714Y-66601466D02*
X74308333Y-66553847D01*
X74308333Y-66553847D02*
X74403571Y-66506228D01*
X74403571Y-66506228D02*
X74594047Y-66458609D01*
X74594047Y-66458609D02*
X74689285Y-66410990D01*
X74689285Y-66410990D02*
X74736904Y-66363371D01*
X74736904Y-66363371D02*
X74784523Y-66268133D01*
X74784523Y-66268133D02*
X74784523Y-66172895D01*
X74784523Y-66172895D02*
X74736904Y-66077657D01*
X74736904Y-66077657D02*
X74689285Y-66030038D01*
X74689285Y-66030038D02*
X74594047Y-65982419D01*
X74594047Y-65982419D02*
X74355952Y-65982419D01*
X74355952Y-65982419D02*
X74213095Y-66030038D01*
X73879761Y-65982419D02*
X73641666Y-66982419D01*
X73641666Y-66982419D02*
X73451190Y-66268133D01*
X73451190Y-66268133D02*
X73260714Y-66982419D01*
X73260714Y-66982419D02*
X73022619Y-65982419D01*
X72117857Y-66982419D02*
X72689285Y-66982419D01*
X72403571Y-66982419D02*
X72403571Y-65982419D01*
X72403571Y-65982419D02*
X72498809Y-66125276D01*
X72498809Y-66125276D02*
X72594047Y-66220514D01*
X72594047Y-66220514D02*
X72689285Y-66268133D01*
X71260714Y-65982419D02*
X71451190Y-65982419D01*
X71451190Y-65982419D02*
X71546428Y-66030038D01*
X71546428Y-66030038D02*
X71594047Y-66077657D01*
X71594047Y-66077657D02*
X71689285Y-66220514D01*
X71689285Y-66220514D02*
X71736904Y-66410990D01*
X71736904Y-66410990D02*
X71736904Y-66791942D01*
X71736904Y-66791942D02*
X71689285Y-66887180D01*
X71689285Y-66887180D02*
X71641666Y-66934800D01*
X71641666Y-66934800D02*
X71546428Y-66982419D01*
X71546428Y-66982419D02*
X71355952Y-66982419D01*
X71355952Y-66982419D02*
X71260714Y-66934800D01*
X71260714Y-66934800D02*
X71213095Y-66887180D01*
X71213095Y-66887180D02*
X71165476Y-66791942D01*
X71165476Y-66791942D02*
X71165476Y-66553847D01*
X71165476Y-66553847D02*
X71213095Y-66458609D01*
X71213095Y-66458609D02*
X71260714Y-66410990D01*
X71260714Y-66410990D02*
X71355952Y-66363371D01*
X71355952Y-66363371D02*
X71546428Y-66363371D01*
X71546428Y-66363371D02*
X71641666Y-66410990D01*
X71641666Y-66410990D02*
X71689285Y-66458609D01*
X71689285Y-66458609D02*
X71736904Y-66553847D01*
X94784523Y-66934800D02*
X94641666Y-66982419D01*
X94641666Y-66982419D02*
X94403571Y-66982419D01*
X94403571Y-66982419D02*
X94308333Y-66934800D01*
X94308333Y-66934800D02*
X94260714Y-66887180D01*
X94260714Y-66887180D02*
X94213095Y-66791942D01*
X94213095Y-66791942D02*
X94213095Y-66696704D01*
X94213095Y-66696704D02*
X94260714Y-66601466D01*
X94260714Y-66601466D02*
X94308333Y-66553847D01*
X94308333Y-66553847D02*
X94403571Y-66506228D01*
X94403571Y-66506228D02*
X94594047Y-66458609D01*
X94594047Y-66458609D02*
X94689285Y-66410990D01*
X94689285Y-66410990D02*
X94736904Y-66363371D01*
X94736904Y-66363371D02*
X94784523Y-66268133D01*
X94784523Y-66268133D02*
X94784523Y-66172895D01*
X94784523Y-66172895D02*
X94736904Y-66077657D01*
X94736904Y-66077657D02*
X94689285Y-66030038D01*
X94689285Y-66030038D02*
X94594047Y-65982419D01*
X94594047Y-65982419D02*
X94355952Y-65982419D01*
X94355952Y-65982419D02*
X94213095Y-66030038D01*
X93879761Y-65982419D02*
X93641666Y-66982419D01*
X93641666Y-66982419D02*
X93451190Y-66268133D01*
X93451190Y-66268133D02*
X93260714Y-66982419D01*
X93260714Y-66982419D02*
X93022619Y-65982419D01*
X92117857Y-66982419D02*
X92689285Y-66982419D01*
X92403571Y-66982419D02*
X92403571Y-65982419D01*
X92403571Y-65982419D02*
X92498809Y-66125276D01*
X92498809Y-66125276D02*
X92594047Y-66220514D01*
X92594047Y-66220514D02*
X92689285Y-66268133D01*
X91213095Y-65982419D02*
X91689285Y-65982419D01*
X91689285Y-65982419D02*
X91736904Y-66458609D01*
X91736904Y-66458609D02*
X91689285Y-66410990D01*
X91689285Y-66410990D02*
X91594047Y-66363371D01*
X91594047Y-66363371D02*
X91355952Y-66363371D01*
X91355952Y-66363371D02*
X91260714Y-66410990D01*
X91260714Y-66410990D02*
X91213095Y-66458609D01*
X91213095Y-66458609D02*
X91165476Y-66553847D01*
X91165476Y-66553847D02*
X91165476Y-66791942D01*
X91165476Y-66791942D02*
X91213095Y-66887180D01*
X91213095Y-66887180D02*
X91260714Y-66934800D01*
X91260714Y-66934800D02*
X91355952Y-66982419D01*
X91355952Y-66982419D02*
X91594047Y-66982419D01*
X91594047Y-66982419D02*
X91689285Y-66934800D01*
X91689285Y-66934800D02*
X91736904Y-66887180D01*
X114784523Y-66934800D02*
X114641666Y-66982419D01*
X114641666Y-66982419D02*
X114403571Y-66982419D01*
X114403571Y-66982419D02*
X114308333Y-66934800D01*
X114308333Y-66934800D02*
X114260714Y-66887180D01*
X114260714Y-66887180D02*
X114213095Y-66791942D01*
X114213095Y-66791942D02*
X114213095Y-66696704D01*
X114213095Y-66696704D02*
X114260714Y-66601466D01*
X114260714Y-66601466D02*
X114308333Y-66553847D01*
X114308333Y-66553847D02*
X114403571Y-66506228D01*
X114403571Y-66506228D02*
X114594047Y-66458609D01*
X114594047Y-66458609D02*
X114689285Y-66410990D01*
X114689285Y-66410990D02*
X114736904Y-66363371D01*
X114736904Y-66363371D02*
X114784523Y-66268133D01*
X114784523Y-66268133D02*
X114784523Y-66172895D01*
X114784523Y-66172895D02*
X114736904Y-66077657D01*
X114736904Y-66077657D02*
X114689285Y-66030038D01*
X114689285Y-66030038D02*
X114594047Y-65982419D01*
X114594047Y-65982419D02*
X114355952Y-65982419D01*
X114355952Y-65982419D02*
X114213095Y-66030038D01*
X113879761Y-65982419D02*
X113641666Y-66982419D01*
X113641666Y-66982419D02*
X113451190Y-66268133D01*
X113451190Y-66268133D02*
X113260714Y-66982419D01*
X113260714Y-66982419D02*
X113022619Y-65982419D01*
X112117857Y-66982419D02*
X112689285Y-66982419D01*
X112403571Y-66982419D02*
X112403571Y-65982419D01*
X112403571Y-65982419D02*
X112498809Y-66125276D01*
X112498809Y-66125276D02*
X112594047Y-66220514D01*
X112594047Y-66220514D02*
X112689285Y-66268133D01*
X111260714Y-66315752D02*
X111260714Y-66982419D01*
X111498809Y-65934800D02*
X111736904Y-66649085D01*
X111736904Y-66649085D02*
X111117857Y-66649085D01*
X54784523Y-46934800D02*
X54641666Y-46982419D01*
X54641666Y-46982419D02*
X54403571Y-46982419D01*
X54403571Y-46982419D02*
X54308333Y-46934800D01*
X54308333Y-46934800D02*
X54260714Y-46887180D01*
X54260714Y-46887180D02*
X54213095Y-46791942D01*
X54213095Y-46791942D02*
X54213095Y-46696704D01*
X54213095Y-46696704D02*
X54260714Y-46601466D01*
X54260714Y-46601466D02*
X54308333Y-46553847D01*
X54308333Y-46553847D02*
X54403571Y-46506228D01*
X54403571Y-46506228D02*
X54594047Y-46458609D01*
X54594047Y-46458609D02*
X54689285Y-46410990D01*
X54689285Y-46410990D02*
X54736904Y-46363371D01*
X54736904Y-46363371D02*
X54784523Y-46268133D01*
X54784523Y-46268133D02*
X54784523Y-46172895D01*
X54784523Y-46172895D02*
X54736904Y-46077657D01*
X54736904Y-46077657D02*
X54689285Y-46030038D01*
X54689285Y-46030038D02*
X54594047Y-45982419D01*
X54594047Y-45982419D02*
X54355952Y-45982419D01*
X54355952Y-45982419D02*
X54213095Y-46030038D01*
X53879761Y-45982419D02*
X53641666Y-46982419D01*
X53641666Y-46982419D02*
X53451190Y-46268133D01*
X53451190Y-46268133D02*
X53260714Y-46982419D01*
X53260714Y-46982419D02*
X53022619Y-45982419D01*
X52117857Y-46982419D02*
X52689285Y-46982419D01*
X52403571Y-46982419D02*
X52403571Y-45982419D01*
X52403571Y-45982419D02*
X52498809Y-46125276D01*
X52498809Y-46125276D02*
X52594047Y-46220514D01*
X52594047Y-46220514D02*
X52689285Y-46268133D01*
X51784523Y-45982419D02*
X51165476Y-45982419D01*
X51165476Y-45982419D02*
X51498809Y-46363371D01*
X51498809Y-46363371D02*
X51355952Y-46363371D01*
X51355952Y-46363371D02*
X51260714Y-46410990D01*
X51260714Y-46410990D02*
X51213095Y-46458609D01*
X51213095Y-46458609D02*
X51165476Y-46553847D01*
X51165476Y-46553847D02*
X51165476Y-46791942D01*
X51165476Y-46791942D02*
X51213095Y-46887180D01*
X51213095Y-46887180D02*
X51260714Y-46934800D01*
X51260714Y-46934800D02*
X51355952Y-46982419D01*
X51355952Y-46982419D02*
X51641666Y-46982419D01*
X51641666Y-46982419D02*
X51736904Y-46934800D01*
X51736904Y-46934800D02*
X51784523Y-46887180D01*
X74784523Y-46934800D02*
X74641666Y-46982419D01*
X74641666Y-46982419D02*
X74403571Y-46982419D01*
X74403571Y-46982419D02*
X74308333Y-46934800D01*
X74308333Y-46934800D02*
X74260714Y-46887180D01*
X74260714Y-46887180D02*
X74213095Y-46791942D01*
X74213095Y-46791942D02*
X74213095Y-46696704D01*
X74213095Y-46696704D02*
X74260714Y-46601466D01*
X74260714Y-46601466D02*
X74308333Y-46553847D01*
X74308333Y-46553847D02*
X74403571Y-46506228D01*
X74403571Y-46506228D02*
X74594047Y-46458609D01*
X74594047Y-46458609D02*
X74689285Y-46410990D01*
X74689285Y-46410990D02*
X74736904Y-46363371D01*
X74736904Y-46363371D02*
X74784523Y-46268133D01*
X74784523Y-46268133D02*
X74784523Y-46172895D01*
X74784523Y-46172895D02*
X74736904Y-46077657D01*
X74736904Y-46077657D02*
X74689285Y-46030038D01*
X74689285Y-46030038D02*
X74594047Y-45982419D01*
X74594047Y-45982419D02*
X74355952Y-45982419D01*
X74355952Y-45982419D02*
X74213095Y-46030038D01*
X73879761Y-45982419D02*
X73641666Y-46982419D01*
X73641666Y-46982419D02*
X73451190Y-46268133D01*
X73451190Y-46268133D02*
X73260714Y-46982419D01*
X73260714Y-46982419D02*
X73022619Y-45982419D01*
X72117857Y-46982419D02*
X72689285Y-46982419D01*
X72403571Y-46982419D02*
X72403571Y-45982419D01*
X72403571Y-45982419D02*
X72498809Y-46125276D01*
X72498809Y-46125276D02*
X72594047Y-46220514D01*
X72594047Y-46220514D02*
X72689285Y-46268133D01*
X71736904Y-46077657D02*
X71689285Y-46030038D01*
X71689285Y-46030038D02*
X71594047Y-45982419D01*
X71594047Y-45982419D02*
X71355952Y-45982419D01*
X71355952Y-45982419D02*
X71260714Y-46030038D01*
X71260714Y-46030038D02*
X71213095Y-46077657D01*
X71213095Y-46077657D02*
X71165476Y-46172895D01*
X71165476Y-46172895D02*
X71165476Y-46268133D01*
X71165476Y-46268133D02*
X71213095Y-46410990D01*
X71213095Y-46410990D02*
X71784523Y-46982419D01*
X71784523Y-46982419D02*
X71165476Y-46982419D01*
X114784523Y-46934800D02*
X114641666Y-46982419D01*
X114641666Y-46982419D02*
X114403571Y-46982419D01*
X114403571Y-46982419D02*
X114308333Y-46934800D01*
X114308333Y-46934800D02*
X114260714Y-46887180D01*
X114260714Y-46887180D02*
X114213095Y-46791942D01*
X114213095Y-46791942D02*
X114213095Y-46696704D01*
X114213095Y-46696704D02*
X114260714Y-46601466D01*
X114260714Y-46601466D02*
X114308333Y-46553847D01*
X114308333Y-46553847D02*
X114403571Y-46506228D01*
X114403571Y-46506228D02*
X114594047Y-46458609D01*
X114594047Y-46458609D02*
X114689285Y-46410990D01*
X114689285Y-46410990D02*
X114736904Y-46363371D01*
X114736904Y-46363371D02*
X114784523Y-46268133D01*
X114784523Y-46268133D02*
X114784523Y-46172895D01*
X114784523Y-46172895D02*
X114736904Y-46077657D01*
X114736904Y-46077657D02*
X114689285Y-46030038D01*
X114689285Y-46030038D02*
X114594047Y-45982419D01*
X114594047Y-45982419D02*
X114355952Y-45982419D01*
X114355952Y-45982419D02*
X114213095Y-46030038D01*
X113879761Y-45982419D02*
X113641666Y-46982419D01*
X113641666Y-46982419D02*
X113451190Y-46268133D01*
X113451190Y-46268133D02*
X113260714Y-46982419D01*
X113260714Y-46982419D02*
X113022619Y-45982419D01*
X112117857Y-46982419D02*
X112689285Y-46982419D01*
X112403571Y-46982419D02*
X112403571Y-45982419D01*
X112403571Y-45982419D02*
X112498809Y-46125276D01*
X112498809Y-46125276D02*
X112594047Y-46220514D01*
X112594047Y-46220514D02*
X112689285Y-46268133D01*
X111498809Y-45982419D02*
X111403571Y-45982419D01*
X111403571Y-45982419D02*
X111308333Y-46030038D01*
X111308333Y-46030038D02*
X111260714Y-46077657D01*
X111260714Y-46077657D02*
X111213095Y-46172895D01*
X111213095Y-46172895D02*
X111165476Y-46363371D01*
X111165476Y-46363371D02*
X111165476Y-46601466D01*
X111165476Y-46601466D02*
X111213095Y-46791942D01*
X111213095Y-46791942D02*
X111260714Y-46887180D01*
X111260714Y-46887180D02*
X111308333Y-46934800D01*
X111308333Y-46934800D02*
X111403571Y-46982419D01*
X111403571Y-46982419D02*
X111498809Y-46982419D01*
X111498809Y-46982419D02*
X111594047Y-46934800D01*
X111594047Y-46934800D02*
X111641666Y-46887180D01*
X111641666Y-46887180D02*
X111689285Y-46791942D01*
X111689285Y-46791942D02*
X111736904Y-46601466D01*
X111736904Y-46601466D02*
X111736904Y-46363371D01*
X111736904Y-46363371D02*
X111689285Y-46172895D01*
X111689285Y-46172895D02*
X111641666Y-46077657D01*
X111641666Y-46077657D02*
X111594047Y-46030038D01*
X111594047Y-46030038D02*
X111498809Y-45982419D01*
D13*
%TO.C,SW17*%
X46015000Y-56515000D02*
X46015000Y-70485000D01*
X46015000Y-70485000D02*
X59985000Y-70485000D01*
X59985000Y-56515000D02*
X46015000Y-56515000D01*
X59985000Y-70485000D02*
X59985000Y-56515000D01*
%TO.C,SW16*%
X66015000Y-56515000D02*
X66015000Y-70485000D01*
X66015000Y-70485000D02*
X79985000Y-70485000D01*
X79985000Y-56515000D02*
X66015000Y-56515000D01*
X79985000Y-70485000D02*
X79985000Y-56515000D01*
%TO.C,SW15*%
X86015000Y-56515000D02*
X86015000Y-70485000D01*
X86015000Y-70485000D02*
X99985000Y-70485000D01*
X99985000Y-56515000D02*
X86015000Y-56515000D01*
X99985000Y-70485000D02*
X99985000Y-56515000D01*
%TO.C,SW14*%
X106015000Y-56515000D02*
X106015000Y-70485000D01*
X106015000Y-70485000D02*
X119985000Y-70485000D01*
X119985000Y-56515000D02*
X106015000Y-56515000D01*
X119985000Y-70485000D02*
X119985000Y-56515000D01*
%TO.C,SW13*%
X46015000Y-36515000D02*
X46015000Y-50485000D01*
X46015000Y-50485000D02*
X59985000Y-50485000D01*
X59985000Y-36515000D02*
X46015000Y-36515000D01*
X59985000Y-50485000D02*
X59985000Y-36515000D01*
%TO.C,SW12*%
X66015000Y-36515000D02*
X66015000Y-50485000D01*
X66015000Y-50485000D02*
X79985000Y-50485000D01*
X79985000Y-36515000D02*
X66015000Y-36515000D01*
X79985000Y-50485000D02*
X79985000Y-36515000D01*
%TO.C,SW11*%
X86015000Y-36515000D02*
X86015000Y-50485000D01*
X86015000Y-50485000D02*
X99985000Y-50485000D01*
X99985000Y-36515000D02*
X86015000Y-36515000D01*
X99985000Y-50485000D02*
X99985000Y-36515000D01*
%TO.C,SW10*%
X106015000Y-36515000D02*
X106015000Y-50485000D01*
X106015000Y-50485000D02*
X119985000Y-50485000D01*
X119985000Y-36515000D02*
X106015000Y-36515000D01*
X119985000Y-50485000D02*
X119985000Y-36515000D01*
D14*
%TO.C,G\u002A\u002A\u002A*%
G36*
X87283069Y-100537517D02*
G01*
X87302564Y-100557019D01*
X87302564Y-100966906D01*
X87302564Y-101376793D01*
X87283069Y-101396294D01*
X87263574Y-101415795D01*
X86533578Y-101415795D01*
X86466608Y-101415795D01*
X86350422Y-101415781D01*
X86248621Y-101415732D01*
X86160221Y-101415627D01*
X86084237Y-101415445D01*
X86019685Y-101415163D01*
X85965581Y-101414760D01*
X85920941Y-101414214D01*
X85884780Y-101413504D01*
X85856115Y-101412609D01*
X85833961Y-101411506D01*
X85817334Y-101410175D01*
X85805249Y-101408593D01*
X85796723Y-101406739D01*
X85790771Y-101404591D01*
X85786410Y-101402128D01*
X85782654Y-101399329D01*
X85761726Y-101382862D01*
X85761726Y-101201282D01*
X85761726Y-101019701D01*
X85782654Y-101003235D01*
X85785654Y-101000954D01*
X85790522Y-100997961D01*
X85796928Y-100995422D01*
X85806067Y-100993299D01*
X85819135Y-100991555D01*
X85837328Y-100990153D01*
X85861841Y-100989055D01*
X85893870Y-100988225D01*
X85934610Y-100987624D01*
X85985257Y-100987217D01*
X86047007Y-100986965D01*
X86121055Y-100986831D01*
X86208597Y-100986778D01*
X86310828Y-100986768D01*
X86818074Y-100986768D01*
X86818074Y-100771893D01*
X86818074Y-100557019D01*
X86837569Y-100537517D01*
X86857064Y-100518016D01*
X87060319Y-100518016D01*
X87263574Y-100518016D01*
X87283069Y-100537517D01*
G37*
G36*
X90619586Y-101461217D02*
G01*
X90643403Y-101462694D01*
X90716759Y-101476247D01*
X90785983Y-101502152D01*
X90849174Y-101538909D01*
X90904435Y-101585019D01*
X90949866Y-101638982D01*
X90983568Y-101699300D01*
X91003642Y-101764471D01*
X91004500Y-101770467D01*
X91006432Y-101794998D01*
X91008157Y-101832096D01*
X91009609Y-101879420D01*
X91010725Y-101934630D01*
X91011442Y-101995387D01*
X91011695Y-102059349D01*
X91011691Y-102087948D01*
X91011609Y-102152375D01*
X91011340Y-102203358D01*
X91010776Y-102242666D01*
X91009810Y-102272067D01*
X91008337Y-102293329D01*
X91006250Y-102308221D01*
X91003441Y-102318513D01*
X90999805Y-102325971D01*
X90995234Y-102332366D01*
X90978772Y-102353299D01*
X90769450Y-102353299D01*
X90560128Y-102353299D01*
X90543666Y-102332366D01*
X90543213Y-102331786D01*
X90539596Y-102326707D01*
X90536570Y-102320643D01*
X90534082Y-102312240D01*
X90532078Y-102300142D01*
X90530507Y-102282995D01*
X90529316Y-102259443D01*
X90528452Y-102228132D01*
X90527863Y-102187706D01*
X90527496Y-102136810D01*
X90527299Y-102074089D01*
X90527220Y-101998189D01*
X90527205Y-101907754D01*
X90527205Y-101504076D01*
X90546418Y-101481784D01*
X90548185Y-101479752D01*
X90559481Y-101468695D01*
X90571866Y-101462842D01*
X90590261Y-101460811D01*
X90619586Y-101461217D01*
G37*
G36*
X83124577Y-100988272D02*
G01*
X83225163Y-100988541D01*
X83311618Y-100988973D01*
X83384319Y-100989570D01*
X83443642Y-100990335D01*
X83489963Y-100991271D01*
X83523659Y-100992381D01*
X83545104Y-100993667D01*
X83554677Y-100995131D01*
X83570290Y-101005408D01*
X83584461Y-101023431D01*
X83585593Y-101027263D01*
X83588067Y-101046611D01*
X83590058Y-101077576D01*
X83591549Y-101117120D01*
X83592522Y-101162204D01*
X83592960Y-101209791D01*
X83592846Y-101256842D01*
X83592162Y-101300318D01*
X83590890Y-101337182D01*
X83589013Y-101364395D01*
X83586513Y-101378918D01*
X83577972Y-101391192D01*
X83561258Y-101404457D01*
X83556986Y-101405917D01*
X83547628Y-101407466D01*
X83532823Y-101408844D01*
X83511767Y-101410060D01*
X83483657Y-101411125D01*
X83447691Y-101412046D01*
X83403066Y-101412835D01*
X83348979Y-101413500D01*
X83284627Y-101414052D01*
X83209207Y-101414500D01*
X83121916Y-101414853D01*
X83021952Y-101415121D01*
X82908512Y-101415315D01*
X82780793Y-101415442D01*
X82637991Y-101415514D01*
X81734175Y-101415795D01*
X81714680Y-101396294D01*
X81695185Y-101376793D01*
X81695185Y-101202523D01*
X81695196Y-101179807D01*
X81695388Y-101127582D01*
X81695953Y-101088278D01*
X81697063Y-101059722D01*
X81698889Y-101039740D01*
X81701601Y-101026158D01*
X81705370Y-101016801D01*
X81710367Y-101009497D01*
X81725549Y-100990741D01*
X82629707Y-100988635D01*
X82734273Y-100988417D01*
X82879508Y-100988213D01*
X83009484Y-100988164D01*
X83124577Y-100988272D01*
G37*
G36*
X83311845Y-101456590D02*
G01*
X83366018Y-101457086D01*
X83555123Y-101459493D01*
X83574279Y-101481784D01*
X83593434Y-101504076D01*
X83593434Y-101907754D01*
X83593434Y-101918878D01*
X83593414Y-102007582D01*
X83593324Y-102081906D01*
X83593110Y-102143205D01*
X83592721Y-102192835D01*
X83592103Y-102232150D01*
X83591204Y-102262505D01*
X83589972Y-102285256D01*
X83588354Y-102301757D01*
X83586298Y-102313363D01*
X83583750Y-102321430D01*
X83580659Y-102327312D01*
X83576972Y-102332366D01*
X83560511Y-102353299D01*
X82644309Y-102353299D01*
X81728108Y-102353299D01*
X81711646Y-102332366D01*
X81708955Y-102328797D01*
X81704129Y-102320617D01*
X81700581Y-102310058D01*
X81698117Y-102294867D01*
X81696541Y-102272793D01*
X81695657Y-102241585D01*
X81695270Y-102198991D01*
X81695185Y-102142758D01*
X81695199Y-102115165D01*
X81695398Y-102065459D01*
X81695989Y-102028359D01*
X81697165Y-102001615D01*
X81699124Y-101982973D01*
X81702060Y-101970183D01*
X81706169Y-101960993D01*
X81711646Y-101953151D01*
X81728108Y-101932217D01*
X82418526Y-101932217D01*
X83108943Y-101932217D01*
X83108943Y-101715229D01*
X83108959Y-101674272D01*
X83109111Y-101618478D01*
X83109533Y-101575520D01*
X83110356Y-101543499D01*
X83111710Y-101520515D01*
X83113725Y-101504667D01*
X83116533Y-101494057D01*
X83120264Y-101486784D01*
X83125048Y-101480949D01*
X83140265Y-101468338D01*
X83159032Y-101459169D01*
X83165103Y-101458418D01*
X83186372Y-101457439D01*
X83219560Y-101456791D01*
X83262205Y-101456500D01*
X83311845Y-101456590D01*
G37*
G36*
X90597609Y-100986940D02*
G01*
X90681615Y-100987121D01*
X90752886Y-100987497D01*
X90812509Y-100988132D01*
X90861568Y-100989091D01*
X90901148Y-100990438D01*
X90932335Y-100992237D01*
X90956213Y-100994552D01*
X90973867Y-100997447D01*
X90986383Y-101000987D01*
X90994846Y-101005236D01*
X91000339Y-101010258D01*
X91003950Y-101016116D01*
X91006761Y-101022876D01*
X91007270Y-101025109D01*
X91008681Y-101041401D01*
X91009898Y-101070195D01*
X91010851Y-101108959D01*
X91011473Y-101155160D01*
X91011695Y-101206265D01*
X91011695Y-101207605D01*
X91011655Y-101263472D01*
X91011382Y-101305702D01*
X91010652Y-101336502D01*
X91009236Y-101358079D01*
X91006910Y-101372640D01*
X91003446Y-101382392D01*
X90998618Y-101389541D01*
X90992200Y-101396294D01*
X90972705Y-101415795D01*
X90242708Y-101415795D01*
X90175739Y-101415795D01*
X90059553Y-101415781D01*
X89957752Y-101415732D01*
X89869351Y-101415627D01*
X89793367Y-101415445D01*
X89728815Y-101415163D01*
X89674712Y-101414760D01*
X89630071Y-101414214D01*
X89593911Y-101413504D01*
X89565246Y-101412609D01*
X89543092Y-101411506D01*
X89526465Y-101410175D01*
X89514380Y-101408593D01*
X89505854Y-101406739D01*
X89499902Y-101404591D01*
X89495540Y-101402128D01*
X89491784Y-101399329D01*
X89479284Y-101387072D01*
X89472546Y-101370714D01*
X89470857Y-101345156D01*
X89472012Y-101321345D01*
X89485299Y-101259710D01*
X89512065Y-101200076D01*
X89550583Y-101144336D01*
X89599122Y-101094384D01*
X89655956Y-101052114D01*
X89719353Y-101019420D01*
X89787587Y-100998196D01*
X89789205Y-100997864D01*
X89803259Y-100995654D01*
X89822316Y-100993747D01*
X89847465Y-100992124D01*
X89879794Y-100990763D01*
X89920391Y-100989644D01*
X89970344Y-100988749D01*
X90030741Y-100988056D01*
X90102671Y-100987545D01*
X90187221Y-100987197D01*
X90285479Y-100986990D01*
X90398534Y-100986906D01*
X90499785Y-100986891D01*
X90597609Y-100986940D01*
G37*
G36*
X79635082Y-100518256D02*
G01*
X79678416Y-100518656D01*
X79710756Y-100519453D01*
X79733970Y-100520771D01*
X79749924Y-100522731D01*
X79760487Y-100525458D01*
X79767525Y-100529075D01*
X79772907Y-100533704D01*
X79779012Y-100540312D01*
X79785625Y-100550193D01*
X79790435Y-100563012D01*
X79793670Y-100580925D01*
X79795559Y-100606092D01*
X79796329Y-100640669D01*
X79796209Y-100686815D01*
X79795427Y-100746687D01*
X79795153Y-100767670D01*
X79794537Y-100823769D01*
X79792879Y-100866474D01*
X79788347Y-100897631D01*
X79779108Y-100919088D01*
X79763330Y-100932692D01*
X79739179Y-100940290D01*
X79704825Y-100943729D01*
X79658433Y-100944857D01*
X79598172Y-100945520D01*
X79439525Y-100947970D01*
X79439525Y-101632246D01*
X79439525Y-102316523D01*
X79422256Y-102334911D01*
X79417689Y-102339573D01*
X79411720Y-102344086D01*
X79403464Y-102347482D01*
X79390979Y-102349921D01*
X79372323Y-102351560D01*
X79345552Y-102352559D01*
X79308724Y-102353076D01*
X79259896Y-102353270D01*
X79197126Y-102353299D01*
X79187279Y-102353298D01*
X79126183Y-102353203D01*
X79078800Y-102352862D01*
X79043229Y-102352150D01*
X79017566Y-102350941D01*
X78999911Y-102349108D01*
X78988361Y-102346524D01*
X78981014Y-102343063D01*
X78975967Y-102338599D01*
X78974540Y-102336696D01*
X78972491Y-102332161D01*
X78970700Y-102324947D01*
X78969155Y-102314110D01*
X78967841Y-102298707D01*
X78966745Y-102277793D01*
X78965853Y-102250426D01*
X78965153Y-102215661D01*
X78964630Y-102172556D01*
X78964271Y-102120165D01*
X78964063Y-102057547D01*
X78963991Y-101983757D01*
X78964044Y-101897852D01*
X78964206Y-101798887D01*
X78964465Y-101685920D01*
X78964808Y-101558007D01*
X78966948Y-100792117D01*
X78990776Y-100744447D01*
X79004958Y-100719995D01*
X79038017Y-100676401D01*
X79078809Y-100633606D01*
X79122999Y-100595974D01*
X79166249Y-100567871D01*
X79187800Y-100556927D01*
X79213918Y-100545489D01*
X79240687Y-100536518D01*
X79270285Y-100529722D01*
X79304885Y-100524807D01*
X79346663Y-100521483D01*
X79397795Y-100519457D01*
X79460456Y-100518438D01*
X79536820Y-100518134D01*
X79578887Y-100518129D01*
X79635082Y-100518256D01*
G37*
G36*
X87016563Y-101456290D02*
G01*
X87082863Y-101457033D01*
X87264255Y-101459493D01*
X87283410Y-101481784D01*
X87302564Y-101504076D01*
X87302564Y-101907754D01*
X87302564Y-101918878D01*
X87302545Y-102007582D01*
X87302454Y-102081906D01*
X87302241Y-102143205D01*
X87301851Y-102192835D01*
X87301234Y-102232150D01*
X87300335Y-102262505D01*
X87299103Y-102285256D01*
X87297485Y-102301757D01*
X87295429Y-102313363D01*
X87292881Y-102321430D01*
X87289790Y-102327312D01*
X87286103Y-102332366D01*
X87269642Y-102353299D01*
X86531569Y-102353299D01*
X86473113Y-102353299D01*
X86355119Y-102353284D01*
X86251597Y-102353234D01*
X86161576Y-102353129D01*
X86084084Y-102352948D01*
X86018148Y-102352671D01*
X85962797Y-102352277D01*
X85917059Y-102351746D01*
X85879962Y-102351057D01*
X85850534Y-102350190D01*
X85827802Y-102349124D01*
X85810795Y-102347839D01*
X85798541Y-102346314D01*
X85790067Y-102344530D01*
X85784403Y-102342464D01*
X85780575Y-102340098D01*
X85777611Y-102337409D01*
X85773915Y-102333349D01*
X85769648Y-102326346D01*
X85766509Y-102316120D01*
X85764328Y-102300560D01*
X85762931Y-102277555D01*
X85762147Y-102244994D01*
X85761803Y-102200765D01*
X85761726Y-102142758D01*
X85761759Y-102101127D01*
X85762002Y-102052861D01*
X85762631Y-102016916D01*
X85763820Y-101991180D01*
X85765740Y-101973542D01*
X85768564Y-101961891D01*
X85772464Y-101954117D01*
X85777611Y-101948107D01*
X85779738Y-101946089D01*
X85783780Y-101943187D01*
X85789574Y-101940720D01*
X85798298Y-101938654D01*
X85811129Y-101936953D01*
X85829247Y-101935581D01*
X85853827Y-101934503D01*
X85886048Y-101933684D01*
X85927088Y-101933088D01*
X85978124Y-101932680D01*
X86040334Y-101932424D01*
X86114895Y-101932286D01*
X86202987Y-101932228D01*
X86305785Y-101932217D01*
X86818074Y-101932217D01*
X86818074Y-101715229D01*
X86818088Y-101677502D01*
X86818235Y-101620961D01*
X86818649Y-101577359D01*
X86819458Y-101544798D01*
X86820791Y-101521381D01*
X86822776Y-101505212D01*
X86825541Y-101494393D01*
X86829216Y-101487028D01*
X86833928Y-101481219D01*
X86835495Y-101479575D01*
X86844501Y-101471888D01*
X86855921Y-101465966D01*
X86871680Y-101461623D01*
X86893700Y-101458670D01*
X86923905Y-101456921D01*
X86964218Y-101456190D01*
X87016563Y-101456290D01*
G37*
G36*
X80527325Y-100986932D02*
G01*
X80646500Y-100987029D01*
X80751342Y-100987209D01*
X80842829Y-100987484D01*
X80921939Y-100987871D01*
X80989652Y-100988383D01*
X81046946Y-100989035D01*
X81094801Y-100989843D01*
X81134194Y-100990821D01*
X81166104Y-100991983D01*
X81191510Y-100993344D01*
X81211391Y-100994920D01*
X81226726Y-100996724D01*
X81238493Y-100998772D01*
X81256329Y-101002950D01*
X81327073Y-101028027D01*
X81391760Y-101064385D01*
X81448462Y-101110248D01*
X81495248Y-101163837D01*
X81530190Y-101223374D01*
X81551357Y-101287081D01*
X81552133Y-101290833D01*
X81558660Y-101330208D01*
X81559155Y-101358554D01*
X81553273Y-101379405D01*
X81540668Y-101396294D01*
X81521173Y-101415795D01*
X80833789Y-101415795D01*
X80146404Y-101415795D01*
X80146404Y-101674006D01*
X80146404Y-101932217D01*
X80611039Y-101932217D01*
X81075673Y-101932217D01*
X81075673Y-101718147D01*
X81075673Y-101504076D01*
X81094873Y-101481784D01*
X81103301Y-101472752D01*
X81116032Y-101464221D01*
X81133351Y-101460687D01*
X81160877Y-101460325D01*
X81238741Y-101468737D01*
X81315204Y-101492201D01*
X81385871Y-101530293D01*
X81449859Y-101582639D01*
X81471159Y-101604092D01*
X81493771Y-101629149D01*
X81512211Y-101653828D01*
X81526899Y-101679938D01*
X81538258Y-101709285D01*
X81546711Y-101743676D01*
X81552680Y-101784918D01*
X81556587Y-101834818D01*
X81558855Y-101895183D01*
X81559906Y-101967820D01*
X81560163Y-102054535D01*
X81560149Y-102112211D01*
X81560036Y-102172278D01*
X81559718Y-102219519D01*
X81559089Y-102255648D01*
X81558045Y-102282375D01*
X81556479Y-102301413D01*
X81554286Y-102314474D01*
X81551362Y-102323269D01*
X81547599Y-102329511D01*
X81542894Y-102334911D01*
X81525624Y-102353299D01*
X80766518Y-102353205D01*
X80634727Y-102353149D01*
X80517326Y-102353009D01*
X80414069Y-102352772D01*
X80324086Y-102352426D01*
X80246504Y-102351961D01*
X80180451Y-102351364D01*
X80125055Y-102350623D01*
X80079445Y-102349728D01*
X80042748Y-102348666D01*
X80014093Y-102347426D01*
X79992607Y-102345996D01*
X79977420Y-102344365D01*
X79967658Y-102342520D01*
X79895357Y-102316400D01*
X79827015Y-102277081D01*
X79767825Y-102227018D01*
X79719636Y-102167789D01*
X79684300Y-102100971D01*
X79665890Y-102055364D01*
X79663515Y-101551454D01*
X79663140Y-101457698D01*
X79662934Y-101356169D01*
X79663017Y-101269438D01*
X79663397Y-101196903D01*
X79664081Y-101137964D01*
X79665077Y-101092018D01*
X79666391Y-101058465D01*
X79668032Y-101036704D01*
X79670006Y-101026132D01*
X79680723Y-101009825D01*
X79698566Y-100995744D01*
X79706762Y-100994150D01*
X79725477Y-100992661D01*
X79755083Y-100991360D01*
X79796134Y-100990239D01*
X79849186Y-100989292D01*
X79914793Y-100988513D01*
X79993510Y-100987896D01*
X80085892Y-100987432D01*
X80192494Y-100987118D01*
X80313871Y-100986944D01*
X80450577Y-100986906D01*
X80527325Y-100986932D01*
G37*
G36*
X84532497Y-100988526D02*
G01*
X85297092Y-100990741D01*
X85354405Y-101011699D01*
X85359457Y-101013579D01*
X85429702Y-101047014D01*
X85490824Y-101089976D01*
X85541484Y-101140870D01*
X85580346Y-101198102D01*
X85606074Y-101260078D01*
X85617330Y-101325203D01*
X85617953Y-101337333D01*
X85618449Y-101362613D01*
X85616169Y-101378226D01*
X85609953Y-101388733D01*
X85598642Y-101398694D01*
X85576908Y-101415795D01*
X84894927Y-101415795D01*
X84212946Y-101415795D01*
X84212946Y-101674006D01*
X84212946Y-101932217D01*
X84677580Y-101932217D01*
X85142214Y-101932217D01*
X85142214Y-101717181D01*
X85142415Y-101665576D01*
X85143130Y-101610283D01*
X85144297Y-101562861D01*
X85145852Y-101525315D01*
X85147726Y-101499649D01*
X85149853Y-101487867D01*
X85159662Y-101475209D01*
X85182711Y-101463108D01*
X85216980Y-101459062D01*
X85263879Y-101462761D01*
X85279599Y-101465195D01*
X85359924Y-101485964D01*
X85432273Y-101519042D01*
X85495316Y-101563528D01*
X85547723Y-101618517D01*
X85588165Y-101683106D01*
X85614791Y-101737183D01*
X85617157Y-102031338D01*
X85617478Y-102071436D01*
X85617979Y-102140106D01*
X85618235Y-102195260D01*
X85618171Y-102238475D01*
X85617710Y-102271333D01*
X85616777Y-102295412D01*
X85615296Y-102312291D01*
X85613192Y-102323550D01*
X85610388Y-102330767D01*
X85606808Y-102335523D01*
X85602378Y-102339396D01*
X85599681Y-102341239D01*
X85594792Y-102343355D01*
X85587408Y-102345210D01*
X85576575Y-102346819D01*
X85561334Y-102348201D01*
X85540730Y-102349373D01*
X85513806Y-102350351D01*
X85479606Y-102351153D01*
X85437173Y-102351797D01*
X85385551Y-102352299D01*
X85323783Y-102352676D01*
X85250912Y-102352946D01*
X85165983Y-102353127D01*
X85068038Y-102353234D01*
X84956121Y-102353286D01*
X84829276Y-102353299D01*
X84817617Y-102353299D01*
X84688555Y-102353307D01*
X84574280Y-102353288D01*
X84473781Y-102353186D01*
X84386047Y-102352944D01*
X84310067Y-102352507D01*
X84244827Y-102351819D01*
X84189319Y-102350824D01*
X84142529Y-102349466D01*
X84103446Y-102347688D01*
X84071059Y-102345435D01*
X84044356Y-102342650D01*
X84022327Y-102339278D01*
X84003958Y-102335263D01*
X83988240Y-102330548D01*
X83974160Y-102325078D01*
X83960707Y-102318796D01*
X83946869Y-102311647D01*
X83931635Y-102303574D01*
X83899809Y-102283848D01*
X83860057Y-102252629D01*
X83822095Y-102216703D01*
X83790051Y-102180032D01*
X83768052Y-102146576D01*
X83766876Y-102144273D01*
X83759324Y-102129119D01*
X83752839Y-102114623D01*
X83747338Y-102099512D01*
X83742740Y-102082513D01*
X83738965Y-102062353D01*
X83735930Y-102037760D01*
X83733554Y-102007460D01*
X83731757Y-101970180D01*
X83730455Y-101924648D01*
X83729569Y-101869591D01*
X83729017Y-101803735D01*
X83728718Y-101725808D01*
X83728589Y-101634538D01*
X83728550Y-101528650D01*
X83728456Y-101025771D01*
X83748179Y-101006041D01*
X83767903Y-100986311D01*
X84532497Y-100988526D01*
G37*
G36*
X88217572Y-100986906D02*
G01*
X88312556Y-100986923D01*
X88432175Y-100986970D01*
X88537664Y-100987093D01*
X88630045Y-100987349D01*
X88710342Y-100987794D01*
X88779575Y-100988483D01*
X88838769Y-100989471D01*
X88888944Y-100990815D01*
X88931123Y-100992570D01*
X88966330Y-100994793D01*
X88995585Y-100997538D01*
X89019912Y-101000861D01*
X89040333Y-101004819D01*
X89057870Y-101009467D01*
X89073546Y-101014860D01*
X89088382Y-101021054D01*
X89103402Y-101028106D01*
X89119628Y-101036070D01*
X89123378Y-101037950D01*
X89173851Y-101069754D01*
X89222070Y-101111101D01*
X89263608Y-101157699D01*
X89294040Y-101205254D01*
X89306785Y-101231970D01*
X89319530Y-101265999D01*
X89326371Y-101299397D01*
X89329252Y-101339580D01*
X89329354Y-101342961D01*
X89328397Y-101367210D01*
X89322366Y-101383081D01*
X89308929Y-101397181D01*
X89287295Y-101415795D01*
X88604686Y-101415795D01*
X87922077Y-101415795D01*
X87922077Y-101674006D01*
X87922077Y-101932217D01*
X88386711Y-101932217D01*
X88851345Y-101932217D01*
X88851345Y-101717181D01*
X88851546Y-101665576D01*
X88852260Y-101610283D01*
X88853428Y-101562861D01*
X88854982Y-101525315D01*
X88856857Y-101499649D01*
X88858984Y-101487867D01*
X88868793Y-101475209D01*
X88891842Y-101463108D01*
X88926111Y-101459062D01*
X88973009Y-101462761D01*
X89047750Y-101478963D01*
X89121195Y-101508019D01*
X89185578Y-101547958D01*
X89239725Y-101597686D01*
X89282460Y-101656105D01*
X89312609Y-101722121D01*
X89328995Y-101794638D01*
X89329200Y-101796435D01*
X89331055Y-101822267D01*
X89332565Y-101860978D01*
X89333683Y-101909838D01*
X89334361Y-101966117D01*
X89334550Y-102027082D01*
X89334202Y-102090005D01*
X89331864Y-102322943D01*
X89313114Y-102338121D01*
X89311919Y-102339056D01*
X89308079Y-102341488D01*
X89302800Y-102343627D01*
X89295117Y-102345491D01*
X89284069Y-102347098D01*
X89268691Y-102348469D01*
X89248021Y-102349622D01*
X89221097Y-102350575D01*
X89186954Y-102351348D01*
X89144630Y-102351960D01*
X89093163Y-102352428D01*
X89031588Y-102352773D01*
X88958944Y-102353013D01*
X88874266Y-102353166D01*
X88776593Y-102353253D01*
X88664961Y-102353291D01*
X88538406Y-102353299D01*
X88526311Y-102353299D01*
X88397257Y-102353307D01*
X88282989Y-102353288D01*
X88182495Y-102353184D01*
X88094766Y-102352941D01*
X88018791Y-102352502D01*
X87953559Y-102351811D01*
X87898059Y-102350812D01*
X87851281Y-102349448D01*
X87812215Y-102347663D01*
X87779850Y-102345401D01*
X87753175Y-102342606D01*
X87731179Y-102339222D01*
X87712853Y-102335193D01*
X87697186Y-102330461D01*
X87683166Y-102324972D01*
X87669784Y-102318669D01*
X87656029Y-102311496D01*
X87640890Y-102303396D01*
X87605414Y-102280974D01*
X87566613Y-102250090D01*
X87529843Y-102215260D01*
X87499104Y-102180282D01*
X87478394Y-102148959D01*
X87477817Y-102147825D01*
X87469923Y-102131925D01*
X87463135Y-102116735D01*
X87457371Y-102100978D01*
X87452545Y-102083375D01*
X87448576Y-102062651D01*
X87445379Y-102037529D01*
X87442870Y-102006732D01*
X87440967Y-101968983D01*
X87439586Y-101923005D01*
X87438644Y-101867522D01*
X87438056Y-101801256D01*
X87437739Y-101722930D01*
X87437611Y-101631269D01*
X87437586Y-101524994D01*
X87437586Y-101025771D01*
X87457081Y-101006269D01*
X87476577Y-100986768D01*
X88217572Y-100986906D01*
G37*
G36*
X92155708Y-100986769D02*
G01*
X92287793Y-100986777D01*
X92405272Y-100986808D01*
X92509026Y-100986879D01*
X92599933Y-100987003D01*
X92678873Y-100987199D01*
X92746724Y-100987479D01*
X92804366Y-100987862D01*
X92852679Y-100988361D01*
X92892541Y-100988993D01*
X92924832Y-100989773D01*
X92950431Y-100990718D01*
X92970216Y-100991842D01*
X92985068Y-100993161D01*
X92995866Y-100994692D01*
X93003488Y-100996448D01*
X93008815Y-100998447D01*
X93012724Y-101000704D01*
X93016096Y-101003235D01*
X93037023Y-101019701D01*
X93037023Y-101439756D01*
X93037023Y-101859812D01*
X93019371Y-101872179D01*
X93014219Y-101875159D01*
X92987894Y-101882260D01*
X92951722Y-101884187D01*
X92909730Y-101880932D01*
X92865944Y-101872488D01*
X92798279Y-101849002D01*
X92730567Y-101812166D01*
X92672339Y-101765818D01*
X92640903Y-101732502D01*
X92603899Y-101680361D01*
X92578968Y-101623858D01*
X92564897Y-101559959D01*
X92560476Y-101485631D01*
X92560476Y-101415795D01*
X92095842Y-101415795D01*
X91631207Y-101415795D01*
X91631207Y-101673797D01*
X91631207Y-101931798D01*
X92181223Y-101933994D01*
X92222235Y-101934158D01*
X92323450Y-101934578D01*
X92410417Y-101934992D01*
X92484335Y-101935438D01*
X92546400Y-101935959D01*
X92597810Y-101936593D01*
X92639761Y-101937381D01*
X92673453Y-101938363D01*
X92700081Y-101939580D01*
X92720844Y-101941071D01*
X92736939Y-101942877D01*
X92749562Y-101945038D01*
X92759913Y-101947594D01*
X92769187Y-101950586D01*
X92778583Y-101954053D01*
X92796192Y-101961180D01*
X92861949Y-101996643D01*
X92921151Y-102042448D01*
X92970745Y-102095924D01*
X93007678Y-102154403D01*
X93033052Y-102205941D01*
X93035320Y-102498939D01*
X93035798Y-102562661D01*
X93036160Y-102629159D01*
X93036109Y-102682543D01*
X93035485Y-102724354D01*
X93034127Y-102756133D01*
X93031875Y-102779420D01*
X93028566Y-102795758D01*
X93024041Y-102806688D01*
X93018139Y-102813750D01*
X93010698Y-102818486D01*
X93001558Y-102822436D01*
X92996533Y-102823499D01*
X92976465Y-102825307D01*
X92944345Y-102826896D01*
X92902640Y-102828181D01*
X92853816Y-102829076D01*
X92800341Y-102829493D01*
X92742584Y-102829456D01*
X92688727Y-102828729D01*
X92647391Y-102827006D01*
X92616774Y-102824014D01*
X92595070Y-102819480D01*
X92580478Y-102813130D01*
X92571192Y-102804690D01*
X92565409Y-102793888D01*
X92564114Y-102782990D01*
X92562933Y-102758352D01*
X92561930Y-102722232D01*
X92561154Y-102676849D01*
X92560653Y-102624420D01*
X92560476Y-102567163D01*
X92560476Y-102353299D01*
X92026028Y-102353299D01*
X91920300Y-102353291D01*
X91824393Y-102353208D01*
X91741950Y-102352961D01*
X91671734Y-102352460D01*
X91612509Y-102351617D01*
X91563038Y-102350343D01*
X91522084Y-102348547D01*
X91488413Y-102346142D01*
X91460786Y-102343037D01*
X91437968Y-102339144D01*
X91418723Y-102334373D01*
X91401813Y-102328636D01*
X91386004Y-102321842D01*
X91370057Y-102313904D01*
X91352738Y-102304731D01*
X91323750Y-102287493D01*
X91273753Y-102249600D01*
X91229817Y-102206171D01*
X91196694Y-102161565D01*
X91192654Y-102154787D01*
X91183524Y-102138969D01*
X91175692Y-102123732D01*
X91169058Y-102107808D01*
X91163523Y-102089931D01*
X91158987Y-102068833D01*
X91155351Y-102043249D01*
X91152515Y-102011910D01*
X91150380Y-101973550D01*
X91148846Y-101926901D01*
X91147815Y-101870698D01*
X91147185Y-101803673D01*
X91146859Y-101724558D01*
X91146736Y-101632088D01*
X91146717Y-101524994D01*
X91146717Y-101025771D01*
X91166212Y-101006269D01*
X91185707Y-100986768D01*
X92090438Y-100986768D01*
X92155708Y-100986769D01*
G37*
G36*
X92081798Y-97595362D02*
G01*
X92218950Y-97595773D01*
X92905973Y-97598248D01*
X92951277Y-97620502D01*
X92972017Y-97631982D01*
X92998404Y-97650067D01*
X93016803Y-97666795D01*
X93037023Y-97690834D01*
X93037023Y-98735264D01*
X93037041Y-98862938D01*
X93037087Y-99002152D01*
X93037123Y-99126962D01*
X93037107Y-99238177D01*
X93037000Y-99336607D01*
X93036759Y-99423062D01*
X93036344Y-99498351D01*
X93035716Y-99563286D01*
X93034832Y-99618674D01*
X93033652Y-99665327D01*
X93032137Y-99704054D01*
X93030245Y-99735665D01*
X93027935Y-99760970D01*
X93025167Y-99780778D01*
X93021901Y-99795901D01*
X93018095Y-99807146D01*
X93013709Y-99815325D01*
X93008703Y-99821247D01*
X93003035Y-99825722D01*
X92996666Y-99829559D01*
X92989554Y-99833569D01*
X92981659Y-99838562D01*
X92975474Y-99842630D01*
X92945812Y-99858726D01*
X92916510Y-99870630D01*
X92914908Y-99871019D01*
X92908162Y-99871914D01*
X92896968Y-99872759D01*
X92880902Y-99873556D01*
X92859541Y-99874304D01*
X92832461Y-99875008D01*
X92799238Y-99875666D01*
X92759449Y-99876282D01*
X92712671Y-99876856D01*
X92658480Y-99877391D01*
X92596451Y-99877887D01*
X92526163Y-99878345D01*
X92447190Y-99878768D01*
X92359110Y-99879157D01*
X92261498Y-99879514D01*
X92153932Y-99879839D01*
X92035988Y-99880134D01*
X91907242Y-99880401D01*
X91767270Y-99880641D01*
X91615649Y-99880856D01*
X91451955Y-99881047D01*
X91275765Y-99881215D01*
X91086656Y-99881363D01*
X90884203Y-99881491D01*
X90667983Y-99881601D01*
X90437572Y-99881694D01*
X90192547Y-99881772D01*
X89932485Y-99881837D01*
X89656961Y-99881889D01*
X89444154Y-99881921D01*
X89184442Y-99881952D01*
X88939816Y-99881968D01*
X88709826Y-99881969D01*
X88494024Y-99881953D01*
X88291960Y-99881919D01*
X88103184Y-99881863D01*
X87927248Y-99881786D01*
X87763702Y-99881686D01*
X87612097Y-99881560D01*
X87471984Y-99881408D01*
X87342912Y-99881227D01*
X87224433Y-99881017D01*
X87116098Y-99880775D01*
X87017457Y-99880500D01*
X86928061Y-99880190D01*
X86847461Y-99879844D01*
X86775207Y-99879460D01*
X86710849Y-99879037D01*
X86653940Y-99878572D01*
X86604028Y-99878065D01*
X86560666Y-99877514D01*
X86523404Y-99876917D01*
X86491791Y-99876272D01*
X86465380Y-99875579D01*
X86443721Y-99874835D01*
X86426363Y-99874039D01*
X86412860Y-99873188D01*
X86402759Y-99872283D01*
X86395614Y-99871320D01*
X86390973Y-99870299D01*
X86374518Y-99864623D01*
X86330341Y-99841477D01*
X86292906Y-99810492D01*
X86266772Y-99775164D01*
X86264680Y-99771050D01*
X86261642Y-99764110D01*
X86259051Y-99755864D01*
X86256863Y-99745096D01*
X86255039Y-99730591D01*
X86253535Y-99711134D01*
X86252311Y-99685510D01*
X86251323Y-99652503D01*
X86250531Y-99610898D01*
X86249892Y-99559479D01*
X86249364Y-99497032D01*
X86248906Y-99422341D01*
X86248476Y-99334191D01*
X86248031Y-99231366D01*
X86245874Y-98719348D01*
X86266500Y-98677175D01*
X86269560Y-98671191D01*
X86299775Y-98630241D01*
X86341915Y-98598825D01*
X86396803Y-98576308D01*
X86398812Y-98575763D01*
X86404735Y-98574574D01*
X86412916Y-98573463D01*
X86423879Y-98572428D01*
X86438148Y-98571468D01*
X86456247Y-98570578D01*
X86478701Y-98569757D01*
X86506033Y-98569002D01*
X86538768Y-98568310D01*
X86577429Y-98567678D01*
X86622541Y-98567103D01*
X86674628Y-98566584D01*
X86734214Y-98566117D01*
X86801823Y-98565700D01*
X86877980Y-98565329D01*
X86963208Y-98565003D01*
X87058031Y-98564718D01*
X87162974Y-98564472D01*
X87278561Y-98564262D01*
X87405315Y-98564086D01*
X87543762Y-98563941D01*
X87694424Y-98563823D01*
X87857827Y-98563731D01*
X88034494Y-98563662D01*
X88224950Y-98563613D01*
X88429718Y-98563581D01*
X88649323Y-98563564D01*
X88884289Y-98563559D01*
X91328859Y-98563559D01*
X91331112Y-98143874D01*
X91333365Y-97724188D01*
X91355600Y-97690587D01*
X91361847Y-97681847D01*
X91397116Y-97646853D01*
X91441879Y-97619198D01*
X91491244Y-97602074D01*
X91504409Y-97600453D01*
X91530087Y-97598967D01*
X91568183Y-97597731D01*
X91619131Y-97596741D01*
X91683363Y-97595994D01*
X91761312Y-97595487D01*
X91853413Y-97595215D01*
X91960097Y-97595174D01*
X92081798Y-97595362D01*
G37*
G36*
X80373919Y-94194683D02*
G01*
X80535824Y-94194763D01*
X80710588Y-94194886D01*
X80898716Y-94195044D01*
X81100711Y-94195229D01*
X81317079Y-94195433D01*
X81548322Y-94195648D01*
X81794947Y-94195867D01*
X81952906Y-94196004D01*
X82187780Y-94196214D01*
X82407613Y-94196421D01*
X82612919Y-94196629D01*
X82804213Y-94196840D01*
X82982011Y-94197057D01*
X83146826Y-94197284D01*
X83299173Y-94197523D01*
X83439568Y-94197778D01*
X83568525Y-94198051D01*
X83686559Y-94198346D01*
X83794185Y-94198666D01*
X83891918Y-94199014D01*
X83980273Y-94199392D01*
X84059764Y-94199804D01*
X84130906Y-94200253D01*
X84194214Y-94200742D01*
X84250204Y-94201274D01*
X84299388Y-94201852D01*
X84342284Y-94202479D01*
X84379405Y-94203159D01*
X84411266Y-94203893D01*
X84438383Y-94204686D01*
X84461269Y-94205540D01*
X84480440Y-94206459D01*
X84496411Y-94207445D01*
X84509696Y-94208501D01*
X84520811Y-94209631D01*
X84530269Y-94210837D01*
X84538587Y-94212123D01*
X84685761Y-94241753D01*
X84840580Y-94285281D01*
X84985289Y-94340072D01*
X85120869Y-94406558D01*
X85248304Y-94485170D01*
X85368574Y-94576339D01*
X85393585Y-94597710D01*
X85489294Y-94690806D01*
X85570270Y-94789539D01*
X85636448Y-94893796D01*
X85687765Y-95003466D01*
X85724158Y-95118437D01*
X85745561Y-95238598D01*
X85746512Y-95251727D01*
X85747662Y-95281529D01*
X85748714Y-95324655D01*
X85749670Y-95379937D01*
X85750528Y-95446206D01*
X85751290Y-95522294D01*
X85751956Y-95607032D01*
X85752525Y-95699252D01*
X85752999Y-95797785D01*
X85753376Y-95901463D01*
X85753657Y-96009116D01*
X85753843Y-96119577D01*
X85753934Y-96231676D01*
X85753929Y-96344246D01*
X85753829Y-96456118D01*
X85753634Y-96566122D01*
X85753344Y-96673092D01*
X85752960Y-96775857D01*
X85752481Y-96873249D01*
X85751908Y-96964101D01*
X85751240Y-97047243D01*
X85750479Y-97121506D01*
X85749624Y-97185723D01*
X85748675Y-97238724D01*
X85747633Y-97279342D01*
X85746497Y-97306407D01*
X85745269Y-97318751D01*
X85737560Y-97339079D01*
X85711984Y-97376616D01*
X85674945Y-97409243D01*
X85629325Y-97434688D01*
X85578003Y-97450679D01*
X85576497Y-97450828D01*
X85561401Y-97451303D01*
X85531115Y-97451763D01*
X85486169Y-97452208D01*
X85427095Y-97452637D01*
X85354423Y-97453047D01*
X85268685Y-97453440D01*
X85170412Y-97453813D01*
X85060135Y-97454165D01*
X84938384Y-97454497D01*
X84805692Y-97454806D01*
X84662589Y-97455092D01*
X84509606Y-97455354D01*
X84347274Y-97455591D01*
X84176125Y-97455802D01*
X83996689Y-97455987D01*
X83809497Y-97456143D01*
X83615081Y-97456271D01*
X83413972Y-97456369D01*
X83206700Y-97456437D01*
X82993797Y-97456473D01*
X82775793Y-97456477D01*
X82553221Y-97456447D01*
X82326611Y-97456384D01*
X82193406Y-97456336D01*
X81931712Y-97456239D01*
X81685218Y-97456141D01*
X81453465Y-97456040D01*
X81235992Y-97455935D01*
X81032339Y-97455822D01*
X80842045Y-97455699D01*
X80664652Y-97455566D01*
X80499697Y-97455418D01*
X80346722Y-97455254D01*
X80205266Y-97455071D01*
X80074868Y-97454869D01*
X79955070Y-97454643D01*
X79845409Y-97454393D01*
X79745428Y-97454115D01*
X79654664Y-97453808D01*
X79572659Y-97453470D01*
X79498951Y-97453097D01*
X79433081Y-97452689D01*
X79374588Y-97452242D01*
X79323013Y-97451755D01*
X79277894Y-97451226D01*
X79238773Y-97450651D01*
X79205188Y-97450030D01*
X79176681Y-97449359D01*
X79152789Y-97448636D01*
X79133054Y-97447860D01*
X79117014Y-97447028D01*
X79104211Y-97446138D01*
X79094184Y-97445188D01*
X79086471Y-97444175D01*
X79080615Y-97443097D01*
X79076153Y-97441952D01*
X79072627Y-97440738D01*
X79056596Y-97433282D01*
X79026422Y-97415105D01*
X78999159Y-97394380D01*
X78962977Y-97362521D01*
X78962977Y-96795808D01*
X78962977Y-96229095D01*
X78999159Y-96197236D01*
X79014865Y-96184666D01*
X79044933Y-96164831D01*
X79072627Y-96150878D01*
X79073301Y-96150620D01*
X79077439Y-96149253D01*
X79082665Y-96147974D01*
X79089508Y-96146782D01*
X79098496Y-96145671D01*
X79110158Y-96144639D01*
X79125022Y-96143682D01*
X79143616Y-96142796D01*
X79166470Y-96141979D01*
X79194111Y-96141226D01*
X79227068Y-96140534D01*
X79265870Y-96139899D01*
X79311044Y-96139319D01*
X79363120Y-96138789D01*
X79422625Y-96138306D01*
X79490089Y-96137866D01*
X79566039Y-96137466D01*
X79651004Y-96137103D01*
X79745513Y-96136772D01*
X79850094Y-96136471D01*
X79965275Y-96136196D01*
X80091585Y-96135943D01*
X80229552Y-96135709D01*
X80379706Y-96135490D01*
X80542573Y-96135284D01*
X80718683Y-96135085D01*
X80908565Y-96134891D01*
X81112746Y-96134699D01*
X81331754Y-96134504D01*
X81566120Y-96134304D01*
X84022327Y-96132230D01*
X84022327Y-95822515D01*
X84022327Y-95512799D01*
X81558177Y-95510763D01*
X79094028Y-95508726D01*
X79048723Y-95486472D01*
X79027983Y-95474992D01*
X79001597Y-95456907D01*
X78983198Y-95440179D01*
X78962977Y-95416140D01*
X78962977Y-94856351D01*
X78962953Y-94760527D01*
X78962923Y-94663381D01*
X78962987Y-94580026D01*
X78963245Y-94509335D01*
X78963798Y-94450182D01*
X78964745Y-94401440D01*
X78966189Y-94361982D01*
X78968228Y-94330684D01*
X78970965Y-94306416D01*
X78974498Y-94288055D01*
X78978929Y-94274472D01*
X78984358Y-94264542D01*
X78990886Y-94257137D01*
X78998612Y-94251132D01*
X79007638Y-94245400D01*
X79018065Y-94238815D01*
X79020526Y-94237133D01*
X79025859Y-94233114D01*
X79030436Y-94229348D01*
X79034760Y-94225827D01*
X79039336Y-94222544D01*
X79044667Y-94219491D01*
X79051259Y-94216660D01*
X79059615Y-94214043D01*
X79070241Y-94211633D01*
X79083639Y-94209421D01*
X79100315Y-94207400D01*
X79120772Y-94205562D01*
X79145516Y-94203899D01*
X79175050Y-94202404D01*
X79209879Y-94201068D01*
X79250506Y-94199884D01*
X79297437Y-94198845D01*
X79351175Y-94197941D01*
X79412225Y-94197166D01*
X79481092Y-94196512D01*
X79558278Y-94195970D01*
X79644290Y-94195533D01*
X79739631Y-94195194D01*
X79844804Y-94194944D01*
X79960316Y-94194776D01*
X80086669Y-94194681D01*
X80224369Y-94194653D01*
X80373919Y-94194683D01*
G37*
G36*
X87850312Y-94195031D02*
G01*
X88023818Y-94195097D01*
X88210699Y-94195195D01*
X88411457Y-94195323D01*
X88626594Y-94195479D01*
X88856613Y-94195661D01*
X89102014Y-94195867D01*
X89259972Y-94196004D01*
X89494847Y-94196214D01*
X89714680Y-94196421D01*
X89919986Y-94196629D01*
X90111280Y-94196840D01*
X90289078Y-94197057D01*
X90453892Y-94197284D01*
X90606240Y-94197523D01*
X90746635Y-94197778D01*
X90875592Y-94198051D01*
X90993626Y-94198346D01*
X91101252Y-94198666D01*
X91198985Y-94199014D01*
X91287340Y-94199392D01*
X91366831Y-94199804D01*
X91437973Y-94200253D01*
X91501281Y-94200742D01*
X91557270Y-94201274D01*
X91606455Y-94201852D01*
X91649351Y-94202479D01*
X91686472Y-94203159D01*
X91718333Y-94203893D01*
X91745450Y-94204686D01*
X91768336Y-94205540D01*
X91787507Y-94206459D01*
X91803478Y-94207445D01*
X91816763Y-94208501D01*
X91827878Y-94209631D01*
X91837336Y-94210837D01*
X91845654Y-94212123D01*
X92000211Y-94243443D01*
X92149589Y-94285784D01*
X92289199Y-94338713D01*
X92420573Y-94402814D01*
X92545246Y-94478670D01*
X92633598Y-94542407D01*
X92737816Y-94631666D01*
X92827642Y-94726770D01*
X92903464Y-94828192D01*
X92965672Y-94936408D01*
X93014653Y-95051892D01*
X93033052Y-95103534D01*
X93035144Y-96232682D01*
X93037235Y-97361830D01*
X93004483Y-97391430D01*
X92982264Y-97409574D01*
X92936856Y-97435160D01*
X92882886Y-97451052D01*
X92881063Y-97451214D01*
X92865381Y-97451660D01*
X92834540Y-97452092D01*
X92789076Y-97452510D01*
X92729525Y-97452912D01*
X92656422Y-97453297D01*
X92570303Y-97453664D01*
X92471702Y-97454013D01*
X92361156Y-97454343D01*
X92239201Y-97454653D01*
X92106371Y-97454942D01*
X91963202Y-97455209D01*
X91810230Y-97455453D01*
X91647990Y-97455673D01*
X91477017Y-97455869D01*
X91297849Y-97456040D01*
X91111018Y-97456184D01*
X90917063Y-97456301D01*
X90716517Y-97456390D01*
X90509916Y-97456450D01*
X90297796Y-97456480D01*
X90080693Y-97456480D01*
X89859142Y-97456448D01*
X89633678Y-97456384D01*
X89367329Y-97456288D01*
X89113478Y-97456192D01*
X88874596Y-97456095D01*
X88650220Y-97455996D01*
X88439890Y-97455891D01*
X88243145Y-97455778D01*
X88059523Y-97455655D01*
X87888565Y-97455520D01*
X87729808Y-97455371D01*
X87582792Y-97455204D01*
X87447055Y-97455018D01*
X87322138Y-97454811D01*
X87207578Y-97454580D01*
X87102914Y-97454323D01*
X87007687Y-97454037D01*
X86921434Y-97453721D01*
X86843695Y-97453372D01*
X86774009Y-97452988D01*
X86711914Y-97452566D01*
X86656950Y-97452104D01*
X86608656Y-97451600D01*
X86566570Y-97451051D01*
X86530232Y-97450456D01*
X86499181Y-97449812D01*
X86472955Y-97449116D01*
X86451094Y-97448367D01*
X86433137Y-97447562D01*
X86418622Y-97446698D01*
X86407090Y-97445774D01*
X86398077Y-97444787D01*
X86391124Y-97443735D01*
X86385770Y-97442616D01*
X86381554Y-97441427D01*
X86378014Y-97440166D01*
X86362804Y-97433307D01*
X86327350Y-97410617D01*
X86294909Y-97381608D01*
X86269463Y-97350165D01*
X86254997Y-97320175D01*
X86253863Y-97313076D01*
X86252147Y-97289560D01*
X86250639Y-97252892D01*
X86249342Y-97204780D01*
X86248253Y-97146931D01*
X86247374Y-97081056D01*
X86246705Y-97008861D01*
X86246244Y-96932055D01*
X86245993Y-96852347D01*
X86245952Y-96771444D01*
X86246119Y-96691055D01*
X86246496Y-96612889D01*
X86247083Y-96538653D01*
X86247878Y-96470055D01*
X86248883Y-96408805D01*
X86250098Y-96356610D01*
X86251521Y-96315179D01*
X86253154Y-96286220D01*
X86254997Y-96271441D01*
X86259628Y-96258946D01*
X86279314Y-96227853D01*
X86308262Y-96196983D01*
X86342490Y-96170220D01*
X86378014Y-96151450D01*
X86380463Y-96150544D01*
X86384882Y-96149166D01*
X86390360Y-96147878D01*
X86397426Y-96146678D01*
X86406609Y-96145562D01*
X86418439Y-96144526D01*
X86433445Y-96143567D01*
X86452158Y-96142681D01*
X86475105Y-96141864D01*
X86502818Y-96141113D01*
X86535826Y-96140425D01*
X86574657Y-96139794D01*
X86619842Y-96139219D01*
X86671910Y-96138695D01*
X86731391Y-96138218D01*
X86798814Y-96137785D01*
X86874708Y-96137393D01*
X86959604Y-96137037D01*
X87054030Y-96136715D01*
X87158516Y-96136421D01*
X87273593Y-96136154D01*
X87399788Y-96135908D01*
X87537632Y-96135681D01*
X87687655Y-96135469D01*
X87850385Y-96135268D01*
X88026353Y-96135075D01*
X88216087Y-96134885D01*
X88420118Y-96134696D01*
X88638975Y-96134503D01*
X88873187Y-96134304D01*
X91329394Y-96132230D01*
X91329394Y-95822464D01*
X91329394Y-95512699D01*
X88880585Y-95512699D01*
X88838162Y-95512699D01*
X88604248Y-95512711D01*
X88385603Y-95512734D01*
X88181701Y-95512757D01*
X87992017Y-95512769D01*
X87816027Y-95512761D01*
X87653206Y-95512723D01*
X87503029Y-95512644D01*
X87364971Y-95512514D01*
X87238506Y-95512322D01*
X87123111Y-95512060D01*
X87018260Y-95511716D01*
X86923428Y-95511280D01*
X86838090Y-95510741D01*
X86761721Y-95510091D01*
X86693798Y-95509319D01*
X86633793Y-95508413D01*
X86581183Y-95507365D01*
X86535443Y-95506164D01*
X86496048Y-95504800D01*
X86462473Y-95503262D01*
X86434192Y-95501540D01*
X86410682Y-95499625D01*
X86391417Y-95497505D01*
X86375872Y-95495171D01*
X86363522Y-95492613D01*
X86353842Y-95489820D01*
X86346308Y-95486782D01*
X86340395Y-95483489D01*
X86335577Y-95479930D01*
X86331330Y-95476096D01*
X86327128Y-95471977D01*
X86322448Y-95467561D01*
X86316763Y-95462839D01*
X86306519Y-95454185D01*
X86283520Y-95429754D01*
X86266772Y-95405442D01*
X86264680Y-95401328D01*
X86261642Y-95394388D01*
X86259051Y-95386142D01*
X86256863Y-95375374D01*
X86255039Y-95360870D01*
X86253535Y-95341413D01*
X86252311Y-95315788D01*
X86251323Y-95282781D01*
X86250531Y-95241176D01*
X86249892Y-95189758D01*
X86249364Y-95127311D01*
X86248906Y-95052619D01*
X86248476Y-94964469D01*
X86248031Y-94861644D01*
X86245874Y-94349627D01*
X86266500Y-94307454D01*
X86269939Y-94300764D01*
X86300432Y-94259876D01*
X86342896Y-94228576D01*
X86398072Y-94206292D01*
X86401134Y-94205518D01*
X86407382Y-94204396D01*
X86415961Y-94203349D01*
X86427375Y-94202374D01*
X86442125Y-94201469D01*
X86460713Y-94200634D01*
X86483641Y-94199864D01*
X86511410Y-94199159D01*
X86544524Y-94198517D01*
X86583483Y-94197936D01*
X86628790Y-94197414D01*
X86680947Y-94196948D01*
X86740455Y-94196538D01*
X86807817Y-94196180D01*
X86883535Y-94195874D01*
X86968110Y-94195617D01*
X87062045Y-94195407D01*
X87165841Y-94195242D01*
X87280001Y-94195121D01*
X87405026Y-94195041D01*
X87541418Y-94195001D01*
X87689679Y-94194998D01*
X87850312Y-94195031D01*
G37*
G36*
X85750541Y-99296648D02*
G01*
X85750139Y-99381824D01*
X85750065Y-99393806D01*
X85749684Y-99455749D01*
X85749163Y-99519269D01*
X85748561Y-99573230D01*
X85747864Y-99618478D01*
X85747312Y-99644072D01*
X85747058Y-99655860D01*
X85746128Y-99686221D01*
X85745061Y-99710408D01*
X85743842Y-99729266D01*
X85742457Y-99743643D01*
X85740891Y-99754385D01*
X85739131Y-99762337D01*
X85737162Y-99768345D01*
X85734971Y-99773256D01*
X85727958Y-99785396D01*
X85699173Y-99818321D01*
X85660286Y-99846957D01*
X85615557Y-99867925D01*
X85614937Y-99868135D01*
X85610873Y-99869293D01*
X85605584Y-99870383D01*
X85598612Y-99871408D01*
X85589499Y-99872370D01*
X85577786Y-99873269D01*
X85563017Y-99874107D01*
X85544732Y-99874888D01*
X85522473Y-99875611D01*
X85495782Y-99876279D01*
X85464202Y-99876893D01*
X85427273Y-99877456D01*
X85384539Y-99877968D01*
X85335540Y-99878432D01*
X85279819Y-99878850D01*
X85216917Y-99879222D01*
X85146377Y-99879552D01*
X85067739Y-99879840D01*
X84980547Y-99880087D01*
X84884342Y-99880297D01*
X84778666Y-99880471D01*
X84663061Y-99880610D01*
X84537068Y-99880716D01*
X84400229Y-99880790D01*
X84252087Y-99880835D01*
X84092183Y-99880853D01*
X83920060Y-99880844D01*
X83735258Y-99880811D01*
X83537320Y-99880755D01*
X83325788Y-99880678D01*
X83100203Y-99880582D01*
X82860108Y-99880468D01*
X82605044Y-99880339D01*
X82334553Y-99880195D01*
X79094028Y-99878448D01*
X79058258Y-99861884D01*
X79048699Y-99857031D01*
X79018884Y-99838208D01*
X78992733Y-99817249D01*
X78962977Y-99789177D01*
X78962977Y-99580512D01*
X79090057Y-99580512D01*
X79090057Y-99644072D01*
X79090057Y-99707632D01*
X79471295Y-99707632D01*
X79852533Y-99707632D01*
X79852533Y-99584485D01*
X79852533Y-99580512D01*
X80011382Y-99580512D01*
X80011382Y-99644072D01*
X80011382Y-99707632D01*
X80086836Y-99707632D01*
X80162289Y-99707632D01*
X80162289Y-99644072D01*
X80162289Y-99580512D01*
X80086836Y-99580512D01*
X80011382Y-99580512D01*
X79852533Y-99580512D01*
X79852533Y-99461338D01*
X80162289Y-99461338D01*
X80162289Y-99520925D01*
X80162289Y-99580512D01*
X80241714Y-99580512D01*
X80321139Y-99580512D01*
X80321139Y-99520925D01*
X80321139Y-99461338D01*
X80241714Y-99461338D01*
X80162289Y-99461338D01*
X79852533Y-99461338D01*
X79777080Y-99461338D01*
X79701626Y-99461338D01*
X79701626Y-99520925D01*
X79701626Y-99580512D01*
X79395842Y-99580512D01*
X79090057Y-99580512D01*
X78962977Y-99580512D01*
X78962977Y-99397779D01*
X79550720Y-99397779D01*
X79550720Y-99461338D01*
X79626173Y-99461338D01*
X79701626Y-99461338D01*
X79701626Y-99397779D01*
X79701626Y-99334219D01*
X79626173Y-99334219D01*
X79550720Y-99334219D01*
X79550720Y-99397779D01*
X78962977Y-99397779D01*
X78962977Y-99270659D01*
X79399813Y-99270659D01*
X79399813Y-99334219D01*
X79475266Y-99334219D01*
X79550720Y-99334219D01*
X79550720Y-99270659D01*
X79550720Y-99207100D01*
X79475266Y-99207100D01*
X79399813Y-99207100D01*
X79399813Y-99270659D01*
X78962977Y-99270659D01*
X78962977Y-99227731D01*
X78962957Y-99147513D01*
X79240963Y-99147513D01*
X79240963Y-99207100D01*
X79320388Y-99207100D01*
X79399813Y-99207100D01*
X79399813Y-99147513D01*
X79399813Y-99087926D01*
X79320388Y-99087926D01*
X79240963Y-99087926D01*
X79240963Y-99147513D01*
X78962957Y-99147513D01*
X78962953Y-99129872D01*
X78962924Y-99032820D01*
X78962981Y-98960806D01*
X79090057Y-98960806D01*
X79090057Y-99024366D01*
X79090057Y-99087926D01*
X79165510Y-99087926D01*
X79240963Y-99087926D01*
X79240963Y-99024366D01*
X79240963Y-98960806D01*
X79471295Y-98960806D01*
X79701626Y-98960806D01*
X79701626Y-99024366D01*
X79701626Y-99087926D01*
X79777080Y-99087926D01*
X79852533Y-99087926D01*
X79852533Y-99024366D01*
X79852533Y-98960806D01*
X79777080Y-98960806D01*
X79701626Y-98960806D01*
X79701626Y-98901219D01*
X79701626Y-98841632D01*
X80011382Y-98841632D01*
X80011382Y-98901219D01*
X80011382Y-98960806D01*
X80086502Y-98960806D01*
X80161621Y-98960806D01*
X80163941Y-99022380D01*
X80166261Y-99083953D01*
X80243700Y-99086227D01*
X80321139Y-99088501D01*
X80321139Y-99147800D01*
X80321139Y-99207100D01*
X80396592Y-99207100D01*
X80472045Y-99207100D01*
X80472045Y-99270659D01*
X80472045Y-99334219D01*
X80396592Y-99334219D01*
X80321139Y-99334219D01*
X80321139Y-99397779D01*
X80321139Y-99461338D01*
X80396592Y-99461338D01*
X80472045Y-99461338D01*
X80472045Y-99397779D01*
X80472045Y-99334219D01*
X80547352Y-99334219D01*
X80622659Y-99334219D01*
X80623393Y-99397779D01*
X80624791Y-99518939D01*
X80624814Y-99520925D01*
X80626235Y-99644072D01*
X80626923Y-99703659D01*
X80698791Y-99705922D01*
X80714441Y-99706279D01*
X80744398Y-99706121D01*
X80766296Y-99704843D01*
X80776230Y-99702612D01*
X80776777Y-99700003D01*
X80777800Y-99683650D01*
X80778747Y-99653638D01*
X80779602Y-99611443D01*
X80780035Y-99580512D01*
X80940651Y-99580512D01*
X80940651Y-99644072D01*
X80940651Y-99707632D01*
X81016104Y-99707632D01*
X81091558Y-99707632D01*
X81091558Y-99644072D01*
X81091558Y-99580512D01*
X81016104Y-99580512D01*
X80940651Y-99580512D01*
X80780035Y-99580512D01*
X80780343Y-99558539D01*
X80780953Y-99496401D01*
X80781412Y-99426504D01*
X80781701Y-99350324D01*
X80781721Y-99334219D01*
X80940651Y-99334219D01*
X80940651Y-99393806D01*
X80940651Y-99453393D01*
X81016104Y-99453393D01*
X81091558Y-99453393D01*
X81091558Y-99393806D01*
X81091558Y-99334219D01*
X81016104Y-99334219D01*
X80940651Y-99334219D01*
X80781721Y-99334219D01*
X80781801Y-99269335D01*
X80781801Y-98841632D01*
X80702377Y-98841632D01*
X80622952Y-98841632D01*
X80622952Y-99024366D01*
X80622952Y-99207100D01*
X80547499Y-99207100D01*
X80472045Y-99207100D01*
X80472045Y-99147513D01*
X80472045Y-99087926D01*
X80396592Y-99087926D01*
X80321139Y-99087926D01*
X80321139Y-99024366D01*
X80321139Y-98960806D01*
X80241714Y-98960806D01*
X80162289Y-98960806D01*
X80162289Y-98901219D01*
X80162289Y-98841632D01*
X80086836Y-98841632D01*
X80011382Y-98841632D01*
X79701626Y-98841632D01*
X79471295Y-98841632D01*
X79240963Y-98841632D01*
X79240963Y-98901219D01*
X79240963Y-98960806D01*
X79165510Y-98960806D01*
X79090057Y-98960806D01*
X78962981Y-98960806D01*
X78962990Y-98949541D01*
X78963251Y-98878912D01*
X78963806Y-98819807D01*
X78964755Y-98771103D01*
X78966197Y-98731676D01*
X78968232Y-98700399D01*
X78970960Y-98676150D01*
X78974480Y-98657803D01*
X78978891Y-98644234D01*
X78984295Y-98634319D01*
X78990789Y-98626933D01*
X78998474Y-98620951D01*
X79007449Y-98615249D01*
X79017814Y-98608703D01*
X79023541Y-98604651D01*
X79028660Y-98600634D01*
X79033327Y-98596887D01*
X79038070Y-98593399D01*
X79043415Y-98590162D01*
X79049889Y-98587166D01*
X79058020Y-98584403D01*
X79068335Y-98581862D01*
X79081360Y-98579535D01*
X79097622Y-98577412D01*
X79117648Y-98575483D01*
X79141966Y-98573741D01*
X79171102Y-98572175D01*
X79205584Y-98570775D01*
X79245937Y-98569534D01*
X79292690Y-98568441D01*
X79346370Y-98567487D01*
X79407502Y-98566662D01*
X79476615Y-98565959D01*
X79554234Y-98565366D01*
X79640888Y-98564876D01*
X79737104Y-98564478D01*
X79843407Y-98564164D01*
X79960325Y-98563923D01*
X80088386Y-98563748D01*
X80228115Y-98563628D01*
X80380041Y-98563554D01*
X80544689Y-98563516D01*
X80722588Y-98563507D01*
X80914263Y-98563516D01*
X81120243Y-98563534D01*
X81341054Y-98563551D01*
X81577222Y-98563559D01*
X84021792Y-98563559D01*
X84024045Y-98143874D01*
X84026298Y-97724188D01*
X84048533Y-97690587D01*
X84054780Y-97681847D01*
X84090049Y-97646853D01*
X84134813Y-97619198D01*
X84184177Y-97602074D01*
X84197342Y-97600453D01*
X84223020Y-97598967D01*
X84261116Y-97597731D01*
X84312064Y-97596741D01*
X84376296Y-97595994D01*
X84454245Y-97595487D01*
X84546346Y-97595215D01*
X84653030Y-97595174D01*
X84774731Y-97595362D01*
X84911883Y-97595773D01*
X85598906Y-97598248D01*
X85644413Y-97620601D01*
X85691144Y-97650642D01*
X85725208Y-97688271D01*
X85745323Y-97732170D01*
X85746634Y-97741041D01*
X85747924Y-97760037D01*
X85749049Y-97789195D01*
X85750015Y-97829036D01*
X85750824Y-97880080D01*
X85751480Y-97942848D01*
X85751987Y-98017861D01*
X85752347Y-98105640D01*
X85752565Y-98206705D01*
X85752643Y-98321576D01*
X85752585Y-98450775D01*
X85752395Y-98594822D01*
X85752075Y-98754238D01*
X85751909Y-98826506D01*
X85751574Y-98965149D01*
X85751244Y-99089157D01*
X85750905Y-99199374D01*
X85750643Y-99269335D01*
X85750541Y-99296648D01*
G37*
%TD*%
M02*
